solid OpenSCAD_Model
  facet normal 0.471293 0.866902 0.162367
    outer loop
      vertex 10.5 24.3827 190.2
      vertex 4.1411 21.2844 225.2
      vertex 8 19.1865 225.2
    endloop
  endfacet
  facet normal -0.84934 -0.506894 0.147241
    outer loop
      vertex -11.3137 -13.8492 225.2
      vertex -18.1865 -12.5 190.2
      vertex -14.8492 -18.0919 190.2
    endloop
  endfacet
  facet normal 0.463893 0.871066 0.161391
    outer loop
      vertex 5.4352 27.08 190.2
      vertex 4.1411 21.2844 225.2
      vertex 10.5 24.3827 190.2
    endloop
  endfacet
  facet normal 0.85373 0.499121 0.148403
    outer loop
      vertex 18.1865 14.5 190.2
      vertex 11.3137 15.8492 225.2
      vertex 13.8564 11.5 225.2
    endloop
  endfacet
  facet normal -0.942101 0.303512 0.142569
    outer loop
      vertex -18.1865 14.5 190.2
      vertex -20.2844 7.98811 190.2
      vertex -13.8564 11.5 225.2
    endloop
  endfacet
  facet normal -0.471293 -0.866902 0.162367
    outer loop
      vertex -8 -17.1865 225.2
      vertex -10.5 -22.3827 190.2
      vertex -4.1411 -19.2844 225.2
    endloop
  endfacet
  facet normal -0.463893 -0.871066 0.161391
    outer loop
      vertex -4.1411 -19.2844 225.2
      vertex -10.5 -22.3827 190.2
      vertex -5.4352 -25.08 190.2
    endloop
  endfacet
  facet normal -0.985105 -0.0988149 0.140729
    outer loop
      vertex -16 1 225.2
      vertex -21 1 190.2
      vertex -15.4548 -4.4352 225.2
    endloop
  endfacet
  facet normal -0.984946 0.100861 0.140386
    outer loop
      vertex -20.2844 7.98811 190.2
      vertex -21 1 190.2
      vertex -15.4548 6.4352 225.2
    endloop
  endfacet
  facet normal 0.984946 0.100861 0.140386
    outer loop
      vertex 20.2844 7.98811 190.2
      vertex 15.4548 6.4352 225.2
      vertex 21 1 190.2
    endloop
  endfacet
  facet normal 0.471293 -0.866902 0.162367
    outer loop
      vertex 8 -17.1865 225.2
      vertex 4.1411 -19.2844 225.2
      vertex 10.5 -22.3827 190.2
    endloop
  endfacet
  facet normal -0.164559 -0.972186 0.16666
    outer loop
      vertex 0 -20 225.2
      vertex -5.4352 -25.08 190.2
      vertex 0 -26 190.2
    endloop
  endfacet
  facet normal -0.693934 -0.703379 0.153992
    outer loop
      vertex -8 -17.1865 225.2
      vertex -14.8492 -18.0919 190.2
      vertex -10.5 -22.3827 190.2
    endloop
  endfacet
  facet normal -0.167887 0.971544 0.167084
    outer loop
      vertex 0 22 225.2
      vertex -5.4352 27.08 190.2
      vertex -4.1411 21.2844 225.2
    endloop
  endfacet
  facet normal 0.693934 -0.703379 0.153992
    outer loop
      vertex 14.8492 -18.0919 190.2
      vertex 8 -17.1865 225.2
      vertex 10.5 -22.3827 190.2
    endloop
  endfacet
  facet normal -0.701014 -0.696057 0.155188
    outer loop
      vertex -11.3137 -13.8492 225.2
      vertex -14.8492 -18.0919 190.2
      vertex -8 -17.1865 225.2
    endloop
  endfacet
  facet normal -0.471293 0.866902 0.162367
    outer loop
      vertex -4.1411 21.2844 225.2
      vertex -10.5 24.3827 190.2
      vertex -8 19.1865 225.2
    endloop
  endfacet
  facet normal -0.85373 -0.499121 0.148403
    outer loop
      vertex -13.8564 -9.5 225.2
      vertex -18.1865 -12.5 190.2
      vertex -11.3137 -13.8492 225.2
    endloop
  endfacet
  facet normal -0.85373 0.499121 0.148403
    outer loop
      vertex -11.3137 15.8492 225.2
      vertex -18.1865 14.5 190.2
      vertex -13.8564 11.5 225.2
    endloop
  endfacet
  facet normal -0.943775 0.297846 0.143445
    outer loop
      vertex -13.8564 11.5 225.2
      vertex -20.2844 7.98811 190.2
      vertex -15.4548 6.4352 225.2
    endloop
  endfacet
  facet normal 0.985105 -0.0988149 0.140729
    outer loop
      vertex 16 1 225.2
      vertex 15.4548 -4.4352 225.2
      vertex 21 1 190.2
    endloop
  endfacet
  facet normal 0.164559 -0.972186 0.16666
    outer loop
      vertex 0 -20 225.2
      vertex 0 -26 190.2
      vertex 5.4352 -25.08 190.2
    endloop
  endfacet
  facet normal -0.84934 0.506894 0.147241
    outer loop
      vertex -14.8492 20.0919 190.2
      vertex -18.1865 14.5 190.2
      vertex -11.3137 15.8492 225.2
    endloop
  endfacet
  facet normal -0.463893 0.871066 0.161391
    outer loop
      vertex -5.4352 27.08 190.2
      vertex -10.5 24.3827 190.2
      vertex -4.1411 21.2844 225.2
    endloop
  endfacet
  facet normal 0.985105 0.0988149 0.140729
    outer loop
      vertex 21 1 190.2
      vertex 15.4548 6.4352 225.2
      vertex 16 1 225.2
    endloop
  endfacet
  facet normal 0.167887 -0.971544 0.167084
    outer loop
      vertex 4.1411 -19.2844 225.2
      vertex 0 -20 225.2
      vertex 5.4352 -25.08 190.2
    endloop
  endfacet
  facet normal 0.85373 -0.499121 0.148403
    outer loop
      vertex 13.8564 -9.5 225.2
      vertex 11.3137 -13.8492 225.2
      vertex 18.1865 -12.5 190.2
    endloop
  endfacet
  facet normal -0.985105 0.0988149 0.140729
    outer loop
      vertex -15.4548 6.4352 225.2
      vertex -21 1 190.2
      vertex -16 1 225.2
    endloop
  endfacet
  facet normal 0.463893 -0.871066 0.161391
    outer loop
      vertex 10.5 -22.3827 190.2
      vertex 4.1411 -19.2844 225.2
      vertex 5.4352 -25.08 190.2
    endloop
  endfacet
  facet normal -0.984946 -0.100861 0.140386
    outer loop
      vertex -15.4548 -4.4352 225.2
      vertex -21 1 190.2
      vertex -20.2844 -5.98811 190.2
    endloop
  endfacet
  facet normal 0.701014 -0.696057 0.155188
    outer loop
      vertex 11.3137 -13.8492 225.2
      vertex 8 -17.1865 225.2
      vertex 14.8492 -18.0919 190.2
    endloop
  endfacet
  facet normal 0.943775 -0.297846 0.143445
    outer loop
      vertex 15.4548 -4.4352 225.2
      vertex 13.8564 -9.5 225.2
      vertex 20.2844 -5.98811 190.2
    endloop
  endfacet
  facet normal 0.167887 0.971544 0.167084
    outer loop
      vertex 5.4352 27.08 190.2
      vertex 0 22 225.2
      vertex 4.1411 21.2844 225.2
    endloop
  endfacet
  facet normal 0.942101 -0.303512 0.142569
    outer loop
      vertex 20.2844 -5.98811 190.2
      vertex 13.8564 -9.5 225.2
      vertex 18.1865 -12.5 190.2
    endloop
  endfacet
  facet normal 0.984946 -0.100861 0.140386
    outer loop
      vertex 21 1 190.2
      vertex 15.4548 -4.4352 225.2
      vertex 20.2844 -5.98811 190.2
    endloop
  endfacet
  facet normal 0.942101 0.303512 0.142569
    outer loop
      vertex 18.1865 14.5 190.2
      vertex 13.8564 11.5 225.2
      vertex 20.2844 7.98811 190.2
    endloop
  endfacet
  facet normal 0.84934 0.506894 0.147241
    outer loop
      vertex 14.8492 20.0919 190.2
      vertex 11.3137 15.8492 225.2
      vertex 18.1865 14.5 190.2
    endloop
  endfacet
  facet normal 0 0 1
    outer loop
      vertex -16 1 225.2
      vertex 16 1 225.2
      vertex 15.4548 6.4352 225.2
    endloop
  endfacet
  facet normal 0 0 1
    outer loop
      vertex -15.4548 6.4352 225.2
      vertex 15.4548 6.4352 225.2
      vertex 13.8564 11.5 225.2
    endloop
  endfacet
  facet normal 0 0 1
    outer loop
      vertex 16 1 225.2
      vertex -16 1 225.2
      vertex 15.4548 -4.4352 225.2
    endloop
  endfacet
  facet normal 0 0 1
    outer loop
      vertex -13.8564 11.5 225.2
      vertex 13.8564 11.5 225.2
      vertex 11.3137 15.8492 225.2
    endloop
  endfacet
  facet normal 0 -0 1
    outer loop
      vertex -15.4548 -4.4352 225.2
      vertex 15.4548 -4.4352 225.2
      vertex -16 1 225.2
    endloop
  endfacet
  facet normal 0 0 1
    outer loop
      vertex -11.3137 15.8492 225.2
      vertex 11.3137 15.8492 225.2
      vertex 8 19.1865 225.2
    endloop
  endfacet
  facet normal 0 0 1
    outer loop
      vertex 15.4548 -4.4352 225.2
      vertex -15.4548 -4.4352 225.2
      vertex 13.8564 -9.5 225.2
    endloop
  endfacet
  facet normal 0 0 1
    outer loop
      vertex -8 19.1865 225.2
      vertex 8 19.1865 225.2
      vertex 4.1411 21.2844 225.2
    endloop
  endfacet
  facet normal 0 -0 1
    outer loop
      vertex -13.8564 -9.5 225.2
      vertex 13.8564 -9.5 225.2
      vertex -15.4548 -4.4352 225.2
    endloop
  endfacet
  facet normal 0 0 1
    outer loop
      vertex -4.1411 21.2844 225.2
      vertex 4.1411 21.2844 225.2
      vertex 0 22 225.2
    endloop
  endfacet
  facet normal 0 0 1
    outer loop
      vertex 13.8564 -9.5 225.2
      vertex -13.8564 -9.5 225.2
      vertex 11.3137 -13.8492 225.2
    endloop
  endfacet
  facet normal 0 0 1
    outer loop
      vertex 4.1411 21.2844 225.2
      vertex -4.1411 21.2844 225.2
      vertex -8 19.1865 225.2
    endloop
  endfacet
  facet normal 0 -0 1
    outer loop
      vertex -11.3137 -13.8492 225.2
      vertex 11.3137 -13.8492 225.2
      vertex -13.8564 -9.5 225.2
    endloop
  endfacet
  facet normal 0 0 1
    outer loop
      vertex 8 19.1865 225.2
      vertex -8 19.1865 225.2
      vertex -11.3137 15.8492 225.2
    endloop
  endfacet
  facet normal 0 0 1
    outer loop
      vertex 11.3137 -13.8492 225.2
      vertex -11.3137 -13.8492 225.2
      vertex 8 -17.1865 225.2
    endloop
  endfacet
  facet normal 0 0 1
    outer loop
      vertex 11.3137 15.8492 225.2
      vertex -11.3137 15.8492 225.2
      vertex -13.8564 11.5 225.2
    endloop
  endfacet
  facet normal 0 0 1
    outer loop
      vertex 15.4548 6.4352 225.2
      vertex -15.4548 6.4352 225.2
      vertex -16 1 225.2
    endloop
  endfacet
  facet normal 0 0 1
    outer loop
      vertex 13.8564 11.5 225.2
      vertex -13.8564 11.5 225.2
      vertex -15.4548 6.4352 225.2
    endloop
  endfacet
  facet normal 0 -0 1
    outer loop
      vertex -8 -17.1865 225.2
      vertex 8 -17.1865 225.2
      vertex -11.3137 -13.8492 225.2
    endloop
  endfacet
  facet normal 0 0 1
    outer loop
      vertex 8 -17.1865 225.2
      vertex -8 -17.1865 225.2
      vertex 4.1411 -19.2844 225.2
    endloop
  endfacet
  facet normal 0 0 1
    outer loop
      vertex 4.1411 -19.2844 225.2
      vertex -4.1411 -19.2844 225.2
      vertex 0 -20 225.2
    endloop
  endfacet
  facet normal 0 -0 1
    outer loop
      vertex -4.1411 -19.2844 225.2
      vertex 4.1411 -19.2844 225.2
      vertex -8 -17.1865 225.2
    endloop
  endfacet
  facet normal -0.167887 -0.971544 0.167084
    outer loop
      vertex -4.1411 -19.2844 225.2
      vertex -5.4352 -25.08 190.2
      vertex 0 -20 225.2
    endloop
  endfacet
  facet normal -0.693934 0.703379 0.153992
    outer loop
      vertex -10.5 24.3827 190.2
      vertex -14.8492 20.0919 190.2
      vertex -8 19.1865 225.2
    endloop
  endfacet
  facet normal -0.701014 0.696057 0.155188
    outer loop
      vertex -8 19.1865 225.2
      vertex -14.8492 20.0919 190.2
      vertex -11.3137 15.8492 225.2
    endloop
  endfacet
  facet normal 0.943775 0.297846 0.143445
    outer loop
      vertex 20.2844 7.98811 190.2
      vertex 13.8564 11.5 225.2
      vertex 15.4548 6.4352 225.2
    endloop
  endfacet
  facet normal -0.942101 -0.303512 0.142569
    outer loop
      vertex -13.8564 -9.5 225.2
      vertex -20.2844 -5.98811 190.2
      vertex -18.1865 -12.5 190.2
    endloop
  endfacet
  facet normal -0.943775 -0.297846 0.143445
    outer loop
      vertex -15.4548 -4.4352 225.2
      vertex -20.2844 -5.98811 190.2
      vertex -13.8564 -9.5 225.2
    endloop
  endfacet
  facet normal -0.164559 0.972186 0.16666
    outer loop
      vertex 0 28 190.2
      vertex -5.4352 27.08 190.2
      vertex 0 22 225.2
    endloop
  endfacet
  facet normal 0.164559 0.972186 0.16666
    outer loop
      vertex 0 28 190.2
      vertex 0 22 225.2
      vertex 5.4352 27.08 190.2
    endloop
  endfacet
  facet normal 0.701014 0.696057 0.155188
    outer loop
      vertex 14.8492 20.0919 190.2
      vertex 8 19.1865 225.2
      vertex 11.3137 15.8492 225.2
    endloop
  endfacet
  facet normal 0.693934 0.703379 0.153992
    outer loop
      vertex 10.5 24.3827 190.2
      vertex 8 19.1865 225.2
      vertex 14.8492 20.0919 190.2
    endloop
  endfacet
  facet normal 0.84934 -0.506894 0.147241
    outer loop
      vertex 18.1865 -12.5 190.2
      vertex 11.3137 -13.8492 225.2
      vertex 14.8492 -18.0919 190.2
    endloop
  endfacet
  facet normal 0.995449 0.0913398 0.0271697
    outer loop
      vertex 22.2163 11.541 110.2
      vertex 21 1 190.2
      vertex 23 3 110.2
    endloop
  endfacet
  facet normal -0.700457 0.70999 0.0726202
    outer loop
      vertex -11.5 31.5788 110.2
      vertex -14.8492 20.0919 190.2
      vertex -10.5 24.3827 190.2
    endloop
  endfacet
  facet normal 0.994393 0.101828 0.0285356
    outer loop
      vertex 22.2163 11.541 110.2
      vertex 20.2844 7.98811 190.2
      vertex 21 1 190.2
    endloop
  endfacet
  facet normal -0.510902 -0.859639 0
    outer loop
      vertex -11.5 -25.5788 110
      vertex -5.95284 -28.8756 110.2
      vertex -11.5 -25.5788 110.2
    endloop
  endfacet
  facet normal -0.510902 -0.859639 -0
    outer loop
      vertex -5.95284 -28.8756 110.2
      vertex -11.5 -25.5788 110
      vertex -5.95284 -28.8756 110
    endloop
  endfacet
  facet normal -0.740224 -0.67236 0
    outer loop
      vertex -11.5 -25.5788 110
      vertex -16.2635 -20.3345 110.2
      vertex -16.2635 -20.3345 110
    endloop
  endfacet
  facet normal -0.740224 -0.67236 0
    outer loop
      vertex -16.2635 -20.3345 110.2
      vertex -11.5 -25.5788 110
      vertex -11.5 -25.5788 110.2
    endloop
  endfacet
  facet normal -0.469582 -0.881748 0.044873
    outer loop
      vertex -5.4352 -25.08 190.2
      vertex -10.5 -22.3827 190.2
      vertex -5.95284 -28.8756 110.2
    endloop
  endfacet
  facet normal 0.509122 0.856642 0.0834201
    outer loop
      vertex 11.5 31.5788 110.2
      vertex 5.95284 34.8756 110.2
      vertex 10.5 24.3827 190.2
    endloop
  endfacet
  facet normal -0.960539 -0.277301 0.0216461
    outer loop
      vertex -20.2844 -5.98811 190.2
      vertex -22.2163 -5.54103 110.2
      vertex -19.9186 -13.5 110.2
    endloop
  endfacet
  facet normal -0.185391 -0.981503 0.047767
    outer loop
      vertex -5.4352 -25.08 190.2
      vertex -5.95284 -28.8756 110.2
      vertex 0 -30 110.2
    endloop
  endfacet
  facet normal 0.510479 -0.858927 0.0406962
    outer loop
      vertex 10.5 -22.3827 190.2
      vertex 5.95284 -28.8756 110.2
      vertex 11.5 -25.5788 110.2
    endloop
  endfacet
  facet normal 0.880777 0.471041 0.04851
    outer loop
      vertex 19.9186 19.5 110.2
      vertex 16.2635 26.3345 110.2
      vertex 18.1865 14.5 190.2
    endloop
  endfacet
  facet normal -0.881815 -0.471596 0
    outer loop
      vertex -16.2635 -20.3345 110
      vertex -19.9186 -13.5 110.2
      vertex -19.9186 -13.5 110
    endloop
  endfacet
  facet normal -0.881815 -0.471596 0
    outer loop
      vertex -19.9186 -13.5 110.2
      vertex -16.2635 -20.3345 110
      vertex -16.2635 -20.3345 110.2
    endloop
  endfacet
  facet normal 0.95154 -0.306552 0.0244339
    outer loop
      vertex 20.2844 -5.98811 190.2
      vertex 18.1865 -12.5 190.2
      vertex 19.9186 -13.5 110.2
    endloop
  endfacet
  facet normal 0.951072 0.306402 0.039742
    outer loop
      vertex 19.9186 19.5 110.2
      vertex 18.1865 14.5 190.2
      vertex 20.2844 7.98811 190.2
    endloop
  endfacet
  facet normal 0.960159 0.27719 0.035497
    outer loop
      vertex 22.2163 11.541 110.2
      vertex 19.9186 19.5 110.2
      vertex 20.2844 7.98811 190.2
    endloop
  endfacet
  facet normal -0.994393 0.101828 0.0285356
    outer loop
      vertex -20.2844 7.98811 190.2
      vertex -22.2163 11.541 110.2
      vertex -21 1 190.2
    endloop
  endfacet
  facet normal -0.166088 0.981217 0.0981217
    outer loop
      vertex 0 36 110.2
      vertex -5.4352 27.08 190.2
      vertex 0 28 190.2
    endloop
  endfacet
  facet normal -0.510479 -0.858927 0.0406962
    outer loop
      vertex -10.5 -22.3827 190.2
      vertex -11.5 -25.5788 110.2
      vertex -5.95284 -28.8756 110.2
    endloop
  endfacet
  facet normal 0.739847 -0.672018 0.0319179
    outer loop
      vertex 14.8492 -18.0919 190.2
      vertex 11.5 -25.5788 110.2
      vertex 16.2635 -20.3345 110.2
    endloop
  endfacet
  facet normal 0.881815 -0.471596 0
    outer loop
      vertex 16.2635 -20.3345 110.2
      vertex 19.9186 -13.5 110
      vertex 19.9186 -13.5 110.2
    endloop
  endfacet
  facet normal 0.881815 -0.471596 0
    outer loop
      vertex 19.9186 -13.5 110
      vertex 16.2635 -20.3345 110.2
      vertex 16.2635 -20.3345 110
    endloop
  endfacet
  facet normal 0.185603 -0.982625 0
    outer loop
      vertex 0 -30 110
      vertex 5.95284 -28.8756 110.2
      vertex 0 -30 110.2
    endloop
  endfacet
  facet normal 0.185603 -0.982625 0
    outer loop
      vertex 5.95284 -28.8756 110.2
      vertex 0 -30 110
      vertex 5.95284 -28.8756 110
    endloop
  endfacet
  facet normal 0.700457 0.70999 0.0726202
    outer loop
      vertex 11.5 31.5788 110.2
      vertex 10.5 24.3827 190.2
      vertex 14.8492 20.0919 190.2
    endloop
  endfacet
  facet normal -0.858325 -0.512256 0.0295339
    outer loop
      vertex -14.8492 -18.0919 190.2
      vertex -18.1865 -12.5 190.2
      vertex -16.2635 -20.3345 110.2
    endloop
  endfacet
  facet normal -0.95154 -0.306552 0.0244339
    outer loop
      vertex -18.1865 -12.5 190.2
      vertex -20.2844 -5.98811 190.2
      vertex -19.9186 -13.5 110.2
    endloop
  endfacet
  facet normal 0.166088 0.981217 0.0981217
    outer loop
      vertex 0 36 110.2
      vertex 0 28 190.2
      vertex 5.4352 27.08 190.2
    endloop
  endfacet
  facet normal 0.995817 -0.0913732 0
    outer loop
      vertex 22.2163 -5.54103 110.2
      vertex 23 3 110
      vertex 23 3 110.2
    endloop
  endfacet
  facet normal 0.995817 -0.0913732 0
    outer loop
      vertex 23 3 110
      vertex 22.2163 -5.54103 110.2
      vertex 22.2163 -5.54103 110
    endloop
  endfacet
  facet normal 0.857395 0.511702 0.055087
    outer loop
      vertex 16.2635 26.3345 110.2
      vertex 14.8492 20.0919 190.2
      vertex 18.1865 14.5 190.2
    endloop
  endfacet
  facet normal 0.701825 -0.711377 0.0371932
    outer loop
      vertex 14.8492 -18.0919 190.2
      vertex 10.5 -22.3827 190.2
      vertex 11.5 -25.5788 110.2
    endloop
  endfacet
  facet normal 0.960764 -0.277366 0
    outer loop
      vertex 19.9186 -13.5 110.2
      vertex 22.2163 -5.54103 110
      vertex 22.2163 -5.54103 110.2
    endloop
  endfacet
  facet normal 0.960764 -0.277366 0
    outer loop
      vertex 22.2163 -5.54103 110
      vertex 19.9186 -13.5 110.2
      vertex 19.9186 -13.5 110
    endloop
  endfacet
  facet normal -0.701825 -0.711377 0.0371932
    outer loop
      vertex -10.5 -22.3827 190.2
      vertex -14.8492 -18.0919 190.2
      vertex -11.5 -25.5788 110.2
    endloop
  endfacet
  facet normal -0.88154 -0.471449 0.0249795
    outer loop
      vertex -18.1865 -12.5 190.2
      vertex -19.9186 -13.5 110.2
      vertex -16.2635 -20.3345 110.2
    endloop
  endfacet
  facet normal 0.995817 0.0913736 0
    outer loop
      vertex 23 3 110.2
      vertex 22.2163 11.541 110
      vertex 22.2163 11.541 110.2
    endloop
  endfacet
  facet normal 0.995817 0.0913736 0
    outer loop
      vertex 22.2163 11.541 110
      vertex 23 3 110.2
      vertex 23 3 110
    endloop
  endfacet
  facet normal 0.510902 -0.859639 0
    outer loop
      vertex 5.95284 -28.8756 110
      vertex 11.5 -25.5788 110.2
      vertex 5.95284 -28.8756 110.2
    endloop
  endfacet
  facet normal 0.510902 -0.859639 0
    outer loop
      vertex 11.5 -25.5788 110.2
      vertex 5.95284 -28.8756 110
      vertex 11.5 -25.5788 110
    endloop
  endfacet
  facet normal 0.740224 -0.67236 0
    outer loop
      vertex 11.5 -25.5788 110.2
      vertex 16.2635 -20.3345 110
      vertex 16.2635 -20.3345 110.2
    endloop
  endfacet
  facet normal 0.740224 -0.67236 0
    outer loop
      vertex 16.2635 -20.3345 110
      vertex 11.5 -25.5788 110.2
      vertex 11.5 -25.5788 110
    endloop
  endfacet
  facet normal 0.185391 -0.981503 0.047767
    outer loop
      vertex 5.4352 -25.08 190.2
      vertex 0 -30 110.2
      vertex 5.95284 -28.8756 110.2
    endloop
  endfacet
  facet normal -0.185603 -0.982625 0
    outer loop
      vertex -5.95284 -28.8756 110
      vertex 0 -30 110.2
      vertex -5.95284 -28.8756 110.2
    endloop
  endfacet
  facet normal -0.185603 -0.982625 -0
    outer loop
      vertex 0 -30 110.2
      vertex -5.95284 -28.8756 110
      vertex 0 -30 110
    endloop
  endfacet
  facet normal 0.858325 -0.512256 0.0295339
    outer loop
      vertex 18.1865 -12.5 190.2
      vertex 14.8492 -18.0919 190.2
      vertex 16.2635 -20.3345 110.2
    endloop
  endfacet
  facet normal -0.166691 -0.984779 0.049239
    outer loop
      vertex 0 -26 190.2
      vertex -5.4352 -25.08 190.2
      vertex 0 -30 110.2
    endloop
  endfacet
  facet normal 0.88154 -0.471449 0.0249795
    outer loop
      vertex 18.1865 -12.5 190.2
      vertex 16.2635 -20.3345 110.2
      vertex 19.9186 -13.5 110.2
    endloop
  endfacet
  facet normal -0.738639 0.67092 0.0654118
    outer loop
      vertex -11.5 31.5788 110.2
      vertex -16.2635 26.3345 110.2
      vertex -14.8492 20.0919 190.2
    endloop
  endfacet
  facet normal -0.468203 0.879158 0.0886991
    outer loop
      vertex -5.95284 34.8756 110.2
      vertex -10.5 24.3827 190.2
      vertex -5.4352 27.08 190.2
    endloop
  endfacet
  facet normal -0.951072 0.306402 0.039742
    outer loop
      vertex -19.9186 19.5 110.2
      vertex -20.2844 7.98811 190.2
      vertex -18.1865 14.5 190.2
    endloop
  endfacet
  facet normal -0.995817 0.0913736 0
    outer loop
      vertex -23 3 110
      vertex -22.2163 11.541 110.2
      vertex -22.2163 11.541 110
    endloop
  endfacet
  facet normal -0.995817 0.0913736 0
    outer loop
      vertex -22.2163 11.541 110.2
      vertex -23 3 110
      vertex -23 3 110.2
    endloop
  endfacet
  facet normal 0.469582 -0.881748 0.044873
    outer loop
      vertex 10.5 -22.3827 190.2
      vertex 5.4352 -25.08 190.2
      vertex 5.95284 -28.8756 110.2
    endloop
  endfacet
  facet normal 0.166691 -0.984779 0.049239
    outer loop
      vertex 0 -26 190.2
      vertex 0 -30 110.2
      vertex 5.4352 -25.08 190.2
    endloop
  endfacet
  facet normal -0.994524 -0.101842 0.0234474
    outer loop
      vertex -21 1 190.2
      vertex -22.2163 -5.54103 110.2
      vertex -20.2844 -5.98811 190.2
    endloop
  endfacet
  facet normal -0.995562 -0.0913499 0.0226053
    outer loop
      vertex -21 1 190.2
      vertex -23 3 110.2
      vertex -22.2163 -5.54103 110.2
    endloop
  endfacet
  facet normal -0.739847 -0.672018 0.0319179
    outer loop
      vertex -14.8492 -18.0919 190.2
      vertex -16.2635 -20.3345 110.2
      vertex -11.5 -25.5788 110.2
    endloop
  endfacet
  facet normal 0.738639 0.67092 0.0654118
    outer loop
      vertex 16.2635 26.3345 110.2
      vertex 11.5 31.5788 110.2
      vertex 14.8492 20.0919 190.2
    endloop
  endfacet
  facet normal 0.994524 -0.101842 0.0234474
    outer loop
      vertex 21 1 190.2
      vertex 20.2844 -5.98811 190.2
      vertex 22.2163 -5.54103 110.2
    endloop
  endfacet
  facet normal 0.960539 -0.277301 0.0216461
    outer loop
      vertex 20.2844 -5.98811 190.2
      vertex 19.9186 -13.5 110.2
      vertex 22.2163 -5.54103 110.2
    endloop
  endfacet
  facet normal -0.184737 0.978039 0.0965003
    outer loop
      vertex 0 36 110.2
      vertex -5.95284 34.8756 110.2
      vertex -5.4352 27.08 190.2
    endloop
  endfacet
  facet normal -0.960764 -0.277366 0
    outer loop
      vertex -19.9186 -13.5 110
      vertex -22.2163 -5.54103 110.2
      vertex -22.2163 -5.54103 110
    endloop
  endfacet
  facet normal -0.960764 -0.277366 0
    outer loop
      vertex -22.2163 -5.54103 110.2
      vertex -19.9186 -13.5 110
      vertex -19.9186 -13.5 110.2
    endloop
  endfacet
  facet normal -0.995449 0.0913398 0.0271697
    outer loop
      vertex -22.2163 11.541 110.2
      vertex -23 3 110.2
      vertex -21 1 190.2
    endloop
  endfacet
  facet normal -0.960159 0.27719 0.035497
    outer loop
      vertex -19.9186 19.5 110.2
      vertex -22.2163 11.541 110.2
      vertex -20.2844 7.98811 190.2
    endloop
  endfacet
  facet normal -0.995817 -0.0913732 0
    outer loop
      vertex -22.2163 -5.54103 110
      vertex -23 3 110.2
      vertex -23 3 110
    endloop
  endfacet
  facet normal -0.995817 -0.0913732 0
    outer loop
      vertex -23 3 110.2
      vertex -22.2163 -5.54103 110
      vertex -22.2163 -5.54103 110.2
    endloop
  endfacet
  facet normal 0.995562 -0.0913499 0.0226053
    outer loop
      vertex 23 3 110.2
      vertex 21 1 190.2
      vertex 22.2163 -5.54103 110.2
    endloop
  endfacet
  facet normal 0.184737 0.978039 0.0965003
    outer loop
      vertex 5.95284 34.8756 110.2
      vertex 0 36 110.2
      vertex 5.4352 27.08 190.2
    endloop
  endfacet
  facet normal 0.468203 0.879158 0.0886991
    outer loop
      vertex 5.95284 34.8756 110.2
      vertex 5.4352 27.08 190.2
      vertex 10.5 24.3827 190.2
    endloop
  endfacet
  facet normal -0.880777 0.471041 0.04851
    outer loop
      vertex -16.2635 26.3345 110.2
      vertex -19.9186 19.5 110.2
      vertex -18.1865 14.5 190.2
    endloop
  endfacet
  facet normal -0.857395 0.511702 0.055087
    outer loop
      vertex -16.2635 26.3345 110.2
      vertex -18.1865 14.5 190.2
      vertex -14.8492 20.0919 190.2
    endloop
  endfacet
  facet normal -0.509122 0.856642 0.0834201
    outer loop
      vertex -5.95284 34.8756 110.2
      vertex -11.5 31.5788 110.2
      vertex -10.5 24.3827 190.2
    endloop
  endfacet
  facet normal 0.586979 0.799389 0.128193
    outer loop
      vertex 11 44.775 30.2
      vertex 5.69402 48.6711 30.2
      vertex 11.5 31.5788 110.2
    endloop
  endfacet
  facet normal 0.736079 0.668595 0.105686
    outer loop
      vertex 16.2635 26.3345 110.2
      vertex 11 44.775 30.2
      vertex 11.5 31.5788 110.2
    endloop
  endfacet
  facet normal 0.879993 0.470622 0.0642419
    outer loop
      vertex 19.9186 19.5 110.2
      vertex 15.5563 38.5772 30.2
      vertex 16.2635 26.3345 110.2
    endloop
  endfacet
  facet normal -0.805707 0.592314 0
    outer loop
      vertex -15.5563 38.5772 30
      vertex -11 44.775 30.2
      vertex -11 44.775 30
    endloop
  endfacet
  facet normal -0.805707 0.592314 0
    outer loop
      vertex -11 44.775 30.2
      vertex -15.5563 38.5772 30
      vertex -15.5563 38.5772 30.2
    endloop
  endfacet
  facet normal 0.591862 0.806039 -0
    outer loop
      vertex 11 44.775 30
      vertex 5.69402 48.6711 30.2
      vertex 11 44.775 30.2
    endloop
  endfacet
  facet normal 0.591862 0.806039 0
    outer loop
      vertex 5.69402 48.6711 30.2
      vertex 11 44.775 30
      vertex 5.69402 48.6711 30
    endloop
  endfacet
  facet normal -0.879993 0.470622 0.0642419
    outer loop
      vertex -15.5563 38.5772 30.2
      vertex -19.9186 19.5 110.2
      vertex -16.2635 26.3345 110.2
    endloop
  endfacet
  facet normal 0.997241 0.0740578 -0.00505973
    outer loop
      vertex 22 11 30
      vertex 21.2504 21.0939 30
      vertex 23 3 110
    endloop
  endfacet
  facet normal -0.997057 -0.0740438 -0.0198676
    outer loop
      vertex -21.2504 0.906056 30
      vertex -23 3 110
      vertex -22 11 30
    endloop
  endfacet
  facet normal -0.227191 -0.97346 -0.0275599
    outer loop
      vertex 0 -28 30
      vertex -5.95284 -28.8756 110
      vertex -5.69402 -26.6711 30
    endloop
  endfacet
  facet normal 0.995816 0.0913735 -0.00111221
    outer loop
      vertex 23 3 110
      vertex 21.2504 21.0939 30
      vertex 22.2163 11.541 110
    endloop
  endfacet
  facet normal 0.997057 -0.0740438 -0.0198676
    outer loop
      vertex 23 3 110
      vertex 21.2504 0.906056 30
      vertex 22 11 30
    endloop
  endfacet
  facet normal 0.973771 0.227528 0
    outer loop
      vertex 21.2504 21.0939 30.2
      vertex 19.0526 30.5 30
      vertex 19.0526 30.5 30.2
    endloop
  endfacet
  facet normal 0.973771 0.227528 0
    outer loop
      vertex 19.0526 30.5 30
      vertex 21.2504 21.0939 30.2
      vertex 21.2504 21.0939 30
    endloop
  endfacet
  facet normal 0.5055 0.850549 0.145036
    outer loop
      vertex 11.5 31.5788 110.2
      vertex 5.69402 48.6711 30.2
      vertex 5.95284 34.8756 110.2
    endloop
  endfacet
  facet normal 0.802912 0.590259 0.0832318
    outer loop
      vertex 15.5563 38.5772 30.2
      vertex 11 44.775 30.2
      vertex 16.2635 26.3345 110.2
    endloop
  endfacet
  facet normal -0.917714 0.397242 0
    outer loop
      vertex -19.0526 30.5 30
      vertex -15.5563 38.5772 30.2
      vertex -15.5563 38.5772 30
    endloop
  endfacet
  facet normal -0.917714 0.397242 0
    outer loop
      vertex -15.5563 38.5772 30.2
      vertex -19.0526 30.5 30
      vertex -19.0526 30.5 30.2
    endloop
  endfacet
  facet normal -0.960395 0.277258 0.0277268
    outer loop
      vertex -19.0526 30.5 30.2
      vertex -22.2163 11.541 110.2
      vertex -19.9186 19.5 110.2
    endloop
  endfacet
  facet normal 0.227191 -0.97346 -0.0275599
    outer loop
      vertex 5.95284 -28.8756 110
      vertex 0 -28 30
      vertex 5.69402 -26.6711 30
    endloop
  endfacet
  facet normal -0.802912 0.590259 0.0832318
    outer loop
      vertex -15.5563 38.5772 30.2
      vertex -16.2635 26.3345 110.2
      vertex -11 44.775 30.2
    endloop
  endfacet
  facet normal -0.805216 -0.591953 -0.0349199
    outer loop
      vertex -11 -22.775 30
      vertex -16.2635 -20.3345 110
      vertex -15.5563 -16.5772 30
    endloop
  endfacet
  facet normal -0.224166 0.960498 0.164907
    outer loop
      vertex -5.69402 48.6711 30.2
      vertex -5.95284 34.8756 110.2
      vertex 0 50 30.2
    endloop
  endfacet
  facet normal -0.960395 -0.277259 -0.027725
    outer loop
      vertex -19.9186 -13.5 110
      vertex -22.2163 -5.54103 110
      vertex -19.0526 -8.5 30
    endloop
  endfacet
  facet normal 0.960395 -0.277259 -0.027725
    outer loop
      vertex 19.9186 -13.5 110
      vertex 19.0526 -8.5 30
      vertex 22.2163 -5.54103 110
    endloop
  endfacet
  facet normal 0.227278 0.97383 -0
    outer loop
      vertex 5.69402 48.6711 30
      vertex 0 50 30.2
      vertex 5.69402 48.6711 30.2
    endloop
  endfacet
  facet normal 0.227278 0.97383 0
    outer loop
      vertex 0 50 30.2
      vertex 5.69402 48.6711 30
      vertex 0 50 30
    endloop
  endfacet
  facet normal -0.736079 0.668595 0.105686
    outer loop
      vertex -11 44.775 30.2
      vertex -16.2635 26.3345 110.2
      vertex -11.5 31.5788 110.2
    endloop
  endfacet
  facet normal -0.586979 0.799389 0.128193
    outer loop
      vertex -11 44.775 30.2
      vertex -11.5 31.5788 110.2
      vertex -5.69402 48.6711 30.2
    endloop
  endfacet
  facet normal -0.227278 0.97383 0
    outer loop
      vertex 0 50 30
      vertex -5.69402 48.6711 30.2
      vertex 0 50 30.2
    endloop
  endfacet
  facet normal -0.227278 0.97383 0
    outer loop
      vertex -5.69402 48.6711 30.2
      vertex 0 50 30
      vertex -5.69402 48.6711 30
    endloop
  endfacet
  facet normal -0.182918 0.968411 0.169472
    outer loop
      vertex 0 50 30.2
      vertex -5.95284 34.8756 110.2
      vertex 0 36 110.2
    endloop
  endfacet
  facet normal 0.973656 0.227501 0.0154105
    outer loop
      vertex 21.2504 21.0939 30.2
      vertex 19.0526 30.5 30.2
      vertex 22.2163 11.541 110.2
    endloop
  endfacet
  facet normal -0.997241 0.0740578 -0.00505973
    outer loop
      vertex -22 11 30
      vertex -23 3 110
      vertex -21.2504 21.0939 30
    endloop
  endfacet
  facet normal -0.99563 -0.0913561 -0.0193832
    outer loop
      vertex -22.2163 -5.54103 110
      vertex -23 3 110
      vertex -21.2504 0.906056 30
    endloop
  endfacet
  facet normal -0.973656 0.227501 0.0154105
    outer loop
      vertex -21.2504 21.0939 30.2
      vertex -22.2163 11.541 110.2
      vertex -19.0526 30.5 30.2
    endloop
  endfacet
  facet normal 0.916799 0.396846 0.044642
    outer loop
      vertex 19.0526 30.5 30.2
      vertex 15.5563 38.5772 30.2
      vertex 19.9186 19.5 110.2
    endloop
  endfacet
  facet normal 0.805707 0.592314 0
    outer loop
      vertex 15.5563 38.5772 30.2
      vertex 11 44.775 30
      vertex 11 44.775 30.2
    endloop
  endfacet
  facet normal 0.805707 0.592314 0
    outer loop
      vertex 11 44.775 30
      vertex 15.5563 38.5772 30.2
      vertex 15.5563 38.5772 30
    endloop
  endfacet
  facet normal 0.960395 0.277258 0.0277268
    outer loop
      vertex 22.2163 11.541 110.2
      vertex 19.0526 30.5 30.2
      vertex 19.9186 19.5 110.2
    endloop
  endfacet
  facet normal -0.5055 0.850549 0.145036
    outer loop
      vertex -5.69402 48.6711 30.2
      vertex -11.5 31.5788 110.2
      vertex -5.95284 34.8756 110.2
    endloop
  endfacet
  facet normal -0.916799 0.396846 0.044642
    outer loop
      vertex -19.0526 30.5 30.2
      vertex -19.9186 19.5 110.2
      vertex -15.5563 38.5772 30.2
    endloop
  endfacet
  facet normal 0.182918 0.968411 0.169472
    outer loop
      vertex 0 50 30.2
      vertex 0 36 110.2
      vertex 5.95284 34.8756 110.2
    endloop
  endfacet
  facet normal 0.224166 0.960498 0.164907
    outer loop
      vertex 5.69402 48.6711 30.2
      vertex 0 50 30.2
      vertex 5.95284 34.8756 110.2
    endloop
  endfacet
  facet normal 0.917714 0.397242 0
    outer loop
      vertex 19.0526 30.5 30.2
      vertex 15.5563 38.5772 30
      vertex 15.5563 38.5772 30.2
    endloop
  endfacet
  facet normal 0.917714 0.397242 0
    outer loop
      vertex 15.5563 38.5772 30
      vertex 19.0526 30.5 30.2
      vertex 19.0526 30.5 30
    endloop
  endfacet
  facet normal 0.59156 -0.805628 -0.0319325
    outer loop
      vertex 11.5 -25.5788 110
      vertex 5.69402 -26.6711 30
      vertex 11 -22.775 30
    endloop
  endfacet
  facet normal -0.973771 0.227528 0
    outer loop
      vertex -21.2504 21.0939 30
      vertex -19.0526 30.5 30.2
      vertex -19.0526 30.5 30
    endloop
  endfacet
  facet normal -0.973771 0.227528 0
    outer loop
      vertex -19.0526 30.5 30.2
      vertex -21.2504 21.0939 30
      vertex -21.2504 21.0939 30.2
    endloop
  endfacet
  facet normal -0.994927 0.100598 0
    outer loop
      vertex -22.2163 11.541 110
      vertex -21.2504 21.0939 30.2
      vertex -21.2504 21.0939 30
    endloop
  endfacet
  facet normal -0.994927 0.100598 0
    outer loop
      vertex -21.2504 21.0939 30.2
      vertex -22.2163 11.541 110
      vertex -22.2163 11.541 110.2
    endloop
  endfacet
  facet normal 0.805216 -0.591953 -0.0349199
    outer loop
      vertex 16.2635 -20.3345 110
      vertex 11 -22.775 30
      vertex 15.5563 -16.5772 30
    endloop
  endfacet
  facet normal 0.91716 -0.397002 -0.0347409
    outer loop
      vertex 19.9186 -13.5 110
      vertex 15.5563 -16.5772 30
      vertex 19.0526 -8.5 30
    endloop
  endfacet
  facet normal 0.973331 -0.227426 -0.0300797
    outer loop
      vertex 22.2163 -5.54103 110
      vertex 19.0526 -8.5 30
      vertex 21.2504 0.906056 30
    endloop
  endfacet
  facet normal -0.185547 -0.982329 -0.0245582
    outer loop
      vertex 0 -30 110
      vertex -5.95284 -28.8756 110
      vertex 0 -28 30
    endloop
  endfacet
  facet normal 0.994927 0.100598 -0
    outer loop
      vertex 22.2163 11.541 110
      vertex 21.2504 21.0939 30.2
      vertex 22.2163 11.541 110.2
    endloop
  endfacet
  facet normal 0.994927 0.100598 0
    outer loop
      vertex 21.2504 21.0939 30.2
      vertex 22.2163 11.541 110
      vertex 21.2504 21.0939 30
    endloop
  endfacet
  facet normal -0.591862 0.806039 0
    outer loop
      vertex -5.69402 48.6711 30
      vertex -11 44.775 30.2
      vertex -5.69402 48.6711 30.2
    endloop
  endfacet
  facet normal -0.591862 0.806039 0
    outer loop
      vertex -11 44.775 30.2
      vertex -5.69402 48.6711 30
      vertex -11 44.775 30
    endloop
  endfacet
  facet normal -0.995816 0.0913735 -0.00111221
    outer loop
      vertex -21.2504 21.0939 30
      vertex -23 3 110
      vertex -22.2163 11.541 110
    endloop
  endfacet
  facet normal 0.88142 -0.471385 -0.0299309
    outer loop
      vertex 16.2635 -20.3345 110
      vertex 15.5563 -16.5772 30
      vertex 19.9186 -13.5 110
    endloop
  endfacet
  facet normal -0.973331 -0.227426 -0.0300797
    outer loop
      vertex -19.0526 -8.5 30
      vertex -22.2163 -5.54103 110
      vertex -21.2504 0.906056 30
    endloop
  endfacet
  facet normal -0.91716 -0.397002 -0.0347409
    outer loop
      vertex -15.5563 -16.5772 30
      vertex -19.9186 -13.5 110
      vertex -19.0526 -8.5 30
    endloop
  endfacet
  facet normal -0.88142 -0.471385 -0.0299309
    outer loop
      vertex -16.2635 -20.3345 110
      vertex -19.9186 -13.5 110
      vertex -15.5563 -16.5772 30
    endloop
  endfacet
  facet normal -0.73993 -0.672093 -0.0281797
    outer loop
      vertex -11.5 -25.5788 110
      vertex -16.2635 -20.3345 110
      vertex -11 -22.775 30
    endloop
  endfacet
  facet normal -0.59156 -0.805628 -0.0319325
    outer loop
      vertex -5.69402 -26.6711 30
      vertex -11.5 -25.5788 110
      vertex -11 -22.775 30
    endloop
  endfacet
  facet normal 0.99563 -0.0913561 -0.0193832
    outer loop
      vertex 22.2163 -5.54103 110
      vertex 21.2504 0.906056 30
      vertex 23 3 110
    endloop
  endfacet
  facet normal 0.510738 -0.859363 -0.0253332
    outer loop
      vertex 5.95284 -28.8756 110
      vertex 5.69402 -26.6711 30
      vertex 11.5 -25.5788 110
    endloop
  endfacet
  facet normal -0.510738 -0.859363 -0.0253332
    outer loop
      vertex -5.95284 -28.8756 110
      vertex -11.5 -25.5788 110
      vertex -5.69402 -26.6711 30
    endloop
  endfacet
  facet normal 0.73993 -0.672093 -0.0281797
    outer loop
      vertex 11.5 -25.5788 110
      vertex 11 -22.775 30
      vertex 16.2635 -20.3345 110
    endloop
  endfacet
  facet normal 0.185547 -0.982329 -0.0245582
    outer loop
      vertex 5.95284 -28.8756 110
      vertex 0 -30 110
      vertex 0 -28 30
    endloop
  endfacet
  facet normal -0.591699 -0.805817 -0.0234931
    outer loop
      vertex -5.69402 -26.6711 30
      vertex -11 -22.775 30
      vertex -4.65874 -24.8074 -60
    endloop
  endfacet
  facet normal -0.996669 0.0674774 -0.0457959
    outer loop
      vertex -18 9 -60
      vertex -22 11 30
      vertex -17.3867 18.0587 -60
    endloop
  endfacet
  facet normal -0.916562 0.396743 -0.0500898
    outer loop
      vertex -12.7279 33.7487 -60
      vertex -19.0526 30.5 30
      vertex -15.5563 38.5772 30
    endloop
  endfacet
  facet normal 0.591699 -0.805817 -0.0234931
    outer loop
      vertex 5.69402 -26.6711 30
      vertex 4.65874 -24.8074 -60
      vertex 11 -22.775 30
    endloop
  endfacet
  facet normal -0.24793 -0.968507 -0.0229076
    outer loop
      vertex 0 -26 -60
      vertex -5.69402 -26.6711 30
      vertex -4.65874 -24.8074 -60
    endloop
  endfacet
  facet normal -0.627039 -0.778533 -0.0265992
    outer loop
      vertex -4.65874 -24.8074 -60
      vertex -11 -22.775 30
      vertex -9 -21.3109 -60
    endloop
  endfacet
  facet normal 0.627039 -0.778533 -0.0265992
    outer loop
      vertex 11 -22.775 30
      vertex 4.65874 -24.8074 -60
      vertex 9 -21.3109 -60
    endloop
  endfacet
  facet normal 0.24793 -0.968507 -0.0229076
    outer loop
      vertex 5.69402 -26.6711 30
      vertex 0 -26 -60
      vertex 4.65874 -24.8074 -60
    endloop
  endfacet
  facet normal -0.805402 -0.59209 -0.0275298
    outer loop
      vertex -11 -22.775 30
      vertex -15.5563 -16.5772 30
      vertex -9 -21.3109 -60
    endloop
  endfacet
  facet normal 0.247457 0.96666 -0.0658266
    outer loop
      vertex 4.65874 42.8074 -60
      vertex 0 44 -60
      vertex 5.69402 48.6711 30
    endloop
  endfacet
  facet normal -0.247457 0.96666 -0.0658266
    outer loop
      vertex -4.65874 42.8074 -60
      vertex -5.69402 48.6711 30
      vertex 0 44 -60
    endloop
  endfacet
  facet normal -0.977283 -0.208184 -0.0397232
    outer loop
      vertex -15.5885 -8.5 -60
      vertex -21.2504 0.906056 30
      vertex -17.3867 -0.0586662 -60
    endloop
  endfacet
  facet normal -0.626089 0.777353 -0.0611079
    outer loop
      vertex -9 39.3109 -60
      vertex -11 44.775 30
      vertex -4.65874 42.8074 -60
    endloop
  endfacet
  facet normal -0.973088 -0.22737 -0.0374542
    outer loop
      vertex -19.0526 -8.5 30
      vertex -21.2504 0.906056 30
      vertex -15.5885 -8.5 -60
    endloop
  endfacet
  facet normal 0.928926 0.366588 -0.0520472
    outer loop
      vertex 15.5885 26.5 -60
      vertex 12.7279 33.7487 -60
      vertex 19.0526 30.5 30
    endloop
  endfacet
  facet normal 0.929592 -0.366851 -0.03578
    outer loop
      vertex 19.0526 -8.5 30
      vertex 12.7279 -15.7487 -60
      vertex 15.5885 -8.5 -60
    endloop
  endfacet
  facet normal 0.83028 -0.556471 -0.0312156
    outer loop
      vertex 15.5563 -16.5772 30
      vertex 9 -21.3109 -60
      vertex 12.7279 -15.7487 -60
    endloop
  endfacet
  facet normal 0.91723 -0.397032 -0.0324804
    outer loop
      vertex 15.5563 -16.5772 30
      vertex 12.7279 -15.7487 -60
      vertex 19.0526 -8.5 30
    endloop
  endfacet
  facet normal -0.804541 0.591457 -0.0537873
    outer loop
      vertex -9 39.3109 -60
      vertex -15.5563 38.5772 30
      vertex -11 44.775 30
    endloop
  endfacet
  facet normal 0.227224 -0.973602 -0.0216356
    outer loop
      vertex 5.69402 -26.6711 30
      vertex 0 -28 30
      vertex 0 -26 -60
    endloop
  endfacet
  facet normal -0.590824 0.804625 -0.0592194
    outer loop
      vertex -4.65874 42.8074 -60
      vertex -11 44.775 30
      vertex -5.69402 48.6711 30
    endloop
  endfacet
  facet normal -0.976882 0.208099 -0.0489556
    outer loop
      vertex -17.3867 18.0587 -60
      vertex -21.2504 21.0939 30
      vertex -15.5885 26.5 -60
    endloop
  endfacet
  facet normal 0.2268 0.971784 -0.0647856
    outer loop
      vertex 5.69402 48.6711 30
      vertex 0 44 -60
      vertex 0 50 30
    endloop
  endfacet
  facet normal 0.996802 -0.0674866 -0.0428026
    outer loop
      vertex 22 11 30
      vertex 17.3867 -0.0586662 -60
      vertex 18 9 -60
    endloop
  endfacet
  facet normal -0.996802 -0.0674866 -0.0428026
    outer loop
      vertex -17.3867 -0.0586662 -60
      vertex -22 11 30
      vertex -18 9 -60
    endloop
  endfacet
  facet normal 0.829387 0.555872 -0.0558874
    outer loop
      vertex 12.7279 33.7487 -60
      vertex 9 39.3109 -60
      vertex 15.5563 38.5772 30
    endloop
  endfacet
  facet normal -0.227224 -0.973602 -0.0216356
    outer loop
      vertex 0 -28 30
      vertex -5.69402 -26.6711 30
      vertex 0 -26 -60
    endloop
  endfacet
  facet normal -0.928926 0.366588 -0.0520472
    outer loop
      vertex -15.5885 26.5 -60
      vertex -19.0526 30.5 30
      vertex -12.7279 33.7487 -60
    endloop
  endfacet
  facet normal 0.976882 0.208099 -0.0489556
    outer loop
      vertex 17.3867 18.0587 -60
      vertex 15.5885 26.5 -60
      vertex 21.2504 21.0939 30
    endloop
  endfacet
  facet normal 0.996669 0.0674774 -0.0457959
    outer loop
      vertex 18 9 -60
      vertex 17.3867 18.0587 -60
      vertex 22 11 30
    endloop
  endfacet
  facet normal -0.829387 0.555872 -0.0558874
    outer loop
      vertex -12.7279 33.7487 -60
      vertex -15.5563 38.5772 30
      vertex -9 39.3109 -60
    endloop
  endfacet
  facet normal -0.996232 0.0739828 -0.0452633
    outer loop
      vertex -17.3867 18.0587 -60
      vertex -22 11 30
      vertex -21.2504 21.0939 30
    endloop
  endfacet
  facet normal 0.996232 0.0739828 -0.0452633
    outer loop
      vertex 22 11 30
      vertex 17.3867 18.0587 -60
      vertex 21.2504 21.0939 30
    endloop
  endfacet
  facet normal -0.996375 -0.0739931 -0.0419812
    outer loop
      vertex -21.2504 0.906056 30
      vertex -22 11 30
      vertex -17.3867 -0.0586662 -60
    endloop
  endfacet
  facet normal 0.805402 -0.59209 -0.0275298
    outer loop
      vertex 11 -22.775 30
      vertex 9 -21.3109 -60
      vertex 15.5563 -16.5772 30
    endloop
  endfacet
  facet normal 0.916562 0.396743 -0.0500898
    outer loop
      vertex 19.0526 30.5 30
      vertex 12.7279 33.7487 -60
      vertex 15.5563 38.5772 30
    endloop
  endfacet
  facet normal 0.804541 0.591457 -0.0537873
    outer loop
      vertex 15.5563 38.5772 30
      vertex 9 39.3109 -60
      vertex 11 44.775 30
    endloop
  endfacet
  facet normal -0.83028 -0.556471 -0.0312156
    outer loop
      vertex -9 -21.3109 -60
      vertex -15.5563 -16.5772 30
      vertex -12.7279 -15.7487 -60
    endloop
  endfacet
  facet normal -0.929592 -0.366851 -0.03578
    outer loop
      vertex -12.7279 -15.7487 -60
      vertex -19.0526 -8.5 30
      vertex -15.5885 -8.5 -60
    endloop
  endfacet
  facet normal -0.91723 -0.397032 -0.0324804
    outer loop
      vertex -15.5563 -16.5772 30
      vertex -19.0526 -8.5 30
      vertex -12.7279 -15.7487 -60
    endloop
  endfacet
  facet normal -0.2268 0.971784 -0.0647856
    outer loop
      vertex 0 44 -60
      vertex -5.69402 48.6711 30
      vertex 0 50 30
    endloop
  endfacet
  facet normal -0.97267 0.227271 -0.047539
    outer loop
      vertex -15.5885 26.5 -60
      vertex -21.2504 21.0939 30
      vertex -19.0526 30.5 30
    endloop
  endfacet
  facet normal 0.590824 0.804625 -0.0592194
    outer loop
      vertex 11 44.775 30
      vertex 4.65874 42.8074 -60
      vertex 5.69402 48.6711 30
    endloop
  endfacet
  facet normal 0.626089 0.777353 -0.0611079
    outer loop
      vertex 9 39.3109 -60
      vertex 4.65874 42.8074 -60
      vertex 11 44.775 30
    endloop
  endfacet
  facet normal 0.996375 -0.0739931 -0.0419812
    outer loop
      vertex 21.2504 0.906056 30
      vertex 17.3867 -0.0586662 -60
      vertex 22 11 30
    endloop
  endfacet
  facet normal 0.97267 0.227271 -0.047539
    outer loop
      vertex 21.2504 21.0939 30
      vertex 15.5885 26.5 -60
      vertex 19.0526 30.5 30
    endloop
  endfacet
  facet normal 0.973088 -0.22737 -0.0374542
    outer loop
      vertex 19.0526 -8.5 30
      vertex 15.5885 -8.5 -60
      vertex 21.2504 0.906056 30
    endloop
  endfacet
  facet normal 0.977283 -0.208184 -0.0397232
    outer loop
      vertex 21.2504 0.906056 30
      vertex 15.5885 -8.5 -60
      vertex 17.3867 -0.0586662 -60
    endloop
  endfacet
  facet normal -0.940502 0.333078 -0.0671897
    outer loop
      vertex -10.3923 21 -160
      vertex -15.5885 26.5 -60
      vertex -8.48528 26.3848 -160
    endloop
  endfacet
  facet normal -0.854574 0.514014 -0.0741078
    outer loop
      vertex -8.48528 26.3848 -160
      vertex -12.7279 33.7487 -60
      vertex -6 30.5167 -160
    endloop
  endfacet
  facet normal 0.996337 0.0605416 -0.0603857
    outer loop
      vertex 12 8 -160
      vertex 11.5911 14.7293 -160
      vertex 18 9 -60
    endloop
  endfacet
  facet normal 0.273004 0.957109 -0.0970149
    outer loop
      vertex 3.10583 33.1141 -160
      vertex 0 34 -160
      vertex 4.65874 42.8074 -60
    endloop
  endfacet
  facet normal 0.928137 0.366277 -0.0663496
    outer loop
      vertex 15.5885 26.5 -60
      vertex 8.48528 26.3848 -160
      vertex 12.7279 33.7487 -60
    endloop
  endfacet
  facet normal 0.829055 -0.555649 -0.0626236
    outer loop
      vertex 9 -21.3109 -60
      vertex 6 -14.5167 -160
      vertex 12.7279 -15.7487 -60
    endloop
  endfacet
  facet normal -0.928564 -0.366445 -0.0590512
    outer loop
      vertex -12.7279 -15.7487 -60
      vertex -15.5885 -8.5 -60
      vertex -8.48528 -10.3848 -160
    endloop
  endfacet
  facet normal 0.995921 0.0674267 -0.0599645
    outer loop
      vertex 18 9 -60
      vertex 11.5911 14.7293 -160
      vertex 17.3867 18.0587 -60
    endloop
  endfacet
  facet normal 0.996 -0.0674323 -0.0586206
    outer loop
      vertex 17.3867 -0.0586662 -60
      vertex 11.5911 1.2707 -160
      vertex 18 9 -60
    endloop
  endfacet
  facet normal 0.273462 -0.958715 -0.0780034
    outer loop
      vertex 4.65874 -24.8074 -60
      vertex 0 -18 -160
      vertex 3.10583 -17.1141 -160
    endloop
  endfacet
  facet normal -0.976163 0.207946 -0.0621604
    outer loop
      vertex -10.3923 21 -160
      vertex -17.3867 18.0587 -60
      vertex -15.5885 26.5 -60
    endloop
  endfacet
  facet normal -0.828427 0.555229 -0.0736808
    outer loop
      vertex -6 30.5167 -160
      vertex -12.7279 33.7487 -60
      vertex -9 39.3109 -60
    endloop
  endfacet
  facet normal 0.24684 0.964247 -0.0964247
    outer loop
      vertex 4.65874 42.8074 -60
      vertex 0 34 -160
      vertex 0 44 -60
    endloop
  endfacet
  facet normal -0.99641 -0.060546 -0.0591791
    outer loop
      vertex -11.5911 1.2707 -160
      vertex -18 9 -60
      vertex -12 8 -160
    endloop
  endfacet
  facet normal -0.247254 -0.965865 -0.0772692
    outer loop
      vertex 0 -26 -60
      vertex -4.65874 -24.8074 -60
      vertex 0 -18 -160
    endloop
  endfacet
  facet normal -0.996 -0.0674323 -0.0586206
    outer loop
      vertex -17.3867 -0.0586662 -60
      vertex -18 9 -60
      vertex -11.5911 1.2707 -160
    endloop
  endfacet
  facet normal -0.980483 -0.187444 -0.0593167
    outer loop
      vertex -10.3923 -5 -160
      vertex -17.3867 -0.0586662 -60
      vertex -11.5911 1.2707 -160
    endloop
  endfacet
  facet normal 0.940502 0.333078 -0.0671897
    outer loop
      vertex 10.3923 21 -160
      vertex 8.48528 26.3848 -160
      vertex 15.5885 26.5 -60
    endloop
  endfacet
  facet normal 0.665492 0.741529 -0.0851763
    outer loop
      vertex 6 30.5167 -160
      vertex 3.10583 33.1141 -160
      vertex 9 39.3109 -60
    endloop
  endfacet
  facet normal -0.980258 0.187401 -0.0630511
    outer loop
      vertex -11.5911 14.7293 -160
      vertex -17.3867 18.0587 -60
      vertex -10.3923 21 -160
    endloop
  endfacet
  facet normal 0.854574 0.514014 -0.0741078
    outer loop
      vertex 8.48528 26.3848 -160
      vertex 6 30.5167 -160
      vertex 12.7279 33.7487 -60
    endloop
  endfacet
  facet normal 0.980258 0.187401 -0.0630511
    outer loop
      vertex 11.5911 14.7293 -160
      vertex 10.3923 21 -160
      vertex 17.3867 18.0587 -60
    endloop
  endfacet
  facet normal -0.928137 0.366277 -0.0663496
    outer loop
      vertex -8.48528 26.3848 -160
      vertex -15.5885 26.5 -60
      vertex -12.7279 33.7487 -60
    endloop
  endfacet
  facet normal 0.928564 -0.366445 -0.0590512
    outer loop
      vertex 12.7279 -15.7487 -60
      vertex 8.48528 -10.3848 -160
      vertex 15.5885 -8.5 -60
    endloop
  endfacet
  facet normal 0.855181 -0.514379 -0.0638729
    outer loop
      vertex 12.7279 -15.7487 -60
      vertex 6 -14.5167 -160
      vertex 8.48528 -10.3848 -160
    endloop
  endfacet
  facet normal -0.624995 0.775995 -0.0849252
    outer loop
      vertex -3.10583 33.1141 -160
      vertex -9 39.3109 -60
      vertex -4.65874 42.8074 -60
    endloop
  endfacet
  facet normal 0.980483 -0.187444 -0.0593167
    outer loop
      vertex 17.3867 -0.0586662 -60
      vertex 10.3923 -5 -160
      vertex 11.5911 1.2707 -160
    endloop
  endfacet
  facet normal 0.624995 0.775995 -0.0849252
    outer loop
      vertex 9 39.3109 -60
      vertex 3.10583 33.1141 -160
      vertex 4.65874 42.8074 -60
    endloop
  endfacet
  facet normal -0.940903 -0.33322 -0.0605539
    outer loop
      vertex -8.48528 -10.3848 -160
      vertex -15.5885 -8.5 -60
      vertex -10.3923 -5 -160
    endloop
  endfacet
  facet normal 0.976163 0.207946 -0.0621604
    outer loop
      vertex 17.3867 18.0587 -60
      vertex 10.3923 21 -160
      vertex 15.5885 26.5 -60
    endloop
  endfacet
  facet normal -0.976407 -0.207997 -0.058016
    outer loop
      vertex -15.5885 -8.5 -60
      vertex -17.3867 -0.0586662 -60
      vertex -10.3923 -5 -160
    endloop
  endfacet
  facet normal -0.996337 0.0605416 -0.0603857
    outer loop
      vertex -12 8 -160
      vertex -18 9 -60
      vertex -11.5911 14.7293 -160
    endloop
  endfacet
  facet normal -0.995921 0.0674267 -0.0599645
    outer loop
      vertex -11.5911 14.7293 -160
      vertex -18 9 -60
      vertex -17.3867 18.0587 -60
    endloop
  endfacet
  facet normal -0.625745 -0.776926 -0.0694885
    outer loop
      vertex -4.65874 -24.8074 -60
      vertex -9 -21.3109 -60
      vertex -3.10583 -17.1141 -160
    endloop
  endfacet
  facet normal -0.24684 0.964247 -0.0964247
    outer loop
      vertex 0 34 -160
      vertex -4.65874 42.8074 -60
      vertex 0 44 -60
    endloop
  endfacet
  facet normal -0.666261 -0.742386 -0.070427
    outer loop
      vertex -3.10583 -17.1141 -160
      vertex -9 -21.3109 -60
      vertex -6 -14.5167 -160
    endloop
  endfacet
  facet normal 0.247254 -0.965865 -0.0772692
    outer loop
      vertex 4.65874 -24.8074 -60
      vertex 0 -26 -60
      vertex 0 -18 -160
    endloop
  endfacet
  facet normal 0.828427 0.555229 -0.0736808
    outer loop
      vertex 12.7279 33.7487 -60
      vertex 6 30.5167 -160
      vertex 9 39.3109 -60
    endloop
  endfacet
  facet normal 0.666261 -0.742386 -0.070427
    outer loop
      vertex 9 -21.3109 -60
      vertex 3.10583 -17.1141 -160
      vertex 6 -14.5167 -160
    endloop
  endfacet
  facet normal -0.273462 -0.958715 -0.0780034
    outer loop
      vertex 0 -18 -160
      vertex -4.65874 -24.8074 -60
      vertex -3.10583 -17.1141 -160
    endloop
  endfacet
  facet normal -0.273004 0.957109 -0.0970149
    outer loop
      vertex -3.10583 33.1141 -160
      vertex -4.65874 42.8074 -60
      vertex 0 34 -160
    endloop
  endfacet
  facet normal -0.829055 -0.555649 -0.0626236
    outer loop
      vertex -9 -21.3109 -60
      vertex -12.7279 -15.7487 -60
      vertex -6 -14.5167 -160
    endloop
  endfacet
  facet normal -0.855181 -0.514379 -0.0638729
    outer loop
      vertex -6 -14.5167 -160
      vertex -12.7279 -15.7487 -60
      vertex -8.48528 -10.3848 -160
    endloop
  endfacet
  facet normal 0.99641 -0.060546 -0.0591791
    outer loop
      vertex 18 9 -60
      vertex 11.5911 1.2707 -160
      vertex 12 8 -160
    endloop
  endfacet
  facet normal 0.940903 -0.33322 -0.0605539
    outer loop
      vertex 15.5885 -8.5 -60
      vertex 8.48528 -10.3848 -160
      vertex 10.3923 -5 -160
    endloop
  endfacet
  facet normal -0.665492 0.741529 -0.0851763
    outer loop
      vertex -6 30.5167 -160
      vertex -9 39.3109 -60
      vertex -3.10583 33.1141 -160
    endloop
  endfacet
  facet normal 0.976407 -0.207997 -0.058016
    outer loop
      vertex 15.5885 -8.5 -60
      vertex 10.3923 -5 -160
      vertex 17.3867 -0.0586662 -60
    endloop
  endfacet
  facet normal 0.625745 -0.776926 -0.0694885
    outer loop
      vertex 4.65874 -24.8074 -60
      vertex 3.10583 -17.1141 -160
      vertex 9 -21.3109 -60
    endloop
  endfacet
  facet normal 0.311338 -0.945935 -0.0909723
    outer loop
      vertex 3.10583 -17.1141 -160
      vertex 0 -9 -255
      vertex 1.81173 -8.4037 -255
    endloop
  endfacet
  facet normal 0.996788 -0.0605689 -0.0523962
    outer loop
      vertex 11.5911 1.2707 -160
      vertex 6.76148 3.97067 -255
      vertex 12 8 -160
    endloop
  endfacet
  facet normal 0.980775 -0.187499 -0.0540789
    outer loop
      vertex 10.3923 -5 -160
      vertex 6.06218 -0.25 -255
      vertex 11.5911 1.2707 -160
    endloop
  endfacet
  facet normal 0.273166 -0.957679 -0.0907275
    outer loop
      vertex 3.10583 -17.1141 -160
      vertex 0 -18 -160
      vertex 0 -9 -255
    endloop
  endfacet
  facet normal 0.665931 -0.742018 -0.0771058
    outer loop
      vertex 3.10583 -17.1141 -160
      vertex 1.81173 -8.4037 -255
      vertex 6 -14.5167 -160
    endloop
  endfacet
  facet normal 0.884898 -0.461291 -0.0645451
    outer loop
      vertex 8.48528 -10.3848 -160
      vertex 3.5 -6.65544 -255
      vertex 4.94975 -3.87437 -255
    endloop
  endfacet
  facet normal -0.666312 0.742443 -0.0693348
    outer loop
      vertex -1.81173 25.4037 -255
      vertex -6 30.5167 -160
      vertex -3.10583 33.1141 -160
    endloop
  endfacet
  facet normal -0.717637 0.692997 -0.0689363
    outer loop
      vertex -3.5 23.6554 -255
      vertex -6 30.5167 -160
      vertex -1.81173 25.4037 -255
    endloop
  endfacet
  facet normal 0.980878 0.187519 -0.0521107
    outer loop
      vertex 11.5911 14.7293 -160
      vertex 6.06218 17.25 -255
      vertex 10.3923 21 -160
    endloop
  endfacet
  facet normal -0.273166 -0.957679 -0.0907275
    outer loop
      vertex 0 -18 -160
      vertex -3.10583 -17.1141 -160
      vertex 0 -9 -255
    endloop
  endfacet
  facet normal -0.311605 0.946746 -0.0810846
    outer loop
      vertex -1.81173 25.4037 -255
      vertex -3.10583 33.1141 -160
      vertex 0 26 -255
    endloop
  endfacet
  facet normal 0.71725 -0.692638 -0.0761909
    outer loop
      vertex 6 -14.5167 -160
      vertex 1.81173 -8.4037 -255
      vertex 3.5 -6.65544 -255
    endloop
  endfacet
  facet normal -0.665931 -0.742018 -0.0771058
    outer loop
      vertex -3.10583 -17.1141 -160
      vertex -6 -14.5167 -160
      vertex -1.81173 -8.4037 -255
    endloop
  endfacet
  facet normal 0.855115 -0.51434 -0.0650647
    outer loop
      vertex 6 -14.5167 -160
      vertex 3.5 -6.65544 -255
      vertex 8.48528 -10.3848 -160
    endloop
  endfacet
  facet normal 0.941053 -0.333273 -0.0578618
    outer loop
      vertex 8.48528 -10.3848 -160
      vertex 4.94975 -3.87437 -255
      vertex 10.3923 -5 -160
    endloop
  endfacet
  facet normal -0.885161 0.461439 -0.0597076
    outer loop
      vertex -4.94975 20.8744 -255
      vertex -8.48528 26.3848 -160
      vertex -3.5 23.6554 -255
    endloop
  endfacet
  facet normal -0.996821 0.0605709 -0.0517604
    outer loop
      vertex -6.76148 13.0293 -255
      vertex -12 8 -160
      vertex -11.5911 14.7293 -160
    endloop
  endfacet
  facet normal -0.941239 0.333338 -0.0543643
    outer loop
      vertex -4.94975 20.8744 -255
      vertex -10.3923 21 -160
      vertex -8.48528 26.3848 -160
    endloop
  endfacet
  facet normal 0.985073 -0.163211 -0.0547178
    outer loop
      vertex 11.5911 1.2707 -160
      vertex 6.06218 -0.25 -255
      vertex 6.76148 3.97067 -255
    endloop
  endfacet
  facet normal 0.954366 -0.292924 -0.0581464
    outer loop
      vertex 10.3923 -5 -160
      vertex 4.94975 -3.87437 -255
      vertex 6.06218 -0.25 -255
    endloop
  endfacet
  facet normal -0.941053 -0.333273 -0.0578618
    outer loop
      vertex -8.48528 -10.3848 -160
      vertex -10.3923 -5 -160
      vertex -4.94975 -3.87437 -255
    endloop
  endfacet
  facet normal -0.980878 0.187519 -0.0521107
    outer loop
      vertex -6.06218 17.25 -255
      vertex -11.5911 14.7293 -160
      vertex -10.3923 21 -160
    endloop
  endfacet
  facet normal 0.311605 0.946746 -0.0810846
    outer loop
      vertex 1.81173 25.4037 -255
      vertex 0 26 -255
      vertex 3.10583 33.1141 -160
    endloop
  endfacet
  facet normal 0.885161 0.461439 -0.0597076
    outer loop
      vertex 4.94975 20.8744 -255
      vertex 3.5 23.6554 -255
      vertex 8.48528 26.3848 -160
    endloop
  endfacet
  facet normal 0.997254 0.052517 -0.0522107
    outer loop
      vertex 7 8.5 -255
      vertex 6.76148 13.0293 -255
      vertex 12 8 -160
    endloop
  endfacet
  facet normal -0.985164 0.163225 -0.0530047
    outer loop
      vertex -6.76148 13.0293 -255
      vertex -11.5911 14.7293 -160
      vertex -6.06218 17.25 -255
    endloop
  endfacet
  facet normal -0.311338 -0.945935 -0.0909723
    outer loop
      vertex 0 -9 -255
      vertex -3.10583 -17.1141 -160
      vertex -1.81173 -8.4037 -255
    endloop
  endfacet
  facet normal -0.985073 -0.163211 -0.0547178
    outer loop
      vertex -6.06218 -0.25 -255
      vertex -11.5911 1.2707 -160
      vertex -6.76148 3.97067 -255
    endloop
  endfacet
  facet normal 0.666312 0.742443 -0.0693348
    outer loop
      vertex 6 30.5167 -160
      vertex 1.81173 25.4037 -255
      vertex 3.10583 33.1141 -160
    endloop
  endfacet
  facet normal -0.997225 -0.0525151 -0.0527619
    outer loop
      vertex -6.76148 3.97067 -255
      vertex -12 8 -160
      vertex -7 8.5 -255
    endloop
  endfacet
  facet normal 0.985164 0.163225 -0.0530047
    outer loop
      vertex 6.76148 13.0293 -255
      vertex 6.06218 17.25 -255
      vertex 11.5911 14.7293 -160
    endloop
  endfacet
  facet normal 0.996821 0.0605709 -0.0517604
    outer loop
      vertex 12 8 -160
      vertex 6.76148 13.0293 -255
      vertex 11.5911 14.7293 -160
    endloop
  endfacet
  facet normal 0.273402 0.958507 -0.0807164
    outer loop
      vertex 3.10583 33.1141 -160
      vertex 0 26 -255
      vertex 0 34 -160
    endloop
  endfacet
  facet normal -0.273402 0.958507 -0.0807164
    outer loop
      vertex 0 26 -255
      vertex -3.10583 33.1141 -160
      vertex 0 34 -160
    endloop
  endfacet
  facet normal 0.954533 0.292973 -0.0550726
    outer loop
      vertex 6.06218 17.25 -255
      vertex 4.94975 20.8744 -255
      vertex 10.3923 21 -160
    endloop
  endfacet
  facet normal 0.941239 0.333338 -0.0543643
    outer loop
      vertex 10.3923 21 -160
      vertex 4.94975 20.8744 -255
      vertex 8.48528 26.3848 -160
    endloop
  endfacet
  facet normal -0.996788 -0.0605689 -0.0523962
    outer loop
      vertex -11.5911 1.2707 -160
      vertex -12 8 -160
      vertex -6.76148 3.97067 -255
    endloop
  endfacet
  facet normal -0.884898 -0.461291 -0.0645451
    outer loop
      vertex -3.5 -6.65544 -255
      vertex -8.48528 -10.3848 -160
      vertex -4.94975 -3.87437 -255
    endloop
  endfacet
  facet normal 0.997225 -0.0525151 -0.0527619
    outer loop
      vertex 12 8 -160
      vertex 6.76148 3.97067 -255
      vertex 7 8.5 -255
    endloop
  endfacet
  facet normal -0.954533 0.292973 -0.0550726
    outer loop
      vertex -6.06218 17.25 -255
      vertex -10.3923 21 -160
      vertex -4.94975 20.8744 -255
    endloop
  endfacet
  facet normal -0.954366 -0.292924 -0.0581464
    outer loop
      vertex -4.94975 -3.87437 -255
      vertex -10.3923 -5 -160
      vertex -6.06218 -0.25 -255
    endloop
  endfacet
  facet normal -0.997254 0.052517 -0.0522107
    outer loop
      vertex -7 8.5 -255
      vertex -12 8 -160
      vertex -6.76148 13.0293 -255
    endloop
  endfacet
  facet normal -0.855404 0.514513 -0.0596709
    outer loop
      vertex -3.5 23.6554 -255
      vertex -8.48528 26.3848 -160
      vertex -6 30.5167 -160
    endloop
  endfacet
  facet normal 0.717637 0.692997 -0.0689363
    outer loop
      vertex 3.5 23.6554 -255
      vertex 1.81173 25.4037 -255
      vertex 6 30.5167 -160
    endloop
  endfacet
  facet normal 0.855404 0.514513 -0.0596709
    outer loop
      vertex 8.48528 26.3848 -160
      vertex 3.5 23.6554 -255
      vertex 6 30.5167 -160
    endloop
  endfacet
  facet normal -0.980775 -0.187499 -0.0540789
    outer loop
      vertex -10.3923 -5 -160
      vertex -11.5911 1.2707 -160
      vertex -6.06218 -0.25 -255
    endloop
  endfacet
  facet normal -0.71725 -0.692638 -0.0761909
    outer loop
      vertex -1.81173 -8.4037 -255
      vertex -6 -14.5167 -160
      vertex -3.5 -6.65544 -255
    endloop
  endfacet
  facet normal -0.855115 -0.51434 -0.0650647
    outer loop
      vertex -6 -14.5167 -160
      vertex -8.48528 -10.3848 -160
      vertex -3.5 -6.65544 -255
    endloop
  endfacet
  facet normal -0.718067 0.693411 -0.059674
    outer loop
      vertex -0.776457 19.5911 -335
      vertex -3.5 23.6554 -255
      vertex -1.81173 25.4037 -255
    endloop
  endfacet
  facet normal -0.949592 0.309387 -0.0505473
    outer loop
      vertex -2.12132 16.4853 -335
      vertex -4.94975 20.8744 -255
      vertex -1.5 18.3923 -335
    endloop
  endfacet
  facet normal -0.885778 -0.461749 -0.0467507
    outer loop
      vertex -3.5 -6.65544 -255
      vertex -4.94975 -3.87437 -255
      vertex -1.5 -2.3923 -335
    endloop
  endfacet
  facet normal 0.718067 0.693411 -0.059674
    outer loop
      vertex 3.5 23.6554 -255
      vertex 0.776457 19.5911 -335
      vertex 1.81173 25.4037 -255
    endloop
  endfacet
  facet normal 0.949592 0.309387 -0.0505473
    outer loop
      vertex 2.12132 16.4853 -335
      vertex 1.5 18.3923 -335
      vertex 4.94975 20.8744 -255
    endloop
  endfacet
  facet normal -0.854836 0.515941 -0.055314
    outer loop
      vertex -1.5 18.3923 -335
      vertex -3.5 23.6554 -255
      vertex -0.776457 19.5911 -335
    endloop
  endfacet
  facet normal 0.998223 -0.0328538 -0.0497058
    outer loop
      vertex 7 8.5 -255
      vertex 2.89778 4.89417 -335
      vertex 3 8 -335
    endloop
  endfacet
  facet normal -0.980972 -0.188183 -0.0477699
    outer loop
      vertex -2.12132 -0.485281 -335
      vertex -6.06218 -0.25 -255
      vertex -2.59808 2 -335
    endloop
  endfacet
  facet normal -0.985351 0.163256 -0.0492992
    outer loop
      vertex -2.59808 14 -335
      vertex -6.76148 13.0293 -255
      vertex -6.06218 17.25 -255
    endloop
  endfacet
  facet normal 0 0 -1
    outer loop
      vertex -3 8 -335
      vertex 3 8 -335
      vertex 2.89778 4.89417 -335
    endloop
  endfacet
  facet normal 0 0 -1
    outer loop
      vertex -2.89778 4.89417 -335
      vertex 2.89778 4.89417 -335
      vertex 2.59808 2 -335
    endloop
  endfacet
  facet normal 0 0 -1
    outer loop
      vertex 3 8 -335
      vertex -3 8 -335
      vertex 2.89778 11.1058 -335
    endloop
  endfacet
  facet normal 0 0 -1
    outer loop
      vertex -2.59808 2 -335
      vertex 2.59808 2 -335
      vertex 2.12132 -0.485281 -335
    endloop
  endfacet
  facet normal 0 -0 -1
    outer loop
      vertex -2.89778 11.1058 -335
      vertex 2.89778 11.1058 -335
      vertex -3 8 -335
    endloop
  endfacet
  facet normal 0 0 -1
    outer loop
      vertex -2.12132 -0.485281 -335
      vertex 2.12132 -0.485281 -335
      vertex 1.5 -2.3923 -335
    endloop
  endfacet
  facet normal 0 0 -1
    outer loop
      vertex 2.89778 11.1058 -335
      vertex -2.89778 11.1058 -335
      vertex 2.59808 14 -335
    endloop
  endfacet
  facet normal 0 0 -1
    outer loop
      vertex -1.5 -2.3923 -335
      vertex 1.5 -2.3923 -335
      vertex 0.776457 -3.59111 -335
    endloop
  endfacet
  facet normal 0 -0 -1
    outer loop
      vertex -2.59808 14 -335
      vertex 2.59808 14 -335
      vertex -2.89778 11.1058 -335
    endloop
  endfacet
  facet normal 0 0 -1
    outer loop
      vertex -0.776457 -3.59111 -335
      vertex 0.776457 -3.59111 -335
      vertex 0 -4 -335
    endloop
  endfacet
  facet normal 0 0 -1
    outer loop
      vertex 2.59808 14 -335
      vertex -2.59808 14 -335
      vertex 2.12132 16.4853 -335
    endloop
  endfacet
  facet normal 0 0 -1
    outer loop
      vertex 0.776457 -3.59111 -335
      vertex -0.776457 -3.59111 -335
      vertex -1.5 -2.3923 -335
    endloop
  endfacet
  facet normal 0 -0 -1
    outer loop
      vertex -2.12132 16.4853 -335
      vertex 2.12132 16.4853 -335
      vertex -2.59808 14 -335
    endloop
  endfacet
  facet normal 0 0 -1
    outer loop
      vertex 1.5 -2.3923 -335
      vertex -1.5 -2.3923 -335
      vertex -2.12132 -0.485281 -335
    endloop
  endfacet
  facet normal 0 0 -1
    outer loop
      vertex 2.12132 16.4853 -335
      vertex -2.12132 16.4853 -335
      vertex 1.5 18.3923 -335
    endloop
  endfacet
  facet normal 0 0 -1
    outer loop
      vertex 2.12132 -0.485281 -335
      vertex -2.12132 -0.485281 -335
      vertex -2.59808 2 -335
    endloop
  endfacet
  facet normal 0 0 -1
    outer loop
      vertex 2.89778 4.89417 -335
      vertex -2.89778 4.89417 -335
      vertex -3 8 -335
    endloop
  endfacet
  facet normal 0 0 -1
    outer loop
      vertex 2.59808 2 -335
      vertex -2.59808 2 -335
      vertex -2.89778 4.89417 -335
    endloop
  endfacet
  facet normal 0 -0 -1
    outer loop
      vertex -1.5 18.3923 -335
      vertex 1.5 18.3923 -335
      vertex -2.12132 16.4853 -335
    endloop
  endfacet
  facet normal 0 0 -1
    outer loop
      vertex 1.5 18.3923 -335
      vertex -1.5 18.3923 -335
      vertex 0.776457 19.5911 -335
    endloop
  endfacet
  facet normal 0 0 -1
    outer loop
      vertex 0.776457 19.5911 -335
      vertex -0.776457 19.5911 -335
      vertex 0 20 -335
    endloop
  endfacet
  facet normal 0 -0 -1
    outer loop
      vertex -0.776457 19.5911 -335
      vertex 0.776457 19.5911 -335
      vertex -1.5 18.3923 -335
    endloop
  endfacet
  facet normal -0.997395 0.0525244 -0.0494333
    outer loop
      vertex -2.89778 11.1058 -335
      vertex -7 8.5 -255
      vertex -6.76148 13.0293 -255
    endloop
  endfacet
  facet normal 0.854836 0.515941 -0.055314
    outer loop
      vertex 1.5 18.3923 -335
      vertex 0.776457 19.5911 -335
      vertex 3.5 23.6554 -255
    endloop
  endfacet
  facet normal 0.985351 0.163256 -0.0492992
    outer loop
      vertex 6.76148 13.0293 -255
      vertex 2.59808 14 -335
      vertex 6.06218 17.25 -255
    endloop
  endfacet
  facet normal -0.993478 -0.102878 -0.0491689
    outer loop
      vertex -2.59808 2 -335
      vertex -6.76148 3.97067 -255
      vertex -2.89778 4.89417 -335
    endloop
  endfacet
  facet normal -0.464811 0.882627 -0.0701445
    outer loop
      vertex -0.776457 19.5911 -335
      vertex -1.81173 25.4037 -255
      vertex 0 20 -335
    endloop
  endfacet
  facet normal -0.311844 0.947472 -0.0710604
    outer loop
      vertex 0 20 -335
      vertex -1.81173 25.4037 -255
      vertex 0 26 -255
    endloop
  endfacet
  facet normal 0.993415 0.10287 -0.0504516
    outer loop
      vertex 2.89778 11.1058 -335
      vertex 2.59808 14 -335
      vertex 6.76148 13.0293 -255
    endloop
  endfacet
  facet normal 0.980859 0.18816 -0.0501164
    outer loop
      vertex 2.59808 14 -335
      vertex 2.12132 16.4853 -335
      vertex 6.06218 17.25 -255
    endloop
  endfacet
  facet normal 0.993478 -0.102878 -0.0491689
    outer loop
      vertex 6.76148 3.97067 -255
      vertex 2.59808 2 -335
      vertex 2.89778 4.89417 -335
    endloop
  endfacet
  facet normal 0.997428 -0.0525257 -0.0487784
    outer loop
      vertex 6.76148 3.97067 -255
      vertex 2.89778 4.89417 -335
      vertex 7 8.5 -255
    endloop
  endfacet
  facet normal 0.885519 0.461626 -0.0525078
    outer loop
      vertex 4.94975 20.8744 -255
      vertex 1.5 18.3923 -335
      vertex 3.5 23.6554 -255
    endloop
  endfacet
  facet normal 0.954796 0.293054 -0.0498352
    outer loop
      vertex 6.06218 17.25 -255
      vertex 2.12132 16.4853 -335
      vertex 4.94975 20.8744 -255
    endloop
  endfacet
  facet normal -0.997428 -0.0525257 -0.0487784
    outer loop
      vertex -6.76148 3.97067 -255
      vertex -7 8.5 -255
      vertex -2.89778 4.89417 -335
    endloop
  endfacet
  facet normal -0.993415 0.10287 -0.0504516
    outer loop
      vertex -2.89778 11.1058 -335
      vertex -6.76148 13.0293 -255
      vertex -2.59808 14 -335
    endloop
  endfacet
  facet normal -0.885519 0.461626 -0.0525078
    outer loop
      vertex -1.5 18.3923 -335
      vertex -4.94975 20.8744 -255
      vertex -3.5 23.6554 -255
    endloop
  endfacet
  facet normal 0.311844 0.947472 -0.0710604
    outer loop
      vertex 1.81173 25.4037 -255
      vertex 0 20 -335
      vertex 0 26 -255
    endloop
  endfacet
  facet normal 0.464811 0.882627 -0.0701445
    outer loop
      vertex 0.776457 19.5911 -335
      vertex 0 20 -335
      vertex 1.81173 25.4037 -255
    endloop
  endfacet
  facet normal 0.885778 -0.461749 -0.0467507
    outer loop
      vertex 3.5 -6.65544 -255
      vertex 1.5 -2.3923 -335
      vertex 4.94975 -3.87437 -255
    endloop
  endfacet
  facet normal -0.954796 0.293054 -0.0498352
    outer loop
      vertex -2.12132 16.4853 -335
      vertex -6.06218 17.25 -255
      vertex -4.94975 20.8744 -255
    endloop
  endfacet
  facet normal -0.980859 0.18816 -0.0501164
    outer loop
      vertex -2.59808 14 -335
      vertex -6.06218 17.25 -255
      vertex -2.12132 16.4853 -335
    endloop
  endfacet
  facet normal -0.998223 -0.0328538 -0.0497058
    outer loop
      vertex -2.89778 4.89417 -335
      vertex -7 8.5 -255
      vertex -3 8 -335
    endloop
  endfacet
  facet normal 0.997395 0.0525244 -0.0494333
    outer loop
      vertex 7 8.5 -255
      vertex 2.89778 11.1058 -335
      vertex 6.76148 13.0293 -255
    endloop
  endfacet
  facet normal 0.998203 0.0328535 -0.0501155
    outer loop
      vertex 3 8 -335
      vertex 2.89778 11.1058 -335
      vertex 7 8.5 -255
    endloop
  endfacet
  facet normal 0.465134 -0.883262 -0.059154
    outer loop
      vertex 1.81173 -8.4037 -255
      vertex 0 -4 -335
      vertex 0.776457 -3.59111 -335
    endloop
  endfacet
  facet normal -0.465134 -0.883262 -0.059154
    outer loop
      vertex 0 -4 -335
      vertex -1.81173 -8.4037 -255
      vertex -0.776457 -3.59111 -335
    endloop
  endfacet
  facet normal -0.998203 0.0328535 -0.0501155
    outer loop
      vertex -3 8 -335
      vertex -7 8.5 -255
      vertex -2.89778 11.1058 -335
    endloop
  endfacet
  facet normal 0.954964 -0.293108 -0.0461802
    outer loop
      vertex 4.94975 -3.87437 -255
      vertex 2.12132 -0.485281 -335
      vertex 6.06218 -0.25 -255
    endloop
  endfacet
  facet normal -0.312085 -0.948204 -0.0592627
    outer loop
      vertex 0 -9 -255
      vertex -1.81173 -8.4037 -255
      vertex 0 -4 -335
    endloop
  endfacet
  facet normal -0.954964 -0.293108 -0.0461802
    outer loop
      vertex -4.94975 -3.87437 -255
      vertex -6.06218 -0.25 -255
      vertex -2.12132 -0.485281 -335
    endloop
  endfacet
  facet normal -0.949771 -0.309442 -0.0466886
    outer loop
      vertex -1.5 -2.3923 -335
      vertex -4.94975 -3.87437 -255
      vertex -2.12132 -0.485281 -335
    endloop
  endfacet
  facet normal 0.949771 -0.309442 -0.0466886
    outer loop
      vertex 4.94975 -3.87437 -255
      vertex 1.5 -2.3923 -335
      vertex 2.12132 -0.485281 -335
    endloop
  endfacet
  facet normal 0.855125 -0.516112 -0.0488813
    outer loop
      vertex 3.5 -6.65544 -255
      vertex 0.776457 -3.59111 -335
      vertex 1.5 -2.3923 -335
    endloop
  endfacet
  facet normal 0.312085 -0.948204 -0.0592627
    outer loop
      vertex 1.81173 -8.4037 -255
      vertex 0 -9 -255
      vertex 0 -4 -335
    endloop
  endfacet
  facet normal 0.718404 -0.693752 -0.0510311
    outer loop
      vertex 1.81173 -8.4037 -255
      vertex 0.776457 -3.59111 -335
      vertex 3.5 -6.65544 -255
    endloop
  endfacet
  facet normal 0.980972 -0.188183 -0.0477699
    outer loop
      vertex 6.06218 -0.25 -255
      vertex 2.12132 -0.485281 -335
      vertex 2.59808 2 -335
    endloop
  endfacet
  facet normal 0.985448 -0.163274 -0.0472632
    outer loop
      vertex 6.06218 -0.25 -255
      vertex 2.59808 2 -335
      vertex 6.76148 3.97067 -255
    endloop
  endfacet
  facet normal -0.985448 -0.163274 -0.0472632
    outer loop
      vertex -6.06218 -0.25 -255
      vertex -6.76148 3.97067 -255
      vertex -2.59808 2 -335
    endloop
  endfacet
  facet normal -0.855125 -0.516112 -0.0488813
    outer loop
      vertex -0.776457 -3.59111 -335
      vertex -3.5 -6.65544 -255
      vertex -1.5 -2.3923 -335
    endloop
  endfacet
  facet normal -0.718404 -0.693752 -0.0510311
    outer loop
      vertex -1.81173 -8.4037 -255
      vertex -3.5 -6.65544 -255
      vertex -0.776457 -3.59111 -335
    endloop
  endfacet
endsolid OpenSCAD_Model
