solid OpenSCAD_Model
  facet normal 0.985954 0.11316 0.122841
    outer loop
      vertex 32.8415 11.0939 200.2
      vertex 31 0 225.2
      vertex 34 1 200.2
    endloop
  endfacet
  facet normal 0.831171 -0.556017 0
    outer loop
      vertex 24.0416 -26.5772 200.2
      vertex 29.4449 -18.5 200
      vertex 29.4449 -18.5 200.2
    endloop
  endfacet
  facet normal 0.831171 -0.556017 0
    outer loop
      vertex 29.4449 -18.5 200
      vertex 24.0416 -26.5772 200.2
      vertex 24.0416 -26.5772 200
    endloop
  endfacet
  facet normal 0.985081 0.118245 0.125033
    outer loop
      vertex 32.8415 11.0939 200.2
      vertex 29.9437 8.79985 225.2
      vertex 31 0 225.2
    endloop
  endfacet
  facet normal -0.149321 0.988789 0
    outer loop
      vertex 0 40 200.2
      vertex -8.79985 38.6711 200
      vertex -8.79985 38.6711 200.2
    endloop
  endfacet
  facet normal -0.149321 0.988789 0
    outer loop
      vertex 0 40 130.2
      vertex -8.79985 38.6711 200
      vertex 0 40 200.2
    endloop
  endfacet
  facet normal -0.149307 0.988791 1.76035e-06
    outer loop
      vertex -8.79985 38.6711 200
      vertex 0 40 130.2
      vertex -0.0245034 39.9963 130.195
    endloop
  endfacet
  facet normal -0.985081 0.118245 0.125033
    outer loop
      vertex -29.9437 8.79985 225.2
      vertex -32.8415 11.0939 200.2
      vertex -31 0 225.2
    endloop
  endfacet
  facet normal -0.993478 0.114024 0
    outer loop
      vertex -34 1 200
      vertex -32.8415 11.0939 200.2
      vertex -32.8415 11.0939 200
    endloop
  endfacet
  facet normal -0.993478 0.114024 0
    outer loop
      vertex -32.8415 11.0939 200.2
      vertex -34 1 200
      vertex -34 1 200.2
    endloop
  endfacet
  facet normal 0.940555 -0.339642 0
    outer loop
      vertex 29.4449 -18.5 200.2
      vertex 32.8415 -9.09394 200
      vertex 32.8415 -9.09394 200.2
    endloop
  endfacet
  facet normal 0.940555 -0.339642 0
    outer loop
      vertex 32.8415 -9.09394 200
      vertex 29.4449 -18.5 200.2
      vertex 29.4449 -18.5 200
    endloop
  endfacet
  facet normal -0.13904 0.962942 0.231106
    outer loop
      vertex 0 40 200.2
      vertex -8.02339 32.8415 225.2
      vertex 0 34 225.2
    endloop
  endfacet
  facet normal -0.986204 -0.11838 0.115705
    outer loop
      vertex -31 0 225.2
      vertex -32.8415 -9.09394 200.2
      vertex -29.9437 -8.79985 225.2
    endloop
  endfacet
  facet normal 0.424643 -0.89375 0.14453
    outer loop
      vertex 15.5 -29.4449 225.2
      vertex 8.79985 -36.6711 200.2
      vertex 17 -32.775 200.2
    endloop
  endfacet
  facet normal -0.429149 -0.903234 0
    outer loop
      vertex -17 -32.775 200
      vertex -8.79985 -36.6711 200.2
      vertex -17 -32.775 200.2
    endloop
  endfacet
  facet normal -0.429149 -0.903234 -0
    outer loop
      vertex -8.79985 -36.6711 200.2
      vertex -17 -32.775 200
      vertex -8.79985 -36.6711 200
    endloop
  endfacet
  facet normal 0.13904 0.962942 0.231106
    outer loop
      vertex 0 40 200.2
      vertex 0 34 225.2
      vertex 8.02339 32.8415 225.2
    endloop
  endfacet
  facet normal 0.820185 0.548668 0.16205
    outer loop
      vertex 29.4449 20.5 200.2
      vertex 24.0416 28.5772 200.2
      vertex 26.8468 17 225.2
    endloop
  endfacet
  facet normal 0.6607 -0.75065 0
    outer loop
      vertex 17 -32.775 200
      vertex 24.0416 -26.5772 200.2
      vertex 17 -32.775 200.2
    endloop
  endfacet
  facet normal 0.6607 -0.75065 0
    outer loop
      vertex 24.0416 -26.5772 200.2
      vertex 17 -32.775 200
      vertex 24.0416 -26.5772 200
    endloop
  endfacet
  facet normal 0.993478 0.114024 0
    outer loop
      vertex 34 1 200.2
      vertex 32.8415 11.0939 200
      vertex 32.8415 11.0939 200.2
    endloop
  endfacet
  facet normal 0.993478 0.114024 0
    outer loop
      vertex 32.8415 11.0939 200
      vertex 34 1 200.2
      vertex 34 1 200
    endloop
  endfacet
  facet normal -0.147534 -0.976957 0.154236
    outer loop
      vertex -8.02339 -32.8415 225.2
      vertex -8.79985 -36.6711 200.2
      vertex 0 -38 200.2
    endloop
  endfacet
  facet normal 0.831171 0.556017 0
    outer loop
      vertex 29.4449 20.5 200.2
      vertex 24.0416 28.5772 200
      vertex 24.0416 28.5772 200.2
    endloop
  endfacet
  facet normal 0.831171 0.556017 0
    outer loop
      vertex 24.0416 28.5772 200
      vertex 29.4449 20.5 200.2
      vertex 29.4449 20.5 200
    endloop
  endfacet
  facet normal -0.655001 -0.744176 0.131055
    outer loop
      vertex -21.9203 -24.0416 225.2
      vertex -24.0416 -26.5772 200.2
      vertex -17 -32.775 200.2
    endloop
  endfacet
  facet normal 0.655001 -0.744176 0.131055
    outer loop
      vertex 21.9203 -24.0416 225.2
      vertex 17 -32.775 200.2
      vertex 24.0416 -26.5772 200.2
    endloop
  endfacet
  facet normal -0.637641 -0.757656 0.139181
    outer loop
      vertex -15.5 -29.4449 225.2
      vertex -21.9203 -24.0416 225.2
      vertex -17 -32.775 200.2
    endloop
  endfacet
  facet normal 0.147534 -0.976957 0.154236
    outer loop
      vertex 8.02339 -32.8415 225.2
      vertex 0 -38 200.2
      vertex 8.79985 -36.6711 200.2
    endloop
  endfacet
  facet normal 0.80731 0.564817 0.170973
    outer loop
      vertex 24.0416 28.5772 200.2
      vertex 21.9203 24.0416 225.2
      vertex 26.8468 17 225.2
    endloop
  endfacet
  facet normal 0.408899 -0.900071 0.150576
    outer loop
      vertex 15.5 -29.4449 225.2
      vertex 8.02339 -32.8415 225.2
      vertex 8.79985 -36.6711 200.2
    endloop
  endfacet
  facet normal -0.419273 0.882448 0.213298
    outer loop
      vertex -8.79985 38.6711 200.2
      vertex -17 34.775 200.2
      vertex -15.5 29.4449 225.2
    endloop
  endfacet
  facet normal -0.812778 -0.568642 0.12664
    outer loop
      vertex -21.9203 -24.0416 225.2
      vertex -26.8468 -17 225.2
      vertex -24.0416 -26.5772 200.2
    endloop
  endfacet
  facet normal 0.429149 0.903234 -0
    outer loop
      vertex 17 34.775 200
      vertex 8.79985 38.6711 200.2
      vertex 17 34.775 200.2
    endloop
  endfacet
  facet normal 0.429149 0.903234 0
    outer loop
      vertex 8.79985 38.6711 200.2
      vertex 17 34.775 200
      vertex 8.79985 38.6711 200
    endloop
  endfacet
  facet normal 0.637641 -0.757656 0.139181
    outer loop
      vertex 21.9203 -24.0416 225.2
      vertex 15.5 -29.4449 225.2
      vertex 17 -32.775 200.2
    endloop
  endfacet
  facet normal 0.993478 -0.114023 0
    outer loop
      vertex 32.8415 -9.09394 200.2
      vertex 34 1 200
      vertex 34 1 200.2
    endloop
  endfacet
  facet normal 0.993478 -0.114023 0
    outer loop
      vertex 34 1 200
      vertex 32.8415 -9.09394 200.2
      vertex 32.8415 -9.09394 200
    endloop
  endfacet
  facet normal 0.6607 0.75065 -0
    outer loop
      vertex 24.0416 28.5772 200
      vertex 17 34.775 200.2
      vertex 24.0416 28.5772 200.2
    endloop
  endfacet
  facet normal 0.6607 0.75065 0
    outer loop
      vertex 17 34.775 200.2
      vertex 24.0416 28.5772 200
      vertex 17 34.775 200
    endloop
  endfacet
  facet normal -0.825275 -0.552074 0.11889
    outer loop
      vertex -26.8468 -17 225.2
      vertex -29.4449 -18.5 200.2
      vertex -24.0416 -26.5772 200.2
    endloop
  endfacet
  facet normal -0.145354 0.962523 0.228959
    outer loop
      vertex 0 40 200.2
      vertex -8.79985 38.6711 200.2
      vertex -8.02339 32.8415 225.2
    endloop
  endfacet
  facet normal -0.931447 0.336351 0.13883
    outer loop
      vertex -29.4449 20.5 200.2
      vertex -32.8415 11.0939 200.2
      vertex -29.9437 8.79985 225.2
    endloop
  endfacet
  facet normal 0.429149 -0.903234 0
    outer loop
      vertex 8.79985 -36.6711 200
      vertex 17 -32.775 200.2
      vertex 8.79985 -36.6711 200.2
    endloop
  endfacet
  facet normal 0.429149 -0.903234 0
    outer loop
      vertex 17 -32.775 200.2
      vertex 8.79985 -36.6711 200
      vertex 17 -32.775 200
    endloop
  endfacet
  facet normal -0.929016 -0.350856 0.117598
    outer loop
      vertex -26.8468 -17 225.2
      vertex -29.9437 -8.79985 225.2
      vertex -29.4449 -18.5 200.2
    endloop
  endfacet
  facet normal -0.934605 -0.337493 0.112302
    outer loop
      vertex -29.9437 -8.79985 225.2
      vertex -32.8415 -9.09394 200.2
      vertex -29.4449 -18.5 200.2
    endloop
  endfacet
  facet normal -0.648818 0.737152 0.188791
    outer loop
      vertex -17 34.775 200.2
      vertex -24.0416 28.5772 200.2
      vertex -21.9203 24.0416 225.2
    endloop
  endfacet
  facet normal 0.419273 0.882448 0.213298
    outer loop
      vertex 17 34.775 200.2
      vertex 8.79985 38.6711 200.2
      vertex 15.5 29.4449 225.2
    endloop
  endfacet
  facet normal 0.403514 0.888217 0.219651
    outer loop
      vertex 8.79985 38.6711 200.2
      vertex 8.02339 32.8415 225.2
      vertex 15.5 29.4449 225.2
    endloop
  endfacet
  facet normal 0.812778 -0.568642 0.12664
    outer loop
      vertex 26.8468 -17 225.2
      vertex 21.9203 -24.0416 225.2
      vertex 24.0416 -26.5772 200.2
    endloop
  endfacet
  facet normal -0.631189 0.749991 0.197772
    outer loop
      vertex -17 34.775 200.2
      vertex -21.9203 24.0416 225.2
      vertex -15.5 29.4449 225.2
    endloop
  endfacet
  facet normal 0.987012 -0.113281 0.11391
    outer loop
      vertex 34 1 200.2
      vertex 31 0 225.2
      vertex 32.8415 -9.09394 200.2
    endloop
  endfacet
  facet normal 0.940555 0.33964 0
    outer loop
      vertex 32.8415 11.0939 200.2
      vertex 29.4449 20.5 200
      vertex 29.4449 20.5 200.2
    endloop
  endfacet
  facet normal 0.940555 0.33964 0
    outer loop
      vertex 29.4449 20.5 200
      vertex 32.8415 11.0939 200.2
      vertex 32.8415 11.0939 200
    endloop
  endfacet
  facet normal -0.80731 0.564817 0.170973
    outer loop
      vertex -24.0416 28.5772 200.2
      vertex -26.8468 17 225.2
      vertex -21.9203 24.0416 225.2
    endloop
  endfacet
  facet normal 0.141149 -0.977555 0.156409
    outer loop
      vertex 0 -34 225.2
      vertex 0 -38 200.2
      vertex 8.02339 -32.8415 225.2
    endloop
  endfacet
  facet normal 0.631189 0.749991 0.197772
    outer loop
      vertex 17 34.775 200.2
      vertex 15.5 29.4449 225.2
      vertex 21.9203 24.0416 225.2
    endloop
  endfacet
  facet normal -0.149321 -0.988789 0
    outer loop
      vertex -8.79985 -36.6711 200
      vertex 0 -38 200.2
      vertex -8.79985 -36.6711 200.2
    endloop
  endfacet
  facet normal -0.149321 -0.988789 -0
    outer loop
      vertex 0 -38 200.2
      vertex -8.79985 -36.6711 200
      vertex 0 -38 200
    endloop
  endfacet
  facet normal 0.145354 0.962523 0.228959
    outer loop
      vertex 8.79985 38.6711 200.2
      vertex 0 40 200.2
      vertex 8.02339 32.8415 225.2
    endloop
  endfacet
  facet normal -0.987012 -0.113281 0.11391
    outer loop
      vertex -31 0 225.2
      vertex -34 1 200.2
      vertex -32.8415 -9.09394 200.2
    endloop
  endfacet
  facet normal -0.993478 -0.114023 0
    outer loop
      vertex -32.8415 -9.09394 200
      vertex -34 1 200.2
      vertex -34 1 200
    endloop
  endfacet
  facet normal -0.993478 -0.114023 0
    outer loop
      vertex -34 1 200.2
      vertex -32.8415 -9.09394 200
      vertex -32.8415 -9.09394 200.2
    endloop
  endfacet
  facet normal -0.940555 -0.339642 0
    outer loop
      vertex -29.4449 -18.5 200
      vertex -32.8415 -9.09394 200.2
      vertex -32.8415 -9.09394 200
    endloop
  endfacet
  facet normal -0.940555 -0.339642 0
    outer loop
      vertex -32.8415 -9.09394 200.2
      vertex -29.4449 -18.5 200
      vertex -29.4449 -18.5 200.2
    endloop
  endfacet
  facet normal -0.925603 0.349567 0.145132
    outer loop
      vertex -29.4449 20.5 200.2
      vertex -29.9437 8.79985 225.2
      vertex -26.8468 17 225.2
    endloop
  endfacet
  facet normal -0.403514 0.888217 0.219651
    outer loop
      vertex -8.79985 38.6711 200.2
      vertex -15.5 29.4449 225.2
      vertex -8.02339 32.8415 225.2
    endloop
  endfacet
  facet normal 0.149321 -0.988789 0
    outer loop
      vertex 0 -38 200
      vertex 8.79985 -36.6711 200.2
      vertex 0 -38 200.2
    endloop
  endfacet
  facet normal 0.149321 -0.988789 0
    outer loop
      vertex 8.79985 -36.6711 200.2
      vertex 0 -38 200
      vertex 8.79985 -36.6711 200
    endloop
  endfacet
  facet normal 0.934605 -0.337493 0.112302
    outer loop
      vertex 29.9437 -8.79985 225.2
      vertex 29.4449 -18.5 200.2
      vertex 32.8415 -9.09394 200.2
    endloop
  endfacet
  facet normal -0.424643 -0.89375 0.14453
    outer loop
      vertex -15.5 -29.4449 225.2
      vertex -17 -32.775 200.2
      vertex -8.79985 -36.6711 200.2
    endloop
  endfacet
  facet normal 0.648818 0.737152 0.188791
    outer loop
      vertex 24.0416 28.5772 200.2
      vertex 17 34.775 200.2
      vertex 21.9203 24.0416 225.2
    endloop
  endfacet
  facet normal 0.986204 -0.11838 0.115705
    outer loop
      vertex 31 0 225.2
      vertex 29.9437 -8.79985 225.2
      vertex 32.8415 -9.09394 200.2
    endloop
  endfacet
  facet normal 0.149321 0.988789 -0
    outer loop
      vertex 8.79985 38.6711 200
      vertex 0 40 200.2
      vertex 8.79985 38.6711 200.2
    endloop
  endfacet
  facet normal 0.149321 0.988789 0
    outer loop
      vertex 8.79985 38.6711 200
      vertex 0 40 130.2
      vertex 0 40 200.2
    endloop
  endfacet
  facet normal 0.149307 0.988791 1.76035e-06
    outer loop
      vertex 0 40 130.2
      vertex 8.79985 38.6711 200
      vertex 0.0245034 39.9963 130.195
    endloop
  endfacet
  facet normal 0.925603 0.349567 0.145132
    outer loop
      vertex 29.4449 20.5 200.2
      vertex 26.8468 17 225.2
      vertex 29.9437 8.79985 225.2
    endloop
  endfacet
  facet normal 0.931447 0.336351 0.13883
    outer loop
      vertex 32.8415 11.0939 200.2
      vertex 29.4449 20.5 200.2
      vertex 29.9437 8.79985 225.2
    endloop
  endfacet
  facet normal -0.985954 0.11316 0.122841
    outer loop
      vertex -32.8415 11.0939 200.2
      vertex -34 1 200.2
      vertex -31 0 225.2
    endloop
  endfacet
  facet normal -0.6607 -0.75065 0
    outer loop
      vertex -24.0416 -26.5772 200
      vertex -17 -32.775 200.2
      vertex -24.0416 -26.5772 200.2
    endloop
  endfacet
  facet normal -0.6607 -0.75065 -0
    outer loop
      vertex -17 -32.775 200.2
      vertex -24.0416 -26.5772 200
      vertex -17 -32.775 200
    endloop
  endfacet
  facet normal -0.408899 -0.900071 0.150576
    outer loop
      vertex -8.02339 -32.8415 225.2
      vertex -15.5 -29.4449 225.2
      vertex -8.79985 -36.6711 200.2
    endloop
  endfacet
  facet normal -0.141149 -0.977555 0.156409
    outer loop
      vertex 0 -34 225.2
      vertex -8.02339 -32.8415 225.2
      vertex 0 -38 200.2
    endloop
  endfacet
  facet normal -0.940555 0.33964 0
    outer loop
      vertex -32.8415 11.0939 200
      vertex -29.4449 20.5 200.2
      vertex -29.4449 20.5 200
    endloop
  endfacet
  facet normal -0.940555 0.33964 0
    outer loop
      vertex -29.4449 20.5 200.2
      vertex -32.8415 11.0939 200
      vertex -32.8415 11.0939 200.2
    endloop
  endfacet
  facet normal -0.820185 0.548668 0.16205
    outer loop
      vertex -24.0416 28.5772 200.2
      vertex -29.4449 20.5 200.2
      vertex -26.8468 17 225.2
    endloop
  endfacet
  facet normal -0.6607 0.75065 0
    outer loop
      vertex -17 34.775 200
      vertex -24.0416 28.5772 200.2
      vertex -17 34.775 200.2
    endloop
  endfacet
  facet normal -0.6607 0.75065 0
    outer loop
      vertex -24.0416 28.5772 200.2
      vertex -17 34.775 200
      vertex -24.0416 28.5772 200
    endloop
  endfacet
  facet normal -0.831171 -0.556017 0
    outer loop
      vertex -24.0416 -26.5772 200
      vertex -29.4449 -18.5 200.2
      vertex -29.4449 -18.5 200
    endloop
  endfacet
  facet normal -0.831171 -0.556017 0
    outer loop
      vertex -29.4449 -18.5 200.2
      vertex -24.0416 -26.5772 200
      vertex -24.0416 -26.5772 200.2
    endloop
  endfacet
  facet normal 0.929016 -0.350856 0.117598
    outer loop
      vertex 29.9437 -8.79985 225.2
      vertex 26.8468 -17 225.2
      vertex 29.4449 -18.5 200.2
    endloop
  endfacet
  facet normal 0.825275 -0.552074 0.11889
    outer loop
      vertex 26.8468 -17 225.2
      vertex 24.0416 -26.5772 200.2
      vertex 29.4449 -18.5 200.2
    endloop
  endfacet
  facet normal 0 0 1
    outer loop
      vertex -31 0 225.2
      vertex 31 0 225.2
      vertex 29.9437 8.79985 225.2
    endloop
  endfacet
  facet normal 0 0 1
    outer loop
      vertex -29.9437 8.79985 225.2
      vertex 29.9437 8.79985 225.2
      vertex 26.8468 17 225.2
    endloop
  endfacet
  facet normal 0 0 1
    outer loop
      vertex 31 0 225.2
      vertex -31 0 225.2
      vertex 29.9437 -8.79985 225.2
    endloop
  endfacet
  facet normal 0 0 1
    outer loop
      vertex -26.8468 17 225.2
      vertex 26.8468 17 225.2
      vertex 21.9203 24.0416 225.2
    endloop
  endfacet
  facet normal 0 -0 1
    outer loop
      vertex -29.9437 -8.79985 225.2
      vertex 29.9437 -8.79985 225.2
      vertex -31 0 225.2
    endloop
  endfacet
  facet normal 0 0 1
    outer loop
      vertex -21.9203 24.0416 225.2
      vertex 21.9203 24.0416 225.2
      vertex 15.5 29.4449 225.2
    endloop
  endfacet
  facet normal 0 0 1
    outer loop
      vertex 29.9437 -8.79985 225.2
      vertex -29.9437 -8.79985 225.2
      vertex 26.8468 -17 225.2
    endloop
  endfacet
  facet normal 0 0 1
    outer loop
      vertex -21.9203 24.0416 225.2
      vertex 15.5 29.4449 225.2
      vertex 8.02339 32.8415 225.2
    endloop
  endfacet
  facet normal 0 -0 1
    outer loop
      vertex -26.8468 -17 225.2
      vertex 26.8468 -17 225.2
      vertex -29.9437 -8.79985 225.2
    endloop
  endfacet
  facet normal 0 0 1
    outer loop
      vertex -21.9203 24.0416 225.2
      vertex 8.02339 32.8415 225.2
      vertex 0 34 225.2
    endloop
  endfacet
  facet normal 0 0 1
    outer loop
      vertex 26.8468 -17 225.2
      vertex -26.8468 -17 225.2
      vertex 21.9203 -24.0416 225.2
    endloop
  endfacet
  facet normal 0 0 1
    outer loop
      vertex -21.9203 24.0416 225.2
      vertex 0 34 225.2
      vertex -8.02339 32.8415 225.2
    endloop
  endfacet
  facet normal 0 0 1
    outer loop
      vertex 29.9437 8.79985 225.2
      vertex -29.9437 8.79985 225.2
      vertex -31 0 225.2
    endloop
  endfacet
  facet normal 0 0 1
    outer loop
      vertex -21.9203 24.0416 225.2
      vertex -8.02339 32.8415 225.2
      vertex -15.5 29.4449 225.2
    endloop
  endfacet
  facet normal 0 -0 1
    outer loop
      vertex -21.9203 -24.0416 225.2
      vertex 21.9203 -24.0416 225.2
      vertex -26.8468 -17 225.2
    endloop
  endfacet
  facet normal 0 0 1
    outer loop
      vertex 21.9203 24.0416 225.2
      vertex -21.9203 24.0416 225.2
      vertex -26.8468 17 225.2
    endloop
  endfacet
  facet normal 0 0 1
    outer loop
      vertex 26.8468 17 225.2
      vertex -26.8468 17 225.2
      vertex -29.9437 8.79985 225.2
    endloop
  endfacet
  facet normal 0 0 1
    outer loop
      vertex 21.9203 -24.0416 225.2
      vertex -21.9203 -24.0416 225.2
      vertex 15.5 -29.4449 225.2
    endloop
  endfacet
  facet normal 0 0 1
    outer loop
      vertex 15.5 -29.4449 225.2
      vertex -21.9203 -24.0416 225.2
      vertex 8.02339 -32.8415 225.2
    endloop
  endfacet
  facet normal 0 0 1
    outer loop
      vertex -8.02339 -32.8415 225.2
      vertex -21.9203 -24.0416 225.2
      vertex -15.5 -29.4449 225.2
    endloop
  endfacet
  facet normal 0 0 1
    outer loop
      vertex 0 -34 225.2
      vertex -21.9203 -24.0416 225.2
      vertex -8.02339 -32.8415 225.2
    endloop
  endfacet
  facet normal 0 0 1
    outer loop
      vertex 8.02339 -32.8415 225.2
      vertex -21.9203 -24.0416 225.2
      vertex 0 -34 225.2
    endloop
  endfacet
  facet normal -0.429149 0.903234 0
    outer loop
      vertex -8.79985 38.6711 200
      vertex -17 34.775 200.2
      vertex -8.79985 38.6711 200.2
    endloop
  endfacet
  facet normal -0.429149 0.903234 0
    outer loop
      vertex -17 34.775 200.2
      vertex -8.79985 38.6711 200
      vertex -17 34.775 200
    endloop
  endfacet
  facet normal -0.831171 0.556017 0
    outer loop
      vertex -29.4449 20.5 200
      vertex -24.0416 28.5772 200.2
      vertex -24.0416 28.5772 200
    endloop
  endfacet
  facet normal -0.831171 0.556017 0
    outer loop
      vertex -24.0416 28.5772 200.2
      vertex -29.4449 20.5 200
      vertex -29.4449 20.5 200.2
    endloop
  endfacet
  facet normal 0 1 0.000498532
    outer loop
      vertex 8.79985 38.6711 200
      vertex 7.24687 38.7059 130.195
      vertex 7.24652 38.7059 130.195
    endloop
  endfacet
  facet normal 0.181096 0.983459 -0.00353863
    outer loop
      vertex 7.24687 38.7059 130.195
      vertex 8.79985 38.6711 200
      vertex 7.25098 38.7051 130.183
    endloop
  endfacet
  facet normal 0.175889 0.984404 -0.0034232
    outer loop
      vertex 8.79985 38.6711 200
      vertex 7.24652 38.7059 130.195
      vertex 0.0245034 39.9963 130.195
    endloop
  endfacet
  facet normal 0.989966 -0.11362 -0.0840068
    outer loop
      vertex 32.8415 -9.09394 200
      vertex 27.0459 -7.83512 130
      vertex 34 1 200
    endloop
  endfacet
  facet normal 0.991608 -0.0961954 -0.0863692
    outer loop
      vertex 34 1 200
      vertex 27.0459 -7.83512 130
      vertex 28 2 130
    endloop
  endfacet
  facet normal 0.428888 -0.902684 -0.034866
    outer loop
      vertex 8.79985 -36.6711 200
      vertex 7.24693 -34.7052 130
      vertex 17 -32.775 200
    endloop
  endfacet
  facet normal -0.429132 0.903196 -0.00908031
    outer loop
      vertex -7.25098 38.7051 130.183
      vertex -17 34.775 200
      vertex -8.79985 38.6711 200
    endloop
  endfacet
  facet normal -0.430429 0.902577 -0.00929637
    outer loop
      vertex -17 34.775 200
      vertex -7.25098 38.7051 130.183
      vertex -7.27062 38.6956 130.17
    endloop
  endfacet
  facet normal -0.175796 -0.983921 -0.0315327
    outer loop
      vertex 0 -36 130
      vertex -8.79985 -36.6711 200
      vertex -7.24693 -34.7052 130
    endloop
  endfacet
  facet normal -0.489547 -0.870856 -0.0441951
    outer loop
      vertex -7.24693 -34.7052 130
      vertex -17 -32.775 200
      vertex -14 -30.909 130
    endloop
  endfacet
  facet normal 0.870336 0.488651 -0.0611159
    outer loop
      vertex 24.2432 21.0168 130.056
      vertex 29.4449 20.5 200
      vertex 24.2487 21 130
    endloop
  endfacet
  facet normal 0.868309 0.492266 -0.0609385
    outer loop
      vertex 24.2383 21.0273 130.071
      vertex 29.4449 20.5 200
      vertex 24.2432 21.0168 130.056
    endloop
  endfacet
  facet normal 0.86887 0.491269 -0.0609878
    outer loop
      vertex 29.4449 20.5 200
      vertex 24.2383 21.0273 130.071
      vertex 19.8087 28.8616 130.071
    endloop
  endfacet
  facet normal -0.659929 -0.749775 -0.0482696
    outer loop
      vertex -17 -32.775 200
      vertex -24.0416 -26.5772 200
      vertex -14 -30.909 130
    endloop
  endfacet
  facet normal 0.485774 0.873875 -0.0191457
    outer loop
      vertex 17 34.775 200
      vertex 13.9993 34.9131 130.168
      vertex 13.9974 34.9142 130.17
    endloop
  endfacet
  facet normal 0.49 0.871508 -0.019332
    outer loop
      vertex 13.9993 34.9131 130.168
      vertex 17 34.775 200
      vertex 14.0061 34.9087 130.142
    endloop
  endfacet
  facet normal 0.489932 0.871546 -0.0193291
    outer loop
      vertex 17 34.775 200
      vertex 13.9974 34.9142 130.17
      vertex 7.27062 38.6956 130.17
    endloop
  endfacet
  facet normal 0.937772 -0.338637 -0.0768687
    outer loop
      vertex 29.4449 -18.5 200
      vertex 24.2487 -17 130
      vertex 32.8415 -9.09394 200
    endloop
  endfacet
  facet normal -0.86887 0.491269 -0.0609878
    outer loop
      vertex -24.2383 21.0273 130.071
      vertex -29.4449 20.5 200
      vertex -19.8087 28.8616 130.071
    endloop
  endfacet
  facet normal -0.868309 0.492266 -0.0609385
    outer loop
      vertex -24.2432 21.0168 130.056
      vertex -29.4449 20.5 200
      vertex -24.2383 21.0273 130.071
    endloop
  endfacet
  facet normal -0.870336 0.488651 -0.0611159
    outer loop
      vertex -29.4449 20.5 200
      vertex -24.2432 21.0168 130.056
      vertex -24.2487 21 130
    endloop
  endfacet
  facet normal -0.149261 -0.988394 -0.0282398
    outer loop
      vertex 0 -38 200
      vertex -8.79985 -36.6711 200
      vertex 0 -36 130
    endloop
  endfacet
  facet normal 0.829477 -0.554884 -0.0638055
    outer loop
      vertex 24.0416 -26.5772 200
      vertex 19.799 -24.8701 130
      vertex 29.4449 -18.5 200
    endloop
  endfacet
  facet normal 0.953053 -0.29088 -0.0841383
    outer loop
      vertex 32.8415 -9.09394 200
      vertex 24.2487 -17 130
      vertex 27.0459 -7.83512 130
    endloop
  endfacet
  facet normal 0.175796 -0.983921 -0.0315327
    outer loop
      vertex 8.79985 -36.6711 200
      vertex 0 -36 130
      vertex 7.24693 -34.7052 130
    endloop
  endfacet
  facet normal 0.830213 0.555377 -0.0479953
    outer loop
      vertex 29.4449 20.5 200
      vertex 19.8038 28.8697 130.08
      vertex 24.0416 28.5772 200
    endloop
  endfacet
  facet normal 0.830141 0.555486 -0.0479722
    outer loop
      vertex 19.8038 28.8697 130.08
      vertex 29.4449 20.5 200
      vertex 19.8087 28.8616 130.071
    endloop
  endfacet
  facet normal -0.719967 -0.691366 -0.0604966
    outer loop
      vertex -14 -30.909 130
      vertex -24.0416 -26.5772 200
      vertex -19.799 -24.8701 130
    endloop
  endfacet
  facet normal -0.428888 -0.902684 -0.034866
    outer loop
      vertex -8.79985 -36.6711 200
      vertex -17 -32.775 200
      vertex -7.24693 -34.7052 130
    endloop
  endfacet
  facet normal 0.719967 -0.691366 -0.0604966
    outer loop
      vertex 24.0416 -26.5772 200
      vertex 14 -30.909 130
      vertex 19.799 -24.8701 130
    endloop
  endfacet
  facet normal -0.953053 -0.29088 -0.0841383
    outer loop
      vertex -24.2487 -17 130
      vertex -32.8415 -9.09394 200
      vertex -27.0459 -7.83512 130
    endloop
  endfacet
  facet normal -0.937772 -0.338637 -0.0768687
    outer loop
      vertex -29.4449 -18.5 200
      vertex -32.8415 -9.09394 200
      vertex -24.2487 -17 130
    endloop
  endfacet
  facet normal -0.953687 0.291073 -0.0758778
    outer loop
      vertex -27.0459 11.8351 130
      vertex -32.8415 11.0939 200
      vertex -24.2487 21 130
    endloop
  endfacet
  facet normal 0.868049 -0.490789 -0.0749534
    outer loop
      vertex 29.4449 -18.5 200
      vertex 19.799 -24.8701 130
      vertex 24.2487 -17 130
    endloop
  endfacet
  facet normal 0.938427 0.338872 -0.0672402
    outer loop
      vertex 32.8415 11.0939 200
      vertex 24.2487 21 130
      vertex 29.4449 20.5 200
    endloop
  endfacet
  facet normal 0.489547 -0.870856 -0.0441951
    outer loop
      vertex 17 -32.775 200
      vertex 7.24693 -34.7052 130
      vertex 14 -30.909 130
    endloop
  endfacet
  facet normal 0.659929 -0.749775 -0.0482696
    outer loop
      vertex 17 -32.775 200
      vertex 14 -30.909 130
      vertex 24.0416 -26.5772 200
    endloop
  endfacet
  facet normal 0.149261 -0.988394 -0.0282398
    outer loop
      vertex 8.79985 -36.6711 200
      vertex 0 -38 200
      vertex 0 -36 130
    endloop
  endfacet
  facet normal 0.99184 0.0962181 -0.0836403
    outer loop
      vertex 28 2 130
      vertex 27.0459 11.8351 130
      vertex 34 1 200
    endloop
  endfacet
  facet normal -0.829477 -0.554884 -0.0638055
    outer loop
      vertex -24.0416 -26.5772 200
      vertex -29.4449 -18.5 200
      vertex -19.799 -24.8701 130
    endloop
  endfacet
  facet normal -0.938427 0.338872 -0.0672402
    outer loop
      vertex -24.2487 21 130
      vertex -32.8415 11.0939 200
      vertex -29.4449 20.5 200
    endloop
  endfacet
  facet normal -0.990231 0.113651 -0.0807821
    outer loop
      vertex -27.0459 11.8351 130
      vertex -34 1 200
      vertex -32.8415 11.0939 200
    endloop
  endfacet
  facet normal -0.99184 0.0962181 -0.0836403
    outer loop
      vertex -28 2 130
      vertex -34 1 200
      vertex -27.0459 11.8351 130
    endloop
  endfacet
  facet normal -0.489932 0.871546 -0.0193291
    outer loop
      vertex -13.9974 34.9142 130.17
      vertex -17 34.775 200
      vertex -7.27062 38.6956 130.17
    endloop
  endfacet
  facet normal -0.485774 0.873875 -0.0191457
    outer loop
      vertex -13.9993 34.9131 130.168
      vertex -17 34.775 200
      vertex -13.9974 34.9142 130.17
    endloop
  endfacet
  facet normal -0.49 0.871508 -0.019332
    outer loop
      vertex -17 34.775 200
      vertex -13.9993 34.9131 130.168
      vertex -14.0061 34.9087 130.142
    endloop
  endfacet
  facet normal 0.660461 0.750379 -0.0268692
    outer loop
      vertex 24.0416 28.5772 200
      vertex 14.0061 34.9087 130.142
      vertex 17 34.775 200
    endloop
  endfacet
  facet normal 0.659654 0.751096 -0.0266884
    outer loop
      vertex 14.0061 34.9087 130.142
      vertex 24.0416 28.5772 200
      vertex 14.0184 34.8974 130.128
    endloop
  endfacet
  facet normal -0.989966 -0.11362 -0.0840068
    outer loop
      vertex -32.8415 -9.09394 200
      vertex -34 1 200
      vertex -27.0459 -7.83512 130
    endloop
  endfacet
  facet normal -0.868049 -0.490789 -0.0749534
    outer loop
      vertex -19.799 -24.8701 130
      vertex -29.4449 -18.5 200
      vertex -24.2487 -17 130
    endloop
  endfacet
  facet normal 0.990231 0.113651 -0.0807821
    outer loop
      vertex 34 1 200
      vertex 27.0459 11.8351 130
      vertex 32.8415 11.0939 200
    endloop
  endfacet
  facet normal 0.953687 0.291073 -0.0758778
    outer loop
      vertex 27.0459 11.8351 130
      vertex 24.2487 21 130
      vertex 32.8415 11.0939 200
    endloop
  endfacet
  facet normal -0.991608 -0.0961954 -0.0863692
    outer loop
      vertex -27.0459 -7.83512 130
      vertex -34 1 200
      vertex -28 2 130
    endloop
  endfacet
  facet normal 0.723439 0.689172 -0.0409641
    outer loop
      vertex 19.7965 28.8798 130.121
      vertex 24.0416 28.5772 200
      vertex 19.8038 28.8697 130.08
    endloop
  endfacet
  facet normal 0.723435 0.689176 -0.0409638
    outer loop
      vertex 19.7928 28.8841 130.128
      vertex 24.0416 28.5772 200
      vertex 19.7965 28.8798 130.121
    endloop
  endfacet
  facet normal 0.720689 0.692057 -0.0407842
    outer loop
      vertex 24.0416 28.5772 200
      vertex 19.7928 28.8841 130.128
      vertex 14.0184 34.8974 130.128
    endloop
  endfacet
  facet normal -0.175889 0.984404 -0.0034232
    outer loop
      vertex -7.24652 38.7059 130.195
      vertex -8.79985 38.6711 200
      vertex -0.0245034 39.9963 130.195
    endloop
  endfacet
  facet normal -0 1 0.000498532
    outer loop
      vertex -7.24687 38.7059 130.195
      vertex -8.79985 38.6711 200
      vertex -7.24652 38.7059 130.195
    endloop
  endfacet
  facet normal -0.181096 0.983459 -0.00353863
    outer loop
      vertex -8.79985 38.6711 200
      vertex -7.24687 38.7059 130.195
      vertex -7.25098 38.7051 130.183
    endloop
  endfacet
  facet normal -0.660461 0.750379 -0.0268692
    outer loop
      vertex -14.0061 34.9087 130.142
      vertex -24.0416 28.5772 200
      vertex -17 34.775 200
    endloop
  endfacet
  facet normal -0.659654 0.751096 -0.0266884
    outer loop
      vertex -24.0416 28.5772 200
      vertex -14.0061 34.9087 130.142
      vertex -14.0184 34.8974 130.128
    endloop
  endfacet
  facet normal -0.720689 0.692057 -0.0407842
    outer loop
      vertex -19.7928 28.8841 130.128
      vertex -24.0416 28.5772 200
      vertex -14.0184 34.8974 130.128
    endloop
  endfacet
  facet normal -0.723435 0.689176 -0.0409638
    outer loop
      vertex -19.7965 28.8798 130.121
      vertex -24.0416 28.5772 200
      vertex -19.7928 28.8841 130.128
    endloop
  endfacet
  facet normal -0.723439 0.689172 -0.0409641
    outer loop
      vertex -24.0416 28.5772 200
      vertex -19.7965 28.8798 130.121
      vertex -19.8038 28.8697 130.08
    endloop
  endfacet
  facet normal 0.429132 0.903196 -0.00908031
    outer loop
      vertex 17 34.775 200
      vertex 7.25098 38.7051 130.183
      vertex 8.79985 38.6711 200
    endloop
  endfacet
  facet normal 0.430429 0.902577 -0.00929637
    outer loop
      vertex 7.25098 38.7051 130.183
      vertex 17 34.775 200
      vertex 7.27062 38.6956 130.17
    endloop
  endfacet
  facet normal -0.830141 0.555486 -0.0479722
    outer loop
      vertex -29.4449 20.5 200
      vertex -19.8038 28.8697 130.08
      vertex -19.8087 28.8616 130.071
    endloop
  endfacet
  facet normal -0.830213 0.555377 -0.0479953
    outer loop
      vertex -19.8038 28.8697 130.08
      vertex -29.4449 20.5 200
      vertex -24.0416 28.5772 200
    endloop
  endfacet
  facet normal 0.575187 0.812836 0.0919657
    outer loop
      vertex 6.21166 50.603 40.2
      vertex 13.9993 34.9131 130.168
      vertex 12 46.507 40.2
    endloop
  endfacet
  facet normal 0.570346 0.816127 0.0929587
    outer loop
      vertex 13.9993 34.9131 130.168
      vertex 6.21166 50.603 40.2
      vertex 13.9974 34.9142 130.17
    endloop
  endfacet
  facet normal 0.793043 -0.604994 -0.0711624
    outer loop
      vertex 19.799 -24.8701 130
      vertex 12 -24.507 40
      vertex 16.9706 -17.9914 40
    endloop
  endfacet
  facet normal 0.954662 -0.291371 -0.0610258
    outer loop
      vertex 24.2487 -17 130
      vertex 20.7846 -9.5 40
      vertex 27.0459 -7.83512 130
    endloop
  endfacet
  facet normal 0.910028 -0.408749 -0.0690894
    outer loop
      vertex 24.2487 -17 130
      vertex 16.9706 -17.9914 40
      vertex 20.7846 -9.5 40
    endloop
  endfacet
  facet normal -0.868666 -0.491138 -0.0648369
    outer loop
      vertex -19.799 -24.8701 130
      vertex -24.2487 -17 130
      vertex -16.9706 -17.9914 40
    endloop
  endfacet
  facet normal 0.868666 -0.491138 -0.0648369
    outer loop
      vertex 19.799 -24.8701 130
      vertex 16.9706 -17.9914 40
      vertex 24.2487 -17 130
    endloop
  endfacet
  facet normal -0.576188 -0.814251 -0.0707246
    outer loop
      vertex -6.21166 -28.603 40
      vertex -14 -30.909 130
      vertex -12 -24.507 40
    endloop
  endfacet
  facet normal 0.950167 0.311742 -0.00020252
    outer loop
      vertex 24.2487 21 130
      vertex 20.7846 31.5 40.2
      vertex 24.2432 21.0168 130.056
    endloop
  endfacet
  facet normal 0.949653 0.313304 0
    outer loop
      vertex 20.7846 31.5 40.2
      vertex 24.2487 21 130
      vertex 20.7846 31.5 40
    endloop
  endfacet
  facet normal -0.869676 0.492483 0.0335257
    outer loop
      vertex -16.9706 39.9914 40.2
      vertex -19.8038 28.8697 130.08
      vertex -19.7965 28.8798 130.121
    endloop
  endfacet
  facet normal -0.871054 0.490064 0.0331829
    outer loop
      vertex -16.9706 39.9914 40.2
      vertex -19.8087 28.8616 130.071
      vertex -19.8038 28.8697 130.08
    endloop
  endfacet
  facet normal -0.870004 0.49191 0.0334446
    outer loop
      vertex -19.8087 28.8616 130.071
      vertex -16.9706 39.9914 40.2
      vertex -24.2383 21.0273 130.071
    endloop
  endfacet
  facet normal 0.489002 -0.869887 -0.0646053
    outer loop
      vertex 7.24693 -34.7052 130
      vertex 6.21166 -28.603 40
      vertex 14 -30.909 130
    endloop
  endfacet
  facet normal -0.954662 -0.291371 -0.0610258
    outer loop
      vertex -24.2487 -17 130
      vertex -27.0459 -7.83512 130
      vertex -20.7846 -9.5 40
    endloop
  endfacet
  facet normal 0.719756 -0.691163 -0.0651593
    outer loop
      vertex 14 -30.909 130
      vertex 12 -24.507 40
      vertex 19.799 -24.8701 130
    endloop
  endfacet
  facet normal -0.795059 0.606532 0
    outer loop
      vertex -16.9706 39.9914 40
      vertex -12 46.507 40.2
      vertex -12 46.507 40
    endloop
  endfacet
  facet normal -0.795059 0.606532 0
    outer loop
      vertex -12 46.507 40.2
      vertex -16.9706 39.9914 40
      vertex -16.9706 39.9914 40.2
    endloop
  endfacet
  facet normal 0.487107 0.86652 0.108949
    outer loop
      vertex 13.9974 34.9142 130.17
      vertex 6.21166 50.603 40.2
      vertex 7.27062 38.6956 130.17
    endloop
  endfacet
  facet normal 0.486853 0.86666 0.10897
    outer loop
      vertex 7.25098 38.7051 130.183
      vertex 6.21166 50.603 40.2
      vertex 7.24687 38.7059 130.195
    endloop
  endfacet
  facet normal 0.490241 0.864784 0.108683
    outer loop
      vertex 6.21166 50.603 40.2
      vertex 7.25098 38.7051 130.183
      vertex 7.27062 38.6956 130.17
    endloop
  endfacet
  facet normal 0.576188 -0.814251 -0.0707246
    outer loop
      vertex 14 -30.909 130
      vertex 6.21166 -28.603 40
      vertex 12 -24.507 40
    endloop
  endfacet
  facet normal -0.219419 0.975631 0
    outer loop
      vertex 0 52 40
      vertex -6.21166 50.603 40.2
      vertex 0 52 40.2
    endloop
  endfacet
  facet normal -0.219419 0.975631 0
    outer loop
      vertex -6.21166 50.603 40.2
      vertex 0 52 40
      vertex -6.21166 50.603 40
    endloop
  endfacet
  facet normal 0.218903 -0.973338 -0.0685125
    outer loop
      vertex 7.24693 -34.7052 130
      vertex 0 -30 40
      vertex 6.21166 -28.603 40
    endloop
  endfacet
  facet normal 0.996375 0.0767873 -0.0366046
    outer loop
      vertex 24 11 40
      vertex 23.1822 21.6116 40
      vertex 28 2 130
    endloop
  endfacet
  facet normal 0.219419 0.975631 -0
    outer loop
      vertex 6.21166 50.603 40
      vertex 0 52 40.2
      vertex 6.21166 50.603 40.2
    endloop
  endfacet
  facet normal 0.219419 0.975631 0
    outer loop
      vertex 0 52 40.2
      vertex 6.21166 50.603 40
      vertex 0 52 40
    endloop
  endfacet
  facet normal -0.218903 -0.973338 -0.0685125
    outer loop
      vertex 0 -30 40
      vertex -7.24693 -34.7052 130
      vertex -6.21166 -28.603 40
    endloop
  endfacet
  facet normal -0.910028 -0.408749 -0.0690894
    outer loop
      vertex -16.9706 -17.9914 40
      vertex -24.2487 -17 130
      vertex -20.7846 -9.5 40
    endloop
  endfacet
  facet normal 0.995698 -0.0767352 -0.0519268
    outer loop
      vertex 28 2 130
      vertex 23.1822 0.388418 40
      vertex 24 11 40
    endloop
  endfacet
  facet normal -0.971715 0.235608 -0.0161222
    outer loop
      vertex -23.1822 21.6116 40
      vertex -27.0459 11.8351 130
      vertex -20.7846 31.5 40
    endloop
  endfacet
  facet normal 0.994008 -0.0964282 -0.0514836
    outer loop
      vertex 27.0459 -7.83512 130
      vertex 23.1822 0.388418 40
      vertex 28 2 130
    endloop
  endfacet
  facet normal -0.175506 -0.982298 -0.0654865
    outer loop
      vertex 0 -36 130
      vertex -7.24693 -34.7052 130
      vertex 0 -30 40
    endloop
  endfacet
  facet normal 0.175506 -0.982298 -0.0654865
    outer loop
      vertex 7.24693 -34.7052 130
      vertex 0 -36 130
      vertex 0 -30 40
    endloop
  endfacet
  facet normal -0.996375 0.0767873 -0.0366046
    outer loop
      vertex -24 11 40
      vertex -28 2 130
      vertex -23.1822 21.6116 40
    endloop
  endfacet
  facet normal -0.794068 0.605776 0.0499014
    outer loop
      vertex -19.7965 28.8798 130.121
      vertex -12 46.507 40.2
      vertex -16.9706 39.9914 40.2
    endloop
  endfacet
  facet normal -0.795456 0.603992 0.0494314
    outer loop
      vertex -12 46.507 40.2
      vertex -19.7965 28.8798 130.121
      vertex -19.7928 28.8841 130.128
    endloop
  endfacet
  facet normal -0.994008 -0.0964282 -0.0514836
    outer loop
      vertex -27.0459 -7.83512 130
      vertex -28 2 130
      vertex -23.1822 0.388418 40
    endloop
  endfacet
  facet normal -0.719756 -0.691163 -0.0651593
    outer loop
      vertex -14 -30.909 130
      vertex -19.799 -24.8701 130
      vertex -12 -24.507 40
    endloop
  endfacet
  facet normal 0.869676 0.492483 0.0335257
    outer loop
      vertex 19.8038 28.8697 130.08
      vertex 16.9706 39.9914 40.2
      vertex 19.7965 28.8798 130.121
    endloop
  endfacet
  facet normal 0.871054 0.490064 0.0331829
    outer loop
      vertex 19.8087 28.8616 130.071
      vertex 16.9706 39.9914 40.2
      vertex 19.8038 28.8697 130.08
    endloop
  endfacet
  facet normal 0.870004 0.49191 0.0334446
    outer loop
      vertex 16.9706 39.9914 40.2
      vertex 19.8087 28.8616 130.071
      vertex 24.2383 21.0273 130.071
    endloop
  endfacet
  facet normal 0.217685 0.967923 0.125453
    outer loop
      vertex 0 52 40.2
      vertex 7.24687 38.7059 130.195
      vertex 6.21166 50.603 40.2
    endloop
  endfacet
  facet normal 0 0.989265 0.146135
    outer loop
      vertex 7.24687 38.7059 130.195
      vertex 0 52 40.2
      vertex 7.24652 38.7059 130.195
    endloop
  endfacet
  facet normal -0.956441 0.291913 -0.00275685
    outer loop
      vertex -20.7846 31.5 40
      vertex -27.0459 11.8351 130
      vertex -24.2487 21 130
    endloop
  endfacet
  facet normal -0.912134 0.409695 0.0126892
    outer loop
      vertex -24.2432 21.0168 130.056
      vertex -16.9706 39.9914 40.2
      vertex -20.7846 31.5 40.2
    endloop
  endfacet
  facet normal -0.912758 0.408315 0.0123473
    outer loop
      vertex -16.9706 39.9914 40.2
      vertex -24.2432 21.0168 130.056
      vertex -24.2383 21.0273 130.071
    endloop
  endfacet
  facet normal -0.949653 0.313304 0
    outer loop
      vertex -24.2487 21 130
      vertex -20.7846 31.5 40.2
      vertex -20.7846 31.5 40
    endloop
  endfacet
  facet normal -0.950167 0.311742 -0.00020252
    outer loop
      vertex -20.7846 31.5 40.2
      vertex -24.2487 21 130
      vertex -24.2432 21.0168 130.056
    endloop
  endfacet
  facet normal -0.793043 -0.604994 -0.0711624
    outer loop
      vertex -12 -24.507 40
      vertex -19.799 -24.8701 130
      vertex -16.9706 -17.9914 40
    endloop
  endfacet
  facet normal 0 0.989265 0.146135
    outer loop
      vertex 0 52 40.2
      vertex -7.24687 38.7059 130.195
      vertex -7.24652 38.7059 130.195
    endloop
  endfacet
  facet normal -0.217685 0.967923 0.125453
    outer loop
      vertex -7.24687 38.7059 130.195
      vertex 0 52 40.2
      vertex -6.21166 50.603 40.2
    endloop
  endfacet
  facet normal -0.995698 -0.0767352 -0.0519268
    outer loop
      vertex -23.1822 0.388418 40
      vertex -28 2 130
      vertex -24 11 40
    endloop
  endfacet
  facet normal -0.912208 0.409728 0
    outer loop
      vertex -20.7846 31.5 40
      vertex -16.9706 39.9914 40.2
      vertex -16.9706 39.9914 40
    endloop
  endfacet
  facet normal -0.912208 0.409728 0
    outer loop
      vertex -16.9706 39.9914 40.2
      vertex -20.7846 31.5 40
      vertex -20.7846 31.5 40.2
    endloop
  endfacet
  facet normal 0.912208 0.409728 0
    outer loop
      vertex 20.7846 31.5 40.2
      vertex 16.9706 39.9914 40
      vertex 16.9706 39.9914 40.2
    endloop
  endfacet
  facet normal 0.912208 0.409728 0
    outer loop
      vertex 16.9706 39.9914 40
      vertex 20.7846 31.5 40.2
      vertex 20.7846 31.5 40
    endloop
  endfacet
  facet normal -0.722401 0.687657 0.0725628
    outer loop
      vertex -12 46.507 40.2
      vertex -14.0061 34.9087 130.142
      vertex -13.9993 34.9131 130.168
    endloop
  endfacet
  facet normal -0.718601 0.691564 0.0731514
    outer loop
      vertex -12 46.507 40.2
      vertex -14.0184 34.8974 130.128
      vertex -14.0061 34.9087 130.142
    endloop
  endfacet
  facet normal -0.719363 0.690784 0.0730336
    outer loop
      vertex -14.0184 34.8974 130.128
      vertex -12 46.507 40.2
      vertex -19.7928 28.8841 130.128
    endloop
  endfacet
  facet normal 0.969903 -0.235168 -0.0631258
    outer loop
      vertex 27.0459 -7.83512 130
      vertex 20.7846 -9.5 40
      vertex 23.1822 0.388418 40
    endloop
  endfacet
  facet normal -0.174394 0.976038 0.130138
    outer loop
      vertex -0.0245034 39.9963 130.195
      vertex 0 52 40.2
      vertex -7.24652 38.7059 130.195
    endloop
  endfacet
  facet normal -0.17395 0.976116 0.130149
    outer loop
      vertex 0 52 40.2
      vertex -0.0245034 39.9963 130.195
      vertex 0 40 130.2
    endloop
  endfacet
  facet normal 0.174394 0.976038 0.130138
    outer loop
      vertex 7.24652 38.7059 130.195
      vertex 0 52 40.2
      vertex 0.0245034 39.9963 130.195
    endloop
  endfacet
  facet normal 0.17395 0.976116 0.130149
    outer loop
      vertex 0 40 130.2
      vertex 0.0245034 39.9963 130.195
      vertex 0 52 40.2
    endloop
  endfacet
  facet normal -0.489002 -0.869887 -0.0646053
    outer loop
      vertex -7.24693 -34.7052 130
      vertex -14 -30.909 130
      vertex -6.21166 -28.603 40
    endloop
  endfacet
  facet normal 0.577635 0.816295 -0
    outer loop
      vertex 12 46.507 40
      vertex 6.21166 50.603 40.2
      vertex 12 46.507 40.2
    endloop
  endfacet
  facet normal 0.577635 0.816295 0
    outer loop
      vertex 6.21166 50.603 40.2
      vertex 12 46.507 40
      vertex 6.21166 50.603 40
    endloop
  endfacet
  facet normal -0.969903 -0.235168 -0.0631258
    outer loop
      vertex -20.7846 -9.5 40
      vertex -27.0459 -7.83512 130
      vertex -23.1822 0.388418 40
    endloop
  endfacet
  facet normal 0.795059 0.606532 0
    outer loop
      vertex 16.9706 39.9914 40.2
      vertex 12 46.507 40
      vertex 12 46.507 40.2
    endloop
  endfacet
  facet normal 0.795059 0.606532 0
    outer loop
      vertex 12 46.507 40
      vertex 16.9706 39.9914 40.2
      vertex 16.9706 39.9914 40
    endloop
  endfacet
  facet normal 0.722401 0.687657 0.0725628
    outer loop
      vertex 14.0061 34.9087 130.142
      vertex 12 46.507 40.2
      vertex 13.9993 34.9131 130.168
    endloop
  endfacet
  facet normal 0.718601 0.691564 0.0731514
    outer loop
      vertex 14.0184 34.8974 130.128
      vertex 12 46.507 40.2
      vertex 14.0061 34.9087 130.142
    endloop
  endfacet
  facet normal 0.719363 0.690784 0.0730336
    outer loop
      vertex 12 46.507 40.2
      vertex 14.0184 34.8974 130.128
      vertex 19.7928 28.8841 130.128
    endloop
  endfacet
  facet normal 0.795456 0.603992 0.0494314
    outer loop
      vertex 19.7965 28.8798 130.121
      vertex 12 46.507 40.2
      vertex 19.7928 28.8841 130.128
    endloop
  endfacet
  facet normal 0.794068 0.605776 0.0499014
    outer loop
      vertex 12 46.507 40.2
      vertex 19.7965 28.8798 130.121
      vertex 16.9706 39.9914 40.2
    endloop
  endfacet
  facet normal -0.577635 0.816295 0
    outer loop
      vertex -6.21166 50.603 40
      vertex -12 46.507 40.2
      vertex -6.21166 50.603 40.2
    endloop
  endfacet
  facet normal -0.577635 0.816295 0
    outer loop
      vertex -12 46.507 40.2
      vertex -6.21166 50.603 40
      vertex -12 46.507 40
    endloop
  endfacet
  facet normal 0.912758 0.408315 0.0123473
    outer loop
      vertex 24.2432 21.0168 130.056
      vertex 16.9706 39.9914 40.2
      vertex 24.2383 21.0273 130.071
    endloop
  endfacet
  facet normal 0.912134 0.409695 0.0126892
    outer loop
      vertex 16.9706 39.9914 40.2
      vertex 24.2432 21.0168 130.056
      vertex 20.7846 31.5 40.2
    endloop
  endfacet
  facet normal -0.994811 0.0965063 -0.032224
    outer loop
      vertex -23.1822 21.6116 40
      vertex -28 2 130
      vertex -27.0459 11.8351 130
    endloop
  endfacet
  facet normal 0.994811 0.0965063 -0.032224
    outer loop
      vertex 28 2 130
      vertex 23.1822 21.6116 40
      vertex 27.0459 11.8351 130
    endloop
  endfacet
  facet normal 0.971715 0.235608 -0.0161222
    outer loop
      vertex 23.1822 21.6116 40
      vertex 20.7846 31.5 40
      vertex 27.0459 11.8351 130
    endloop
  endfacet
  facet normal -0.570346 0.816127 0.0929587
    outer loop
      vertex -6.21166 50.603 40.2
      vertex -13.9993 34.9131 130.168
      vertex -13.9974 34.9142 130.17
    endloop
  endfacet
  facet normal -0.575187 0.812836 0.0919657
    outer loop
      vertex -13.9993 34.9131 130.168
      vertex -6.21166 50.603 40.2
      vertex -12 46.507 40.2
    endloop
  endfacet
  facet normal -0.487107 0.86652 0.108949
    outer loop
      vertex -7.27062 38.6956 130.17
      vertex -6.21166 50.603 40.2
      vertex -13.9974 34.9142 130.17
    endloop
  endfacet
  facet normal -0.490241 0.864784 0.108683
    outer loop
      vertex -7.25098 38.7051 130.183
      vertex -6.21166 50.603 40.2
      vertex -7.27062 38.6956 130.17
    endloop
  endfacet
  facet normal -0.486853 0.86666 0.10897
    outer loop
      vertex -6.21166 50.603 40.2
      vertex -7.25098 38.7051 130.183
      vertex -7.24687 38.7059 130.195
    endloop
  endfacet
  facet normal 0.956441 0.291913 -0.00275685
    outer loop
      vertex 27.0459 11.8351 130
      vertex 20.7846 31.5 40
      vertex 24.2487 21 130
    endloop
  endfacet
  facet normal -0.925678 -0.374887 -0.0507846
    outer loop
      vertex -13.435 -15.4558 -50
      vertex -20.7846 -9.5 40
      vertex -16.4545 -8 -50
    endloop
  endfacet
  facet normal 0.616728 -0.785819 -0.0462075
    outer loop
      vertex 12 -24.507 40
      vertex 4.91756 -24.7733 -50
      vertex 9.5 -21.1769 -50
    endloop
  endfacet
  facet normal 0.794272 -0.605932 -0.0444833
    outer loop
      vertex 12 -24.507 40
      vertex 9.5 -21.1769 -50
      vertex 16.9706 -17.9914 40
    endloop
  endfacet
  facet normal -0.219213 -0.974715 -0.0433207
    outer loop
      vertex 0 -30 40
      vertex -6.21166 -28.603 40
      vertex 0 -26 -50
    endloop
  endfacet
  facet normal 0.218956 0.973574 -0.0649049
    outer loop
      vertex 6.21166 50.603 40
      vertex 0 46 -50
      vertex 0 52 40
    endloop
  endfacet
  facet normal -0.218956 0.973574 -0.0649049
    outer loop
      vertex 0 46 -50
      vertex -6.21166 50.603 40
      vertex 0 52 40
    endloop
  endfacet
  facet normal 0.5771 -0.81554 -0.0430011
    outer loop
      vertex 6.21166 -28.603 40
      vertex 4.91756 -24.7733 -50
      vertex 12 -24.507 40
    endloop
  endfacet
  facet normal -0.910756 0.409076 -0.0563941
    outer loop
      vertex -13.435 35.4558 -50
      vertex -20.7846 31.5 40
      vertex -16.9706 39.9914 40
    endloop
  endfacet
  facet normal -0.970325 0.235271 -0.0558339
    outer loop
      vertex -16.4545 28 -50
      vertex -23.1822 21.6116 40
      vertex -20.7846 31.5 40
    endloop
  endfacet
  facet normal 0.911186 -0.409269 -0.0473259
    outer loop
      vertex 16.9706 -17.9914 40
      vertex 13.435 -15.4558 -50
      vertex 20.7846 -9.5 40
    endloop
  endfacet
  facet normal -0.8224 0.56565 -0.0608138
    outer loop
      vertex -13.435 35.4558 -50
      vertex -16.9706 39.9914 40
      vertex -9.5 41.1769 -50
    endloop
  endfacet
  facet normal 0.576557 0.814772 -0.0610666
    outer loop
      vertex 12 46.507 40
      vertex 4.91756 44.7733 -50
      vertex 6.21166 50.603 40
    endloop
  endfacet
  facet normal -0.616728 -0.785819 -0.0462075
    outer loop
      vertex -4.91756 -24.7733 -50
      vertex -12 -24.507 40
      vertex -9.5 -21.1769 -50
    endloop
  endfacet
  facet normal -0.576557 0.814772 -0.0610666
    outer loop
      vertex -4.91756 44.7733 -50
      vertex -12 46.507 40
      vertex -6.21166 50.603 40
    endloop
  endfacet
  facet normal 0.793725 0.605514 -0.0579085
    outer loop
      vertex 16.9706 39.9914 40
      vertex 9.5 41.1769 -50
      vertex 12 46.507 40
    endloop
  endfacet
  facet normal 0.970325 0.235271 -0.0558339
    outer loop
      vertex 23.1822 21.6116 40
      vertex 16.4545 28 -50
      vertex 20.7846 31.5 40
    endloop
  endfacet
  facet normal -0.975296 0.213212 -0.0577713
    outer loop
      vertex -18.3526 19.3175 -50
      vertex -23.1822 21.6116 40
      vertex -16.4545 28 -50
    endloop
  endfacet
  facet normal 0.925255 0.374716 -0.0590884
    outer loop
      vertex 16.4545 28 -50
      vertex 13.435 35.4558 -50
      vertex 20.7846 31.5 40
    endloop
  endfacet
  facet normal 0.616137 0.785066 -0.0636092
    outer loop
      vertex 9.5 41.1769 -50
      vertex 4.91756 44.7733 -50
      vertex 12 46.507 40
    endloop
  endfacet
  facet normal 0.241505 0.96814 -0.0661833
    outer loop
      vertex 4.91756 44.7733 -50
      vertex 0 46 -50
      vertex 6.21166 50.603 40
    endloop
  endfacet
  facet normal 0.219213 -0.974715 -0.0433207
    outer loop
      vertex 6.21166 -28.603 40
      vertex 0 -30 40
      vertex 0 -26 -50
    endloop
  endfacet
  facet normal -0.925255 0.374716 -0.0590884
    outer loop
      vertex -16.4545 28 -50
      vertex -20.7846 31.5 40
      vertex -13.435 35.4558 -50
    endloop
  endfacet
  facet normal -0.241794 -0.969296 -0.0447224
    outer loop
      vertex 0 -26 -50
      vertex -6.21166 -28.603 40
      vertex -4.91756 -24.7733 -50
    endloop
  endfacet
  facet normal -0.5771 -0.81554 -0.0430011
    outer loop
      vertex -6.21166 -28.603 40
      vertex -12 -24.507 40
      vertex -4.91756 -24.7733 -50
    endloop
  endfacet
  facet normal -0.995514 0.0767209 -0.0553771
    outer loop
      vertex -18.3526 19.3175 -50
      vertex -24 11 40
      vertex -23.1822 21.6116 40
    endloop
  endfacet
  facet normal -0.616137 0.785066 -0.0636092
    outer loop
      vertex -9.5 41.1769 -50
      vertex -12 46.507 40
      vertex -4.91756 44.7733 -50
    endloop
  endfacet
  facet normal -0.241505 0.96814 -0.0661833
    outer loop
      vertex -4.91756 44.7733 -50
      vertex -6.21166 50.603 40
      vertex 0 46 -50
    endloop
  endfacet
  facet normal 0.995606 -0.0767281 -0.0536772
    outer loop
      vertex 23.1822 0.388418 40
      vertex 18.3526 0.682514 -50
      vertex 24 11 40
    endloop
  endfacet
  facet normal 0.822964 -0.566039 -0.0482769
    outer loop
      vertex 16.9706 -17.9914 40
      vertex 9.5 -21.1769 -50
      vertex 13.435 -15.4558 -50
    endloop
  endfacet
  facet normal -0.793725 0.605514 -0.0579085
    outer loop
      vertex -9.5 41.1769 -50
      vertex -16.9706 39.9914 40
      vertex -12 46.507 40
    endloop
  endfacet
  facet normal 0.8224 0.56565 -0.0608138
    outer loop
      vertex 13.435 35.4558 -50
      vertex 9.5 41.1769 -50
      vertex 16.9706 39.9914 40
    endloop
  endfacet
  facet normal 0.241794 -0.969296 -0.0447224
    outer loop
      vertex 6.21166 -28.603 40
      vertex 0 -26 -50
      vertex 4.91756 -24.7733 -50
    endloop
  endfacet
  facet normal 0.970595 -0.235336 -0.0506197
    outer loop
      vertex 20.7846 -9.5 40
      vertex 16.4545 -8 -50
      vertex 23.1822 0.388418 40
    endloop
  endfacet
  facet normal 0.975553 -0.213267 -0.0530472
    outer loop
      vertex 23.1822 0.388418 40
      vertex 16.4545 -8 -50
      vertex 18.3526 0.682514 -50
    endloop
  endfacet
  facet normal 0.996024 0.0692059 -0.0561036
    outer loop
      vertex 19 10 -50
      vertex 18.3526 19.3175 -50
      vertex 24 11 40
    endloop
  endfacet
  facet normal -0.911186 -0.409269 -0.0473259
    outer loop
      vertex -16.9706 -17.9914 40
      vertex -20.7846 -9.5 40
      vertex -13.435 -15.4558 -50
    endloop
  endfacet
  facet normal -0.822964 -0.566039 -0.0482769
    outer loop
      vertex -9.5 -21.1769 -50
      vertex -16.9706 -17.9914 40
      vertex -13.435 -15.4558 -50
    endloop
  endfacet
  facet normal 0.910756 0.409076 -0.0563941
    outer loop
      vertex 20.7846 31.5 40
      vertex 13.435 35.4558 -50
      vertex 16.9706 39.9914 40
    endloop
  endfacet
  facet normal 0.925678 -0.374887 -0.0507846
    outer loop
      vertex 20.7846 -9.5 40
      vertex 13.435 -15.4558 -50
      vertex 16.4545 -8 -50
    endloop
  endfacet
  facet normal 0.996108 -0.0692119 -0.0545703
    outer loop
      vertex 24 11 40
      vertex 18.3526 0.682514 -50
      vertex 19 10 -50
    endloop
  endfacet
  facet normal 0.975296 0.213212 -0.0577713
    outer loop
      vertex 18.3526 19.3175 -50
      vertex 16.4545 28 -50
      vertex 23.1822 21.6116 40
    endloop
  endfacet
  facet normal 0.995514 0.0767209 -0.0553771
    outer loop
      vertex 24 11 40
      vertex 18.3526 19.3175 -50
      vertex 23.1822 21.6116 40
    endloop
  endfacet
  facet normal -0.794272 -0.605932 -0.0444833
    outer loop
      vertex -12 -24.507 40
      vertex -16.9706 -17.9914 40
      vertex -9.5 -21.1769 -50
    endloop
  endfacet
  facet normal -0.995606 -0.0767281 -0.0536772
    outer loop
      vertex -23.1822 0.388418 40
      vertex -24 11 40
      vertex -18.3526 0.682514 -50
    endloop
  endfacet
  facet normal -0.975553 -0.213267 -0.0530472
    outer loop
      vertex -16.4545 -8 -50
      vertex -23.1822 0.388418 40
      vertex -18.3526 0.682514 -50
    endloop
  endfacet
  facet normal -0.970595 -0.235336 -0.0506197
    outer loop
      vertex -20.7846 -9.5 40
      vertex -23.1822 0.388418 40
      vertex -16.4545 -8 -50
    endloop
  endfacet
  facet normal -0.996108 -0.0692119 -0.0545703
    outer loop
      vertex -18.3526 0.682514 -50
      vertex -24 11 40
      vertex -19 10 -50
    endloop
  endfacet
  facet normal -0.996024 0.0692059 -0.0561036
    outer loop
      vertex -19 10 -50
      vertex -24 11 40
      vertex -18.3526 19.3175 -50
    endloop
  endfacet
  facet normal 0.924379 0.374361 -0.0733218
    outer loop
      vertex 16.4545 28 -50
      vertex 8.48528 28.0919 -150
      vertex 13.435 35.4558 -50
    endloop
  endfacet
  facet normal 0.974762 -0.213095 -0.0665504
    outer loop
      vertex 16.4545 -8 -50
      vertex 10.3923 -4.5 -150
      vertex 18.3526 0.682514 -50
    endloop
  endfacet
  facet normal 0.283138 -0.955847 -0.0786659
    outer loop
      vertex 4.91756 -24.7733 -50
      vertex 0 -18 -150
      vertex 3.10583 -17.08 -150
    endloop
  endfacet
  facet normal 0.924861 -0.374557 -0.0658689
    outer loop
      vertex 13.435 -15.4558 -50
      vertex 8.48528 -10.0919 -150
      vertex 16.4545 -8 -50
    endloop
  endfacet
  facet normal -0.924861 -0.374557 -0.0658689
    outer loop
      vertex -13.435 -15.4558 -50
      vertex -16.4545 -8 -50
      vertex -8.48528 -10.0919 -150
    endloop
  endfacet
  facet normal 0.67995 -0.729578 -0.0733673
    outer loop
      vertex 9.5 -21.1769 -50
      vertex 3.10583 -17.08 -150
      vertex 6 -14.3827 -150
    endloop
  endfacet
  facet normal 0.981147 -0.180623 -0.0687414
    outer loop
      vertex 18.3526 0.682514 -50
      vertex 10.3923 -4.5 -150
      vertex 11.5911 2.01189 -150
    endloop
  endfacet
  facet normal 0.822063 -0.565419 -0.0671879
    outer loop
      vertex 9.5 -21.1769 -50
      vertex 6 -14.3827 -150
      vertex 13.435 -15.4558 -50
    endloop
  endfacet
  facet normal 0.995823 0.0582694 -0.0702903
    outer loop
      vertex 12 9 -150
      vertex 11.5911 15.9881 -150
      vertex 19 10 -50
    endloop
  endfacet
  facet normal -0.863232 -0.499994 -0.0695467
    outer loop
      vertex -6 -14.3827 -150
      vertex -13.435 -15.4558 -50
      vertex -8.48528 -10.0919 -150
    endloop
  endfacet
  facet normal 0.282662 0.954239 -0.0976184
    outer loop
      vertex 3.10583 35.08 -150
      vertex 0 36 -150
      vertex 4.91756 44.7733 -50
    endloop
  endfacet
  facet normal 0.995271 -0.0691537 -0.0682146
    outer loop
      vertex 18.3526 0.682514 -50
      vertex 11.5911 2.01189 -150
      vertex 19 10 -50
    endloop
  endfacet
  facet normal 0.863232 -0.499994 -0.0695467
    outer loop
      vertex 13.435 -15.4558 -50
      vertex 6 -14.3827 -150
      vertex 8.48528 -10.0919 -150
    endloop
  endfacet
  facet normal -0.995904 -0.058274 -0.0691306
    outer loop
      vertex -11.5911 2.01189 -150
      vertex -19 10 -50
      vertex -12 9 -150
    endloop
  endfacet
  facet normal -0.615806 -0.784645 -0.0715218
    outer loop
      vertex -4.91756 -24.7733 -50
      vertex -9.5 -21.1769 -50
      vertex -3.10583 -17.08 -150
    endloop
  endfacet
  facet normal 0.615806 -0.784645 -0.0715218
    outer loop
      vertex 4.91756 -24.7733 -50
      vertex 3.10583 -17.08 -150
      vertex 9.5 -21.1769 -50
    endloop
  endfacet
  facet normal 0.94425 -0.32202 -0.0685131
    outer loop
      vertex 16.4545 -8 -50
      vertex 8.48528 -10.0919 -150
      vertex 10.3923 -4.5 -150
    endloop
  endfacet
  facet normal -0.822063 -0.565419 -0.0671879
    outer loop
      vertex -9.5 -21.1769 -50
      vertex -13.435 -15.4558 -50
      vertex -6 -14.3827 -150
    endloop
  endfacet
  facet normal -0.67995 -0.729578 -0.0733673
    outer loop
      vertex -3.10583 -17.08 -150
      vertex -9.5 -21.1769 -50
      vertex -6 -14.3827 -150
    endloop
  endfacet
  facet normal -0.821387 0.564954 -0.0784317
    outer loop
      vertex -6 32.3827 -150
      vertex -13.435 35.4558 -50
      vertex -9.5 41.1769 -50
    endloop
  endfacet
  facet normal -0.995271 -0.0691537 -0.0682146
    outer loop
      vertex -18.3526 0.682514 -50
      vertex -19 10 -50
      vertex -11.5911 2.01189 -150
    endloop
  endfacet
  facet normal 0.240905 0.965732 -0.0965732
    outer loop
      vertex 4.91756 44.7733 -50
      vertex 0 36 -150
      vertex 0 46 -50
    endloop
  endfacet
  facet normal -0.943815 0.321871 -0.0749189
    outer loop
      vertex -10.3923 22.5 -150
      vertex -16.4545 28 -50
      vertex -8.48528 28.0919 -150
    endloop
  endfacet
  facet normal -0.974477 0.213033 -0.0707915
    outer loop
      vertex -10.3923 22.5 -150
      vertex -18.3526 19.3175 -50
      vertex -16.4545 28 -50
    endloop
  endfacet
  facet normal -0.995823 0.0582694 -0.0702903
    outer loop
      vertex -12 9 -150
      vertex -19 10 -50
      vertex -11.5911 15.9881 -150
    endloop
  endfacet
  facet normal 0.995904 -0.058274 -0.0691306
    outer loop
      vertex 19 10 -50
      vertex 11.5911 2.01189 -150
      vertex 12 9 -150
    endloop
  endfacet
  facet normal -0.980897 0.180577 -0.0723355
    outer loop
      vertex -11.5911 15.9881 -150
      vertex -18.3526 19.3175 -50
      vertex -10.3923 22.5 -150
    endloop
  endfacet
  facet normal -0.995176 0.069147 -0.069591
    outer loop
      vertex -11.5911 15.9881 -150
      vertex -19 10 -50
      vertex -18.3526 19.3175 -50
    endloop
  endfacet
  facet normal -0.283138 -0.955847 -0.0786659
    outer loop
      vertex 0 -18 -150
      vertex -4.91756 -24.7733 -50
      vertex -3.10583 -17.08 -150
    endloop
  endfacet
  facet normal -0.981147 -0.180623 -0.0687414
    outer loop
      vertex -10.3923 -4.5 -150
      vertex -18.3526 0.682514 -50
      vertex -11.5911 2.01189 -150
    endloop
  endfacet
  facet normal 0.974477 0.213033 -0.0707915
    outer loop
      vertex 18.3526 19.3175 -50
      vertex 10.3923 22.5 -150
      vertex 16.4545 28 -50
    endloop
  endfacet
  facet normal -0.94425 -0.32202 -0.0685131
    outer loop
      vertex -8.48528 -10.0919 -150
      vertex -16.4545 -8 -50
      vertex -10.3923 -4.5 -150
    endloop
  endfacet
  facet normal 0.980897 0.180577 -0.0723355
    outer loop
      vertex 11.5911 15.9881 -150
      vertex 10.3923 22.5 -150
      vertex 18.3526 19.3175 -50
    endloop
  endfacet
  facet normal 0.995176 0.069147 -0.069591
    outer loop
      vertex 19 10 -50
      vertex 11.5911 15.9881 -150
      vertex 18.3526 19.3175 -50
    endloop
  endfacet
  facet normal -0.974762 -0.213095 -0.0665504
    outer loop
      vertex -16.4545 -8 -50
      vertex -18.3526 0.682514 -50
      vertex -10.3923 -4.5 -150
    endloop
  endfacet
  facet normal -0.679151 0.728721 -0.0878555
    outer loop
      vertex -6 32.3827 -150
      vertex -9.5 41.1769 -50
      vertex -3.10583 35.08 -150
    endloop
  endfacet
  facet normal -0.862589 0.499621 -0.0794874
    outer loop
      vertex -8.48528 28.0919 -150
      vertex -13.435 35.4558 -50
      vertex -6 32.3827 -150
    endloop
  endfacet
  facet normal -0.615041 0.783669 -0.0871063
    outer loop
      vertex -3.10583 35.08 -150
      vertex -9.5 41.1769 -50
      vertex -4.91756 44.7733 -50
    endloop
  endfacet
  facet normal 0.679151 0.728721 -0.0878555
    outer loop
      vertex 6 32.3827 -150
      vertex 3.10583 35.08 -150
      vertex 9.5 41.1769 -50
    endloop
  endfacet
  facet normal -0.24131 -0.967357 -0.0773886
    outer loop
      vertex 0 -26 -50
      vertex -4.91756 -24.7733 -50
      vertex 0 -18 -150
    endloop
  endfacet
  facet normal 0.615041 0.783669 -0.0871063
    outer loop
      vertex 9.5 41.1769 -50
      vertex 3.10583 35.08 -150
      vertex 4.91756 44.7733 -50
    endloop
  endfacet
  facet normal 0.24131 -0.967357 -0.0773886
    outer loop
      vertex 4.91756 -24.7733 -50
      vertex 0 -26 -50
      vertex 0 -18 -150
    endloop
  endfacet
  facet normal 0.862589 0.499621 -0.0794874
    outer loop
      vertex 8.48528 28.0919 -150
      vertex 6 32.3827 -150
      vertex 13.435 35.4558 -50
    endloop
  endfacet
  facet normal -0.924379 0.374361 -0.0733218
    outer loop
      vertex -8.48528 28.0919 -150
      vertex -16.4545 28 -50
      vertex -13.435 35.4558 -50
    endloop
  endfacet
  facet normal 0.943815 0.321871 -0.0749189
    outer loop
      vertex 10.3923 22.5 -150
      vertex 8.48528 28.0919 -150
      vertex 16.4545 28 -50
    endloop
  endfacet
  facet normal 0.821387 0.564954 -0.0784317
    outer loop
      vertex 13.435 35.4558 -50
      vertex 6 32.3827 -150
      vertex 9.5 41.1769 -50
    endloop
  endfacet
  facet normal -0.240905 0.965732 -0.0965732
    outer loop
      vertex 0 36 -150
      vertex -4.91756 44.7733 -50
      vertex 0 46 -50
    endloop
  endfacet
  facet normal -0.282662 0.954239 -0.0976184
    outer loop
      vertex -3.10583 35.08 -150
      vertex -4.91756 44.7733 -50
      vertex 0 36 -150
    endloop
  endfacet
  facet normal 0.982635 -0.180897 -0.0412754
    outer loop
      vertex 10.3923 -4.5 -150
      vertex 6.9282 -0.5 -250
      vertex 11.5911 2.01189 -150
    endloop
  endfacet
  facet normal 0.950594 0.307125 -0.0452146
    outer loop
      vertex 6.9282 18.5 -250
      vertex 5.65685 22.435 -250
      vertex 10.3923 22.5 -150
    endloop
  endfacet
  facet normal -0.950594 0.307125 -0.0452146
    outer loop
      vertex -6.9282 18.5 -250
      vertex -10.3923 22.5 -150
      vertex -5.65685 22.435 -250
    endloop
  endfacet
  facet normal -0.29755 -0.951627 -0.0766166
    outer loop
      vertex 0 -10 -250
      vertex -3.10583 -17.08 -150
      vertex -2.07055 -9.35259 -250
    endloop
  endfacet
  facet normal -0.982636 0.180897 -0.0412754
    outer loop
      vertex -6.9282 18.5 -250
      vertex -11.5911 15.9881 -150
      vertex -10.3923 22.5 -150
    endloop
  endfacet
  facet normal 0.699888 -0.711444 -0.0632881
    outer loop
      vertex 6 -14.3827 -150
      vertex 2.07055 -9.35259 -250
      vertex 4 -7.45448 -250
    endloop
  endfacet
  facet normal 0.997504 0.0583677 -0.0397489
    outer loop
      vertex 12 9 -150
      vertex 7.72741 13.9176 -250
      vertex 11.5911 15.9881 -150
    endloop
  endfacet
  facet normal -0.984277 -0.171665 -0.0415838
    outer loop
      vertex -6.9282 -0.5 -250
      vertex -11.5911 2.01189 -150
      vertex -7.72741 4.08244 -250
    endloop
  endfacet
  facet normal -0.950595 -0.307123 -0.0452145
    outer loop
      vertex -5.65685 -4.43503 -250
      vertex -10.3923 -4.5 -150
      vertex -6.9282 -0.5 -250
    endloop
  endfacet
  facet normal -0.283187 -0.95601 -0.0764808
    outer loop
      vertex 0 -18 -150
      vertex -3.10583 -17.08 -150
      vertex 0 -10 -250
    endloop
  endfacet
  facet normal 0.680414 -0.730075 -0.0634601
    outer loop
      vertex 3.10583 -17.08 -150
      vertex 2.07055 -9.35259 -250
      vertex 6 -14.3827 -150
    endloop
  endfacet
  facet normal 0.945516 0.322452 -0.044984
    outer loop
      vertex 10.3923 22.5 -150
      vertex 5.65685 22.435 -250
      vertex 8.48528 28.0919 -150
    endloop
  endfacet
  facet normal 0.950595 -0.307123 -0.0452145
    outer loop
      vertex 10.3923 -4.5 -150
      vertex 5.65685 -4.43503 -250
      vertex 6.9282 -0.5 -250
    endloop
  endfacet
  facet normal -0.997504 -0.0583676 -0.039749
    outer loop
      vertex -11.5911 2.01189 -150
      vertex -12 9 -150
      vertex -7.72741 4.08244 -250
    endloop
  endfacet
  facet normal -0.945516 0.322452 -0.044984
    outer loop
      vertex -5.65685 22.435 -250
      vertex -10.3923 22.5 -150
      vertex -8.48528 28.0919 -150
    endloop
  endfacet
  facet normal -0.997672 0.0553025 -0.0399069
    outer loop
      vertex -8 9 -250
      vertex -12 9 -150
      vertex -7.72741 13.9176 -250
    endloop
  endfacet
  facet normal 0.864158 0.50053 -0.0519609
    outer loop
      vertex 8.48528 28.0919 -150
      vertex 4 25.4545 -250
      vertex 6 32.3827 -150
    endloop
  endfacet
  facet normal 0.875504 -0.480412 -0.0519393
    outer loop
      vertex 8.48528 -10.0919 -150
      vertex 4 -7.45448 -250
      vertex 5.65685 -4.43503 -250
    endloop
  endfacet
  facet normal 0.945516 -0.322452 -0.044984
    outer loop
      vertex 8.48528 -10.0919 -150
      vertex 5.65685 -4.43503 -250
      vertex 10.3923 -4.5 -150
    endloop
  endfacet
  facet normal 0.864158 -0.50053 -0.051961
    outer loop
      vertex 6 -14.3827 -150
      vertex 4 -7.45448 -250
      vertex 8.48528 -10.0919 -150
    endloop
  endfacet
  facet normal -0.297546 0.951628 -0.0766166
    outer loop
      vertex -2.07055 27.3526 -250
      vertex -3.10583 35.08 -150
      vertex 0 28 -250
    endloop
  endfacet
  facet normal 0.984277 -0.171665 -0.0415838
    outer loop
      vertex 11.5911 2.01189 -150
      vertex 6.9282 -0.5 -250
      vertex 7.72741 4.08244 -250
    endloop
  endfacet
  facet normal 0.997504 -0.0583676 -0.039749
    outer loop
      vertex 11.5911 2.01189 -150
      vertex 7.72741 4.08244 -250
      vertex 12 9 -150
    endloop
  endfacet
  facet normal -0.680414 -0.730075 -0.0634601
    outer loop
      vertex -3.10583 -17.08 -150
      vertex -6 -14.3827 -150
      vertex -2.07055 -9.35259 -250
    endloop
  endfacet
  facet normal -0.982635 -0.180897 -0.0412754
    outer loop
      vertex -10.3923 -4.5 -150
      vertex -11.5911 2.01189 -150
      vertex -6.9282 -0.5 -250
    endloop
  endfacet
  facet normal -0.997672 -0.0553029 -0.0399069
    outer loop
      vertex -7.72741 4.08244 -250
      vertex -12 9 -150
      vertex -8 9 -250
    endloop
  endfacet
  facet normal 0.283187 -0.95601 -0.0764808
    outer loop
      vertex 3.10583 -17.08 -150
      vertex 0 -18 -150
      vertex 0 -10 -250
    endloop
  endfacet
  facet normal -0.864158 0.50053 -0.0519609
    outer loop
      vertex -4 25.4545 -250
      vertex -8.48528 28.0919 -150
      vertex -6 32.3827 -150
    endloop
  endfacet
  facet normal 0.29755 -0.951627 -0.0766166
    outer loop
      vertex 3.10583 -17.08 -150
      vertex 0 -10 -250
      vertex 2.07055 -9.35259 -250
    endloop
  endfacet
  facet normal 0.997672 -0.0553029 -0.0399069
    outer loop
      vertex 12 9 -150
      vertex 7.72741 4.08244 -250
      vertex 8 9 -250
    endloop
  endfacet
  facet normal 0.997672 0.0553025 -0.0399069
    outer loop
      vertex 8 9 -250
      vertex 7.72741 13.9176 -250
      vertex 12 9 -150
    endloop
  endfacet
  facet normal -0.283187 0.95601 -0.0764808
    outer loop
      vertex 0 28 -250
      vertex -3.10583 35.08 -150
      vertex 0 36 -150
    endloop
  endfacet
  facet normal -0.875504 -0.480412 -0.0519393
    outer loop
      vertex -4 -7.45448 -250
      vertex -8.48528 -10.0919 -150
      vertex -5.65685 -4.43503 -250
    endloop
  endfacet
  facet normal -0.875507 0.480405 -0.0519392
    outer loop
      vertex -5.65685 22.435 -250
      vertex -8.48528 28.0919 -150
      vertex -4 25.4545 -250
    endloop
  endfacet
  facet normal -0.945516 -0.322452 -0.044984
    outer loop
      vertex -8.48528 -10.0919 -150
      vertex -10.3923 -4.5 -150
      vertex -5.65685 -4.43503 -250
    endloop
  endfacet
  facet normal -0.864158 -0.50053 -0.051961
    outer loop
      vertex -6 -14.3827 -150
      vertex -8.48528 -10.0919 -150
      vertex -4 -7.45448 -250
    endloop
  endfacet
  facet normal -0.699888 -0.711444 -0.0632881
    outer loop
      vertex -2.07055 -9.35259 -250
      vertex -6 -14.3827 -150
      vertex -4 -7.45448 -250
    endloop
  endfacet
  facet normal 0.875507 0.480405 -0.0519392
    outer loop
      vertex 5.65685 22.435 -250
      vertex 4 25.4545 -250
      vertex 8.48528 28.0919 -150
    endloop
  endfacet
  facet normal 0.699886 0.711445 -0.0632881
    outer loop
      vertex 4 25.4545 -250
      vertex 2.07055 27.3526 -250
      vertex 6 32.3827 -150
    endloop
  endfacet
  facet normal 0.982636 0.180897 -0.0412754
    outer loop
      vertex 11.5911 15.9881 -150
      vertex 6.9282 18.5 -250
      vertex 10.3923 22.5 -150
    endloop
  endfacet
  facet normal 0.984277 0.171666 -0.0415838
    outer loop
      vertex 7.72741 13.9176 -250
      vertex 6.9282 18.5 -250
      vertex 11.5911 15.9881 -150
    endloop
  endfacet
  facet normal -0.984277 0.171666 -0.0415838
    outer loop
      vertex -7.72741 13.9176 -250
      vertex -11.5911 15.9881 -150
      vertex -6.9282 18.5 -250
    endloop
  endfacet
  facet normal -0.997504 0.0583677 -0.0397489
    outer loop
      vertex -7.72741 13.9176 -250
      vertex -12 9 -150
      vertex -11.5911 15.9881 -150
    endloop
  endfacet
  facet normal 0.283187 0.95601 -0.0764808
    outer loop
      vertex 3.10583 35.08 -150
      vertex 0 28 -250
      vertex 0 36 -150
    endloop
  endfacet
  facet normal 0.297546 0.951628 -0.0766166
    outer loop
      vertex 2.07055 27.3526 -250
      vertex 0 28 -250
      vertex 3.10583 35.08 -150
    endloop
  endfacet
  facet normal 0.680414 0.730075 -0.06346
    outer loop
      vertex 6 32.3827 -150
      vertex 2.07055 27.3526 -250
      vertex 3.10583 35.08 -150
    endloop
  endfacet
  facet normal -0.680414 0.730075 -0.06346
    outer loop
      vertex -2.07055 27.3526 -250
      vertex -6 32.3827 -150
      vertex -3.10583 35.08 -150
    endloop
  endfacet
  facet normal -0.699886 0.711445 -0.0632881
    outer loop
      vertex -4 25.4545 -250
      vertex -6 32.3827 -150
      vertex -2.07055 27.3526 -250
    endloop
  endfacet
  facet normal -0.993775 0.0949909 -0.058201
    outer loop
      vertex -2.89778 12.3646 -335
      vertex -7.72741 13.9176 -250
      vertex -2.59808 15.5 -335
    endloop
  endfacet
  facet normal -0.297748 0.952275 -0.0672194
    outer loop
      vertex 0 22 -335
      vertex -2.07055 27.3526 -250
      vertex 0 28 -250
    endloop
  endfacet
  facet normal 0.956173 0.287569 -0.0551137
    outer loop
      vertex 2.12132 18.1924 -335
      vertex 1.5 20.2583 -335
      vertex 6.9282 18.5 -250
    endloop
  endfacet
  facet normal -0.983574 0.171544 -0.0561603
    outer loop
      vertex -2.59808 15.5 -335
      vertex -7.72741 13.9176 -250
      vertex -6.9282 18.5 -250
    endloop
  endfacet
  facet normal -0.956173 0.287569 -0.0551137
    outer loop
      vertex -2.12132 18.1924 -335
      vertex -6.9282 18.5 -250
      vertex -1.5 20.2583 -335
    endloop
  endfacet
  facet normal -0.700064 -0.711623 -0.0591788
    outer loop
      vertex -2.07055 -9.35259 -250
      vertex -4 -7.45448 -250
      vertex -0.776457 -3.55704 -335
    endloop
  endfacet
  facet normal 0.872234 0.485946 -0.0553607
    outer loop
      vertex 1.5 20.2583 -335
      vertex 0.776457 21.557 -335
      vertex 4 25.4545 -250
    endloop
  endfacet
  facet normal -0.950163 -0.306984 -0.0543282
    outer loop
      vertex -5.65685 -4.43503 -250
      vertex -6.9282 -0.5 -250
      vertex -1.5 -2.25833 -335
    endloop
  endfacet
  facet normal -0.983124 0.174088 -0.0562271
    outer loop
      vertex -2.59808 15.5 -335
      vertex -6.9282 18.5 -250
      vertex -2.12132 18.1924 -335
    endloop
  endfacet
  facet normal -0.983123 -0.174089 -0.0562272
    outer loop
      vertex -2.12132 -0.192388 -335
      vertex -6.9282 -0.5 -250
      vertex -2.59808 2.5 -335
    endloop
  endfacet
  facet normal 0 0 -1
    outer loop
      vertex -3 9 -335
      vertex 3 9 -335
      vertex 2.89778 5.63535 -335
    endloop
  endfacet
  facet normal 0 0 -1
    outer loop
      vertex -2.89778 5.63535 -335
      vertex 2.89778 5.63535 -335
      vertex 2.59808 2.5 -335
    endloop
  endfacet
  facet normal 0 0 -1
    outer loop
      vertex 3 9 -335
      vertex -3 9 -335
      vertex 2.89778 12.3646 -335
    endloop
  endfacet
  facet normal 0 0 -1
    outer loop
      vertex -2.59808 2.5 -335
      vertex 2.59808 2.5 -335
      vertex 2.12132 -0.192388 -335
    endloop
  endfacet
  facet normal 0 -0 -1
    outer loop
      vertex -2.89778 12.3646 -335
      vertex 2.89778 12.3646 -335
      vertex -3 9 -335
    endloop
  endfacet
  facet normal 0 0 -1
    outer loop
      vertex -2.12132 -0.192388 -335
      vertex 2.12132 -0.192388 -335
      vertex 1.5 -2.25833 -335
    endloop
  endfacet
  facet normal 0 0 -1
    outer loop
      vertex 2.89778 12.3646 -335
      vertex -2.89778 12.3646 -335
      vertex 2.59808 15.5 -335
    endloop
  endfacet
  facet normal 0 0 -1
    outer loop
      vertex -1.5 -2.25833 -335
      vertex 1.5 -2.25833 -335
      vertex 0.776457 -3.55704 -335
    endloop
  endfacet
  facet normal 0 -0 -1
    outer loop
      vertex -2.59808 15.5 -335
      vertex 2.59808 15.5 -335
      vertex -2.89778 12.3646 -335
    endloop
  endfacet
  facet normal 0 0 -1
    outer loop
      vertex -0.776457 -3.55704 -335
      vertex 0.776457 -3.55704 -335
      vertex 0 -4 -335
    endloop
  endfacet
  facet normal 0 0 -1
    outer loop
      vertex 2.59808 15.5 -335
      vertex -2.59808 15.5 -335
      vertex 2.12132 18.1924 -335
    endloop
  endfacet
  facet normal 0 0 -1
    outer loop
      vertex 0.776457 -3.55704 -335
      vertex -0.776457 -3.55704 -335
      vertex -1.5 -2.25833 -335
    endloop
  endfacet
  facet normal 0 -0 -1
    outer loop
      vertex -2.12132 18.1924 -335
      vertex 2.12132 18.1924 -335
      vertex -2.59808 15.5 -335
    endloop
  endfacet
  facet normal 0 0 -1
    outer loop
      vertex 1.5 -2.25833 -335
      vertex -1.5 -2.25833 -335
      vertex -2.12132 -0.192388 -335
    endloop
  endfacet
  facet normal 0 0 -1
    outer loop
      vertex 2.12132 18.1924 -335
      vertex -2.12132 18.1924 -335
      vertex 1.5 20.2583 -335
    endloop
  endfacet
  facet normal 0 0 -1
    outer loop
      vertex 2.12132 -0.192388 -335
      vertex -2.12132 -0.192388 -335
      vertex -2.59808 2.5 -335
    endloop
  endfacet
  facet normal 0 0 -1
    outer loop
      vertex 2.89778 5.63535 -335
      vertex -2.89778 5.63535 -335
      vertex -3 9 -335
    endloop
  endfacet
  facet normal 0 0 -1
    outer loop
      vertex 2.59808 2.5 -335
      vertex -2.59808 2.5 -335
      vertex -2.89778 5.63535 -335
    endloop
  endfacet
  facet normal 0 -0 -1
    outer loop
      vertex -1.5 20.2583 -335
      vertex 1.5 20.2583 -335
      vertex -2.12132 18.1924 -335
    endloop
  endfacet
  facet normal 0 -0 -1
    outer loop
      vertex -0.776457 21.557 -335
      vertex 0.776457 21.557 -335
      vertex -1.5 20.2583 -335
    endloop
  endfacet
  facet normal 0 0 -1
    outer loop
      vertex 0.776457 21.557 -335
      vertex -0.776457 21.557 -335
      vertex 0 22 -335
    endloop
  endfacet
  facet normal 0 0 -1
    outer loop
      vertex 1.5 20.2583 -335
      vertex -1.5 20.2583 -335
      vertex 0.776457 21.557 -335
    endloop
  endfacet
  facet normal 0.956174 -0.287564 -0.0551138
    outer loop
      vertex 6.9282 -0.5 -250
      vertex 1.5 -2.25833 -335
      vertex 2.12132 -0.192388 -335
    endloop
  endfacet
  facet normal -0.875358 0.480324 -0.0551089
    outer loop
      vertex -1.5 20.2583 -335
      vertex -5.65685 22.435 -250
      vertex -4 25.4545 -250
    endloop
  endfacet
  facet normal -0.997816 -0.0303142 -0.058695
    outer loop
      vertex -2.89778 5.63535 -335
      vertex -8 9 -250
      vertex -3 9 -335
    endloop
  endfacet
  facet normal 0.983574 0.171544 -0.0561603
    outer loop
      vertex 7.72741 13.9176 -250
      vertex 2.59808 15.5 -335
      vertex 6.9282 18.5 -250
    endloop
  endfacet
  facet normal -0.956174 -0.287564 -0.0551138
    outer loop
      vertex -1.5 -2.25833 -335
      vertex -6.9282 -0.5 -250
      vertex -2.12132 -0.192388 -335
    endloop
  endfacet
  facet normal -0.494456 0.866646 -0.0666189
    outer loop
      vertex -0.776457 21.557 -335
      vertex -2.07055 27.3526 -250
      vertex 0 22 -335
    endloop
  endfacet
  facet normal -0.700063 0.711625 -0.0591793
    outer loop
      vertex -0.776457 21.557 -335
      vertex -4 25.4545 -250
      vertex -2.07055 27.3526 -250
    endloop
  endfacet
  facet normal 0.993775 0.0949909 -0.058201
    outer loop
      vertex 2.89778 12.3646 -335
      vertex 2.59808 15.5 -335
      vertex 7.72741 13.9176 -250
    endloop
  endfacet
  facet normal 0.983124 0.174088 -0.0562271
    outer loop
      vertex 2.59808 15.5 -335
      vertex 2.12132 18.1924 -335
      vertex 6.9282 18.5 -250
    endloop
  endfacet
  facet normal -0.494423 -0.866665 -0.0666192
    outer loop
      vertex 0 -4 -335
      vertex -2.07055 -9.35259 -250
      vertex -0.776457 -3.55704 -335
    endloop
  endfacet
  facet normal -0.996807 0.0552545 -0.0576473
    outer loop
      vertex -2.89778 12.3646 -335
      vertex -8 9 -250
      vertex -7.72741 13.9176 -250
    endloop
  endfacet
  facet normal -0.297753 -0.952274 -0.0672193
    outer loop
      vertex 0 -10 -250
      vertex -2.07055 -9.35259 -250
      vertex 0 -4 -335
    endloop
  endfacet
  facet normal 0.875358 0.480324 -0.0551089
    outer loop
      vertex 5.65685 22.435 -250
      vertex 1.5 20.2583 -335
      vertex 4 25.4545 -250
    endloop
  endfacet
  facet normal -0.993775 -0.0949924 -0.058201
    outer loop
      vertex -2.59808 2.5 -335
      vertex -7.72741 4.08244 -250
      vertex -2.89778 5.63535 -335
    endloop
  endfacet
  facet normal 0.997816 0.0303147 -0.058695
    outer loop
      vertex 3 9 -335
      vertex 2.89778 12.3646 -335
      vertex 8 9 -250
    endloop
  endfacet
  facet normal -0.996807 -0.055255 -0.0576472
    outer loop
      vertex -7.72741 4.08244 -250
      vertex -8 9 -250
      vertex -2.89778 5.63535 -335
    endloop
  endfacet
  facet normal 0.983123 -0.174089 -0.0562272
    outer loop
      vertex 6.9282 -0.5 -250
      vertex 2.12132 -0.192388 -335
      vertex 2.59808 2.5 -335
    endloop
  endfacet
  facet normal -0.872234 0.485946 -0.0553607
    outer loop
      vertex -1.5 20.2583 -335
      vertex -4 25.4545 -250
      vertex -0.776457 21.557 -335
    endloop
  endfacet
  facet normal 0.700064 -0.711623 -0.0591788
    outer loop
      vertex 2.07055 -9.35259 -250
      vertex 0.776457 -3.55704 -335
      vertex 4 -7.45448 -250
    endloop
  endfacet
  facet normal -0.950162 0.306986 -0.0543282
    outer loop
      vertex -1.5 20.2583 -335
      vertex -6.9282 18.5 -250
      vertex -5.65685 22.435 -250
    endloop
  endfacet
  facet normal -0.983575 -0.171542 -0.0561603
    outer loop
      vertex -6.9282 -0.5 -250
      vertex -7.72741 4.08244 -250
      vertex -2.59808 2.5 -335
    endloop
  endfacet
  facet normal 0.700063 0.711625 -0.0591793
    outer loop
      vertex 4 25.4545 -250
      vertex 0.776457 21.557 -335
      vertex 2.07055 27.3526 -250
    endloop
  endfacet
  facet normal -0.997816 0.0303147 -0.058695
    outer loop
      vertex -3 9 -335
      vertex -8 9 -250
      vertex -2.89778 12.3646 -335
    endloop
  endfacet
  facet normal 0.996807 0.0552545 -0.0576473
    outer loop
      vertex 8 9 -250
      vertex 2.89778 12.3646 -335
      vertex 7.72741 13.9176 -250
    endloop
  endfacet
  facet normal 0.993775 -0.0949924 -0.058201
    outer loop
      vertex 7.72741 4.08244 -250
      vertex 2.59808 2.5 -335
      vertex 2.89778 5.63535 -335
    endloop
  endfacet
  facet normal -0.872235 -0.485943 -0.0553603
    outer loop
      vertex -0.776457 -3.55704 -335
      vertex -4 -7.45448 -250
      vertex -1.5 -2.25833 -335
    endloop
  endfacet
  facet normal 0.950162 0.306986 -0.0543282
    outer loop
      vertex 6.9282 18.5 -250
      vertex 1.5 20.2583 -335
      vertex 5.65685 22.435 -250
    endloop
  endfacet
  facet normal 0.983575 -0.171542 -0.0561603
    outer loop
      vertex 6.9282 -0.5 -250
      vertex 2.59808 2.5 -335
      vertex 7.72741 4.08244 -250
    endloop
  endfacet
  facet normal 0.494423 -0.866665 -0.0666192
    outer loop
      vertex 2.07055 -9.35259 -250
      vertex 0 -4 -335
      vertex 0.776457 -3.55704 -335
    endloop
  endfacet
  facet normal 0.872235 -0.485943 -0.0553603
    outer loop
      vertex 4 -7.45448 -250
      vertex 0.776457 -3.55704 -335
      vertex 1.5 -2.25833 -335
    endloop
  endfacet
  facet normal 0.494456 0.866646 -0.0666189
    outer loop
      vertex 0.776457 21.557 -335
      vertex 0 22 -335
      vertex 2.07055 27.3526 -250
    endloop
  endfacet
  facet normal 0.297748 0.952275 -0.0672194
    outer loop
      vertex 2.07055 27.3526 -250
      vertex 0 22 -335
      vertex 0 28 -250
    endloop
  endfacet
  facet normal 0.996807 -0.055255 -0.0576472
    outer loop
      vertex 7.72741 4.08244 -250
      vertex 2.89778 5.63535 -335
      vertex 8 9 -250
    endloop
  endfacet
  facet normal 0.997816 -0.0303142 -0.058695
    outer loop
      vertex 8 9 -250
      vertex 2.89778 5.63535 -335
      vertex 3 9 -335
    endloop
  endfacet
  facet normal -0.875355 -0.48033 -0.0551089
    outer loop
      vertex -4 -7.45448 -250
      vertex -5.65685 -4.43503 -250
      vertex -1.5 -2.25833 -335
    endloop
  endfacet
  facet normal 0.875355 -0.48033 -0.0551089
    outer loop
      vertex 4 -7.45448 -250
      vertex 1.5 -2.25833 -335
      vertex 5.65685 -4.43503 -250
    endloop
  endfacet
  facet normal 0.297753 -0.952274 -0.0672193
    outer loop
      vertex 2.07055 -9.35259 -250
      vertex 0 -10 -250
      vertex 0 -4 -335
    endloop
  endfacet
  facet normal 0.950163 -0.306984 -0.0543282
    outer loop
      vertex 5.65685 -4.43503 -250
      vertex 1.5 -2.25833 -335
      vertex 6.9282 -0.5 -250
    endloop
  endfacet
endsolid OpenSCAD_Model
