solid OpenSCAD_Model
  facet normal -0.0770162 0.985029 -0.154231
    outer loop
      vertex 50 8.87999 -62.6875
      vertex 0.2 4.99504 -62.6316
      vertex 0.2 5.01552 -62.5008
    endloop
  endfacet
  facet normal -0.0770168 0.985037 -0.15418
    outer loop
      vertex 0.2 4.99504 -62.6316
      vertex 50 8.87999 -62.6875
      vertex 50 3.75899 -95.405
    endloop
  endfacet
  facet normal -0.0767094 0.992912 0.0907805
    outer loop
      vertex 50 8.87999 -62.6875
      vertex 0.2 4.99731 -62.3016
      vertex 50 4.32799 -12.9
    endloop
  endfacet
  facet normal -0.0767096 0.992913 0.0907678
    outer loop
      vertex 0.2 4.99731 -62.3016
      vertex 50 8.87999 -62.6875
      vertex 0.2 5.01552 -62.5008
    endloop
  endfacet
  facet normal 0 0.22723 -0.973841
    outer loop
      vertex 400.4 50 -86
      vertex 350 42.5 -87.75
      vertex 400 50 -86
    endloop
  endfacet
  facet normal 0 0.22723 -0.973841
    outer loop
      vertex 400.4 50 -86
      vertex 300 35 -89.5
      vertex 350 42.5 -87.75
    endloop
  endfacet
  facet normal 0 0.22723 -0.973841
    outer loop
      vertex 400.4 50 -86
      vertex 250 27.5 -91.25
      vertex 300 35 -89.5
    endloop
  endfacet
  facet normal 0 0.22723 -0.973841
    outer loop
      vertex 400.4 50 -86
      vertex 200 20 -93
      vertex 250 27.5 -91.25
    endloop
  endfacet
  facet normal 0 0.22723 -0.973841
    outer loop
      vertex 400.4 50 -86
      vertex 150 12.5 -94.75
      vertex 200 20 -93
    endloop
  endfacet
  facet normal 0 0.22723 -0.973841
    outer loop
      vertex 400.4 50 -86
      vertex 100 5 -96.5
      vertex 150 12.5 -94.75
    endloop
  endfacet
  facet normal 0 0.22723 -0.973841
    outer loop
      vertex 400.4 50 -86
      vertex 50 -2.5 -98.25
      vertex 100 5 -96.5
    endloop
  endfacet
  facet normal 0 0.22723 -0.973841
    outer loop
      vertex 0.4 -10 -100
      vertex 50 -2.5 -98.25
      vertex 400.4 50 -86
    endloop
  endfacet
  facet normal -1.25921e-14 0.22723 -0.973841
    outer loop
      vertex 0.4 -10 -100
      vertex 0.2 -9.97 -99.993
      vertex 50 -2.5 -98.25
    endloop
  endfacet
  facet normal 0 0.22723 -0.973841
    outer loop
      vertex 0 -10 -100
      vertex 0.2 -9.97 -99.993
      vertex 0.4 -10 -100
    endloop
  endfacet
  facet normal 1.25921e-14 0.22723 -0.973841
    outer loop
      vertex 0 -10 -100
      vertex -49.6 -2.5 -98.25
      vertex 0.2 -9.97 -99.993
    endloop
  endfacet
  facet normal 0 0.22723 -0.973841
    outer loop
      vertex 0 -10 -100
      vertex -99.6 5 -96.5
      vertex -49.6 -2.5 -98.25
    endloop
  endfacet
  facet normal 0 0.22723 -0.973841
    outer loop
      vertex 0 -10 -100
      vertex -149.6 12.5 -94.75
      vertex -99.6 5 -96.5
    endloop
  endfacet
  facet normal 0 0.22723 -0.973841
    outer loop
      vertex 0 -10 -100
      vertex -199.6 20 -93
      vertex -149.6 12.5 -94.75
    endloop
  endfacet
  facet normal 0 0.22723 -0.973841
    outer loop
      vertex 0 -10 -100
      vertex -249.6 27.5 -91.25
      vertex -199.6 20 -93
    endloop
  endfacet
  facet normal 0 0.22723 -0.973841
    outer loop
      vertex 0 -10 -100
      vertex -299.6 35 -89.5
      vertex -249.6 27.5 -91.25
    endloop
  endfacet
  facet normal 0 0.22723 -0.973841
    outer loop
      vertex 0 -10 -100
      vertex -349.6 42.5 -87.75
      vertex -299.6 35 -89.5
    endloop
  endfacet
  facet normal 0 0.22723 -0.973841
    outer loop
      vertex -400 50 -86
      vertex -349.6 42.5 -87.75
      vertex 0 -10 -100
    endloop
  endfacet
  facet normal 0 0.22723 -0.973841
    outer loop
      vertex -349.6 42.5 -87.75
      vertex -400 50 -86
      vertex -399.6 50 -86
    endloop
  endfacet
  facet normal -0.100265 0.988526 0.112974
    outer loop
      vertex 0.2 4.9716 -62.074
      vertex 0.2 -1.0044 -9.784
      vertex 50 -2.10001 44
    endloop
  endfacet
  facet normal -0 0.624695 0.780869
    outer loop
      vertex 400 50.4 2
      vertex 350.4 42.9 8
      vertex 400.4 50.4 2
    endloop
  endfacet
  facet normal -0 0.624695 0.780869
    outer loop
      vertex 350 42.9 8
      vertex 350.4 42.9 8
      vertex 400 50.4 2
    endloop
  endfacet
  facet normal -0 0.624695 0.780869
    outer loop
      vertex 350 42.9 8
      vertex 300.4 35.4 14
      vertex 350.4 42.9 8
    endloop
  endfacet
  facet normal -0 0.624695 0.780869
    outer loop
      vertex 300 35.4 14
      vertex 300.4 35.4 14
      vertex 350 42.9 8
    endloop
  endfacet
  facet normal -0 0.624695 0.780869
    outer loop
      vertex 300 35.4 14
      vertex 250.4 27.9 20
      vertex 300.4 35.4 14
    endloop
  endfacet
  facet normal -0 0.624695 0.780869
    outer loop
      vertex 250 27.9 20
      vertex 250.4 27.9 20
      vertex 300 35.4 14
    endloop
  endfacet
  facet normal -0 0.624695 0.780869
    outer loop
      vertex 250 27.9 20
      vertex 200.4 20.4 26
      vertex 250.4 27.9 20
    endloop
  endfacet
  facet normal -0 0.624695 0.780869
    outer loop
      vertex 200 20.4 26
      vertex 200.4 20.4 26
      vertex 250 27.9 20
    endloop
  endfacet
  facet normal -0 0.624695 0.780869
    outer loop
      vertex 200 20.4 26
      vertex 150.4 12.9 32
      vertex 200.4 20.4 26
    endloop
  endfacet
  facet normal -0 0.624695 0.780869
    outer loop
      vertex 150 12.9 32
      vertex 150.4 12.9 32
      vertex 200 20.4 26
    endloop
  endfacet
  facet normal -0 0.624695 0.780869
    outer loop
      vertex 150 12.9 32
      vertex 100.4 5.39999 38
      vertex 150.4 12.9 32
    endloop
  endfacet
  facet normal -0 0.624695 0.780869
    outer loop
      vertex 100 5.39999 38
      vertex 100.4 5.39999 38
      vertex 150 12.9 32
    endloop
  endfacet
  facet normal -0 0.624695 0.780869
    outer loop
      vertex 100 5.39999 38
      vertex 50.4 -2.10001 44
      vertex 100.4 5.39999 38
    endloop
  endfacet
  facet normal -0 0.624695 0.780869
    outer loop
      vertex 50 -2.10001 44
      vertex 50.4 -2.10001 44
      vertex 100 5.39999 38
    endloop
  endfacet
  facet normal -0 0.624695 0.780869
    outer loop
      vertex 50 -2.10001 44
      vertex 0.4 -9.60001 50
      vertex 50.4 -2.10001 44
    endloop
  endfacet
  facet normal -2.77809e-15 0.624695 0.780869
    outer loop
      vertex 0.2 -9.57001 49.976
      vertex 0.4 -9.60001 50
      vertex 50 -2.10001 44
    endloop
  endfacet
  facet normal 0 0.624695 0.780869
    outer loop
      vertex 0.2 -9.57001 49.976
      vertex 0 -9.60001 50
      vertex 0.4 -9.60001 50
    endloop
  endfacet
  facet normal 3.71379e-15 0.624695 0.780869
    outer loop
      vertex -49.6 -2.10001 44
      vertex 0 -9.60001 50
      vertex 0.2 -9.57001 49.976
    endloop
  endfacet
  facet normal 0 0.624695 0.780869
    outer loop
      vertex -49.6 -2.10001 44
      vertex -50 -2.10001 44
      vertex 0 -9.60001 50
    endloop
  endfacet
  facet normal 0 0.624695 0.780869
    outer loop
      vertex -99.6 5.39999 38
      vertex -50 -2.10001 44
      vertex -49.6 -2.10001 44
    endloop
  endfacet
  facet normal 0 0.624695 0.780869
    outer loop
      vertex -99.6 5.39999 38
      vertex -100 5.39999 38
      vertex -50 -2.10001 44
    endloop
  endfacet
  facet normal 0 0.624695 0.780869
    outer loop
      vertex -149.6 12.9 32
      vertex -100 5.39999 38
      vertex -99.6 5.39999 38
    endloop
  endfacet
  facet normal 0 0.624695 0.780869
    outer loop
      vertex -149.6 12.9 32
      vertex -150 12.9 32
      vertex -100 5.39999 38
    endloop
  endfacet
  facet normal 0 0.624695 0.780869
    outer loop
      vertex -199.6 20.4 26
      vertex -150 12.9 32
      vertex -149.6 12.9 32
    endloop
  endfacet
  facet normal 0 0.624695 0.780869
    outer loop
      vertex -199.6 20.4 26
      vertex -200 20.4 26
      vertex -150 12.9 32
    endloop
  endfacet
  facet normal 0 0.624695 0.780869
    outer loop
      vertex -249.6 27.9 20
      vertex -200 20.4 26
      vertex -199.6 20.4 26
    endloop
  endfacet
  facet normal 0 0.624695 0.780869
    outer loop
      vertex -249.6 27.9 20
      vertex -250 27.9 20
      vertex -200 20.4 26
    endloop
  endfacet
  facet normal 0 0.624695 0.780869
    outer loop
      vertex -299.6 35.4 14
      vertex -250 27.9 20
      vertex -249.6 27.9 20
    endloop
  endfacet
  facet normal 0 0.624695 0.780869
    outer loop
      vertex -299.6 35.4 14
      vertex -300 35.4 14
      vertex -250 27.9 20
    endloop
  endfacet
  facet normal 0 0.624695 0.780869
    outer loop
      vertex -349.6 42.9 8
      vertex -300 35.4 14
      vertex -299.6 35.4 14
    endloop
  endfacet
  facet normal 0 0.624695 0.780869
    outer loop
      vertex -349.6 42.9 8
      vertex -350 42.9 8
      vertex -300 35.4 14
    endloop
  endfacet
  facet normal 0 0.624695 0.780869
    outer loop
      vertex -399.6 50.4 2
      vertex -350 42.9 8
      vertex -349.6 42.9 8
    endloop
  endfacet
  facet normal 0 0.624695 0.780869
    outer loop
      vertex -350 42.9 8
      vertex -399.6 50.4 2
      vertex -400 50.4 2
    endloop
  endfacet
  facet normal -0.101478 0.976327 -0.19102
    outer loop
      vertex 50 3.75899 -95.405
      vertex 0.2 -1.72796 -96.9936
      vertex 0.2 4.99504 -62.6316
    endloop
  endfacet
  facet normal -0.0975355 0.988941 0.111721
    outer loop
      vertex 50 4.32799 -12.9
      vertex 0.2 4.9716 -62.074
      vertex 50 -2.10001 44
    endloop
  endfacet
  facet normal -0.0975271 0.988943 0.111712
    outer loop
      vertex 0.2 4.9716 -62.074
      vertex 50 4.32799 -12.9
      vertex 0.2 4.99731 -62.3016
    endloop
  endfacet
  facet normal -0.130335 0.98144 0.140673
    outer loop
      vertex 0.2 -1.0044 -9.784
      vertex 0.2 -9.57001 49.976
      vertex 50 -2.10001 44
    endloop
  endfacet
  facet normal 0 -0.999978 0.00666635
    outer loop
      vertex 0 -10 -10
      vertex 0.4 -9.60001 50
      vertex 0 -9.60001 50
    endloop
  endfacet
  facet normal 0 -0.999978 0.00666635
    outer loop
      vertex 0.4 -9.60001 50
      vertex 0 -10 -10
      vertex 0.4 -10 -10
    endloop
  endfacet
  facet normal 0.14834 -0.988936 0
    outer loop
      vertex 0.4 -10 -100
      vertex 100.4 5 -15.8
      vertex 50.4 -2.5 -12.9
    endloop
  endfacet
  facet normal 0.14834 -0.988936 0
    outer loop
      vertex 0.4 -10 -100
      vertex 200.4 20 -21.6
      vertex 150.4 12.5 -18.7
    endloop
  endfacet
  facet normal 0.14834 -0.988936 0
    outer loop
      vertex 200.4 20 -21.6
      vertex 0.4 -10 -100
      vertex 250.4 27.5 -24.5
    endloop
  endfacet
  facet normal 0.14834 -0.988936 0
    outer loop
      vertex 400.4 50 -86
      vertex 350.4 42.5 -30.3
      vertex 300.4 35 -27.4
    endloop
  endfacet
  facet normal 0.14834 -0.988936 1.70347e-16
    outer loop
      vertex 250.4 27.5 -24.5
      vertex 400.4 50 -86
      vertex 300.4 35 -27.4
    endloop
  endfacet
  facet normal 0.14834 -0.988936 0
    outer loop
      vertex 350.4 42.5 -30.3
      vertex 400.4 50 -86
      vertex 400.4 50 -33.2
    endloop
  endfacet
  facet normal 0.14834 -0.988936 0
    outer loop
      vertex 100.4 5 -15.8
      vertex 0.4 -10 -100
      vertex 150.4 12.5 -18.7
    endloop
  endfacet
  facet normal 0.14834 -0.988936 0
    outer loop
      vertex 0.4 -10 -100
      vertex 50.4 -2.5 -12.9
      vertex 0.4 -10 -10
    endloop
  endfacet
  facet normal 0.14834 -0.988936 -3.36866e-17
    outer loop
      vertex 250.4 27.5 -24.5
      vertex 0.4 -10 -100
      vertex 400.4 50 -86
    endloop
  endfacet
  facet normal 0.149153 -0.98879 0.0069509
    outer loop
      vertex 50.4 -2.10001 44
      vertex 0.4 -9.60001 50
      vertex 50.4 -2.5 -12.9
    endloop
  endfacet
  facet normal -0.0183656 0.341685 -0.939635
    outer loop
      vertex 50 -2.5 -98.25
      vertex 0.2 -9.97 -99.993
      vertex 0.2 -1.753 -97.005
    endloop
  endfacet
  facet normal -0.0165354 0.414294 -0.909993
    outer loop
      vertex 0.2 -1.72796 -96.9936
      vertex 50 -2.5 -98.25
      vertex 0.2 -1.753 -97.005
    endloop
  endfacet
  facet normal -0.0165502 0.413747 -0.910242
    outer loop
      vertex 50 -2.5 -98.25
      vertex 0.2 -1.72796 -96.9936
      vertex 50 3.75899 -95.405
    endloop
  endfacet
  facet normal 0.148711 -0.988859 0.00659223
    outer loop
      vertex 0.4 -9.60001 50
      vertex 0.4 -10 -10
      vertex 50.4 -2.5 -12.9
    endloop
  endfacet
  facet normal 0 -1 0
    outer loop
      vertex 0 -10 -100
      vertex 0.4 -10 -10
      vertex 0 -10 -10
    endloop
  endfacet
  facet normal 0 -1 -0
    outer loop
      vertex 0.4 -10 -10
      vertex 0 -10 -100
      vertex 0.4 -10 -100
    endloop
  endfacet
  facet normal -0.0800514 0.9848 -0.154143
    outer loop
      vertex 100 10.918 -93.81
      vertex 50 11.725 -62.6875
      vertex 100 15.76 -62.875
    endloop
  endfacet
  facet normal -0.0797684 0.992673 0.0907587
    outer loop
      vertex 100 15.76 -62.875
      vertex 50 11.725 -62.6875
      vertex 100 11.456 -15.8
    endloop
  endfacet
  facet normal -0.102431 0.988307 0.11295
    outer loop
      vertex 50 11.725 -62.6875
      vertex 50 6.03499 -12.9
      vertex 100 5.39999 38
    endloop
  endfacet
  facet normal -1 0 0
    outer loop
      vertex 50 5.32375 -95.405
      vertex 50 8.87999 -62.6875
      vertex 50 11.725 -62.6875
    endloop
  endfacet
  facet normal -1 0 0
    outer loop
      vertex 50 5.32375 -95.405
      vertex 50 3.75899 -95.405
      vertex 50 8.87999 -62.6875
    endloop
  endfacet
  facet normal -1 0 -0
    outer loop
      vertex 50 3.75899 -95.405
      vertex 50 5.32375 -95.405
      vertex 50 -2.5 -98.25
    endloop
  endfacet
  facet normal -1 0 0
    outer loop
      vertex 50 8.87999 -62.6875
      vertex 50 6.03499 -12.9
      vertex 50 11.725 -62.6875
    endloop
  endfacet
  facet normal -1 0 0
    outer loop
      vertex 50 4.32799 -12.9
      vertex 50 6.03499 -12.9
      vertex 50 8.87999 -62.6875
    endloop
  endfacet
  facet normal -1 0 0
    outer loop
      vertex 50 6.03499 -12.9
      vertex 50 4.32799 -12.9
      vertex 50 -2.10001 44
    endloop
  endfacet
  facet normal -0.103125 0.97616 -0.190988
    outer loop
      vertex 100 10.918 -93.81
      vertex 50 5.32375 -95.405
      vertex 50 11.725 -62.6875
    endloop
  endfacet
  facet normal -0.0990597 0.988836 0.111309
    outer loop
      vertex 100 11.456 -15.8
      vertex 50 11.725 -62.6875
      vertex 100 5.39999 38
    endloop
  endfacet
  facet normal -0.130384 0.981483 0.140323
    outer loop
      vertex 50 6.03499 -12.9
      vertex 50 -2.10001 44
      vertex 100 5.39999 38
    endloop
  endfacet
  facet normal 0.149199 -0.98878 0.00735134
    outer loop
      vertex 100.4 5.39999 38
      vertex 50.4 -2.10001 44
      vertex 100.4 5 -15.8
    endloop
  endfacet
  facet normal -0.0183656 0.341685 -0.939635
    outer loop
      vertex 100 5 -96.5
      vertex 50 -2.5 -98.25
      vertex 50 5.32375 -95.405
    endloop
  endfacet
  facet normal -0.0172551 0.413741 -0.910231
    outer loop
      vertex 100 5 -96.5
      vertex 50 5.32375 -95.405
      vertex 100 10.918 -93.81
    endloop
  endfacet
  facet normal 0.148731 -0.988853 0.00695134
    outer loop
      vertex 50.4 -2.10001 44
      vertex 50.4 -2.5 -12.9
      vertex 100.4 5 -15.8
    endloop
  endfacet
  facet normal -0.0830836 0.984555 -0.154104
    outer loop
      vertex 150 18.077 -92.215
      vertex 100 18.45 -62.875
      vertex 150 22.64 -63.0625
    endloop
  endfacet
  facet normal -0.0828249 0.992425 0.090736
    outer loop
      vertex 150 22.64 -63.0625
      vertex 100 18.45 -62.875
      vertex 150 18.584 -18.7
    endloop
  endfacet
  facet normal -0.104596 0.988083 0.112924
    outer loop
      vertex 100 18.45 -62.875
      vertex 100 13.07 -15.8
      vertex 150 12.9 32
    endloop
  endfacet
  facet normal -1 0 0
    outer loop
      vertex 100 12.3975 -93.81
      vertex 100 15.76 -62.875
      vertex 100 18.45 -62.875
    endloop
  endfacet
  facet normal -1 0 0
    outer loop
      vertex 100 12.3975 -93.81
      vertex 100 10.918 -93.81
      vertex 100 15.76 -62.875
    endloop
  endfacet
  facet normal -1 0 -0
    outer loop
      vertex 100 10.918 -93.81
      vertex 100 12.3975 -93.81
      vertex 100 5 -96.5
    endloop
  endfacet
  facet normal -1 0 0
    outer loop
      vertex 100 15.76 -62.875
      vertex 100 13.07 -15.8
      vertex 100 18.45 -62.875
    endloop
  endfacet
  facet normal -1 0 0
    outer loop
      vertex 100 11.456 -15.8
      vertex 100 13.07 -15.8
      vertex 100 15.76 -62.875
    endloop
  endfacet
  facet normal -1 0 0
    outer loop
      vertex 100 13.07 -15.8
      vertex 100 11.456 -15.8
      vertex 100 5.39999 38
    endloop
  endfacet
  facet normal -0.104771 0.975991 -0.190955
    outer loop
      vertex 150 18.077 -92.215
      vertex 100 12.3975 -93.81
      vertex 100 18.45 -62.875
    endloop
  endfacet
  facet normal -0.100584 0.988734 0.110847
    outer loop
      vertex 150 18.584 -18.7
      vertex 100 18.45 -62.875
      vertex 150 12.9 32
    endloop
  endfacet
  facet normal -0.130438 0.981532 0.139932
    outer loop
      vertex 100 13.07 -15.8
      vertex 100 5.39999 38
      vertex 150 12.9 32
    endloop
  endfacet
  facet normal 0.149252 -0.988768 0.00780093
    outer loop
      vertex 150.4 12.9 32
      vertex 100.4 5.39999 38
      vertex 150.4 12.5 -18.7
    endloop
  endfacet
  facet normal -0.0183656 0.341685 -0.939635
    outer loop
      vertex 150 12.5 -94.75
      vertex 100 5 -96.5
      vertex 100 12.3975 -93.81
    endloop
  endfacet
  facet normal -0.0179603 0.413736 -0.91022
    outer loop
      vertex 150 12.5 -94.75
      vertex 100 12.3975 -93.81
      vertex 150 18.077 -92.215
    endloop
  endfacet
  facet normal 0.148753 -0.988847 0.00735184
    outer loop
      vertex 100.4 5.39999 38
      vertex 100.4 5 -15.8
      vertex 150.4 12.5 -18.7
    endloop
  endfacet
  facet normal -0.0861135 0.984301 -0.154065
    outer loop
      vertex 200 25.236 -90.62
      vertex 150 25.175 -63.0625
      vertex 200 29.52 -63.25
    endloop
  endfacet
  facet normal -0.0858792 0.992167 0.0907124
    outer loop
      vertex 200 29.52 -63.25
      vertex 150 25.175 -63.0625
      vertex 200 25.712 -21.6
    endloop
  endfacet
  facet normal -0.106759 0.987855 0.112898
    outer loop
      vertex 150 25.175 -63.0625
      vertex 150 20.105 -18.7
      vertex 200 20.4 26
    endloop
  endfacet
  facet normal -1 0 0
    outer loop
      vertex 150 19.4712 -92.215
      vertex 150 22.64 -63.0625
      vertex 150 25.175 -63.0625
    endloop
  endfacet
  facet normal -1 0 0
    outer loop
      vertex 150 19.4712 -92.215
      vertex 150 18.077 -92.215
      vertex 150 22.64 -63.0625
    endloop
  endfacet
  facet normal -1 0 -0
    outer loop
      vertex 150 18.077 -92.215
      vertex 150 19.4712 -92.215
      vertex 150 12.5 -94.75
    endloop
  endfacet
  facet normal -1 0 0
    outer loop
      vertex 150 22.64 -63.0625
      vertex 150 20.105 -18.7
      vertex 150 25.175 -63.0625
    endloop
  endfacet
  facet normal -1 0 0
    outer loop
      vertex 150 18.584 -18.7
      vertex 150 20.105 -18.7
      vertex 150 22.64 -63.0625
    endloop
  endfacet
  facet normal -1 0 0
    outer loop
      vertex 150 20.105 -18.7
      vertex 150 18.584 -18.7
      vertex 150 12.9 32
    endloop
  endfacet
  facet normal -0.106418 0.97582 -0.190923
    outer loop
      vertex 200 25.236 -90.62
      vertex 150 19.4712 -92.215
      vertex 150 25.175 -63.0625
    endloop
  endfacet
  facet normal -0.102108 0.988636 0.110328
    outer loop
      vertex 200 25.712 -21.6
      vertex 150 25.175 -63.0625
      vertex 200 20.4 26
    endloop
  endfacet
  facet normal -0.130499 0.981586 0.139494
    outer loop
      vertex 150 20.105 -18.7
      vertex 150 12.9 32
      vertex 200 20.4 26
    endloop
  endfacet
  facet normal 0.14931 -0.988755 0.00830887
    outer loop
      vertex 200.4 20.4 26
      vertex 150.4 12.9 32
      vertex 200.4 20 -21.6
    endloop
  endfacet
  facet normal -0.0183659 0.341688 -0.939634
    outer loop
      vertex 200 20 -93
      vertex 150 12.5 -94.75
      vertex 150 19.4712 -92.215
    endloop
  endfacet
  facet normal -0.0186659 0.413731 -0.910208
    outer loop
      vertex 200 20 -93
      vertex 150 19.4712 -92.215
      vertex 200 25.236 -90.62
    endloop
  endfacet
  facet normal 0.148778 -0.98884 0.0078015
    outer loop
      vertex 150.4 12.9 32
      vertex 150.4 12.5 -18.7
      vertex 200.4 20 -21.6
    endloop
  endfacet
  facet normal -0.089141 0.984038 -0.154023
    outer loop
      vertex 250 32.395 -89.025
      vertex 200 31.9 -63.25
      vertex 250 36.4 -63.4375
    endloop
  endfacet
  facet normal -0.088931 0.991901 0.0906881
    outer loop
      vertex 250 36.4 -63.4375
      vertex 200 31.9 -63.25
      vertex 250 32.84 -24.5
    endloop
  endfacet
  facet normal -0.108921 0.987622 0.112871
    outer loop
      vertex 200 31.9 -63.25
      vertex 200 27.14 -21.6
      vertex 250 27.9 20
    endloop
  endfacet
  facet normal -1 0 0
    outer loop
      vertex 200 26.545 -90.62
      vertex 200 29.52 -63.25
      vertex 200 31.9 -63.25
    endloop
  endfacet
  facet normal -1 0 0
    outer loop
      vertex 200 26.545 -90.62
      vertex 200 25.236 -90.62
      vertex 200 29.52 -63.25
    endloop
  endfacet
  facet normal -1 0 -0
    outer loop
      vertex 200 25.236 -90.62
      vertex 200 26.545 -90.62
      vertex 200 20 -93
    endloop
  endfacet
  facet normal -1 0 0
    outer loop
      vertex 200 29.52 -63.25
      vertex 200 27.14 -21.6
      vertex 200 31.9 -63.25
    endloop
  endfacet
  facet normal -1 0 0
    outer loop
      vertex 200 25.712 -21.6
      vertex 200 27.14 -21.6
      vertex 200 29.52 -63.25
    endloop
  endfacet
  facet normal -1 0 0
    outer loop
      vertex 200 27.14 -21.6
      vertex 200 25.712 -21.6
      vertex 200 20.4 26
    endloop
  endfacet
  facet normal -0.108061 0.975646 -0.190887
    outer loop
      vertex 250 32.395 -89.025
      vertex 200 26.545 -90.62
      vertex 200 31.9 -63.25
    endloop
  endfacet
  facet normal -0.103633 0.988543 0.109739
    outer loop
      vertex 250 32.84 -24.5
      vertex 200 31.9 -63.25
      vertex 250 27.9 20
    endloop
  endfacet
  facet normal -0.130567 0.981647 0.138998
    outer loop
      vertex 200 27.14 -21.6
      vertex 200 20.4 26
      vertex 250 27.9 20
    endloop
  endfacet
  facet normal 0.149378 -0.98874 0.00888755
    outer loop
      vertex 250.4 27.9 20
      vertex 200.4 20.4 26
      vertex 250.4 27.5 -24.5
    endloop
  endfacet
  facet normal -0.0183656 0.341685 -0.939635
    outer loop
      vertex 250 27.5 -91.25
      vertex 200 20 -93
      vertex 200 26.545 -90.62
    endloop
  endfacet
  facet normal -0.0193706 0.413725 -0.910196
    outer loop
      vertex 250 27.5 -91.25
      vertex 200 26.545 -90.62
      vertex 250 32.395 -89.025
    endloop
  endfacet
  facet normal 0.148807 -0.988831 0.00830951
    outer loop
      vertex 200.4 20.4 26
      vertex 200.4 20 -21.6
      vertex 250.4 27.5 -24.5
    endloop
  endfacet
  facet normal -0.092166 0.983766 -0.153981
    outer loop
      vertex 300 39.554 -87.43
      vertex 250 38.625 -63.4375
      vertex 300 43.28 -63.625
    endloop
  endfacet
  facet normal -0.0919803 0.991625 0.0906628
    outer loop
      vertex 300 43.28 -63.625
      vertex 250 38.625 -63.4375
      vertex 300 39.968 -27.4
    endloop
  endfacet
  facet normal -0.111081 0.987384 0.112844
    outer loop
      vertex 250 38.625 -63.4375
      vertex 250 34.175 -24.5
      vertex 300 35.4 14
    endloop
  endfacet
  facet normal -1 0 0
    outer loop
      vertex 250 33.6187 -89.025
      vertex 250 36.4 -63.4375
      vertex 250 38.625 -63.4375
    endloop
  endfacet
  facet normal -1 0 0
    outer loop
      vertex 250 33.6187 -89.025
      vertex 250 32.395 -89.025
      vertex 250 36.4 -63.4375
    endloop
  endfacet
  facet normal -1 0 -0
    outer loop
      vertex 250 32.395 -89.025
      vertex 250 33.6187 -89.025
      vertex 250 27.5 -91.25
    endloop
  endfacet
  facet normal -1 0 0
    outer loop
      vertex 250 36.4 -63.4375
      vertex 250 34.175 -24.5
      vertex 250 38.625 -63.4375
    endloop
  endfacet
  facet normal -1 0 0
    outer loop
      vertex 250 32.84 -24.5
      vertex 250 34.175 -24.5
      vertex 250 36.4 -63.4375
    endloop
  endfacet
  facet normal -1 0 0
    outer loop
      vertex 250 34.175 -24.5
      vertex 250 32.84 -24.5
      vertex 250 27.9 20
    endloop
  endfacet
  facet normal -0.109706 0.975469 -0.190854
    outer loop
      vertex 300 39.554 -87.43
      vertex 250 33.6187 -89.025
      vertex 250 38.625 -63.4375
    endloop
  endfacet
  facet normal -0.105158 0.988457 0.109065
    outer loop
      vertex 300 39.968 -27.4
      vertex 250 38.625 -63.4375
      vertex 300 35.4 14
    endloop
  endfacet
  facet normal -0.130646 0.981717 0.138433
    outer loop
      vertex 250 34.175 -24.5
      vertex 250 27.9 20
      vertex 300 35.4 14
    endloop
  endfacet
  facet normal 0.149455 -0.988722 0.00955287
    outer loop
      vertex 300.4 35.4 14
      vertex 250.4 27.9 20
      vertex 300.4 35 -27.4
    endloop
  endfacet
  facet normal -0.018366 0.341688 -0.939634
    outer loop
      vertex 300 35 -89.5
      vertex 250 27.5 -91.25
      vertex 250 33.6187 -89.025
    endloop
  endfacet
  facet normal -0.0200762 0.41372 -0.910183
    outer loop
      vertex 300 35 -89.5
      vertex 250 33.6187 -89.025
      vertex 300 39.554 -87.43
    endloop
  endfacet
  facet normal 0.148839 -0.988822 0.00888828
    outer loop
      vertex 250.4 27.9 20
      vertex 250.4 27.5 -24.5
      vertex 300.4 35 -27.4
    endloop
  endfacet
  facet normal -0.0951885 0.983485 -0.153937
    outer loop
      vertex 350 46.713 -85.835
      vertex 300 45.35 -63.625
      vertex 350 50.16 -63.8125
    endloop
  endfacet
  facet normal -0.095027 0.99134 0.0906368
    outer loop
      vertex 350 50.16 -63.8125
      vertex 300 45.35 -63.625
      vertex 350 47.096 -30.3
    endloop
  endfacet
  facet normal -0.113239 0.987142 0.112816
    outer loop
      vertex 300 45.35 -63.625
      vertex 300 41.21 -27.4
      vertex 350 42.9 8
    endloop
  endfacet
  facet normal -1 0 0
    outer loop
      vertex 300 40.6925 -87.43
      vertex 300 43.28 -63.625
      vertex 300 45.35 -63.625
    endloop
  endfacet
  facet normal -1 0 0
    outer loop
      vertex 300 40.6925 -87.43
      vertex 300 39.554 -87.43
      vertex 300 43.28 -63.625
    endloop
  endfacet
  facet normal -1 0 -0
    outer loop
      vertex 300 39.554 -87.43
      vertex 300 40.6925 -87.43
      vertex 300 35 -89.5
    endloop
  endfacet
  facet normal -1 0 0
    outer loop
      vertex 300 43.28 -63.625
      vertex 300 41.21 -27.4
      vertex 300 45.35 -63.625
    endloop
  endfacet
  facet normal -1 0 0
    outer loop
      vertex 300 39.968 -27.4
      vertex 300 41.21 -27.4
      vertex 300 43.28 -63.625
    endloop
  endfacet
  facet normal -1 0 0
    outer loop
      vertex 300 41.21 -27.4
      vertex 300 39.968 -27.4
      vertex 300 35.4 14
    endloop
  endfacet
  facet normal -0.111348 0.97529 -0.190818
    outer loop
      vertex 350 46.713 -85.835
      vertex 300 40.6925 -87.43
      vertex 300 45.35 -63.625
    endloop
  endfacet
  facet normal -0.106685 0.988379 0.108283
    outer loop
      vertex 350 47.096 -30.3
      vertex 300 45.35 -63.625
      vertex 350 42.9 8
    endloop
  endfacet
  facet normal -0.130735 0.981796 0.137783
    outer loop
      vertex 300 41.21 -27.4
      vertex 300 35.4 14
      vertex 350 42.9 8
    endloop
  endfacet
  facet normal 0.149544 -0.988701 0.0103259
    outer loop
      vertex 350.4 42.9 8
      vertex 300.4 35.4 14
      vertex 350.4 42.5 -30.3
    endloop
  endfacet
  facet normal -0.0183656 0.341685 -0.939635
    outer loop
      vertex 350 42.5 -87.75
      vertex 300 35 -89.5
      vertex 300 40.6925 -87.43
    endloop
  endfacet
  facet normal -0.0207808 0.413714 -0.91017
    outer loop
      vertex 350 42.5 -87.75
      vertex 300 40.6925 -87.43
      vertex 350 46.713 -85.835
    endloop
  endfacet
  facet normal 0.148876 -0.98881 0.00955372
    outer loop
      vertex 300.4 35.4 14
      vertex 300.4 35 -27.4
      vertex 350.4 42.5 -30.3
    endloop
  endfacet
  facet normal -0.0982084 0.983195 -0.153891
    outer loop
      vertex 400 53.872 -84.24
      vertex 350 52.075 -63.8125
      vertex 400 57.04 -64
    endloop
  endfacet
  facet normal -0.0980711 0.991046 0.0906099
    outer loop
      vertex 400 57.04 -64
      vertex 350 52.075 -63.8125
      vertex 400 54.224 -33.2
    endloop
  endfacet
  facet normal 0 0.994151 0.108001
    outer loop
      vertex 400.4 54.224 -33.2
      vertex 400 50.4 2
      vertex 400.4 50.4 2
    endloop
  endfacet
  facet normal 0 0.994151 0.108001
    outer loop
      vertex 400 50.4 2
      vertex 400.4 54.224 -33.2
      vertex 400 54.224 -33.2
    endloop
  endfacet
  facet normal -0.115396 0.986895 0.112788
    outer loop
      vertex 350 52.075 -63.8125
      vertex 350 48.245 -30.3
      vertex 400 50.4 2
    endloop
  endfacet
  facet normal 0 0.995846 0.0910488
    outer loop
      vertex 400.4 57.04 -64
      vertex 400 54.224 -33.2
      vertex 400.4 54.224 -33.2
    endloop
  endfacet
  facet normal 0 0.995846 0.0910488
    outer loop
      vertex 400 54.224 -33.2
      vertex 400.4 57.04 -64
      vertex 400 57.04 -64
    endloop
  endfacet
  facet normal -1 0 0
    outer loop
      vertex 350 47.7662 -85.835
      vertex 350 50.16 -63.8125
      vertex 350 52.075 -63.8125
    endloop
  endfacet
  facet normal -1 0 0
    outer loop
      vertex 350 47.7662 -85.835
      vertex 350 46.713 -85.835
      vertex 350 50.16 -63.8125
    endloop
  endfacet
  facet normal -1 0 -0
    outer loop
      vertex 350 46.713 -85.835
      vertex 350 47.7662 -85.835
      vertex 350 42.5 -87.75
    endloop
  endfacet
  facet normal -1 0 0
    outer loop
      vertex 350 50.16 -63.8125
      vertex 350 48.245 -30.3
      vertex 350 52.075 -63.8125
    endloop
  endfacet
  facet normal -1 0 0
    outer loop
      vertex 350 47.096 -30.3
      vertex 350 48.245 -30.3
      vertex 350 50.16 -63.8125
    endloop
  endfacet
  facet normal -1 0 0
    outer loop
      vertex 350 48.245 -30.3
      vertex 350 47.096 -30.3
      vertex 350 42.9 8
    endloop
  endfacet
  facet normal 0 0.413803 -0.910366
    outer loop
      vertex 400 50 -86
      vertex 400.4 53.872 -84.24
      vertex 400.4 50 -86
    endloop
  endfacet
  facet normal 0 0.413803 -0.910366
    outer loop
      vertex 400.4 53.872 -84.24
      vertex 400 50 -86
      vertex 400 53.872 -84.24
    endloop
  endfacet
  facet normal -0.11299 0.975107 -0.190784
    outer loop
      vertex 400 53.872 -84.24
      vertex 350 47.7662 -85.835
      vertex 350 52.075 -63.8125
    endloop
  endfacet
  facet normal 1 -0 0
    outer loop
      vertex 400.4 50 -33.2
      vertex 400.4 57.04 -64
      vertex 400.4 54.224 -33.2
    endloop
  endfacet
  facet normal 1 0 0
    outer loop
      vertex 400.4 50 -33.2
      vertex 400.4 54.224 -33.2
      vertex 400.4 50.4 2
    endloop
  endfacet
  facet normal 1 0 0
    outer loop
      vertex 400.4 50 -86
      vertex 400.4 57.04 -64
      vertex 400.4 50 -33.2
    endloop
  endfacet
  facet normal 1 0 0
    outer loop
      vertex 400.4 57.04 -64
      vertex 400.4 50 -86
      vertex 400.4 53.872 -84.24
    endloop
  endfacet
  facet normal -0.108213 0.988313 0.107367
    outer loop
      vertex 400 54.224 -33.2
      vertex 350 52.075 -63.8125
      vertex 400 50.4 2
    endloop
  endfacet
  facet normal -0.13084 0.981888 0.137029
    outer loop
      vertex 350 48.245 -30.3
      vertex 350 42.9 8
      vertex 400 50.4 2
    endloop
  endfacet
  facet normal 0 0.987971 -0.154639
    outer loop
      vertex 400.4 53.872 -84.24
      vertex 400 57.04 -64
      vertex 400.4 57.04 -64
    endloop
  endfacet
  facet normal 0 0.987971 -0.154639
    outer loop
      vertex 400 57.04 -64
      vertex 400.4 53.872 -84.24
      vertex 400 53.872 -84.24
    endloop
  endfacet
  facet normal 0.149649 -0.988675 0.0112349
    outer loop
      vertex 400.4 50.4 2
      vertex 350.4 42.9 8
      vertex 400.4 50 -33.2
    endloop
  endfacet
  facet normal -0.0183661 0.341688 -0.939634
    outer loop
      vertex 400 50 -86
      vertex 350 42.5 -87.75
      vertex 350 47.7662 -85.835
    endloop
  endfacet
  facet normal -0.0214863 0.413707 -0.910156
    outer loop
      vertex 400 50 -86
      vertex 350 47.7662 -85.835
      vertex 400 53.872 -84.24
    endloop
  endfacet
  facet normal 0.148918 -0.988796 0.0103268
    outer loop
      vertex 350.4 42.9 8
      vertex 350.4 42.5 -30.3
      vertex 400.4 50 -33.2
    endloop
  endfacet
  facet normal -0.148711 -0.988859 0.00659223
    outer loop
      vertex 0 -9.60001 50
      vertex -50 -2.5 -12.9
      vertex 0 -10 -10
    endloop
  endfacet
  facet normal 0.0770162 0.985029 -0.154231
    outer loop
      vertex 0.2 4.99504 -62.6316
      vertex -49.6 8.87999 -62.6875
      vertex 0.2 5.01552 -62.5008
    endloop
  endfacet
  facet normal 0.0770168 0.985037 -0.15418
    outer loop
      vertex -49.6 8.87999 -62.6875
      vertex 0.2 4.99504 -62.6316
      vertex -49.6 3.75899 -95.405
    endloop
  endfacet
  facet normal -0.149153 -0.98879 0.0069509
    outer loop
      vertex -50 -2.10001 44
      vertex -50 -2.5 -12.9
      vertex 0 -9.60001 50
    endloop
  endfacet
  facet normal 0.0975355 0.988941 0.111721
    outer loop
      vertex 0.2 4.9716 -62.074
      vertex -49.6 4.32799 -12.9
      vertex -49.6 -2.10001 44
    endloop
  endfacet
  facet normal 0.0975271 0.988943 0.111712
    outer loop
      vertex -49.6 4.32799 -12.9
      vertex 0.2 4.9716 -62.074
      vertex 0.2 4.99731 -62.3016
    endloop
  endfacet
  facet normal 0.130335 0.98144 0.140673
    outer loop
      vertex 0.2 -1.0044 -9.784
      vertex -49.6 -2.10001 44
      vertex 0.2 -9.57001 49.976
    endloop
  endfacet
  facet normal 0.100265 0.988526 0.112974
    outer loop
      vertex 0.2 4.9716 -62.074
      vertex -49.6 -2.10001 44
      vertex 0.2 -1.0044 -9.784
    endloop
  endfacet
  facet normal 0.0767096 0.992913 0.0907678
    outer loop
      vertex -49.6 8.87999 -62.6875
      vertex 0.2 4.99731 -62.3016
      vertex 0.2 5.01552 -62.5008
    endloop
  endfacet
  facet normal 0.0767094 0.992912 0.0907805
    outer loop
      vertex 0.2 4.99731 -62.3016
      vertex -49.6 8.87999 -62.6875
      vertex -49.6 4.32799 -12.9
    endloop
  endfacet
  facet normal -0.14834 -0.988936 0
    outer loop
      vertex 0 -10 -100
      vertex -100 5 -15.8
      vertex -150 12.5 -18.7
    endloop
  endfacet
  facet normal -0.14834 -0.988936 0
    outer loop
      vertex 0 -10 -100
      vertex -200 20 -21.6
      vertex -250 27.5 -24.5
    endloop
  endfacet
  facet normal -0.14834 -0.988936 0
    outer loop
      vertex -400 50 -86
      vertex -250 27.5 -24.5
      vertex -300 35 -27.4
    endloop
  endfacet
  facet normal -0.14834 -0.988936 0
    outer loop
      vertex -400 50 -86
      vertex -350 42.5 -30.3
      vertex -400 50 -33.2
    endloop
  endfacet
  facet normal -0.14834 -0.988936 0
    outer loop
      vertex -350 42.5 -30.3
      vertex -400 50 -86
      vertex -300 35 -27.4
    endloop
  endfacet
  facet normal -0.14834 -0.988936 0
    outer loop
      vertex 0 -10 -100
      vertex -250 27.5 -24.5
      vertex -400 50 -86
    endloop
  endfacet
  facet normal -0.14834 -0.988936 0
    outer loop
      vertex -200 20 -21.6
      vertex 0 -10 -100
      vertex -150 12.5 -18.7
    endloop
  endfacet
  facet normal -0.14834 -0.988936 0
    outer loop
      vertex -100 5 -15.8
      vertex 0 -10 -100
      vertex -50 -2.5 -12.9
    endloop
  endfacet
  facet normal -0.14834 -0.988936 0
    outer loop
      vertex -50 -2.5 -12.9
      vertex 0 -10 -100
      vertex 0 -10 -10
    endloop
  endfacet
  facet normal 0.101478 0.976327 -0.19102
    outer loop
      vertex 0.2 -1.72796 -96.9936
      vertex -49.6 3.75899 -95.405
      vertex 0.2 4.99504 -62.6316
    endloop
  endfacet
  facet normal 0.0165354 0.414294 -0.909993
    outer loop
      vertex -49.6 -2.5 -98.25
      vertex 0.2 -1.72796 -96.9936
      vertex 0.2 -1.753 -97.005
    endloop
  endfacet
  facet normal 0.0165502 0.413747 -0.910242
    outer loop
      vertex 0.2 -1.72796 -96.9936
      vertex -49.6 -2.5 -98.25
      vertex -49.6 3.75899 -95.405
    endloop
  endfacet
  facet normal 0.0183656 0.341685 -0.939635
    outer loop
      vertex 0.2 -9.97 -99.993
      vertex -49.6 -2.5 -98.25
      vertex 0.2 -1.753 -97.005
    endloop
  endfacet
  facet normal -0.148731 -0.988853 0.00695134
    outer loop
      vertex -50 -2.10001 44
      vertex -100 5 -15.8
      vertex -50 -2.5 -12.9
    endloop
  endfacet
  facet normal 0.0800514 0.9848 -0.154143
    outer loop
      vertex -49.6 11.725 -62.6875
      vertex -99.6 10.918 -93.81
      vertex -99.6 15.76 -62.875
    endloop
  endfacet
  facet normal -0.149199 -0.98878 0.00735134
    outer loop
      vertex -100 5.39999 38
      vertex -100 5 -15.8
      vertex -50 -2.10001 44
    endloop
  endfacet
  facet normal 0.0990597 0.988836 0.111309
    outer loop
      vertex -99.6 11.456 -15.8
      vertex -99.6 5.39999 38
      vertex -49.6 11.725 -62.6875
    endloop
  endfacet
  facet normal 0.130384 0.981483 0.140323
    outer loop
      vertex -49.6 6.03499 -12.9
      vertex -99.6 5.39999 38
      vertex -49.6 -2.10001 44
    endloop
  endfacet
  facet normal 1 0 0
    outer loop
      vertex -49.6 6.03499 -12.9
      vertex -49.6 8.87999 -62.6875
      vertex -49.6 11.725 -62.6875
    endloop
  endfacet
  facet normal 1 0 0
    outer loop
      vertex -49.6 6.03499 -12.9
      vertex -49.6 4.32799 -12.9
      vertex -49.6 8.87999 -62.6875
    endloop
  endfacet
  facet normal 1 0 -0
    outer loop
      vertex -49.6 4.32799 -12.9
      vertex -49.6 6.03499 -12.9
      vertex -49.6 -2.10001 44
    endloop
  endfacet
  facet normal 1 -0 0
    outer loop
      vertex -49.6 8.87999 -62.6875
      vertex -49.6 5.32375 -95.405
      vertex -49.6 11.725 -62.6875
    endloop
  endfacet
  facet normal 1 0 0
    outer loop
      vertex -49.6 3.75899 -95.405
      vertex -49.6 5.32375 -95.405
      vertex -49.6 8.87999 -62.6875
    endloop
  endfacet
  facet normal 1 0 0
    outer loop
      vertex -49.6 5.32375 -95.405
      vertex -49.6 3.75899 -95.405
      vertex -49.6 -2.5 -98.25
    endloop
  endfacet
  facet normal 0.102431 0.988307 0.11295
    outer loop
      vertex -49.6 11.725 -62.6875
      vertex -99.6 5.39999 38
      vertex -49.6 6.03499 -12.9
    endloop
  endfacet
  facet normal 0.0797684 0.992673 0.0907587
    outer loop
      vertex -99.6 15.76 -62.875
      vertex -99.6 11.456 -15.8
      vertex -49.6 11.725 -62.6875
    endloop
  endfacet
  facet normal 0.103125 0.97616 -0.190988
    outer loop
      vertex -49.6 5.32375 -95.405
      vertex -99.6 10.918 -93.81
      vertex -49.6 11.725 -62.6875
    endloop
  endfacet
  facet normal 0.0172551 0.413741 -0.910231
    outer loop
      vertex -49.6 5.32375 -95.405
      vertex -99.6 5 -96.5
      vertex -99.6 10.918 -93.81
    endloop
  endfacet
  facet normal 0.0183656 0.341685 -0.939635
    outer loop
      vertex -49.6 -2.5 -98.25
      vertex -99.6 5 -96.5
      vertex -49.6 5.32375 -95.405
    endloop
  endfacet
  facet normal -0.148753 -0.988847 0.00735184
    outer loop
      vertex -100 5.39999 38
      vertex -150 12.5 -18.7
      vertex -100 5 -15.8
    endloop
  endfacet
  facet normal 0.0830836 0.984555 -0.154104
    outer loop
      vertex -99.6 18.45 -62.875
      vertex -149.6 18.077 -92.215
      vertex -149.6 22.64 -63.0625
    endloop
  endfacet
  facet normal -0.149252 -0.988768 0.00780093
    outer loop
      vertex -150 12.9 32
      vertex -150 12.5 -18.7
      vertex -100 5.39999 38
    endloop
  endfacet
  facet normal 0.100584 0.988734 0.110847
    outer loop
      vertex -149.6 18.584 -18.7
      vertex -149.6 12.9 32
      vertex -99.6 18.45 -62.875
    endloop
  endfacet
  facet normal 0.130438 0.981532 0.139932
    outer loop
      vertex -99.6 13.07 -15.8
      vertex -149.6 12.9 32
      vertex -99.6 5.39999 38
    endloop
  endfacet
  facet normal 1 0 0
    outer loop
      vertex -99.6 13.07 -15.8
      vertex -99.6 15.76 -62.875
      vertex -99.6 18.45 -62.875
    endloop
  endfacet
  facet normal 1 0 0
    outer loop
      vertex -99.6 13.07 -15.8
      vertex -99.6 11.456 -15.8
      vertex -99.6 15.76 -62.875
    endloop
  endfacet
  facet normal 1 0 -0
    outer loop
      vertex -99.6 11.456 -15.8
      vertex -99.6 13.07 -15.8
      vertex -99.6 5.39999 38
    endloop
  endfacet
  facet normal 1 -0 0
    outer loop
      vertex -99.6 15.76 -62.875
      vertex -99.6 12.3975 -93.81
      vertex -99.6 18.45 -62.875
    endloop
  endfacet
  facet normal 1 0 0
    outer loop
      vertex -99.6 10.918 -93.81
      vertex -99.6 12.3975 -93.81
      vertex -99.6 15.76 -62.875
    endloop
  endfacet
  facet normal 1 0 0
    outer loop
      vertex -99.6 12.3975 -93.81
      vertex -99.6 10.918 -93.81
      vertex -99.6 5 -96.5
    endloop
  endfacet
  facet normal 0.104596 0.988083 0.112924
    outer loop
      vertex -99.6 18.45 -62.875
      vertex -149.6 12.9 32
      vertex -99.6 13.07 -15.8
    endloop
  endfacet
  facet normal 0.0828249 0.992425 0.090736
    outer loop
      vertex -149.6 22.64 -63.0625
      vertex -149.6 18.584 -18.7
      vertex -99.6 18.45 -62.875
    endloop
  endfacet
  facet normal 0.104771 0.975991 -0.190955
    outer loop
      vertex -99.6 12.3975 -93.81
      vertex -149.6 18.077 -92.215
      vertex -99.6 18.45 -62.875
    endloop
  endfacet
  facet normal 0.0179603 0.413736 -0.91022
    outer loop
      vertex -99.6 12.3975 -93.81
      vertex -149.6 12.5 -94.75
      vertex -149.6 18.077 -92.215
    endloop
  endfacet
  facet normal 0.0183656 0.341685 -0.939635
    outer loop
      vertex -99.6 5 -96.5
      vertex -149.6 12.5 -94.75
      vertex -99.6 12.3975 -93.81
    endloop
  endfacet
  facet normal -0.148778 -0.98884 0.0078015
    outer loop
      vertex -150 12.9 32
      vertex -200 20 -21.6
      vertex -150 12.5 -18.7
    endloop
  endfacet
  facet normal 0.0861135 0.984301 -0.154065
    outer loop
      vertex -149.6 25.175 -63.0625
      vertex -199.6 25.236 -90.62
      vertex -199.6 29.52 -63.25
    endloop
  endfacet
  facet normal 0.106759 0.987855 0.112898
    outer loop
      vertex -149.6 25.175 -63.0625
      vertex -199.6 20.4 26
      vertex -149.6 20.105 -18.7
    endloop
  endfacet
  facet normal 1 0 0
    outer loop
      vertex -149.6 20.105 -18.7
      vertex -149.6 22.64 -63.0625
      vertex -149.6 25.175 -63.0625
    endloop
  endfacet
  facet normal 1 0 0
    outer loop
      vertex -149.6 20.105 -18.7
      vertex -149.6 18.584 -18.7
      vertex -149.6 22.64 -63.0625
    endloop
  endfacet
  facet normal 1 0 -0
    outer loop
      vertex -149.6 18.584 -18.7
      vertex -149.6 20.105 -18.7
      vertex -149.6 12.9 32
    endloop
  endfacet
  facet normal 1 -0 0
    outer loop
      vertex -149.6 22.64 -63.0625
      vertex -149.6 19.4712 -92.215
      vertex -149.6 25.175 -63.0625
    endloop
  endfacet
  facet normal 1 0 0
    outer loop
      vertex -149.6 18.077 -92.215
      vertex -149.6 19.4712 -92.215
      vertex -149.6 22.64 -63.0625
    endloop
  endfacet
  facet normal 1 0 0
    outer loop
      vertex -149.6 19.4712 -92.215
      vertex -149.6 18.077 -92.215
      vertex -149.6 12.5 -94.75
    endloop
  endfacet
  facet normal 0.130499 0.981586 0.139494
    outer loop
      vertex -149.6 20.105 -18.7
      vertex -199.6 20.4 26
      vertex -149.6 12.9 32
    endloop
  endfacet
  facet normal -0.14931 -0.988755 0.00830887
    outer loop
      vertex -200 20.4 26
      vertex -200 20 -21.6
      vertex -150 12.9 32
    endloop
  endfacet
  facet normal 0.102108 0.988636 0.110328
    outer loop
      vertex -199.6 25.712 -21.6
      vertex -199.6 20.4 26
      vertex -149.6 25.175 -63.0625
    endloop
  endfacet
  facet normal 0.0858792 0.992167 0.0907124
    outer loop
      vertex -199.6 29.52 -63.25
      vertex -199.6 25.712 -21.6
      vertex -149.6 25.175 -63.0625
    endloop
  endfacet
  facet normal 0.106418 0.97582 -0.190923
    outer loop
      vertex -149.6 19.4712 -92.215
      vertex -199.6 25.236 -90.62
      vertex -149.6 25.175 -63.0625
    endloop
  endfacet
  facet normal 0.0186659 0.413731 -0.910208
    outer loop
      vertex -149.6 19.4712 -92.215
      vertex -199.6 20 -93
      vertex -199.6 25.236 -90.62
    endloop
  endfacet
  facet normal 0.0183659 0.341688 -0.939634
    outer loop
      vertex -149.6 12.5 -94.75
      vertex -199.6 20 -93
      vertex -149.6 19.4712 -92.215
    endloop
  endfacet
  facet normal -0.148807 -0.988831 0.00830951
    outer loop
      vertex -200 20.4 26
      vertex -250 27.5 -24.5
      vertex -200 20 -21.6
    endloop
  endfacet
  facet normal 0.089141 0.984038 -0.154023
    outer loop
      vertex -199.6 31.9 -63.25
      vertex -249.6 32.395 -89.025
      vertex -249.6 36.4 -63.4375
    endloop
  endfacet
  facet normal 0.108921 0.987622 0.112871
    outer loop
      vertex -199.6 31.9 -63.25
      vertex -249.6 27.9 20
      vertex -199.6 27.14 -21.6
    endloop
  endfacet
  facet normal 1 0 0
    outer loop
      vertex -199.6 27.14 -21.6
      vertex -199.6 29.52 -63.25
      vertex -199.6 31.9 -63.25
    endloop
  endfacet
  facet normal 1 0 0
    outer loop
      vertex -199.6 27.14 -21.6
      vertex -199.6 25.712 -21.6
      vertex -199.6 29.52 -63.25
    endloop
  endfacet
  facet normal 1 0 -0
    outer loop
      vertex -199.6 25.712 -21.6
      vertex -199.6 27.14 -21.6
      vertex -199.6 20.4 26
    endloop
  endfacet
  facet normal 1 -0 0
    outer loop
      vertex -199.6 29.52 -63.25
      vertex -199.6 26.545 -90.62
      vertex -199.6 31.9 -63.25
    endloop
  endfacet
  facet normal 1 0 0
    outer loop
      vertex -199.6 25.236 -90.62
      vertex -199.6 26.545 -90.62
      vertex -199.6 29.52 -63.25
    endloop
  endfacet
  facet normal 1 0 0
    outer loop
      vertex -199.6 26.545 -90.62
      vertex -199.6 25.236 -90.62
      vertex -199.6 20 -93
    endloop
  endfacet
  facet normal 0.130567 0.981647 0.138998
    outer loop
      vertex -199.6 27.14 -21.6
      vertex -249.6 27.9 20
      vertex -199.6 20.4 26
    endloop
  endfacet
  facet normal -0.149378 -0.98874 0.00888755
    outer loop
      vertex -250 27.9 20
      vertex -250 27.5 -24.5
      vertex -200 20.4 26
    endloop
  endfacet
  facet normal 0.103633 0.988543 0.109739
    outer loop
      vertex -249.6 32.84 -24.5
      vertex -249.6 27.9 20
      vertex -199.6 31.9 -63.25
    endloop
  endfacet
  facet normal 0.088931 0.991901 0.0906881
    outer loop
      vertex -249.6 36.4 -63.4375
      vertex -249.6 32.84 -24.5
      vertex -199.6 31.9 -63.25
    endloop
  endfacet
  facet normal 0.108061 0.975646 -0.190887
    outer loop
      vertex -199.6 26.545 -90.62
      vertex -249.6 32.395 -89.025
      vertex -199.6 31.9 -63.25
    endloop
  endfacet
  facet normal 0.0193706 0.413725 -0.910196
    outer loop
      vertex -199.6 26.545 -90.62
      vertex -249.6 27.5 -91.25
      vertex -249.6 32.395 -89.025
    endloop
  endfacet
  facet normal 0.0183656 0.341685 -0.939635
    outer loop
      vertex -199.6 20 -93
      vertex -249.6 27.5 -91.25
      vertex -199.6 26.545 -90.62
    endloop
  endfacet
  facet normal -0.148839 -0.988822 0.00888828
    outer loop
      vertex -250 27.9 20
      vertex -300 35 -27.4
      vertex -250 27.5 -24.5
    endloop
  endfacet
  facet normal 0.109706 0.975469 -0.190854
    outer loop
      vertex -249.6 33.6187 -89.025
      vertex -299.6 39.554 -87.43
      vertex -249.6 38.625 -63.4375
    endloop
  endfacet
  facet normal 0.111081 0.987384 0.112844
    outer loop
      vertex -249.6 38.625 -63.4375
      vertex -299.6 35.4 14
      vertex -249.6 34.175 -24.5
    endloop
  endfacet
  facet normal 1 0 0
    outer loop
      vertex -249.6 34.175 -24.5
      vertex -249.6 36.4 -63.4375
      vertex -249.6 38.625 -63.4375
    endloop
  endfacet
  facet normal 1 0 0
    outer loop
      vertex -249.6 34.175 -24.5
      vertex -249.6 32.84 -24.5
      vertex -249.6 36.4 -63.4375
    endloop
  endfacet
  facet normal 1 0 -0
    outer loop
      vertex -249.6 32.84 -24.5
      vertex -249.6 34.175 -24.5
      vertex -249.6 27.9 20
    endloop
  endfacet
  facet normal 1 -0 0
    outer loop
      vertex -249.6 36.4 -63.4375
      vertex -249.6 33.6187 -89.025
      vertex -249.6 38.625 -63.4375
    endloop
  endfacet
  facet normal 1 0 0
    outer loop
      vertex -249.6 32.395 -89.025
      vertex -249.6 33.6187 -89.025
      vertex -249.6 36.4 -63.4375
    endloop
  endfacet
  facet normal 1 0 0
    outer loop
      vertex -249.6 33.6187 -89.025
      vertex -249.6 32.395 -89.025
      vertex -249.6 27.5 -91.25
    endloop
  endfacet
  facet normal 0.0200762 0.41372 -0.910183
    outer loop
      vertex -249.6 33.6187 -89.025
      vertex -299.6 35 -89.5
      vertex -299.6 39.554 -87.43
    endloop
  endfacet
  facet normal 0.130646 0.981717 0.138433
    outer loop
      vertex -249.6 34.175 -24.5
      vertex -299.6 35.4 14
      vertex -249.6 27.9 20
    endloop
  endfacet
  facet normal -0.149455 -0.988722 0.00955287
    outer loop
      vertex -300 35.4 14
      vertex -300 35 -27.4
      vertex -250 27.9 20
    endloop
  endfacet
  facet normal 0.105158 0.988457 0.109065
    outer loop
      vertex -299.6 39.968 -27.4
      vertex -299.6 35.4 14
      vertex -249.6 38.625 -63.4375
    endloop
  endfacet
  facet normal 0.0919803 0.991625 0.0906628
    outer loop
      vertex -299.6 43.28 -63.625
      vertex -299.6 39.968 -27.4
      vertex -249.6 38.625 -63.4375
    endloop
  endfacet
  facet normal 0.018366 0.341688 -0.939634
    outer loop
      vertex -249.6 27.5 -91.25
      vertex -299.6 35 -89.5
      vertex -249.6 33.6187 -89.025
    endloop
  endfacet
  facet normal 0.092166 0.983766 -0.153981
    outer loop
      vertex -249.6 38.625 -63.4375
      vertex -299.6 39.554 -87.43
      vertex -299.6 43.28 -63.625
    endloop
  endfacet
  facet normal -0.148876 -0.98881 0.00955372
    outer loop
      vertex -300 35.4 14
      vertex -350 42.5 -30.3
      vertex -300 35 -27.4
    endloop
  endfacet
  facet normal 0.0951885 0.983485 -0.153937
    outer loop
      vertex -299.6 45.35 -63.625
      vertex -349.6 46.713 -85.835
      vertex -349.6 50.16 -63.8125
    endloop
  endfacet
  facet normal 0.113239 0.987142 0.112816
    outer loop
      vertex -299.6 45.35 -63.625
      vertex -349.6 42.9 8
      vertex -299.6 41.21 -27.4
    endloop
  endfacet
  facet normal 1 0 0
    outer loop
      vertex -299.6 41.21 -27.4
      vertex -299.6 43.28 -63.625
      vertex -299.6 45.35 -63.625
    endloop
  endfacet
  facet normal 1 0 0
    outer loop
      vertex -299.6 41.21 -27.4
      vertex -299.6 39.968 -27.4
      vertex -299.6 43.28 -63.625
    endloop
  endfacet
  facet normal 1 0 -0
    outer loop
      vertex -299.6 39.968 -27.4
      vertex -299.6 41.21 -27.4
      vertex -299.6 35.4 14
    endloop
  endfacet
  facet normal 1 -0 0
    outer loop
      vertex -299.6 43.28 -63.625
      vertex -299.6 40.6925 -87.43
      vertex -299.6 45.35 -63.625
    endloop
  endfacet
  facet normal 1 0 0
    outer loop
      vertex -299.6 39.554 -87.43
      vertex -299.6 40.6925 -87.43
      vertex -299.6 43.28 -63.625
    endloop
  endfacet
  facet normal 1 0 0
    outer loop
      vertex -299.6 40.6925 -87.43
      vertex -299.6 39.554 -87.43
      vertex -299.6 35 -89.5
    endloop
  endfacet
  facet normal 0.130735 0.981796 0.137783
    outer loop
      vertex -299.6 41.21 -27.4
      vertex -349.6 42.9 8
      vertex -299.6 35.4 14
    endloop
  endfacet
  facet normal -0.149544 -0.988701 0.0103259
    outer loop
      vertex -350 42.9 8
      vertex -350 42.5 -30.3
      vertex -300 35.4 14
    endloop
  endfacet
  facet normal 0.106685 0.988379 0.108283
    outer loop
      vertex -349.6 47.096 -30.3
      vertex -349.6 42.9 8
      vertex -299.6 45.35 -63.625
    endloop
  endfacet
  facet normal 0.095027 0.99134 0.0906368
    outer loop
      vertex -349.6 50.16 -63.8125
      vertex -349.6 47.096 -30.3
      vertex -299.6 45.35 -63.625
    endloop
  endfacet
  facet normal 0.111348 0.97529 -0.190818
    outer loop
      vertex -299.6 40.6925 -87.43
      vertex -349.6 46.713 -85.835
      vertex -299.6 45.35 -63.625
    endloop
  endfacet
  facet normal 0.0207808 0.413714 -0.91017
    outer loop
      vertex -299.6 40.6925 -87.43
      vertex -349.6 42.5 -87.75
      vertex -349.6 46.713 -85.835
    endloop
  endfacet
  facet normal 0.0183656 0.341685 -0.939635
    outer loop
      vertex -299.6 35 -89.5
      vertex -349.6 42.5 -87.75
      vertex -299.6 40.6925 -87.43
    endloop
  endfacet
  facet normal -0.148918 -0.988796 0.0103268
    outer loop
      vertex -350 42.9 8
      vertex -400 50 -33.2
      vertex -350 42.5 -30.3
    endloop
  endfacet
  facet normal 0.0982084 0.983195 -0.153891
    outer loop
      vertex -349.6 52.075 -63.8125
      vertex -399.6 53.872 -84.24
      vertex -399.6 57.04 -64
    endloop
  endfacet
  facet normal 0 0.987971 -0.154639
    outer loop
      vertex -399.6 53.872 -84.24
      vertex -400 57.04 -64
      vertex -399.6 57.04 -64
    endloop
  endfacet
  facet normal 0 0.987971 -0.154639
    outer loop
      vertex -400 57.04 -64
      vertex -399.6 53.872 -84.24
      vertex -400 53.872 -84.24
    endloop
  endfacet
  facet normal 0.115396 0.986895 0.112788
    outer loop
      vertex -349.6 52.075 -63.8125
      vertex -399.6 50.4 2
      vertex -349.6 48.245 -30.3
    endloop
  endfacet
  facet normal 1 0 0
    outer loop
      vertex -349.6 48.245 -30.3
      vertex -349.6 50.16 -63.8125
      vertex -349.6 52.075 -63.8125
    endloop
  endfacet
  facet normal 1 0 0
    outer loop
      vertex -349.6 48.245 -30.3
      vertex -349.6 47.096 -30.3
      vertex -349.6 50.16 -63.8125
    endloop
  endfacet
  facet normal 1 0 -0
    outer loop
      vertex -349.6 47.096 -30.3
      vertex -349.6 48.245 -30.3
      vertex -349.6 42.9 8
    endloop
  endfacet
  facet normal 1 -0 0
    outer loop
      vertex -349.6 50.16 -63.8125
      vertex -349.6 47.7662 -85.835
      vertex -349.6 52.075 -63.8125
    endloop
  endfacet
  facet normal 1 0 0
    outer loop
      vertex -349.6 46.713 -85.835
      vertex -349.6 47.7662 -85.835
      vertex -349.6 50.16 -63.8125
    endloop
  endfacet
  facet normal 1 0 0
    outer loop
      vertex -349.6 47.7662 -85.835
      vertex -349.6 46.713 -85.835
      vertex -349.6 42.5 -87.75
    endloop
  endfacet
  facet normal 0.13084 0.981888 0.137029
    outer loop
      vertex -349.6 48.245 -30.3
      vertex -399.6 50.4 2
      vertex -349.6 42.9 8
    endloop
  endfacet
  facet normal 0 0.995846 0.0910488
    outer loop
      vertex -399.6 57.04 -64
      vertex -400 54.224 -33.2
      vertex -399.6 54.224 -33.2
    endloop
  endfacet
  facet normal 0 0.995846 0.0910488
    outer loop
      vertex -400 54.224 -33.2
      vertex -399.6 57.04 -64
      vertex -400 57.04 -64
    endloop
  endfacet
  facet normal -0.149649 -0.988675 0.0112349
    outer loop
      vertex -400 50.4 2
      vertex -400 50 -33.2
      vertex -350 42.9 8
    endloop
  endfacet
  facet normal 0 0.994151 0.108001
    outer loop
      vertex -399.6 54.224 -33.2
      vertex -400 50.4 2
      vertex -399.6 50.4 2
    endloop
  endfacet
  facet normal 0 0.994151 0.108001
    outer loop
      vertex -400 50.4 2
      vertex -399.6 54.224 -33.2
      vertex -400 54.224 -33.2
    endloop
  endfacet
  facet normal 0.108213 0.988313 0.107367
    outer loop
      vertex -399.6 54.224 -33.2
      vertex -399.6 50.4 2
      vertex -349.6 52.075 -63.8125
    endloop
  endfacet
  facet normal 0.0980711 0.991046 0.0906099
    outer loop
      vertex -399.6 57.04 -64
      vertex -399.6 54.224 -33.2
      vertex -349.6 52.075 -63.8125
    endloop
  endfacet
  facet normal 0 0.413803 -0.910366
    outer loop
      vertex -400 50 -86
      vertex -399.6 53.872 -84.24
      vertex -399.6 50 -86
    endloop
  endfacet
  facet normal 0 0.413803 -0.910366
    outer loop
      vertex -399.6 53.872 -84.24
      vertex -400 50 -86
      vertex -400 53.872 -84.24
    endloop
  endfacet
  facet normal 0.11299 0.975107 -0.190784
    outer loop
      vertex -349.6 47.7662 -85.835
      vertex -399.6 53.872 -84.24
      vertex -349.6 52.075 -63.8125
    endloop
  endfacet
  facet normal 0.0214863 0.413707 -0.910156
    outer loop
      vertex -349.6 47.7662 -85.835
      vertex -399.6 50 -86
      vertex -399.6 53.872 -84.24
    endloop
  endfacet
  facet normal -1 0 0
    outer loop
      vertex -400 50 -86
      vertex -400 57.04 -64
      vertex -400 53.872 -84.24
    endloop
  endfacet
  facet normal -1 0 0
    outer loop
      vertex -400 57.04 -64
      vertex -400 50 -33.2
      vertex -400 54.224 -33.2
    endloop
  endfacet
  facet normal -1 -0 0
    outer loop
      vertex -400 57.04 -64
      vertex -400 50 -86
      vertex -400 50 -33.2
    endloop
  endfacet
  facet normal -1 0 0
    outer loop
      vertex -400 54.224 -33.2
      vertex -400 50 -33.2
      vertex -400 50.4 2
    endloop
  endfacet
  facet normal 0.0183661 0.341688 -0.939634
    outer loop
      vertex -349.6 42.5 -87.75
      vertex -399.6 50 -86
      vertex -349.6 47.7662 -85.835
    endloop
  endfacet
endsolid OpenSCAD_Model
