solid OpenSCAD_Model
  facet normal -0.460024 0.849284 0.259025
    outer loop
      vertex -6.72929 34.8415 190.2
      vertex -13 31.4449 190.2
      vertex -4.91756 25.1481 225.2
    endloop
  endfacet
  facet normal 0.840818 0.493379 0.222716
    outer loop
      vertex 18.3848 26.0416 190.2
      vertex 13.435 18.6777 225.2
      vertex 22.5167 19 190.2
    endloop
  endfacet
  facet normal -0.164298 0.948406 0.27117
    outer loop
      vertex 0 26 225.2
      vertex -6.72929 34.8415 190.2
      vertex -4.91756 25.1481 225.2
    endloop
  endfacet
  facet normal -0.467544 -0.857854 0.213283
    outer loop
      vertex -9.5 -20.6506 225.2
      vertex -13 -27.4449 190.2
      vertex -4.91756 -23.1481 225.2
    endloop
  endfacet
  facet normal 0.932485 0.295363 0.207926
    outer loop
      vertex 22.5167 19 190.2
      vertex 16.4545 13.5 225.2
      vertex 25.1141 10.7998 190.2
    endloop
  endfacet
  facet normal -0.97639 -0.0982953 0.192358
    outer loop
      vertex -18.3526 -5.47048 225.2
      vertex -26 2 190.2
      vertex -25.1141 -6.79985 190.2
    endloop
  endfacet
  facet normal 0.9361 -0.294685 0.192034
    outer loop
      vertex 18.3526 -5.47048 225.2
      vertex 16.4545 -11.5 225.2
      vertex 25.1141 -6.79985 190.2
    endloop
  endfacet
  facet normal 0.163312 0.948615 0.271033
    outer loop
      vertex 0 36 190.2
      vertex 0 26 225.2
      vertex 6.72929 34.8415 190.2
    endloop
  endfacet
  facet normal 0.847064 -0.493986 0.196115
    outer loop
      vertex 16.4545 -11.5 225.2
      vertex 13.435 -16.6777 225.2
      vertex 22.5167 -15 190.2
    endloop
  endfacet
  facet normal -0.976423 -0.0976954 0.192493
    outer loop
      vertex -19 1 225.2
      vertex -26 2 190.2
      vertex -18.3526 -5.47048 225.2
    endloop
  endfacet
  facet normal 0.689511 0.682933 0.2412
    outer loop
      vertex 18.3848 26.0416 190.2
      vertex 9.5 22.6506 225.2
      vertex 13.435 18.6777 225.2
    endloop
  endfacet
  facet normal -0.847064 -0.493986 0.196115
    outer loop
      vertex -16.4545 -11.5 225.2
      vertex -22.5167 -15 190.2
      vertex -13.435 -16.6777 225.2
    endloop
  endfacet
  facet normal 0.166516 -0.961205 0.219903
    outer loop
      vertex 4.91756 -23.1481 225.2
      vertex 0 -24 225.2
      vertex 6.72929 -30.8415 190.2
    endloop
  endfacet
  facet normal -0.693495 -0.691121 0.203512
    outer loop
      vertex -9.5 -20.6506 225.2
      vertex -18.3848 -22.0416 190.2
      vertex -13 -27.4449 190.2
    endloop
  endfacet
  facet normal -0.93564 -0.296364 0.191695
    outer loop
      vertex -16.4545 -11.5 225.2
      vertex -25.1141 -6.79985 190.2
      vertex -22.5167 -15 190.2
    endloop
  endfacet
  facet normal -0.68746 0.685106 0.24089
    outer loop
      vertex -13 31.4449 190.2
      vertex -18.3848 26.0416 190.2
      vertex -9.5 22.6506 225.2
    endloop
  endfacet
  facet normal 0.842081 0.49108 0.223023
    outer loop
      vertex 22.5167 19 190.2
      vertex 13.435 18.6777 225.2
      vertex 16.4545 13.5 225.2
    endloop
  endfacet
  facet normal 0.845807 -0.496306 0.195678
    outer loop
      vertex 22.5167 -15 190.2
      vertex 13.435 -16.6777 225.2
      vertex 18.3848 -22.0416 190.2
    endloop
  endfacet
  facet normal -0.163312 0.948615 0.271033
    outer loop
      vertex 0 36 190.2
      vertex -6.72929 34.8415 190.2
      vertex 0 26 225.2
    endloop
  endfacet
  facet normal 0.97536 0.0975891 0.19786
    outer loop
      vertex 26 2 190.2
      vertex 18.3526 7.47048 225.2
      vertex 19 1 225.2
    endloop
  endfacet
  facet normal -0.9361 -0.294685 0.192034
    outer loop
      vertex -18.3526 -5.47048 225.2
      vertex -25.1141 -6.79985 190.2
      vertex -16.4545 -11.5 225.2
    endloop
  endfacet
  facet normal -0.465357 -0.859129 0.212935
    outer loop
      vertex -4.91756 -23.1481 225.2
      vertex -13 -27.4449 190.2
      vertex -6.72929 -30.8415 190.2
    endloop
  endfacet
  facet normal 0.68746 0.685106 0.24089
    outer loop
      vertex 13 31.4449 190.2
      vertex 9.5 22.6506 225.2
      vertex 18.3848 26.0416 190.2
    endloop
  endfacet
  facet normal -0.689511 0.682933 0.2412
    outer loop
      vertex -9.5 22.6506 225.2
      vertex -18.3848 26.0416 190.2
      vertex -13.435 18.6777 225.2
    endloop
  endfacet
  facet normal 0.467544 -0.857854 0.213283
    outer loop
      vertex 9.5 -20.6506 225.2
      vertex 4.91756 -23.1481 225.2
      vertex 13 -27.4449 190.2
    endloop
  endfacet
  facet normal -0.462187 0.848026 0.259298
    outer loop
      vertex -4.91756 25.1481 225.2
      vertex -13 31.4449 190.2
      vertex -9.5 22.6506 225.2
    endloop
  endfacet
  facet normal -0.165515 -0.961413 0.219751
    outer loop
      vertex 0 -24 225.2
      vertex -6.72929 -30.8415 190.2
      vertex 0 -32 190.2
    endloop
  endfacet
  facet normal 0.693495 -0.691121 0.203512
    outer loop
      vertex 18.3848 -22.0416 190.2
      vertex 9.5 -20.6506 225.2
      vertex 13 -27.4449 190.2
    endloop
  endfacet
  facet normal 0.976423 -0.0976954 0.192493
    outer loop
      vertex 19 1 225.2
      vertex 18.3526 -5.47048 225.2
      vertex 26 2 190.2
    endloop
  endfacet
  facet normal -0.840818 0.493379 0.222716
    outer loop
      vertex -18.3848 26.0416 190.2
      vertex -22.5167 19 190.2
      vertex -13.435 18.6777 225.2
    endloop
  endfacet
  facet normal 0.462187 0.848026 0.259298
    outer loop
      vertex 13 31.4449 190.2
      vertex 4.91756 25.1481 225.2
      vertex 9.5 22.6506 225.2
    endloop
  endfacet
  facet normal -0.166516 -0.961205 0.219903
    outer loop
      vertex -4.91756 -23.1481 225.2
      vertex -6.72929 -30.8415 190.2
      vertex 0 -24 225.2
    endloop
  endfacet
  facet normal 0.460024 0.849284 0.259025
    outer loop
      vertex 6.72929 34.8415 190.2
      vertex 4.91756 25.1481 225.2
      vertex 13 31.4449 190.2
    endloop
  endfacet
  facet normal -0.695554 -0.688919 0.203947
    outer loop
      vertex -13.435 -16.6777 225.2
      vertex -18.3848 -22.0416 190.2
      vertex -9.5 -20.6506 225.2
    endloop
  endfacet
  facet normal -0.845807 -0.496306 0.195678
    outer loop
      vertex -13.435 -16.6777 225.2
      vertex -22.5167 -15 190.2
      vertex -18.3848 -22.0416 190.2
    endloop
  endfacet
  facet normal 0.695554 -0.688919 0.203947
    outer loop
      vertex 13.435 -16.6777 225.2
      vertex 9.5 -20.6506 225.2
      vertex 18.3848 -22.0416 190.2
    endloop
  endfacet
  facet normal -0.97536 0.0975891 0.19786
    outer loop
      vertex -18.3526 7.47048 225.2
      vertex -26 2 190.2
      vertex -19 1 225.2
    endloop
  endfacet
  facet normal -0.975321 0.0981882 0.197758
    outer loop
      vertex -25.1141 10.7998 190.2
      vertex -26 2 190.2
      vertex -18.3526 7.47048 225.2
    endloop
  endfacet
  facet normal -0.932956 0.293696 0.208171
    outer loop
      vertex -16.4545 13.5 225.2
      vertex -25.1141 10.7998 190.2
      vertex -18.3526 7.47048 225.2
    endloop
  endfacet
  facet normal 0.165515 -0.961413 0.219751
    outer loop
      vertex 0 -24 225.2
      vertex 0 -32 190.2
      vertex 6.72929 -30.8415 190.2
    endloop
  endfacet
  facet normal 0.932956 0.293696 0.208171
    outer loop
      vertex 25.1141 10.7998 190.2
      vertex 16.4545 13.5 225.2
      vertex 18.3526 7.47048 225.2
    endloop
  endfacet
  facet normal 0.975321 0.0981882 0.197758
    outer loop
      vertex 25.1141 10.7998 190.2
      vertex 18.3526 7.47048 225.2
      vertex 26 2 190.2
    endloop
  endfacet
  facet normal 0.164298 0.948406 0.27117
    outer loop
      vertex 6.72929 34.8415 190.2
      vertex 0 26 225.2
      vertex 4.91756 25.1481 225.2
    endloop
  endfacet
  facet normal 0 0 1
    outer loop
      vertex -19 1 225.2
      vertex 19 1 225.2
      vertex 18.3526 7.47048 225.2
    endloop
  endfacet
  facet normal 0 0 1
    outer loop
      vertex -18.3526 7.47048 225.2
      vertex 18.3526 7.47048 225.2
      vertex 16.4545 13.5 225.2
    endloop
  endfacet
  facet normal 0 0 1
    outer loop
      vertex 19 1 225.2
      vertex -19 1 225.2
      vertex 18.3526 -5.47048 225.2
    endloop
  endfacet
  facet normal 0 0 1
    outer loop
      vertex -16.4545 13.5 225.2
      vertex 16.4545 13.5 225.2
      vertex 13.435 18.6777 225.2
    endloop
  endfacet
  facet normal 0 -0 1
    outer loop
      vertex -18.3526 -5.47048 225.2
      vertex 18.3526 -5.47048 225.2
      vertex -19 1 225.2
    endloop
  endfacet
  facet normal 0 0 1
    outer loop
      vertex -13.435 18.6777 225.2
      vertex 13.435 18.6777 225.2
      vertex 9.5 22.6506 225.2
    endloop
  endfacet
  facet normal 0 0 1
    outer loop
      vertex 18.3526 -5.47048 225.2
      vertex -18.3526 -5.47048 225.2
      vertex 16.4545 -11.5 225.2
    endloop
  endfacet
  facet normal 0 0 1
    outer loop
      vertex -9.5 22.6506 225.2
      vertex 9.5 22.6506 225.2
      vertex 4.91756 25.1481 225.2
    endloop
  endfacet
  facet normal 0 -0 1
    outer loop
      vertex -16.4545 -11.5 225.2
      vertex 16.4545 -11.5 225.2
      vertex -18.3526 -5.47048 225.2
    endloop
  endfacet
  facet normal 0 0 1
    outer loop
      vertex -4.91756 25.1481 225.2
      vertex 4.91756 25.1481 225.2
      vertex 0 26 225.2
    endloop
  endfacet
  facet normal 0 0 1
    outer loop
      vertex 16.4545 -11.5 225.2
      vertex -16.4545 -11.5 225.2
      vertex 13.435 -16.6777 225.2
    endloop
  endfacet
  facet normal 0 0 1
    outer loop
      vertex 4.91756 25.1481 225.2
      vertex -4.91756 25.1481 225.2
      vertex -9.5 22.6506 225.2
    endloop
  endfacet
  facet normal 0 -0 1
    outer loop
      vertex -13.435 -16.6777 225.2
      vertex 13.435 -16.6777 225.2
      vertex -16.4545 -11.5 225.2
    endloop
  endfacet
  facet normal 0 0 1
    outer loop
      vertex 9.5 22.6506 225.2
      vertex -9.5 22.6506 225.2
      vertex -13.435 18.6777 225.2
    endloop
  endfacet
  facet normal 0 0 1
    outer loop
      vertex 13.435 -16.6777 225.2
      vertex -13.435 -16.6777 225.2
      vertex 9.5 -20.6506 225.2
    endloop
  endfacet
  facet normal 0 0 1
    outer loop
      vertex 13.435 18.6777 225.2
      vertex -13.435 18.6777 225.2
      vertex -16.4545 13.5 225.2
    endloop
  endfacet
  facet normal 0 0 1
    outer loop
      vertex 18.3526 7.47048 225.2
      vertex -18.3526 7.47048 225.2
      vertex -19 1 225.2
    endloop
  endfacet
  facet normal 0 0 1
    outer loop
      vertex 16.4545 13.5 225.2
      vertex -16.4545 13.5 225.2
      vertex -18.3526 7.47048 225.2
    endloop
  endfacet
  facet normal 0 -0 1
    outer loop
      vertex -9.5 -20.6506 225.2
      vertex 9.5 -20.6506 225.2
      vertex -13.435 -16.6777 225.2
    endloop
  endfacet
  facet normal 0 0 1
    outer loop
      vertex 9.5 -20.6506 225.2
      vertex -9.5 -20.6506 225.2
      vertex 4.91756 -23.1481 225.2
    endloop
  endfacet
  facet normal 0 0 1
    outer loop
      vertex 4.91756 -23.1481 225.2
      vertex -4.91756 -23.1481 225.2
      vertex 0 -24 225.2
    endloop
  endfacet
  facet normal 0 -0 1
    outer loop
      vertex -4.91756 -23.1481 225.2
      vertex 4.91756 -23.1481 225.2
      vertex -9.5 -20.6506 225.2
    endloop
  endfacet
  facet normal -0.842081 0.49108 0.223023
    outer loop
      vertex -13.435 18.6777 225.2
      vertex -22.5167 19 190.2
      vertex -16.4545 13.5 225.2
    endloop
  endfacet
  facet normal -0.932485 0.295363 0.207926
    outer loop
      vertex -22.5167 19 190.2
      vertex -25.1141 10.7998 190.2
      vertex -16.4545 13.5 225.2
    endloop
  endfacet
  facet normal 0.97639 -0.0982953 0.192358
    outer loop
      vertex 26 2 190.2
      vertex 18.3526 -5.47048 225.2
      vertex 25.1141 -6.79985 190.2
    endloop
  endfacet
  facet normal 0.93564 -0.296364 0.191695
    outer loop
      vertex 25.1141 -6.79985 190.2
      vertex 16.4545 -11.5 225.2
      vertex 22.5167 -15 190.2
    endloop
  endfacet
  facet normal 0.465357 -0.859129 0.212935
    outer loop
      vertex 13 -27.4449 190.2
      vertex 4.91756 -23.1481 225.2
      vertex 6.72929 -30.8415 190.2
    endloop
  endfacet
  facet normal -0.513426 -0.858134 0
    outer loop
      vertex -13.5 -28.775 110
      vertex -6.98811 -32.6711 110.2
      vertex -13.5 -28.775 110.2
    endloop
  endfacet
  facet normal -0.513426 -0.858134 -0
    outer loop
      vertex -6.98811 -32.6711 110.2
      vertex -13.5 -28.775 110
      vertex -6.98811 -32.6711 110
    endloop
  endfacet
  facet normal -0.995872 0.0907679 0
    outer loop
      vertex -27 5 110
      vertex -26.08 15.0939 110.2
      vertex -26.08 15.0939 110
    endloop
  endfacet
  facet normal -0.995872 0.0907679 0
    outer loop
      vertex -26.08 15.0939 110.2
      vertex -27 5 110
      vertex -27 5 110.2
    endloop
  endfacet
  facet normal -0.953285 -0.301953 0.00843211
    outer loop
      vertex -22.5167 -15 190.2
      vertex -25.1141 -6.79985 190.2
      vertex -23.3827 -14.5 110.2
    endloop
  endfacet
  facet normal -0.186818 -0.982395 0
    outer loop
      vertex -6.98811 -32.6711 110
      vertex 0 -34 110.2
      vertex -6.98811 -32.6711 110.2
    endloop
  endfacet
  facet normal -0.186818 -0.982395 -0
    outer loop
      vertex 0 -34 110.2
      vertex -6.98811 -32.6711 110
      vertex 0 -34 110
    endloop
  endfacet
  facet normal 0.961242 -0.275648 0.00572792
    outer loop
      vertex 25.1141 -6.79985 190.2
      vertex 23.3827 -14.5 110.2
      vertex 26.08 -5.09394 110.2
    endloop
  endfacet
  facet normal -0.708226 -0.705801 0.0161612
    outer loop
      vertex -13 -27.4449 190.2
      vertex -18.3848 -22.0416 190.2
      vertex -13.5 -28.775 110.2
    endloop
  endfacet
  facet normal 0.186818 -0.982395 0
    outer loop
      vertex 0 -34 110
      vertex 6.98811 -32.6711 110.2
      vertex 0 -34 110.2
    endloop
  endfacet
  facet normal 0.186818 -0.982395 0
    outer loop
      vertex 6.98811 -32.6711 110.2
      vertex 0 -34 110
      vertex 6.98811 -32.6711 110
    endloop
  endfacet
  facet normal 0.742421 -0.669842 0.0110467
    outer loop
      vertex 18.3848 -22.0416 190.2
      vertex 13.5 -28.775 110.2
      vertex 19.0919 -22.5772 110.2
    endloop
  endfacet
  facet normal -0.511716 0.855275 0.0815638
    outer loop
      vertex -6.98811 42.6711 110.2
      vertex -13.5 38.775 110.2
      vertex -13 31.4449 190.2
    endloop
  endfacet
  facet normal -0.706633 0.704214 0.0689409
    outer loop
      vertex -13.5 38.775 110.2
      vertex -18.3848 26.0416 190.2
      vertex -13 31.4449 190.2
    endloop
  endfacet
  facet normal -0.186768 -0.982133 0.0230656
    outer loop
      vertex -6.72929 -30.8415 190.2
      vertex -6.98811 -32.6711 110.2
      vertex 0 -34 110.2
    endloop
  endfacet
  facet normal -0.95286 0.301817 0.0310646
    outer loop
      vertex -23.3827 24.5 110.2
      vertex -25.1141 10.7998 190.2
      vertex -22.5167 19 190.2
    endloop
  endfacet
  facet normal -0.476168 -0.879088 0.0216453
    outer loop
      vertex -6.72929 -30.8415 190.2
      vertex -13 -27.4449 190.2
      vertex -6.98811 -32.6711 110.2
    endloop
  endfacet
  facet normal 0.513348 -0.858003 0.0174738
    outer loop
      vertex 13 -27.4449 190.2
      vertex 6.98811 -32.6711 110.2
      vertex 13.5 -28.775 110.2
    endloop
  endfacet
  facet normal 0.99482 0.100151 0.017387
    outer loop
      vertex 26.08 15.0939 110.2
      vertex 25.1141 10.7998 190.2
      vertex 26 2 190.2
    endloop
  endfacet
  facet normal 0.961257 -0.275652 0
    outer loop
      vertex 23.3827 -14.5 110.2
      vertex 26.08 -5.09394 110
      vertex 26.08 -5.09394 110.2
    endloop
  endfacet
  facet normal 0.961257 -0.275652 0
    outer loop
      vertex 26.08 -5.09394 110
      vertex 23.3827 -14.5 110.2
      vertex 23.3827 -14.5 110
    endloop
  endfacet
  facet normal -0.741076 0.668628 0.0611738
    outer loop
      vertex -13.5 38.775 110.2
      vertex -19.0919 32.5772 110.2
      vertex -18.3848 26.0416 190.2
    endloop
  endfacet
  facet normal -0.742421 -0.669842 0.0110467
    outer loop
      vertex -18.3848 -22.0416 190.2
      vertex -19.0919 -22.5772 110.2
      vertex -13.5 -28.775 110.2
    endloop
  endfacet
  facet normal 0.861448 0.505484 0.0489097
    outer loop
      vertex 19.0919 32.5772 110.2
      vertex 18.3848 26.0416 190.2
      vertex 22.5167 19 190.2
    endloop
  endfacet
  facet normal -0.995747 0.0907565 0.0158502
    outer loop
      vertex -26.08 15.0939 110.2
      vertex -27 5 110.2
      vertex -26 2 190.2
    endloop
  endfacet
  facet normal 0.708226 -0.705801 0.0161612
    outer loop
      vertex 18.3848 -22.0416 190.2
      vertex 13 -27.4449 190.2
      vertex 13.5 -28.775 110.2
    endloop
  endfacet
  facet normal 0.513426 -0.858134 0
    outer loop
      vertex 6.98811 -32.6711 110
      vertex 13.5 -28.775 110.2
      vertex 6.98811 -32.6711 110.2
    endloop
  endfacet
  facet normal 0.513426 -0.858134 0
    outer loop
      vertex 13.5 -28.775 110.2
      vertex 6.98811 -32.6711 110
      vertex 13.5 -28.775 110
    endloop
  endfacet
  facet normal -0.995872 -0.0907676 0
    outer loop
      vertex -26.08 -5.09394 110
      vertex -27 5 110.2
      vertex -27 5 110
    endloop
  endfacet
  facet normal -0.995872 -0.0907676 0
    outer loop
      vertex -27 5 110.2
      vertex -26.08 -5.09394 110
      vertex -26.08 -5.09394 110.2
    endloop
  endfacet
  facet normal -0.513348 -0.858003 0.0174738
    outer loop
      vertex -13 -27.4449 190.2
      vertex -13.5 -28.775 110.2
      vertex -6.98811 -32.6711 110.2
    endloop
  endfacet
  facet normal 0.95286 0.301817 0.0310646
    outer loop
      vertex 23.3827 24.5 110.2
      vertex 22.5167 19 190.2
      vertex 25.1141 10.7998 190.2
    endloop
  endfacet
  facet normal -0.961242 -0.275648 0.00572792
    outer loop
      vertex -25.1141 -6.79985 190.2
      vertex -26.08 -5.09394 110.2
      vertex -23.3827 -14.5 110.2
    endloop
  endfacet
  facet normal -0.474463 0.87594 0.0872632
    outer loop
      vertex -6.98811 42.6711 110.2
      vertex -13 31.4449 190.2
      vertex -6.72929 34.8415 190.2
    endloop
  endfacet
  facet normal 0.883106 -0.469127 0.00662758
    outer loop
      vertex 22.5167 -15 190.2
      vertex 19.0919 -22.5772 110.2
      vertex 23.3827 -14.5 110.2
    endloop
  endfacet
  facet normal -0.168844 0.980751 0.0980751
    outer loop
      vertex 0 44 110.2
      vertex -6.72929 34.8415 190.2
      vertex 0 36 190.2
    endloop
  endfacet
  facet normal -0.994922 -0.100161 0.00987662
    outer loop
      vertex -26 2 190.2
      vertex -26.08 -5.09394 110.2
      vertex -25.1141 -6.79985 190.2
    endloop
  endfacet
  facet normal -0.742467 -0.669883 0
    outer loop
      vertex -13.5 -28.775 110
      vertex -19.0919 -22.5772 110.2
      vertex -19.0919 -22.5772 110
    endloop
  endfacet
  facet normal -0.742467 -0.669883 0
    outer loop
      vertex -19.0919 -22.5772 110.2
      vertex -13.5 -28.775 110
      vertex -13.5 -28.775 110.2
    endloop
  endfacet
  facet normal -0.18595 0.977829 0.0963017
    outer loop
      vertex 0 44 110.2
      vertex -6.98811 42.6711 110.2
      vertex -6.72929 34.8415 190.2
    endloop
  endfacet
  facet normal -0.961257 -0.275652 0
    outer loop
      vertex -23.3827 -14.5 110
      vertex -26.08 -5.09394 110.2
      vertex -26.08 -5.09394 110
    endloop
  endfacet
  facet normal -0.961257 -0.275652 0
    outer loop
      vertex -26.08 -5.09394 110.2
      vertex -23.3827 -14.5 110
      vertex -23.3827 -14.5 110.2
    endloop
  endfacet
  facet normal -0.995831 -0.0907639 0.00904425
    outer loop
      vertex -26 2 190.2
      vertex -27 5 110.2
      vertex -26.08 -5.09394 110.2
    endloop
  endfacet
  facet normal 0.960923 0.275555 0.0263927
    outer loop
      vertex 26.08 15.0939 110.2
      vertex 23.3827 24.5 110.2
      vertex 25.1141 10.7998 190.2
    endloop
  endfacet
  facet normal -0.883106 -0.469127 0.00662758
    outer loop
      vertex -22.5167 -15 190.2
      vertex -23.3827 -14.5 110.2
      vertex -19.0919 -22.5772 110.2
    endloop
  endfacet
  facet normal 0.862428 -0.506059 0.0110109
    outer loop
      vertex 22.5167 -15 190.2
      vertex 18.3848 -22.0416 190.2
      vertex 19.0919 -22.5772 110.2
    endloop
  endfacet
  facet normal 0.476168 -0.879088 0.0216453
    outer loop
      vertex 13 -27.4449 190.2
      vertex 6.72929 -30.8415 190.2
      vertex 6.98811 -32.6711 110.2
    endloop
  endfacet
  facet normal 0.883125 -0.469137 0
    outer loop
      vertex 19.0919 -22.5772 110.2
      vertex 23.3827 -14.5 110
      vertex 23.3827 -14.5 110.2
    endloop
  endfacet
  facet normal 0.883125 -0.469137 0
    outer loop
      vertex 23.3827 -14.5 110
      vertex 19.0919 -22.5772 110.2
      vertex 19.0919 -22.5772 110
    endloop
  endfacet
  facet normal 0.742467 -0.669883 0
    outer loop
      vertex 13.5 -28.775 110.2
      vertex 19.0919 -22.5772 110
      vertex 19.0919 -22.5772 110.2
    endloop
  endfacet
  facet normal 0.742467 -0.669883 0
    outer loop
      vertex 19.0919 -22.5772 110
      vertex 13.5 -28.775 110.2
      vertex 13.5 -28.775 110
    endloop
  endfacet
  facet normal 0.995872 0.0907679 0
    outer loop
      vertex 27 5 110.2
      vertex 26.08 15.0939 110
      vertex 26.08 15.0939 110.2
    endloop
  endfacet
  facet normal 0.995872 0.0907679 0
    outer loop
      vertex 26.08 15.0939 110
      vertex 27 5 110.2
      vertex 27 5 110
    endloop
  endfacet
  facet normal 0.741076 0.668628 0.0611738
    outer loop
      vertex 19.0919 32.5772 110.2
      vertex 13.5 38.775 110.2
      vertex 18.3848 26.0416 190.2
    endloop
  endfacet
  facet normal -0.861448 0.505484 0.0489097
    outer loop
      vertex -19.0919 32.5772 110.2
      vertex -22.5167 19 190.2
      vertex -18.3848 26.0416 190.2
    endloop
  endfacet
  facet normal 0.995747 0.0907565 0.0158502
    outer loop
      vertex 26.08 15.0939 110.2
      vertex 26 2 190.2
      vertex 27 5 110.2
    endloop
  endfacet
  facet normal 0.995831 -0.0907639 0.00904425
    outer loop
      vertex 27 5 110.2
      vertex 26 2 190.2
      vertex 26.08 -5.09394 110.2
    endloop
  endfacet
  facet normal -0.882354 0.468728 0.0417765
    outer loop
      vertex -19.0919 32.5772 110.2
      vertex -23.3827 24.5 110.2
      vertex -22.5167 19 190.2
    endloop
  endfacet
  facet normal -0.960923 0.275555 0.0263927
    outer loop
      vertex -23.3827 24.5 110.2
      vertex -26.08 15.0939 110.2
      vertex -25.1141 10.7998 190.2
    endloop
  endfacet
  facet normal -0.99482 0.100151 0.017387
    outer loop
      vertex -25.1141 10.7998 190.2
      vertex -26.08 15.0939 110.2
      vertex -26 2 190.2
    endloop
  endfacet
  facet normal 0.953285 -0.301953 0.00843211
    outer loop
      vertex 25.1141 -6.79985 190.2
      vertex 22.5167 -15 190.2
      vertex 23.3827 -14.5 110.2
    endloop
  endfacet
  facet normal 0.706633 0.704214 0.0689409
    outer loop
      vertex 13.5 38.775 110.2
      vertex 13 31.4449 190.2
      vertex 18.3848 26.0416 190.2
    endloop
  endfacet
  facet normal 0.994922 -0.100161 0.00987662
    outer loop
      vertex 26 2 190.2
      vertex 25.1141 -6.79985 190.2
      vertex 26.08 -5.09394 110.2
    endloop
  endfacet
  facet normal 0.882354 0.468728 0.0417765
    outer loop
      vertex 23.3827 24.5 110.2
      vertex 19.0919 32.5772 110.2
      vertex 22.5167 19 190.2
    endloop
  endfacet
  facet normal 0.995872 -0.0907676 0
    outer loop
      vertex 26.08 -5.09394 110.2
      vertex 27 5 110
      vertex 27 5 110.2
    endloop
  endfacet
  facet normal 0.995872 -0.0907676 0
    outer loop
      vertex 27 5 110
      vertex 26.08 -5.09394 110.2
      vertex 26.08 -5.09394 110
    endloop
  endfacet
  facet normal -0.862428 -0.506059 0.0110109
    outer loop
      vertex -18.3848 -22.0416 190.2
      vertex -22.5167 -15 190.2
      vertex -19.0919 -22.5772 110.2
    endloop
  endfacet
  facet normal 0.474463 0.87594 0.0872632
    outer loop
      vertex 6.98811 42.6711 110.2
      vertex 6.72929 34.8415 190.2
      vertex 13 31.4449 190.2
    endloop
  endfacet
  facet normal 0.511716 0.855275 0.0815638
    outer loop
      vertex 13.5 38.775 110.2
      vertex 6.98811 42.6711 110.2
      vertex 13 31.4449 190.2
    endloop
  endfacet
  facet normal -0.883125 -0.469137 0
    outer loop
      vertex -19.0919 -22.5772 110
      vertex -23.3827 -14.5 110.2
      vertex -23.3827 -14.5 110
    endloop
  endfacet
  facet normal -0.883125 -0.469137 0
    outer loop
      vertex -23.3827 -14.5 110.2
      vertex -19.0919 -22.5772 110
      vertex -19.0919 -22.5772 110.2
    endloop
  endfacet
  facet normal 0.18595 0.977829 0.0963017
    outer loop
      vertex 6.98811 42.6711 110.2
      vertex 0 44 110.2
      vertex 6.72929 34.8415 190.2
    endloop
  endfacet
  facet normal 0.168844 0.980751 0.0980751
    outer loop
      vertex 0 44 110.2
      vertex 0 36 190.2
      vertex 6.72929 34.8415 190.2
    endloop
  endfacet
  facet normal -0.16961 -0.985203 0.0246301
    outer loop
      vertex 0 -32 190.2
      vertex -6.72929 -30.8415 190.2
      vertex 0 -34 110.2
    endloop
  endfacet
  facet normal 0.16961 -0.985203 0.0246301
    outer loop
      vertex 0 -32 190.2
      vertex 0 -34 110.2
      vertex 6.72929 -30.8415 190.2
    endloop
  endfacet
  facet normal 0.186768 -0.982133 0.0230656
    outer loop
      vertex 6.72929 -30.8415 190.2
      vertex 0 -34 110.2
      vertex 6.98811 -32.6711 110.2
    endloop
  endfacet
  facet normal 0.997426 0.0698514 -0.0162042
    outer loop
      vertex 25 15 30
      vertex 24.1481 27.1645 30
      vertex 27 5 110
    endloop
  endfacet
  facet normal 0.976578 0.215165 0
    outer loop
      vertex 24.1481 27.1645 30.2
      vertex 21.6506 38.5 30
      vertex 21.6506 38.5 30.2
    endloop
  endfacet
  facet normal 0.976578 0.215165 0
    outer loop
      vertex 21.6506 38.5 30
      vertex 24.1481 27.1645 30.2
      vertex 24.1481 27.1645 30
    endloop
  endfacet
  facet normal 0.182415 0.959241 0.215829
    outer loop
      vertex 0 62 30.2
      vertex 0 44 110.2
      vertex 6.98811 42.6711 110.2
    endloop
  endfacet
  facet normal 0.818009 0.56705 0.0965169
    outer loop
      vertex 17.6777 48.234 30.2
      vertex 12.5 55.7032 30.2
      vertex 19.0919 32.5772 110.2
    endloop
  endfacet
  facet normal -0.504693 0.843537 0.183656
    outer loop
      vertex -6.47048 60.3985 30.2
      vertex -13.5 38.775 110.2
      vertex -6.98811 42.6711 110.2
    endloop
  endfacet
  facet normal 0.975594 -0.214948 -0.0448646
    outer loop
      vertex 26.08 -5.09394 110
      vertex 21.6506 -8.5 30
      vertex 24.1481 2.8355 30
    endloop
  endfacet
  facet normal 0.960896 0.275547 0.0274162
    outer loop
      vertex 26.08 15.0939 110.2
      vertex 21.6506 38.5 30.2
      vertex 23.3827 24.5 110.2
    endloop
  endfacet
  facet normal 0.821846 0.569709 0
    outer loop
      vertex 17.6777 48.234 30.2
      vertex 12.5 55.7032 30
      vertex 12.5 55.7032 30.2
    endloop
  endfacet
  facet normal 0.821846 0.569709 0
    outer loop
      vertex 12.5 55.7032 30
      vertex 17.6777 48.234 30.2
      vertex 17.6777 48.234 30
    endloop
  endfacet
  facet normal -0.186762 -0.982098 -0.0245525
    outer loop
      vertex 0 -34 110
      vertex -6.98811 -32.6711 110
      vertex 0 -32 30
    endloop
  endfacet
  facet normal -0.975594 -0.214948 -0.0448646
    outer loop
      vertex -21.6506 -8.5 30
      vertex -26.08 -5.09394 110
      vertex -24.1481 2.8355 30
    endloop
  endfacet
  facet normal 0.995819 0.0907631 -0.0103532
    outer loop
      vertex 27 5 110
      vertex 24.1481 27.1645 30
      vertex 26.08 15.0939 110
    endloop
  endfacet
  facet normal -0.882381 -0.468742 -0.0410463
    outer loop
      vertex -19.0919 -22.5772 110
      vertex -23.3827 -14.5 110
      vertex -17.6777 -18.234 30
    endloop
  endfacet
  facet normal -0.924771 -0.377442 -0.0483306
    outer loop
      vertex -17.6777 -18.234 30
      vertex -23.3827 -14.5 110
      vertex -21.6506 -8.5 30
    endloop
  endfacet
  facet normal -0.820998 -0.569122 -0.0454108
    outer loop
      vertex -12.5 -25.7032 30
      vertex -19.0919 -22.5772 110
      vertex -17.6777 -18.234 30
    endloop
  endfacet
  facet normal 0.613961 -0.788424 -0.037948
    outer loop
      vertex 13.5 -28.775 110
      vertex 6.47048 -30.3985 30
      vertex 12.5 -25.7032 30
    endloop
  endfacet
  facet normal 0.606755 0.779171 0.15729
    outer loop
      vertex 12.5 55.7032 30.2
      vertex 6.47048 60.3985 30.2
      vertex 13.5 38.775 110.2
    endloop
  endfacet
  facet normal 0.924871 0.377483 0.0460349
    outer loop
      vertex 21.6506 38.5 30.2
      vertex 17.6777 48.234 30.2
      vertex 23.3827 24.5 110.2
    endloop
  endfacet
  facet normal -0.513229 -0.857805 -0.0276889
    outer loop
      vertex -6.98811 -32.6711 110
      vertex -13.5 -28.775 110
      vertex -6.47048 -30.3985 30
    endloop
  endfacet
  facet normal 0.996992 -0.069821 -0.0336524
    outer loop
      vertex 27 5 110
      vertex 24.1481 2.8355 30
      vertex 25 15 30
    endloop
  endfacet
  facet normal 0.960431 -0.275415 -0.0414507
    outer loop
      vertex 23.3827 -14.5 110
      vertex 21.6506 -8.5 30
      vertex 26.08 -5.09394 110
    endloop
  endfacet
  facet normal -0.614403 0.788992 0
    outer loop
      vertex -6.47048 60.3985 30
      vertex -12.5 55.7032 30.2
      vertex -6.47048 60.3985 30.2
    endloop
  endfacet
  facet normal -0.614403 0.788992 0
    outer loop
      vertex -12.5 55.7032 30.2
      vertex -6.47048 60.3985 30
      vertex -12.5 55.7032 30
    endloop
  endfacet
  facet normal -0.736037 0.664082 0.131321
    outer loop
      vertex -12.5 55.7032 30.2
      vertex -19.0919 32.5772 110.2
      vertex -13.5 38.775 110.2
    endloop
  endfacet
  facet normal -0.234961 0.949305 0.208839
    outer loop
      vertex -6.47048 60.3985 30.2
      vertex -6.98811 42.6711 110.2
      vertex 0 62 30.2
    endloop
  endfacet
  facet normal 0.880572 0.467781 0.0759831
    outer loop
      vertex 23.3827 24.5 110.2
      vertex 17.6777 48.234 30.2
      vertex 19.0919 32.5772 110.2
    endloop
  endfacet
  facet normal 0.614403 0.788992 -0
    outer loop
      vertex 12.5 55.7032 30
      vertex 6.47048 60.3985 30.2
      vertex 12.5 55.7032 30.2
    endloop
  endfacet
  facet normal 0.614403 0.788992 0
    outer loop
      vertex 6.47048 60.3985 30.2
      vertex 12.5 55.7032 30
      vertex 6.47048 60.3985 30
    endloop
  endfacet
  facet normal 0.976539 0.215157 0.00888115
    outer loop
      vertex 24.1481 27.1645 30.2
      vertex 21.6506 38.5 30.2
      vertex 26.08 15.0939 110.2
    endloop
  endfacet
  facet normal 0.987433 0.158039 -0
    outer loop
      vertex 26.08 15.0939 110
      vertex 24.1481 27.1645 30.2
      vertex 26.08 15.0939 110.2
    endloop
  endfacet
  facet normal 0.987433 0.158039 0
    outer loop
      vertex 24.1481 27.1645 30.2
      vertex 26.08 15.0939 110
      vertex 24.1481 27.1645 30
    endloop
  endfacet
  facet normal 0.995329 -0.090718 -0.0330277
    outer loop
      vertex 26.08 -5.09394 110
      vertex 24.1481 2.8355 30
      vertex 27 5 110
    endloop
  endfacet
  facet normal 0.240157 -0.970297 -0.0291176
    outer loop
      vertex 6.98811 -32.6711 110
      vertex 0 -32 30
      vertex 6.47048 -30.3985 30
    endloop
  endfacet
  facet normal 0.513229 -0.857805 -0.0276889
    outer loop
      vertex 6.98811 -32.6711 110
      vertex 6.47048 -30.3985 30
      vertex 13.5 -28.775 110
    endloop
  endfacet
  facet normal -0.606755 0.779171 0.15729
    outer loop
      vertex -12.5 55.7032 30.2
      vertex -13.5 38.775 110.2
      vertex -6.47048 60.3985 30.2
    endloop
  endfacet
  facet normal -0.821846 0.569709 0
    outer loop
      vertex -17.6777 48.234 30
      vertex -12.5 55.7032 30.2
      vertex -12.5 55.7032 30
    endloop
  endfacet
  facet normal -0.821846 0.569709 0
    outer loop
      vertex -12.5 55.7032 30.2
      vertex -17.6777 48.234 30
      vertex -17.6777 48.234 30.2
    endloop
  endfacet
  facet normal -0.976578 0.215165 0
    outer loop
      vertex -24.1481 27.1645 30
      vertex -21.6506 38.5 30.2
      vertex -21.6506 38.5 30
    endloop
  endfacet
  facet normal -0.976578 0.215165 0
    outer loop
      vertex -21.6506 38.5 30.2
      vertex -24.1481 27.1645 30
      vertex -24.1481 27.1645 30.2
    endloop
  endfacet
  facet normal -0.818009 0.56705 0.0965169
    outer loop
      vertex -17.6777 48.234 30.2
      vertex -19.0919 32.5772 110.2
      vertex -12.5 55.7032 30.2
    endloop
  endfacet
  facet normal 0.736037 0.664082 0.131321
    outer loop
      vertex 19.0919 32.5772 110.2
      vertex 12.5 55.7032 30.2
      vertex 13.5 38.775 110.2
    endloop
  endfacet
  facet normal 0.240259 0.970709 -0
    outer loop
      vertex 6.47048 60.3985 30
      vertex 0 62 30.2
      vertex 6.47048 60.3985 30.2
    endloop
  endfacet
  facet normal 0.240259 0.970709 0
    outer loop
      vertex 0 62 30.2
      vertex 6.47048 60.3985 30
      vertex 0 62 30
    endloop
  endfacet
  facet normal 0.504693 0.843537 0.183656
    outer loop
      vertex 13.5 38.775 110.2
      vertex 6.47048 60.3985 30.2
      vertex 6.98811 42.6711 110.2
    endloop
  endfacet
  facet normal -0.182415 0.959241 0.215829
    outer loop
      vertex 0 62 30.2
      vertex -6.98811 42.6711 110.2
      vertex 0 44 110.2
    endloop
  endfacet
  facet normal 0.925853 0.377884 0
    outer loop
      vertex 21.6506 38.5 30.2
      vertex 17.6777 48.234 30
      vertex 17.6777 48.234 30.2
    endloop
  endfacet
  facet normal 0.925853 0.377884 0
    outer loop
      vertex 17.6777 48.234 30
      vertex 21.6506 38.5 30.2
      vertex 21.6506 38.5 30
    endloop
  endfacet
  facet normal 0.882381 -0.468742 -0.0410463
    outer loop
      vertex 19.0919 -22.5772 110
      vertex 17.6777 -18.234 30
      vertex 23.3827 -14.5 110
    endloop
  endfacet
  facet normal 0.820998 -0.569122 -0.0454108
    outer loop
      vertex 19.0919 -22.5772 110
      vertex 12.5 -25.7032 30
      vertex 17.6777 -18.234 30
    endloop
  endfacet
  facet normal 0.924771 -0.377442 -0.0483306
    outer loop
      vertex 23.3827 -14.5 110
      vertex 17.6777 -18.234 30
      vertex 21.6506 -8.5 30
    endloop
  endfacet
  facet normal -0.924871 0.377483 0.0460349
    outer loop
      vertex -21.6506 38.5 30.2
      vertex -23.3827 24.5 110.2
      vertex -17.6777 48.234 30.2
    endloop
  endfacet
  facet normal -0.880572 0.467781 0.0759831
    outer loop
      vertex -17.6777 48.234 30.2
      vertex -23.3827 24.5 110.2
      vertex -19.0919 32.5772 110.2
    endloop
  endfacet
  facet normal -0.997426 0.0698514 -0.0162042
    outer loop
      vertex -25 15 30
      vertex -27 5 110
      vertex -24.1481 27.1645 30
    endloop
  endfacet
  facet normal -0.613961 -0.788424 -0.037948
    outer loop
      vertex -6.47048 -30.3985 30
      vertex -13.5 -28.775 110
      vertex -12.5 -25.7032 30
    endloop
  endfacet
  facet normal -0.996992 -0.069821 -0.0336524
    outer loop
      vertex -24.1481 2.8355 30
      vertex -27 5 110
      vertex -25 15 30
    endloop
  endfacet
  facet normal -0.995329 -0.090718 -0.0330277
    outer loop
      vertex -26.08 -5.09394 110
      vertex -27 5 110
      vertex -24.1481 2.8355 30
    endloop
  endfacet
  facet normal -0.240259 0.970709 0
    outer loop
      vertex 0 62 30
      vertex -6.47048 60.3985 30.2
      vertex 0 62 30.2
    endloop
  endfacet
  facet normal -0.240259 0.970709 0
    outer loop
      vertex -6.47048 60.3985 30.2
      vertex 0 62 30
      vertex -6.47048 60.3985 30
    endloop
  endfacet
  facet normal 0.234961 0.949305 0.208839
    outer loop
      vertex 6.47048 60.3985 30.2
      vertex 0 62 30.2
      vertex 6.98811 42.6711 110.2
    endloop
  endfacet
  facet normal -0.960896 0.275547 0.0274162
    outer loop
      vertex -21.6506 38.5 30.2
      vertex -26.08 15.0939 110.2
      vertex -23.3827 24.5 110.2
    endloop
  endfacet
  facet normal 0.742012 -0.669473 -0.0349812
    outer loop
      vertex 13.5 -28.775 110
      vertex 12.5 -25.7032 30
      vertex 19.0919 -22.5772 110
    endloop
  endfacet
  facet normal -0.240157 -0.970297 -0.0291176
    outer loop
      vertex 0 -32 30
      vertex -6.98811 -32.6711 110
      vertex -6.47048 -30.3985 30
    endloop
  endfacet
  facet normal -0.742012 -0.669473 -0.0349812
    outer loop
      vertex -13.5 -28.775 110
      vertex -19.0919 -22.5772 110
      vertex -12.5 -25.7032 30
    endloop
  endfacet
  facet normal -0.925853 0.377884 0
    outer loop
      vertex -21.6506 38.5 30
      vertex -17.6777 48.234 30.2
      vertex -17.6777 48.234 30
    endloop
  endfacet
  facet normal -0.925853 0.377884 0
    outer loop
      vertex -17.6777 48.234 30.2
      vertex -21.6506 38.5 30
      vertex -21.6506 38.5 30.2
    endloop
  endfacet
  facet normal 0.186762 -0.982098 -0.0245525
    outer loop
      vertex 6.98811 -32.6711 110
      vertex 0 -34 110
      vertex 0 -32 30
    endloop
  endfacet
  facet normal -0.960431 -0.275415 -0.0414507
    outer loop
      vertex -23.3827 -14.5 110
      vertex -26.08 -5.09394 110
      vertex -21.6506 -8.5 30
    endloop
  endfacet
  facet normal -0.987433 0.158039 0
    outer loop
      vertex -26.08 15.0939 110
      vertex -24.1481 27.1645 30.2
      vertex -24.1481 27.1645 30
    endloop
  endfacet
  facet normal -0.987433 0.158039 0
    outer loop
      vertex -24.1481 27.1645 30.2
      vertex -26.08 15.0939 110
      vertex -26.08 15.0939 110.2
    endloop
  endfacet
  facet normal -0.995819 0.0907631 -0.0103532
    outer loop
      vertex -24.1481 27.1645 30
      vertex -27 5 110
      vertex -26.08 15.0939 110
    endloop
  endfacet
  facet normal -0.976539 0.215157 0.00888115
    outer loop
      vertex -24.1481 27.1645 30.2
      vertex -26.08 15.0939 110.2
      vertex -21.6506 38.5 30.2
    endloop
  endfacet
  facet normal 0.821055 0.569161 -0.0438667
    outer loop
      vertex 17.6777 48.234 30
      vertex 10 52.3731 -60
      vertex 12.5 55.7032 30
    endloop
  endfacet
  facet normal -0.239757 -0.968683 -0.0645788
    outer loop
      vertex 0 -32 30
      vertex -6.47048 -30.3985 30
      vertex 0 -26 -60
    endloop
  endfacet
  facet normal -0.240036 0.969807 -0.0431025
    outer loop
      vertex 0 58 -60
      vertex -6.47048 60.3985 30
      vertex 0 62 30
    endloop
  endfacet
  facet normal 0.240036 0.969807 -0.0431025
    outer loop
      vertex 6.47048 60.3985 30
      vertex 0 58 -60
      vertex 0 62 30
    endloop
  endfacet
  facet normal -0.820534 -0.5688 -0.0564789
    outer loop
      vertex -12.5 -25.7032 30
      vertex -17.6777 -18.234 30
      vertex -10 -20.3731 -60
    endloop
  endfacet
  facet normal -0.821055 0.569161 -0.0438667
    outer loop
      vertex -10 52.3731 -60
      vertex -17.6777 48.234 30
      vertex -12.5 55.7032 30
    endloop
  endfacet
  facet normal 0.613851 0.788284 -0.0423689
    outer loop
      vertex 12.5 55.7032 30
      vertex 5.17638 56.5689 -60
      vertex 6.47048 60.3985 30
    endloop
  endfacet
  facet normal -0.613851 0.788284 -0.0423689
    outer loop
      vertex -5.17638 56.5689 -60
      vertex -12.5 55.7032 30
      vertex -6.47048 60.3985 30
    endloop
  endfacet
  facet normal -0.924831 0.377467 -0.0469656
    outer loop
      vertex -14.1421 45.6985 -60
      vertex -21.6506 38.5 30
      vertex -17.6777 48.234 30
    endloop
  endfacet
  facet normal -0.938047 0.342759 -0.0508441
    outer loop
      vertex -17.3205 37 -60
      vertex -21.6506 38.5 30
      vertex -14.1421 45.6985 -60
    endloop
  endfacet
  facet normal 0.613302 -0.787579 -0.0598327
    outer loop
      vertex 6.47048 -30.3985 30
      vertex 5.17638 -24.5689 -60
      vertex 12.5 -25.7032 30
    endloop
  endfacet
  facet normal -0.848697 0.526681 -0.0481784
    outer loop
      vertex -14.1421 45.6985 -60
      vertex -17.6777 48.234 30
      vertex -10 52.3731 -60
    endloop
  endfacet
  facet normal -0.979708 0.193241 -0.0532048
    outer loop
      vertex -19.3185 26.8704 -60
      vertex -24.1481 27.1645 30
      vertex -17.3205 37 -60
    endloop
  endfacet
  facet normal 0.938047 0.342759 -0.0508441
    outer loop
      vertex 17.3205 37 -60
      vertex 14.1421 45.6985 -60
      vertex 21.6506 38.5 30
    endloop
  endfacet
  facet normal 0.655601 0.753699 -0.0460988
    outer loop
      vertex 10 52.3731 -60
      vertex 5.17638 56.5689 -60
      vertex 12.5 55.7032 30
    endloop
  endfacet
  facet normal 0.265888 -0.961734 -0.0661179
    outer loop
      vertex 6.47048 -30.3985 30
      vertex 0 -26 -60
      vertex 5.17638 -24.5689 -60
    endloop
  endfacet
  facet normal -0.937656 -0.342616 -0.0584367
    outer loop
      vertex -14.1421 -13.6985 -60
      vertex -21.6506 -8.5 30
      vertex -17.3205 -5 -60
    endloop
  endfacet
  facet normal -0.655004 -0.753012 -0.0627904
    outer loop
      vertex -5.17638 -24.5689 -60
      vertex -12.5 -25.7032 30
      vertex -10 -20.3731 -60
    endloop
  endfacet
  facet normal 0.266204 0.962875 -0.0447991
    outer loop
      vertex 5.17638 56.5689 -60
      vertex 0 58 -60
      vertex 6.47048 60.3985 30
    endloop
  endfacet
  facet normal 0.937656 -0.342616 -0.0584367
    outer loop
      vertex 21.6506 -8.5 30
      vertex 14.1421 -13.6985 -60
      vertex 17.3205 -5 -60
    endloop
  endfacet
  facet normal 0.820534 -0.5688 -0.0564789
    outer loop
      vertex 12.5 -25.7032 30
      vertex 10 -20.3731 -60
      vertex 17.6777 -18.234 30
    endloop
  endfacet
  facet normal 0.239757 -0.968683 -0.0645788
    outer loop
      vertex 6.47048 -30.3985 30
      vertex 0 -32 30
      vertex 0 -26 -60
    endloop
  endfacet
  facet normal 0.924435 -0.377305 -0.05533
    outer loop
      vertex 17.6777 -18.234 30
      vertex 14.1421 -13.6985 -60
      vertex 21.6506 -8.5 30
    endloop
  endfacet
  facet normal -0.265888 -0.961734 -0.0661179
    outer loop
      vertex 0 -26 -60
      vertex -6.47048 -30.3985 30
      vertex -5.17638 -24.5689 -60
    endloop
  endfacet
  facet normal -0.613302 -0.787579 -0.0598327
    outer loop
      vertex -6.47048 -30.3985 30
      vertex -12.5 -25.7032 30
      vertex -5.17638 -24.5689 -60
    endloop
  endfacet
  facet normal -0.975331 0.21489 -0.0505069
    outer loop
      vertex -17.3205 37 -60
      vertex -24.1481 27.1645 30
      vertex -21.6506 38.5 30
    endloop
  endfacet
  facet normal -0.655601 0.753699 -0.0460988
    outer loop
      vertex -10 52.3731 -60
      vertex -12.5 55.7032 30
      vertex -5.17638 56.5689 -60
    endloop
  endfacet
  facet normal -0.266204 0.962875 -0.0447991
    outer loop
      vertex -5.17638 56.5689 -60
      vertex -6.47048 60.3985 30
      vertex 0 58 -60
    endloop
  endfacet
  facet normal 0.655004 -0.753012 -0.0627904
    outer loop
      vertex 12.5 -25.7032 30
      vertex 5.17638 -24.5689 -60
      vertex 10 -20.3731 -60
    endloop
  endfacet
  facet normal 0.975085 -0.214836 -0.0552682
    outer loop
      vertex 21.6506 -8.5 30
      vertex 17.3205 -5 -60
      vertex 24.1481 2.8355 30
    endloop
  endfacet
  facet normal 0.84816 -0.526348 -0.0598445
    outer loop
      vertex 17.6777 -18.234 30
      vertex 10 -20.3731 -60
      vertex 14.1421 -13.6985 -60
    endloop
  endfacet
  facet normal 0.848697 0.526681 -0.0481784
    outer loop
      vertex 14.1421 45.6985 -60
      vertex 10 52.3731 -60
      vertex 17.6777 48.234 30
    endloop
  endfacet
  facet normal 0.975331 0.21489 -0.0505069
    outer loop
      vertex 24.1481 27.1645 30
      vertex 17.3205 37 -60
      vertex 21.6506 38.5 30
    endloop
  endfacet
  facet normal 0.996548 0.0624768 -0.0546696
    outer loop
      vertex 20 16 -60
      vertex 19.3185 26.8704 -60
      vertex 25 15 30
    endloop
  endfacet
  facet normal -0.996118 0.0697598 -0.0536819
    outer loop
      vertex -19.3185 26.8704 -60
      vertex -25 15 30
      vertex -24.1481 27.1645 30
    endloop
  endfacet
  facet normal -0.84816 -0.526348 -0.0598445
    outer loop
      vertex -10 -20.3731 -60
      vertex -17.6777 -18.234 30
      vertex -14.1421 -13.6985 -60
    endloop
  endfacet
  facet normal 0.924831 0.377467 -0.0469656
    outer loop
      vertex 21.6506 38.5 30
      vertex 14.1421 45.6985 -60
      vertex 17.6777 48.234 30
    endloop
  endfacet
  facet normal 0.996034 -0.0697539 -0.0552274
    outer loop
      vertex 24.1481 2.8355 30
      vertex 19.3185 5.1296 -60
      vertex 25 15 30
    endloop
  endfacet
  facet normal 0.979475 -0.193195 -0.0574853
    outer loop
      vertex 24.1481 2.8355 30
      vertex 17.3205 -5 -60
      vertex 19.3185 5.1296 -60
    endloop
  endfacet
  facet normal 0.996118 0.0697598 -0.0536819
    outer loop
      vertex 25 15 30
      vertex 19.3185 26.8704 -60
      vertex 24.1481 27.1645 30
    endloop
  endfacet
  facet normal 0.979708 0.193241 -0.0532048
    outer loop
      vertex 19.3185 26.8704 -60
      vertex 17.3205 37 -60
      vertex 24.1481 27.1645 30
    endloop
  endfacet
  facet normal -0.996034 -0.0697539 -0.0552274
    outer loop
      vertex -24.1481 2.8355 30
      vertex -25 15 30
      vertex -19.3185 5.1296 -60
    endloop
  endfacet
  facet normal -0.979475 -0.193195 -0.0574853
    outer loop
      vertex -17.3205 -5 -60
      vertex -24.1481 2.8355 30
      vertex -19.3185 5.1296 -60
    endloop
  endfacet
  facet normal -0.924435 -0.377305 -0.05533
    outer loop
      vertex -17.6777 -18.234 30
      vertex -21.6506 -8.5 30
      vertex -14.1421 -13.6985 -60
    endloop
  endfacet
  facet normal 0.996471 -0.062472 -0.0560537
    outer loop
      vertex 25 15 30
      vertex 19.3185 5.1296 -60
      vertex 20 16 -60
    endloop
  endfacet
  facet normal -0.975085 -0.214836 -0.0552682
    outer loop
      vertex -21.6506 -8.5 30
      vertex -24.1481 2.8355 30
      vertex -17.3205 -5 -60
    endloop
  endfacet
  facet normal -0.996471 -0.062472 -0.0560537
    outer loop
      vertex -19.3185 5.1296 -60
      vertex -25 15 30
      vertex -20 16 -60
    endloop
  endfacet
  facet normal -0.996548 0.0624768 -0.0546696
    outer loop
      vertex -20 16 -60
      vertex -25 15 30
      vertex -19.3185 26.8704 -60
    endloop
  endfacet
  facet normal 0.287281 0.945607 -0.152635
    outer loop
      vertex 3.36465 40.9778 -160
      vertex 0 42 -160
      vertex 5.17638 56.5689 -60
    endloop
  endfacet
  facet normal -0.265682 -0.96099 -0.0768792
    outer loop
      vertex 0 -26 -60
      vertex -5.17638 -24.5689 -60
      vertex 0 -18 -160
    endloop
  endfacet
  facet normal -0.287281 0.945607 -0.152635
    outer loop
      vertex -3.36465 40.9778 -160
      vertex -5.17638 56.5689 -60
      vertex 0 42 -160
    endloop
  endfacet
  facet normal -0.289809 -0.953928 -0.0776642
    outer loop
      vertex 0 -18 -160
      vertex -5.17638 -24.5689 -60
      vertex -3.36465 -16.9778 -160
    endloop
  endfacet
  facet normal -0.937468 -0.342547 -0.0617662
    outer loop
      vertex -14.1421 -13.6985 -60
      vertex -17.3205 -5 -60
      vertex -9.19239 -9.2132 -160
    endloop
  endfacet
  facet normal -0.263358 0.952582 -0.152413
    outer loop
      vertex 0 42 -160
      vertex -5.17638 56.5689 -60
      vertex 0 58 -60
    endloop
  endfacet
  facet normal -0.995813 -0.0624307 -0.0667737
    outer loop
      vertex -19.3185 5.1296 -60
      vertex -20 16 -60
      vertex -12.557 4.23543 -160
    endloop
  endfacet
  facet normal -0.996102 -0.0568317 -0.0674539
    outer loop
      vertex -12.557 4.23543 -160
      vertex -20 16 -60
      vertex -13 12 -160
    endloop
  endfacet
  facet normal 0.866031 0.48907 -0.103928
    outer loop
      vertex 9.19239 33.2132 -160
      vertex 6.5 37.9808 -160
      vertex 14.1421 45.6985 -60
    endloop
  endfacet
  facet normal -0.995787 0.0568134 -0.0719776
    outer loop
      vertex -13 12 -160
      vertex -20 16 -60
      vertex -12.557 19.7646 -160
    endloop
  endfacet
  facet normal -0.9822 -0.176297 -0.064835
    outer loop
      vertex -11.2583 -3 -160
      vertex -19.3185 5.1296 -60
      vertex -12.557 4.23543 -160
    endloop
  endfacet
  facet normal 0.935535 0.341841 -0.0889862
    outer loop
      vertex 17.3205 37 -60
      vertex 9.19239 33.2132 -160
      vertex 14.1421 45.6985 -60
    endloop
  endfacet
  facet normal 0.995787 0.0568134 -0.0719776
    outer loop
      vertex 13 12 -160
      vertex 12.557 19.7646 -160
      vertex 20 16 -60
    endloop
  endfacet
  facet normal 0.946992 -0.314878 -0.0637061
    outer loop
      vertex 17.3205 -5 -60
      vertex 9.19239 -9.2132 -160
      vertex 11.2583 -3 -160
    endloop
  endfacet
  facet normal 0.996102 -0.0568317 -0.0674539
    outer loop
      vertex 20 16 -60
      vertex 12.557 4.23543 -160
      vertex 13 12 -160
    endloop
  endfacet
  facet normal 0.685367 0.717006 -0.127181
    outer loop
      vertex 6.5 37.9808 -160
      vertex 3.36465 40.9778 -160
      vertex 10 52.3731 -60
    endloop
  endfacet
  facet normal 0.847978 -0.526235 -0.0633178
    outer loop
      vertex 10 -20.3731 -60
      vertex 6.5 -13.9808 -160
      vertex 14.1421 -13.6985 -60
    endloop
  endfacet
  facet normal -0.650862 0.748251 -0.128452
    outer loop
      vertex -3.36465 40.9778 -160
      vertex -10 52.3731 -60
      vertex -5.17638 56.5689 -60
    endloop
  endfacet
  facet normal 0.289809 -0.953928 -0.0776642
    outer loop
      vertex 5.17638 -24.5689 -60
      vertex 0 -18 -160
      vertex 3.36465 -16.9778 -160
    endloop
  endfacet
  facet normal 0.650862 0.748251 -0.128452
    outer loop
      vertex 10 52.3731 -60
      vertex 3.36465 40.9778 -160
      vertex 5.17638 56.5689 -60
    endloop
  endfacet
  facet normal -0.866031 0.48907 -0.103928
    outer loop
      vertex -9.19239 33.2132 -160
      vertex -14.1421 45.6985 -60
      vertex -6.5 37.9808 -160
    endloop
  endfacet
  facet normal 0.995469 0.0624091 -0.0717433
    outer loop
      vertex 20 16 -60
      vertex 12.557 19.7646 -160
      vertex 19.3185 26.8704 -60
    endloop
  endfacet
  facet normal 0.9822 -0.176297 -0.064835
    outer loop
      vertex 19.3185 5.1296 -60
      vertex 11.2583 -3 -160
      vertex 12.557 4.23543 -160
    endloop
  endfacet
  facet normal -0.946992 -0.314878 -0.0637061
    outer loop
      vertex -9.19239 -9.2132 -160
      vertex -17.3205 -5 -60
      vertex -11.2583 -3 -160
    endloop
  endfacet
  facet normal -0.979135 -0.193128 -0.0632197
    outer loop
      vertex -17.3205 -5 -60
      vertex -19.3185 5.1296 -60
      vertex -11.2583 -3 -160
    endloop
  endfacet
  facet normal 0.945177 0.314274 -0.088726
    outer loop
      vertex 11.2583 27 -160
      vertex 9.19239 33.2132 -160
      vertex 17.3205 37 -60
    endloop
  endfacet
  facet normal -0.978063 0.192917 -0.0785838
    outer loop
      vertex -11.2583 27 -160
      vertex -19.3185 26.8704 -60
      vertex -17.3205 37 -60
    endloop
  endfacet
  facet normal -0.868904 -0.490693 -0.0650172
    outer loop
      vertex -6.5 -13.9808 -160
      vertex -14.1421 -13.6985 -60
      vertex -9.19239 -9.2132 -160
    endloop
  endfacet
  facet normal 0.689273 -0.721091 -0.0702189
    outer loop
      vertex 10 -20.3731 -60
      vertex 3.36465 -16.9778 -160
      vertex 6.5 -13.9808 -160
    endloop
  endfacet
  facet normal 0.844982 0.524376 -0.105044
    outer loop
      vertex 14.1421 45.6985 -60
      vertex 6.5 37.9808 -160
      vertex 10 52.3731 -60
    endloop
  endfacet
  facet normal 0.654735 -0.752703 -0.0690004
    outer loop
      vertex 5.17638 -24.5689 -60
      vertex 3.36465 -16.9778 -160
      vertex 10 -20.3731 -60
    endloop
  endfacet
  facet normal -0.847978 -0.526235 -0.0633178
    outer loop
      vertex -10 -20.3731 -60
      vertex -14.1421 -13.6985 -60
      vertex -6.5 -13.9808 -160
    endloop
  endfacet
  facet normal -0.995469 0.0624091 -0.0717433
    outer loop
      vertex -12.557 19.7646 -160
      vertex -20 16 -60
      vertex -19.3185 26.8704 -60
    endloop
  endfacet
  facet normal -0.981205 0.176119 -0.0788588
    outer loop
      vertex -12.557 19.7646 -160
      vertex -19.3185 26.8704 -60
      vertex -11.2583 27 -160
    endloop
  endfacet
  facet normal -0.654735 -0.752703 -0.0690004
    outer loop
      vertex -5.17638 -24.5689 -60
      vertex -10 -20.3731 -60
      vertex -3.36465 -16.9778 -160
    endloop
  endfacet
  facet normal 0.265682 -0.96099 -0.0768792
    outer loop
      vertex 5.17638 -24.5689 -60
      vertex 0 -26 -60
      vertex 0 -18 -160
    endloop
  endfacet
  facet normal -0.689273 -0.721091 -0.0702189
    outer loop
      vertex -3.36465 -16.9778 -160
      vertex -10 -20.3731 -60
      vertex -6.5 -13.9808 -160
    endloop
  endfacet
  facet normal 0.937468 -0.342547 -0.0617662
    outer loop
      vertex 14.1421 -13.6985 -60
      vertex 9.19239 -9.2132 -160
      vertex 17.3205 -5 -60
    endloop
  endfacet
  facet normal 0.978063 0.192917 -0.0785838
    outer loop
      vertex 19.3185 26.8704 -60
      vertex 11.2583 27 -160
      vertex 17.3205 37 -60
    endloop
  endfacet
  facet normal 0.995813 -0.0624307 -0.0667737
    outer loop
      vertex 19.3185 5.1296 -60
      vertex 12.557 4.23543 -160
      vertex 20 16 -60
    endloop
  endfacet
  facet normal 0.979135 -0.193128 -0.0632197
    outer loop
      vertex 17.3205 -5 -60
      vertex 11.2583 -3 -160
      vertex 19.3185 5.1296 -60
    endloop
  endfacet
  facet normal -0.935535 0.341841 -0.0889862
    outer loop
      vertex -9.19239 33.2132 -160
      vertex -17.3205 37 -60
      vertex -14.1421 45.6985 -60
    endloop
  endfacet
  facet normal -0.945177 0.314274 -0.088726
    outer loop
      vertex -11.2583 27 -160
      vertex -17.3205 37 -60
      vertex -9.19239 33.2132 -160
    endloop
  endfacet
  facet normal 0.981205 0.176119 -0.0788588
    outer loop
      vertex 12.557 19.7646 -160
      vertex 11.2583 27 -160
      vertex 19.3185 26.8704 -60
    endloop
  endfacet
  facet normal 0.868904 -0.490693 -0.0650172
    outer loop
      vertex 14.1421 -13.6985 -60
      vertex 6.5 -13.9808 -160
      vertex 9.19239 -9.2132 -160
    endloop
  endfacet
  facet normal 0.263358 0.952582 -0.152413
    outer loop
      vertex 5.17638 56.5689 -60
      vertex 0 42 -160
      vertex 0 58 -60
    endloop
  endfacet
  facet normal -0.685367 0.717006 -0.127181
    outer loop
      vertex -6.5 37.9808 -160
      vertex -10 52.3731 -60
      vertex -3.36465 40.9778 -160
    endloop
  endfacet
  facet normal -0.844982 0.524376 -0.105044
    outer loop
      vertex -6.5 37.9808 -160
      vertex -14.1421 45.6985 -60
      vertex -10 52.3731 -60
    endloop
  endfacet
  facet normal -0.687995 0.719755 -0.0928217
    outer loop
      vertex -2.07055 29.3185 -260
      vertex -6.5 37.9808 -160
      vertex -3.36465 40.9778 -160
    endloop
  endfacet
  facet normal 0.716312 0.691736 -0.0916489
    outer loop
      vertex 4 27.3205 -260
      vertex 2.07055 29.3185 -260
      vertex 6.5 37.9808 -160
    endloop
  endfacet
  facet normal 0.985053 0.163211 -0.0550625
    outer loop
      vertex 7.72741 15.1764 -260
      vertex 6.9282 20 -260
      vertex 12.557 19.7646 -160
    endloop
  endfacet
  facet normal -0.884379 0.461013 -0.0730865
    outer loop
      vertex -5.65685 24.1421 -260
      vertex -9.19239 33.2132 -160
      vertex -4 27.3205 -260
    endloop
  endfacet
  facet normal -0.717861 -0.693228 -0.0641175
    outer loop
      vertex -2.07055 -9.31852 -260
      vertex -6.5 -13.9808 -160
      vertex -4 -7.32051 -260
    endloop
  endfacet
  facet normal 0.884379 0.461013 -0.0730865
    outer loop
      vertex 5.65685 24.1421 -260
      vertex 4 27.3205 -260
      vertex 9.19239 33.2132 -160
    endloop
  endfacet
  facet normal -0.28879 0.950573 -0.114069
    outer loop
      vertex 0 30 -260
      vertex -3.36465 40.9778 -160
      vertex 0 42 -160
    endloop
  endfacet
  facet normal 0.954781 -0.293052 -0.0501345
    outer loop
      vertex 11.2583 -3 -160
      vertex 5.65685 -4.14214 -260
      vertex 6.9282 0 -260
    endloop
  endfacet
  facet normal -0.716312 0.691736 -0.0916489
    outer loop
      vertex -4 27.3205 -260
      vertex -6.5 37.9808 -160
      vertex -2.07055 29.3185 -260
    endloop
  endfacet
  facet normal -0.983142 -0.176466 -0.047865
    outer loop
      vertex -11.2583 -3 -160
      vertex -12.557 4.23543 -160
      vertex -6.9282 0 -260
    endloop
  endfacet
  facet normal -0.868359 0.490386 -0.0739856
    outer loop
      vertex -4 27.3205 -260
      vertex -9.19239 33.2132 -160
      vertex -6.5 37.9808 -160
    endloop
  endfacet
  facet normal 0.869455 -0.491004 -0.0544387
    outer loop
      vertex 6.5 -13.9808 -160
      vertex 4 -7.32051 -260
      vertex 9.19239 -9.2132 -160
    endloop
  endfacet
  facet normal -0.997426 -0.0525248 -0.0488208
    outer loop
      vertex -7.72741 4.82362 -260
      vertex -13 12 -160
      vertex -8 10 -260
    endloop
  endfacet
  facet normal 0.687995 0.719755 -0.0928217
    outer loop
      vertex 6.5 37.9808 -160
      vertex 2.07055 29.3185 -260
      vertex 3.36465 40.9778 -160
    endloop
  endfacet
  facet normal 0.289839 -0.954027 -0.0763222
    outer loop
      vertex 3.36465 -16.9778 -160
      vertex 0 -18 -160
      vertex 0 -10 -260
    endloop
  endfacet
  facet normal 0.28879 0.950573 -0.114069
    outer loop
      vertex 3.36465 40.9778 -160
      vertex 0 30 -260
      vertex 0 42 -160
    endloop
  endfacet
  facet normal -0.985387 -0.163266 -0.0485505
    outer loop
      vertex -6.9282 0 -260
      vertex -12.557 4.23543 -160
      vertex -7.72741 4.82362 -260
    endloop
  endfacet
  facet normal 0.997321 0.0525191 -0.0509164
    outer loop
      vertex 8 10 -260
      vertex 7.72741 15.1764 -260
      vertex 13 12 -160
    endloop
  endfacet
  facet normal -0.997202 -0.0568944 -0.0484954
    outer loop
      vertex -12.557 4.23543 -160
      vertex -13 12 -160
      vertex -7.72741 4.82362 -260
    endloop
  endfacet
  facet normal 0.954154 0.292862 -0.0618162
    outer loop
      vertex 6.9282 20 -260
      vertex 5.65685 24.1421 -260
      vertex 11.2583 27 -160
    endloop
  endfacet
  facet normal 0.947091 0.314911 -0.0620507
    outer loop
      vertex 11.2583 27 -160
      vertex 5.65685 24.1421 -260
      vertex 9.19239 33.2132 -160
    endloop
  endfacet
  facet normal -0.310601 0.943674 -0.114045
    outer loop
      vertex -2.07055 29.3185 -260
      vertex -3.36465 40.9778 -160
      vertex 0 30 -260
    endloop
  endfacet
  facet normal 0.868359 0.490386 -0.0739856
    outer loop
      vertex 9.19239 33.2132 -160
      vertex 4 27.3205 -260
      vertex 6.5 37.9808 -160
    endloop
  endfacet
  facet normal -0.954154 0.292862 -0.0618162
    outer loop
      vertex -6.9282 20 -260
      vertex -11.2583 27 -160
      vertex -5.65685 24.1421 -260
    endloop
  endfacet
  facet normal 0.310601 0.943674 -0.114045
    outer loop
      vertex 2.07055 29.3185 -260
      vertex 0 30 -260
      vertex 3.36465 40.9778 -160
    endloop
  endfacet
  facet normal 0.997426 -0.0525248 -0.0488208
    outer loop
      vertex 13 12 -160
      vertex 7.72741 4.82362 -260
      vertex 8 10 -260
    endloop
  endfacet
  facet normal 0.982786 0.176403 -0.0549038
    outer loop
      vertex 12.557 19.7646 -160
      vertex 6.9282 20 -260
      vertex 11.2583 27 -160
    endloop
  endfacet
  facet normal 0.947757 -0.315132 -0.0494889
    outer loop
      vertex 9.19239 -9.2132 -160
      vertex 5.65685 -4.14214 -260
      vertex 11.2583 -3 -160
    endloop
  endfacet
  facet normal 0.88542 -0.46156 -0.0547104
    outer loop
      vertex 9.19239 -9.2132 -160
      vertex 4 -7.32051 -260
      vertex 5.65685 -4.14214 -260
    endloop
  endfacet
  facet normal -0.869455 -0.491004 -0.0544387
    outer loop
      vertex -6.5 -13.9808 -160
      vertex -9.19239 -9.2132 -160
      vertex -4 -7.32051 -260
    endloop
  endfacet
  facet normal -0.954781 -0.293052 -0.0501345
    outer loop
      vertex -5.65685 -4.14214 -260
      vertex -11.2583 -3 -160
      vertex -6.9282 0 -260
    endloop
  endfacet
  facet normal 0.997202 -0.0568944 -0.0484954
    outer loop
      vertex 12.557 4.23543 -160
      vertex 7.72741 4.82362 -260
      vertex 13 12 -160
    endloop
  endfacet
  facet normal 0.689554 -0.721385 -0.0641764
    outer loop
      vertex 3.36465 -16.9778 -160
      vertex 2.07055 -9.31852 -260
      vertex 6.5 -13.9808 -160
    endloop
  endfacet
  facet normal -0.997089 0.0568877 -0.0507654
    outer loop
      vertex -7.72741 15.1764 -260
      vertex -13 12 -160
      vertex -12.557 19.7646 -160
    endloop
  endfacet
  facet normal -0.947091 0.314911 -0.0620507
    outer loop
      vertex -5.65685 24.1421 -260
      vertex -11.2583 27 -160
      vertex -9.19239 33.2132 -160
    endloop
  endfacet
  facet normal 0.985387 -0.163266 -0.0485505
    outer loop
      vertex 12.557 4.23543 -160
      vertex 6.9282 0 -260
      vertex 7.72741 4.82362 -260
    endloop
  endfacet
  facet normal 0.997089 0.0568877 -0.0507654
    outer loop
      vertex 13 12 -160
      vertex 7.72741 15.1764 -260
      vertex 12.557 19.7646 -160
    endloop
  endfacet
  facet normal -0.289839 -0.954027 -0.0763222
    outer loop
      vertex 0 -18 -160
      vertex -3.36465 -16.9778 -160
      vertex 0 -10 -260
    endloop
  endfacet
  facet normal -0.689554 -0.721385 -0.0641764
    outer loop
      vertex -3.36465 -16.9778 -160
      vertex -6.5 -13.9808 -160
      vertex -2.07055 -9.31852 -260
    endloop
  endfacet
  facet normal -0.997321 0.0525191 -0.0509164
    outer loop
      vertex -8 10 -260
      vertex -13 12 -160
      vertex -7.72741 15.1764 -260
    endloop
  endfacet
  facet normal 0.311714 -0.947085 -0.0765738
    outer loop
      vertex 3.36465 -16.9778 -160
      vertex 0 -10 -260
      vertex 2.07055 -9.31852 -260
    endloop
  endfacet
  facet normal -0.88542 -0.46156 -0.0547104
    outer loop
      vertex -4 -7.32051 -260
      vertex -9.19239 -9.2132 -160
      vertex -5.65685 -4.14214 -260
    endloop
  endfacet
  facet normal -0.947757 -0.315132 -0.0494889
    outer loop
      vertex -9.19239 -9.2132 -160
      vertex -11.2583 -3 -160
      vertex -5.65685 -4.14214 -260
    endloop
  endfacet
  facet normal 0.717861 -0.693228 -0.0641175
    outer loop
      vertex 6.5 -13.9808 -160
      vertex 2.07055 -9.31852 -260
      vertex 4 -7.32051 -260
    endloop
  endfacet
  facet normal -0.982786 0.176403 -0.0549038
    outer loop
      vertex -6.9282 20 -260
      vertex -12.557 19.7646 -160
      vertex -11.2583 27 -160
    endloop
  endfacet
  facet normal -0.985053 0.163211 -0.0550625
    outer loop
      vertex -7.72741 15.1764 -260
      vertex -12.557 19.7646 -160
      vertex -6.9282 20 -260
    endloop
  endfacet
  facet normal -0.311714 -0.947085 -0.0765738
    outer loop
      vertex 0 -10 -260
      vertex -3.36465 -16.9778 -160
      vertex -2.07055 -9.31852 -260
    endloop
  endfacet
  facet normal 0.983142 -0.176466 -0.047865
    outer loop
      vertex 11.2583 -3 -160
      vertex 6.9282 0 -260
      vertex 12.557 4.23543 -160
    endloop
  endfacet
  facet normal -0.717773 0.693147 -0.0659466
    outer loop
      vertex -0.776457 23.523 -335
      vertex -4 27.3205 -260
      vertex -2.07055 29.3185 -260
    endloop
  endfacet
  facet normal -0.993923 0.0882212 -0.0658304
    outer loop
      vertex -2.89778 13.6235 -335
      vertex -7.72741 15.1764 -260
      vertex -2.59808 17 -335
    endloop
  endfacet
  facet normal 0.954216 0.292881 -0.0607664
    outer loop
      vertex 6.9282 20 -260
      vertex 1.5 22.1244 -335
      vertex 5.65685 24.1421 -260
    endloop
  endfacet
  facet normal -0.996488 0.0524752 -0.0652554
    outer loop
      vertex -2.89778 13.6235 -335
      vertex -8 10 -260
      vertex -7.72741 15.1764 -260
    endloop
  endfacet
  facet normal -0.99739 0.0281367 -0.0664927
    outer loop
      vertex -3 10 -335
      vertex -8 10 -260
      vertex -2.89778 13.6235 -335
    endloop
  endfacet
  facet normal 0.961297 -0.268454 -0.0619709
    outer loop
      vertex 6.9282 0 -260
      vertex 1.5 -2.12436 -335
      vertex 2.12132 0.100505 -335
    endloop
  endfacet
  facet normal -0.961297 -0.268454 -0.0619709
    outer loop
      vertex -1.5 -2.12436 -335
      vertex -6.9282 0 -260
      vertex -2.12132 0.100505 -335
    endloop
  endfacet
  facet normal 0.993923 0.0882212 -0.0658304
    outer loop
      vertex 2.89778 13.6235 -335
      vertex 2.59808 17 -335
      vertex 7.72741 15.1764 -260
    endloop
  endfacet
  facet normal 0.954217 -0.292878 -0.0607667
    outer loop
      vertex 5.65685 -4.14214 -260
      vertex 1.5 -2.12436 -335
      vertex 6.9282 0 -260
    endloop
  endfacet
  facet normal -0.961298 0.26845 -0.061971
    outer loop
      vertex -2.12132 19.8995 -335
      vertex -6.9282 20 -260
      vertex -1.5 22.1244 -335
    endloop
  endfacet
  facet normal 0.961298 0.26845 -0.061971
    outer loop
      vertex 2.12132 19.8995 -335
      vertex 1.5 22.1244 -335
      vertex 6.9282 20 -260
    endloop
  endfacet
  facet normal 0.522016 -0.849662 -0.074664
    outer loop
      vertex 2.07055 -9.31852 -260
      vertex 0 -4 -335
      vertex 0.776457 -3.52296 -335
    endloop
  endfacet
  facet normal 0.886504 -0.458619 -0.0614728
    outer loop
      vertex 5.65685 -4.14214 -260
      vertex 0.776457 -3.52296 -335
      vertex 1.5 -2.12436 -335
    endloop
  endfacet
  facet normal -0.522016 -0.849662 -0.074664
    outer loop
      vertex 0 -4 -335
      vertex -2.07055 -9.31852 -260
      vertex -0.776457 -3.52296 -335
    endloop
  endfacet
  facet normal -0.311742 0.947141 -0.0757713
    outer loop
      vertex 0 24 -335
      vertex -2.07055 29.3185 -260
      vertex 0 30 -260
    endloop
  endfacet
  facet normal 0.311733 -0.947144 -0.0757715
    outer loop
      vertex 2.07055 -9.31852 -260
      vertex 0 -10 -260
      vertex 0 -4 -335
    endloop
  endfacet
  facet normal 0.99739 0.0281367 -0.0664927
    outer loop
      vertex 3 10 -335
      vertex 2.89778 13.6235 -335
      vertex 8 10 -260
    endloop
  endfacet
  facet normal 0.984764 0.161923 -0.0634119
    outer loop
      vertex 2.59808 17 -335
      vertex 2.12132 19.8995 -335
      vertex 7.72741 15.1764 -260
    endloop
  endfacet
  facet normal 0.996488 0.0524752 -0.0652554
    outer loop
      vertex 8 10 -260
      vertex 2.89778 13.6235 -335
      vertex 7.72741 15.1764 -260
    endloop
  endfacet
  facet normal 0.521984 0.849681 -0.0746643
    outer loop
      vertex 0.776457 23.523 -335
      vertex 0 24 -335
      vertex 2.07055 29.3185 -260
    endloop
  endfacet
  facet normal -0.311733 -0.947144 -0.0757715
    outer loop
      vertex 0 -10 -260
      vertex -2.07055 -9.31852 -260
      vertex 0 -4 -335
    endloop
  endfacet
  facet normal -0.886504 -0.458619 -0.0614728
    outer loop
      vertex -0.776457 -3.52296 -335
      vertex -5.65685 -4.14214 -260
      vertex -1.5 -2.12436 -335
    endloop
  endfacet
  facet normal 0.996488 -0.0524754 -0.0652554
    outer loop
      vertex 7.72741 4.82362 -260
      vertex 2.89778 6.37653 -335
      vertex 8 10 -260
    endloop
  endfacet
  facet normal 0.717775 -0.693145 -0.0659471
    outer loop
      vertex 2.07055 -9.31852 -260
      vertex 0.776457 -3.52296 -335
      vertex 4 -7.32051 -260
    endloop
  endfacet
  facet normal 0.98457 -0.16313 -0.0633214
    outer loop
      vertex 6.9282 0 -260
      vertex 2.12132 0.100505 -335
      vertex 7.72741 4.82362 -260
    endloop
  endfacet
  facet normal -0.98457 0.163131 -0.0633214
    outer loop
      vertex -2.12132 19.8995 -335
      vertex -7.72741 15.1764 -260
      vertex -6.9282 20 -260
    endloop
  endfacet
  facet normal 0.717773 0.693147 -0.0659466
    outer loop
      vertex 4 27.3205 -260
      vertex 0.776457 23.523 -335
      vertex 2.07055 29.3185 -260
    endloop
  endfacet
  facet normal 0.885077 0.461377 -0.0614022
    outer loop
      vertex 5.65685 24.1421 -260
      vertex 0.776457 23.523 -335
      vertex 4 27.3205 -260
    endloop
  endfacet
  facet normal 0.98457 0.163131 -0.0633214
    outer loop
      vertex 7.72741 15.1764 -260
      vertex 2.12132 19.8995 -335
      vertex 6.9282 20 -260
    endloop
  endfacet
  facet normal 0.885075 -0.46138 -0.0614026
    outer loop
      vertex 4 -7.32051 -260
      vertex 0.776457 -3.52296 -335
      vertex 5.65685 -4.14214 -260
    endloop
  endfacet
  facet normal 0.311742 0.947141 -0.0757713
    outer loop
      vertex 2.07055 29.3185 -260
      vertex 0 24 -335
      vertex 0 30 -260
    endloop
  endfacet
  facet normal 0.886504 0.458619 -0.0614723
    outer loop
      vertex 1.5 22.1244 -335
      vertex 0.776457 23.523 -335
      vertex 5.65685 24.1421 -260
    endloop
  endfacet
  facet normal -0.984764 0.161923 -0.0634119
    outer loop
      vertex -2.59808 17 -335
      vertex -7.72741 15.1764 -260
      vertex -2.12132 19.8995 -335
    endloop
  endfacet
  facet normal -0.98457 -0.16313 -0.0633214
    outer loop
      vertex -6.9282 0 -260
      vertex -7.72741 4.82362 -260
      vertex -2.12132 0.100505 -335
    endloop
  endfacet
  facet normal -0.984764 -0.161923 -0.0634119
    outer loop
      vertex -2.12132 0.100505 -335
      vertex -7.72741 4.82362 -260
      vertex -2.59808 3 -335
    endloop
  endfacet
  facet normal 0.99739 -0.0281369 -0.0664927
    outer loop
      vertex 8 10 -260
      vertex 2.89778 6.37653 -335
      vertex 3 10 -335
    endloop
  endfacet
  facet normal -0.996488 -0.0524754 -0.0652554
    outer loop
      vertex -7.72741 4.82362 -260
      vertex -8 10 -260
      vertex -2.89778 6.37653 -335
    endloop
  endfacet
  facet normal -0.954216 0.292881 -0.0607664
    outer loop
      vertex -1.5 22.1244 -335
      vertex -6.9282 20 -260
      vertex -5.65685 24.1421 -260
    endloop
  endfacet
  facet normal -0.993923 -0.0882204 -0.0658304
    outer loop
      vertex -2.59808 3 -335
      vertex -7.72741 4.82362 -260
      vertex -2.89778 6.37653 -335
    endloop
  endfacet
  facet normal 0 0 -1
    outer loop
      vertex -3 10 -335
      vertex 3 10 -335
      vertex 2.89778 6.37653 -335
    endloop
  endfacet
  facet normal 0 0 -1
    outer loop
      vertex -2.89778 6.37653 -335
      vertex 2.89778 6.37653 -335
      vertex 2.59808 3 -335
    endloop
  endfacet
  facet normal 0 0 -1
    outer loop
      vertex 3 10 -335
      vertex -3 10 -335
      vertex 2.89778 13.6235 -335
    endloop
  endfacet
  facet normal 0 0 -1
    outer loop
      vertex -2.59808 3 -335
      vertex 2.59808 3 -335
      vertex 2.12132 0.100505 -335
    endloop
  endfacet
  facet normal 0 -0 -1
    outer loop
      vertex -2.89778 13.6235 -335
      vertex 2.89778 13.6235 -335
      vertex -3 10 -335
    endloop
  endfacet
  facet normal 0 0 -1
    outer loop
      vertex -2.12132 0.100505 -335
      vertex 2.12132 0.100505 -335
      vertex 1.5 -2.12436 -335
    endloop
  endfacet
  facet normal 0 0 -1
    outer loop
      vertex 2.89778 13.6235 -335
      vertex -2.89778 13.6235 -335
      vertex 2.59808 17 -335
    endloop
  endfacet
  facet normal 0 0 -1
    outer loop
      vertex -1.5 -2.12436 -335
      vertex 1.5 -2.12436 -335
      vertex 0.776457 -3.52296 -335
    endloop
  endfacet
  facet normal 0 -0 -1
    outer loop
      vertex -2.59808 17 -335
      vertex 2.59808 17 -335
      vertex -2.89778 13.6235 -335
    endloop
  endfacet
  facet normal 0 0 -1
    outer loop
      vertex -0.776457 -3.52296 -335
      vertex 0.776457 -3.52296 -335
      vertex 0 -4 -335
    endloop
  endfacet
  facet normal 0 0 -1
    outer loop
      vertex 2.59808 17 -335
      vertex -2.59808 17 -335
      vertex 2.12132 19.8995 -335
    endloop
  endfacet
  facet normal 0 0 -1
    outer loop
      vertex 0.776457 -3.52296 -335
      vertex -0.776457 -3.52296 -335
      vertex -1.5 -2.12436 -335
    endloop
  endfacet
  facet normal 0 -0 -1
    outer loop
      vertex -2.12132 19.8995 -335
      vertex 2.12132 19.8995 -335
      vertex -2.59808 17 -335
    endloop
  endfacet
  facet normal 0 0 -1
    outer loop
      vertex 1.5 -2.12436 -335
      vertex -1.5 -2.12436 -335
      vertex -2.12132 0.100505 -335
    endloop
  endfacet
  facet normal 0 0 -1
    outer loop
      vertex 2.12132 19.8995 -335
      vertex -2.12132 19.8995 -335
      vertex 1.5 22.1244 -335
    endloop
  endfacet
  facet normal 0 0 -1
    outer loop
      vertex 2.12132 0.100505 -335
      vertex -2.12132 0.100505 -335
      vertex -2.59808 3 -335
    endloop
  endfacet
  facet normal 0 0 -1
    outer loop
      vertex 2.89778 6.37653 -335
      vertex -2.89778 6.37653 -335
      vertex -3 10 -335
    endloop
  endfacet
  facet normal 0 0 -1
    outer loop
      vertex 2.59808 3 -335
      vertex -2.59808 3 -335
      vertex -2.89778 6.37653 -335
    endloop
  endfacet
  facet normal 0 -0 -1
    outer loop
      vertex -1.5 22.1244 -335
      vertex 1.5 22.1244 -335
      vertex -2.12132 19.8995 -335
    endloop
  endfacet
  facet normal 0 -0 -1
    outer loop
      vertex -0.776457 23.523 -335
      vertex 0.776457 23.523 -335
      vertex -1.5 22.1244 -335
    endloop
  endfacet
  facet normal 0 0 -1
    outer loop
      vertex 0.776457 23.523 -335
      vertex -0.776457 23.523 -335
      vertex 0 24 -335
    endloop
  endfacet
  facet normal 0 0 -1
    outer loop
      vertex 1.5 22.1244 -335
      vertex -1.5 22.1244 -335
      vertex 0.776457 23.523 -335
    endloop
  endfacet
  facet normal -0.99739 -0.0281369 -0.0664927
    outer loop
      vertex -2.89778 6.37653 -335
      vertex -8 10 -260
      vertex -3 10 -335
    endloop
  endfacet
  facet normal -0.954217 -0.292878 -0.0607667
    outer loop
      vertex -5.65685 -4.14214 -260
      vertex -6.9282 0 -260
      vertex -1.5 -2.12436 -335
    endloop
  endfacet
  facet normal -0.885075 -0.46138 -0.0614026
    outer loop
      vertex -4 -7.32051 -260
      vertex -5.65685 -4.14214 -260
      vertex -0.776457 -3.52296 -335
    endloop
  endfacet
  facet normal -0.717775 -0.693145 -0.0659471
    outer loop
      vertex -2.07055 -9.31852 -260
      vertex -4 -7.32051 -260
      vertex -0.776457 -3.52296 -335
    endloop
  endfacet
  facet normal -0.886504 0.458619 -0.0614723
    outer loop
      vertex -1.5 22.1244 -335
      vertex -5.65685 24.1421 -260
      vertex -0.776457 23.523 -335
    endloop
  endfacet
  facet normal 0.984764 -0.161923 -0.0634119
    outer loop
      vertex 7.72741 4.82362 -260
      vertex 2.12132 0.100505 -335
      vertex 2.59808 3 -335
    endloop
  endfacet
  facet normal 0.993923 -0.0882204 -0.0658304
    outer loop
      vertex 7.72741 4.82362 -260
      vertex 2.59808 3 -335
      vertex 2.89778 6.37653 -335
    endloop
  endfacet
  facet normal -0.521984 0.849681 -0.0746643
    outer loop
      vertex -0.776457 23.523 -335
      vertex -2.07055 29.3185 -260
      vertex 0 24 -335
    endloop
  endfacet
  facet normal -0.885077 0.461377 -0.0614022
    outer loop
      vertex -0.776457 23.523 -335
      vertex -5.65685 24.1421 -260
      vertex -4 27.3205 -260
    endloop
  endfacet
endsolid OpenSCAD_Model
