solid OpenSCAD_Model
  facet normal -0.0776655 0.984978 -0.154226
    outer loop
      vertex 50 9.59999 -62.1875
      vertex 0.2 5.99262 -60.1479
      vertex 0.2 6.0144 -60.0088
    endloop
  endfacet
  facet normal -0.0776639 0.984987 -0.154172
    outer loop
      vertex 0.2 5.99262 -60.1479
      vertex 50 9.59999 -62.1875
      vertex 50 4.155 -96.975
    endloop
  endfacet
  facet normal -0.0675626 0.993571 0.0908408
    outer loop
      vertex 50 9.59999 -62.1875
      vertex 0.2 5.99504 -59.797
      vertex 50 4.75999 -9.25
    endloop
  endfacet
  facet normal -0.0675638 0.993573 0.0908195
    outer loop
      vertex 0.2 5.99504 -59.797
      vertex 50 9.59999 -62.1875
      vertex 0.2 6.0144 -60.0088
    endloop
  endfacet
  facet normal -0 0 -1
    outer loop
      vertex 400.4 50 -100
      vertex 350 42.5 -100
      vertex 400 50 -100
    endloop
  endfacet
  facet normal 0 0 -1
    outer loop
      vertex 400.4 50 -100
      vertex 300 35 -100
      vertex 350 42.5 -100
    endloop
  endfacet
  facet normal 0 0 -1
    outer loop
      vertex 400.4 50 -100
      vertex 250 27.5 -100
      vertex 300 35 -100
    endloop
  endfacet
  facet normal 0 0 -1
    outer loop
      vertex 400.4 50 -100
      vertex 200 20 -100
      vertex 250 27.5 -100
    endloop
  endfacet
  facet normal 0 0 -1
    outer loop
      vertex 400.4 50 -100
      vertex 150 12.5 -100
      vertex 200 20 -100
    endloop
  endfacet
  facet normal 0 0 -1
    outer loop
      vertex 400.4 50 -100
      vertex 100 5 -100
      vertex 150 12.5 -100
    endloop
  endfacet
  facet normal 0 0 -1
    outer loop
      vertex 400.4 50 -100
      vertex 50 -2.5 -100
      vertex 100 5 -100
    endloop
  endfacet
  facet normal 0 0 -1
    outer loop
      vertex 0.4 -10 -100
      vertex 50 -2.5 -100
      vertex 400.4 50 -100
    endloop
  endfacet
  facet normal 0 0 -1
    outer loop
      vertex 0.4 -10 -100
      vertex 0.2 -9.97 -100
      vertex 50 -2.5 -100
    endloop
  endfacet
  facet normal 0 0 -1
    outer loop
      vertex 0 -10 -100
      vertex 0.2 -9.97 -100
      vertex 0.4 -10 -100
    endloop
  endfacet
  facet normal 0 0 -1
    outer loop
      vertex 0 -10 -100
      vertex -49.6 -2.5 -100
      vertex 0.2 -9.97 -100
    endloop
  endfacet
  facet normal 0 0 -1
    outer loop
      vertex 0 -10 -100
      vertex -99.6 5 -100
      vertex -49.6 -2.5 -100
    endloop
  endfacet
  facet normal 0 0 -1
    outer loop
      vertex 0 -10 -100
      vertex -149.6 12.5 -100
      vertex -99.6 5 -100
    endloop
  endfacet
  facet normal 0 0 -1
    outer loop
      vertex 0 -10 -100
      vertex -199.6 20 -100
      vertex -149.6 12.5 -100
    endloop
  endfacet
  facet normal 0 0 -1
    outer loop
      vertex 0 -10 -100
      vertex -249.6 27.5 -100
      vertex -199.6 20 -100
    endloop
  endfacet
  facet normal 0 0 -1
    outer loop
      vertex 0 -10 -100
      vertex -299.6 35 -100
      vertex -249.6 27.5 -100
    endloop
  endfacet
  facet normal 0 0 -1
    outer loop
      vertex 0 -10 -100
      vertex -349.6 42.5 -100
      vertex -299.6 35 -100
    endloop
  endfacet
  facet normal 0 0 -1
    outer loop
      vertex -400 50 -100
      vertex -349.6 42.5 -100
      vertex 0 -10 -100
    endloop
  endfacet
  facet normal 0 0 -1
    outer loop
      vertex -349.6 42.5 -100
      vertex -400 50 -100
      vertex -399.6 50 -100
    endloop
  endfacet
  facet normal -0.091306 0.989383 0.113072
    outer loop
      vertex 0.2 5.9676 -59.555
      vertex 0.2 -0.406809 -3.779
      vertex 50 -2.10001 51.25
    endloop
  endfacet
  facet normal 0 0.759257 0.650791
    outer loop
      vertex 0.4 -9.60001 60
      vertex 0.2 -9.57001 59.965
      vertex 0 -9.60001 60
    endloop
  endfacet
  facet normal -0 0.759257 0.650791
    outer loop
      vertex 50 -2.10001 51.25
      vertex 0.4 -9.60001 60
      vertex 50.4 -2.10001 51.25
    endloop
  endfacet
  facet normal 4.36464e-15 0.759257 0.650791
    outer loop
      vertex 0.4 -9.60001 60
      vertex 50 -2.10001 51.25
      vertex 0.2 -9.57001 59.965
    endloop
  endfacet
  facet normal -0 0.759257 0.650791
    outer loop
      vertex 100 5.39999 42.5
      vertex 50.4 -2.10001 51.25
      vertex 100.4 5.39999 42.5
    endloop
  endfacet
  facet normal 0 0.759257 0.650791
    outer loop
      vertex 50.4 -2.10001 51.25
      vertex 100 5.39999 42.5
      vertex 50 -2.10001 51.25
    endloop
  endfacet
  facet normal -0 0.759256 0.650792
    outer loop
      vertex 150 12.9 33.75
      vertex 100.4 5.39999 42.5
      vertex 150.4 12.9 33.75
    endloop
  endfacet
  facet normal 0 0.759256 0.650792
    outer loop
      vertex 100.4 5.39999 42.5
      vertex 150 12.9 33.75
      vertex 100 5.39999 42.5
    endloop
  endfacet
  facet normal -0 0.759257 0.650791
    outer loop
      vertex 200 20.4 25
      vertex 150.4 12.9 33.75
      vertex 200.4 20.4 25
    endloop
  endfacet
  facet normal 0 0.759257 0.650791
    outer loop
      vertex 150.4 12.9 33.75
      vertex 200 20.4 25
      vertex 150 12.9 33.75
    endloop
  endfacet
  facet normal -0 0.759257 0.650791
    outer loop
      vertex 250 27.9 16.25
      vertex 200.4 20.4 25
      vertex 250.4 27.9 16.25
    endloop
  endfacet
  facet normal 0 0.759257 0.650791
    outer loop
      vertex 200.4 20.4 25
      vertex 250 27.9 16.25
      vertex 200 20.4 25
    endloop
  endfacet
  facet normal -0 0.759257 0.650791
    outer loop
      vertex 300 35.4 7.5
      vertex 250.4 27.9 16.25
      vertex 300.4 35.4 7.5
    endloop
  endfacet
  facet normal 0 0.759257 0.650791
    outer loop
      vertex 250.4 27.9 16.25
      vertex 300 35.4 7.5
      vertex 250 27.9 16.25
    endloop
  endfacet
  facet normal -0 0.759257 0.650791
    outer loop
      vertex 350 42.9 -1.25
      vertex 300.4 35.4 7.5
      vertex 350.4 42.9 -1.25
    endloop
  endfacet
  facet normal 0 0.759257 0.650791
    outer loop
      vertex 300.4 35.4 7.5
      vertex 350 42.9 -1.25
      vertex 300 35.4 7.5
    endloop
  endfacet
  facet normal -0 0.759257 0.650791
    outer loop
      vertex 400 50.4 -10
      vertex 350.4 42.9 -1.25
      vertex 400.4 50.4 -10
    endloop
  endfacet
  facet normal 0 0.759257 0.650791
    outer loop
      vertex 350.4 42.9 -1.25
      vertex 400 50.4 -10
      vertex 350 42.9 -1.25
    endloop
  endfacet
  facet normal -3.09515e-15 0.759257 0.650791
    outer loop
      vertex -49.6 -2.10001 51.25
      vertex 0 -9.60001 60
      vertex 0.2 -9.57001 59.965
    endloop
  endfacet
  facet normal 0 0.759257 0.650791
    outer loop
      vertex -49.6 -2.10001 51.25
      vertex -50 -2.10001 51.25
      vertex 0 -9.60001 60
    endloop
  endfacet
  facet normal 0 0.759257 0.650791
    outer loop
      vertex -99.6 5.39999 42.5
      vertex -50 -2.10001 51.25
      vertex -49.6 -2.10001 51.25
    endloop
  endfacet
  facet normal 0 0.759257 0.650791
    outer loop
      vertex -99.6 5.39999 42.5
      vertex -100 5.39999 42.5
      vertex -50 -2.10001 51.25
    endloop
  endfacet
  facet normal 0 0.759256 0.650792
    outer loop
      vertex -149.6 12.9 33.75
      vertex -100 5.39999 42.5
      vertex -99.6 5.39999 42.5
    endloop
  endfacet
  facet normal 0 0.759256 0.650792
    outer loop
      vertex -149.6 12.9 33.75
      vertex -150 12.9 33.75
      vertex -100 5.39999 42.5
    endloop
  endfacet
  facet normal 0 0.759257 0.650791
    outer loop
      vertex -199.6 20.4 25
      vertex -150 12.9 33.75
      vertex -149.6 12.9 33.75
    endloop
  endfacet
  facet normal 0 0.759257 0.650791
    outer loop
      vertex -199.6 20.4 25
      vertex -200 20.4 25
      vertex -150 12.9 33.75
    endloop
  endfacet
  facet normal 0 0.759257 0.650791
    outer loop
      vertex -249.6 27.9 16.25
      vertex -200 20.4 25
      vertex -199.6 20.4 25
    endloop
  endfacet
  facet normal 0 0.759257 0.650791
    outer loop
      vertex -249.6 27.9 16.25
      vertex -250 27.9 16.25
      vertex -200 20.4 25
    endloop
  endfacet
  facet normal 0 0.759257 0.650791
    outer loop
      vertex -299.6 35.4 7.5
      vertex -250 27.9 16.25
      vertex -249.6 27.9 16.25
    endloop
  endfacet
  facet normal 0 0.759257 0.650791
    outer loop
      vertex -299.6 35.4 7.5
      vertex -300 35.4 7.5
      vertex -250 27.9 16.25
    endloop
  endfacet
  facet normal 0 0.759257 0.650791
    outer loop
      vertex -349.6 42.9 -1.25
      vertex -300 35.4 7.5
      vertex -299.6 35.4 7.5
    endloop
  endfacet
  facet normal 0 0.759257 0.650791
    outer loop
      vertex -349.6 42.9 -1.25
      vertex -350 42.9 -1.25
      vertex -300 35.4 7.5
    endloop
  endfacet
  facet normal 0 0.759257 0.650791
    outer loop
      vertex -399.6 50.4 -10
      vertex -350 42.9 -1.25
      vertex -349.6 42.9 -1.25
    endloop
  endfacet
  facet normal 0 0.759257 0.650791
    outer loop
      vertex -350 42.9 -1.25
      vertex -399.6 50.4 -10
      vertex -400 50.4 -10
    endloop
  endfacet
  facet normal -0.105193 0.975948 -0.190947
    outer loop
      vertex 50 4.155 -96.975
      vertex 0.2 -1.17859 -96.8007
      vertex 0.2 5.99262 -60.1479
    endloop
  endfacet
  facet normal -0.0893553 0.989658 0.112216
    outer loop
      vertex 50 4.75999 -9.25
      vertex 0.2 5.9676 -59.555
      vertex 50 -2.10001 51.25
    endloop
  endfacet
  facet normal -0.0893553 0.989658 0.112216
    outer loop
      vertex 0.2 5.9676 -59.555
      vertex 50 4.75999 -9.25
      vertex 0.2 5.99504 -59.797
    endloop
  endfacet
  facet normal -0.122641 0.982353 0.141213
    outer loop
      vertex 0.2 -0.406809 -3.779
      vertex 0.2 -9.57001 59.965
      vertex 50 -2.10001 51.25
    endloop
  endfacet
  facet normal 0 -0.99998 0.00624972
    outer loop
      vertex 0 -10 -4
      vertex 0.4 -9.60001 60
      vertex 0 -9.60001 60
    endloop
  endfacet
  facet normal 0 -0.99998 0.00624972
    outer loop
      vertex 0.4 -9.60001 60
      vertex 0 -10 -4
      vertex 0.4 -10 -4
    endloop
  endfacet
  facet normal 0.14834 -0.988936 0
    outer loop
      vertex 0.4 -10 -100
      vertex 50.4 -2.5 -9.25
      vertex 0.4 -10 -4
    endloop
  endfacet
  facet normal 0.14834 -0.988936 1.17114e-17
    outer loop
      vertex 50.4 -2.5 -9.25
      vertex 0.4 -10 -100
      vertex 100.4 5 -14.5
    endloop
  endfacet
  facet normal 0.14834 -0.988936 0
    outer loop
      vertex 100.4 5 -14.5
      vertex 0.4 -10 -100
      vertex 150.4 12.5 -19.75
    endloop
  endfacet
  facet normal 0.14834 -0.988936 0
    outer loop
      vertex 150.4 12.5 -19.75
      vertex 0.4 -10 -100
      vertex 200.4 20 -25
    endloop
  endfacet
  facet normal 0.14834 -0.988936 0
    outer loop
      vertex 200.4 20 -25
      vertex 0.4 -10 -100
      vertex 250.4 27.5 -30.25
    endloop
  endfacet
  facet normal 0.14834 -0.988936 -6.44754e-17
    outer loop
      vertex 400.4 50 -100
      vertex 250.4 27.5 -30.25
      vertex 0.4 -10 -100
    endloop
  endfacet
  facet normal 0.14834 -0.988936 1.66562e-16
    outer loop
      vertex 250.4 27.5 -30.25
      vertex 400.4 50 -100
      vertex 300.4 35 -35.5
    endloop
  endfacet
  facet normal 0.14834 -0.988936 0
    outer loop
      vertex 300.4 35 -35.5
      vertex 400.4 50 -100
      vertex 350.4 42.5 -40.75
    endloop
  endfacet
  facet normal 0.14834 -0.988936 0
    outer loop
      vertex 350.4 42.5 -40.75
      vertex 400.4 50 -100
      vertex 400.4 50 -46
    endloop
  endfacet
  facet normal 0.149456 -0.988747 0.00653701
    outer loop
      vertex 50.4 -2.10001 51.25
      vertex 0.4 -9.60001 60
      vertex 50.4 -2.5 -9.25
    endloop
  endfacet
  facet normal -0.0511943 0.341295 -0.938561
    outer loop
      vertex 50 -2.5 -100
      vertex 0.2 -9.97 -100
      vertex 0.2 -1.20521 -96.8128
    endloop
  endfacet
  facet normal -0.0474511 0.413337 -0.909341
    outer loop
      vertex 0.2 -1.17859 -96.8007
      vertex 50 -2.5 -100
      vertex 0.2 -1.20521 -96.8128
    endloop
  endfacet
  facet normal -0.0474511 0.413337 -0.909341
    outer loop
      vertex 50 -2.5 -100
      vertex 0.2 -1.17859 -96.8007
      vertex 50 4.155 -96.975
    endloop
  endfacet
  facet normal 0.148972 -0.988822 0.00617998
    outer loop
      vertex 0.4 -9.60001 60
      vertex 0.4 -10 -4
      vertex 50.4 -2.5 -9.25
    endloop
  endfacet
  facet normal 0 -1 0
    outer loop
      vertex 0 -10 -100
      vertex 0.4 -10 -4
      vertex 0 -10 -4
    endloop
  endfacet
  facet normal 0 -1 -0
    outer loop
      vertex 0.4 -10 -4
      vertex 0 -10 -100
      vertex 0.4 -10 -100
    endloop
  endfacet
  facet normal -0.0810893 0.984718 -0.15413
    outer loop
      vertex 100 11.27 -97.15
      vertex 50 12.625 -62.1875
      vertex 100 16.4 -64.375
    endloop
  endfacet
  facet normal -0.0710232 0.993332 0.0908189
    outer loop
      vertex 100 16.4 -64.375
      vertex 50 12.625 -62.1875
      vertex 100 11.84 -14.5
    endloop
  endfacet
  facet normal -0.0937577 0.989156 0.113046
    outer loop
      vertex 50 12.625 -62.1875
      vertex 50 6.575 -9.25
      vertex 100 5.39999 42.5
    endloop
  endfacet
  facet normal -1 0 0
    outer loop
      vertex 50 5.81874 -96.975
      vertex 50 9.59999 -62.1875
      vertex 50 12.625 -62.1875
    endloop
  endfacet
  facet normal -1 0 0
    outer loop
      vertex 50 5.81874 -96.975
      vertex 50 4.155 -96.975
      vertex 50 9.59999 -62.1875
    endloop
  endfacet
  facet normal -1 0 -0
    outer loop
      vertex 50 4.155 -96.975
      vertex 50 5.81874 -96.975
      vertex 50 -2.5 -100
    endloop
  endfacet
  facet normal -1 0 0
    outer loop
      vertex 50 9.59999 -62.1875
      vertex 50 6.575 -9.25
      vertex 50 12.625 -62.1875
    endloop
  endfacet
  facet normal -1 0 0
    outer loop
      vertex 50 4.75999 -9.25
      vertex 50 6.575 -9.25
      vertex 50 9.59999 -62.1875
    endloop
  endfacet
  facet normal -1 0 0
    outer loop
      vertex 50 6.575 -9.25
      vertex 50 4.75999 -9.25
      vertex 50 -2.10001 51.25
    endloop
  endfacet
  facet normal -0.10705 0.975753 -0.190909
    outer loop
      vertex 100 11.27 -97.15
      vertex 50 5.81874 -96.975
      vertex 50 12.625 -62.1875
    endloop
  endfacet
  facet normal -0.0910949 0.989546 0.111802
    outer loop
      vertex 100 11.84 -14.5
      vertex 50 12.625 -62.1875
      vertex 100 5.39999 42.5
    endloop
  endfacet
  facet normal -0.122708 0.982395 0.140864
    outer loop
      vertex 50 6.575 -9.25
      vertex 50 -2.10001 51.25
      vertex 100 5.39999 42.5
    endloop
  endfacet
  facet normal 0.149524 -0.988734 0.00693831
    outer loop
      vertex 100.4 5.39999 42.5
      vertex 50.4 -2.10001 51.25
      vertex 100.4 5 -14.5
    endloop
  endfacet
  facet normal -0.0511943 0.341295 -0.938561
    outer loop
      vertex 100 5 -100
      vertex 50 -2.5 -100
      vertex 50 5.81874 -96.975
    endloop
  endfacet
  facet normal -0.048245 0.413321 -0.909306
    outer loop
      vertex 100 5 -100
      vertex 50 5.81874 -96.975
      vertex 100 11.27 -97.15
    endloop
  endfacet
  facet normal 0.149009 -0.988814 0.00653745
    outer loop
      vertex 50.4 -2.10001 51.25
      vertex 50.4 -2.5 -9.25
      vertex 100.4 5 -14.5
    endloop
  endfacet
  facet normal -0.0845117 0.984437 -0.154086
    outer loop
      vertex 150 18.385 -97.325
      vertex 100 19.25 -64.375
      vertex 150 23.2 -66.5625
    endloop
  endfacet
  facet normal -0.074481 0.99308 0.0907959
    outer loop
      vertex 150 23.2 -66.5625
      vertex 100 19.25 -64.375
      vertex 150 18.92 -19.75
    endloop
  endfacet
  facet normal -0.0962082 0.988924 0.11302
    outer loop
      vertex 100 19.25 -64.375
      vertex 100 13.55 -14.5
      vertex 150 12.9 33.75
    endloop
  endfacet
  facet normal -1 0 0
    outer loop
      vertex 100 12.8375 -97.15
      vertex 100 16.4 -64.375
      vertex 100 19.25 -64.375
    endloop
  endfacet
  facet normal -1 0 0
    outer loop
      vertex 100 12.8375 -97.15
      vertex 100 11.27 -97.15
      vertex 100 16.4 -64.375
    endloop
  endfacet
  facet normal -1 0 -0
    outer loop
      vertex 100 11.27 -97.15
      vertex 100 12.8375 -97.15
      vertex 100 5 -100
    endloop
  endfacet
  facet normal -1 0 0
    outer loop
      vertex 100 16.4 -64.375
      vertex 100 13.55 -14.5
      vertex 100 19.25 -64.375
    endloop
  endfacet
  facet normal -1 0 0
    outer loop
      vertex 100 11.84 -14.5
      vertex 100 13.55 -14.5
      vertex 100 16.4 -64.375
    endloop
  endfacet
  facet normal -1 0 0
    outer loop
      vertex 100 13.55 -14.5
      vertex 100 11.84 -14.5
      vertex 100 5.39999 42.5
    endloop
  endfacet
  facet normal -0.108906 0.975555 -0.19087
    outer loop
      vertex 150 18.385 -97.325
      vertex 100 12.8375 -97.15
      vertex 100 19.25 -64.375
    endloop
  endfacet
  facet normal -0.092836 0.989437 0.111335
    outer loop
      vertex 150 18.92 -19.75
      vertex 100 19.25 -64.375
      vertex 150 12.9 33.75
    endloop
  endfacet
  facet normal -0.122784 0.982442 0.140472
    outer loop
      vertex 100 13.55 -14.5
      vertex 100 5.39999 42.5
      vertex 150 12.9 33.75
    endloop
  endfacet
  facet normal 0.149602 -0.988719 0.00739229
    outer loop
      vertex 150.4 12.9 33.75
      vertex 100.4 5.39999 42.5
      vertex 150.4 12.5 -19.75
    endloop
  endfacet
  facet normal -0.0511942 0.341295 -0.938561
    outer loop
      vertex 150 12.5 -100
      vertex 100 5 -100
      vertex 100 12.8375 -97.15
    endloop
  endfacet
  facet normal -0.0490386 0.413305 -0.909271
    outer loop
      vertex 150 12.5 -100
      vertex 100 12.8375 -97.15
      vertex 150 18.385 -97.325
    endloop
  endfacet
  facet normal 0.149049 -0.988805 0.00693881
    outer loop
      vertex 100.4 5.39999 42.5
      vertex 100.4 5 -14.5
      vertex 150.4 12.5 -19.75
    endloop
  endfacet
  facet normal -0.0879311 0.984144 -0.15404
    outer loop
      vertex 200 25.5 -97.5
      vertex 150 25.875 -66.5625
      vertex 200 30 -68.75
    endloop
  endfacet
  facet normal -0.0779362 0.992817 0.0907719
    outer loop
      vertex 200 30 -68.75
      vertex 150 25.875 -66.5625
      vertex 200 26 -25
    endloop
  endfacet
  facet normal -0.0986567 0.988686 0.112993
    outer loop
      vertex 150 25.875 -66.5625
      vertex 150 20.525 -19.75
      vertex 200 20.4 25
    endloop
  endfacet
  facet normal -1 0 0
    outer loop
      vertex 150 19.8562 -97.325
      vertex 150 23.2 -66.5625
      vertex 150 25.875 -66.5625
    endloop
  endfacet
  facet normal -1 0 0
    outer loop
      vertex 150 19.8562 -97.325
      vertex 150 18.385 -97.325
      vertex 150 23.2 -66.5625
    endloop
  endfacet
  facet normal -1 0 -0
    outer loop
      vertex 150 18.385 -97.325
      vertex 150 19.8562 -97.325
      vertex 150 12.5 -100
    endloop
  endfacet
  facet normal -1 0 0
    outer loop
      vertex 150 23.2 -66.5625
      vertex 150 20.525 -19.75
      vertex 150 25.875 -66.5625
    endloop
  endfacet
  facet normal -1 0 0
    outer loop
      vertex 150 18.92 -19.75
      vertex 150 20.525 -19.75
      vertex 150 23.2 -66.5625
    endloop
  endfacet
  facet normal -1 0 0
    outer loop
      vertex 150 20.525 -19.75
      vertex 150 18.92 -19.75
      vertex 150 12.9 33.75
    endloop
  endfacet
  facet normal -0.110762 0.975354 -0.190832
    outer loop
      vertex 200 25.5 -97.5
      vertex 150 19.8562 -97.325
      vertex 150 25.875 -66.5625
    endloop
  endfacet
  facet normal -0.0945801 0.989332 0.110805
    outer loop
      vertex 200 26 -25
      vertex 150 25.875 -66.5625
      vertex 200 20.4 25
    endloop
  endfacet
  facet normal -0.122869 0.982494 0.140028
    outer loop
      vertex 150 20.525 -19.75
      vertex 150 12.9 33.75
      vertex 200 20.4 25
    endloop
  endfacet
  facet normal 0.149689 -0.988701 0.00790961
    outer loop
      vertex 200.4 20.4 25
      vertex 150.4 12.9 33.75
      vertex 200.4 20 -25
    endloop
  endfacet
  facet normal -0.0511945 0.341297 -0.93856
    outer loop
      vertex 200 20 -100
      vertex 150 12.5 -100
      vertex 150 19.8562 -97.325
    endloop
  endfacet
  facet normal -0.0498327 0.413289 -0.909235
    outer loop
      vertex 200 20 -100
      vertex 150 19.8562 -97.325
      vertex 200 25.5 -97.5
    endloop
  endfacet
  facet normal 0.149096 -0.988795 0.00739286
    outer loop
      vertex 150.4 12.9 33.75
      vertex 150.4 12.5 -19.75
      vertex 200.4 20 -25
    endloop
  endfacet
  facet normal -0.0913474 0.98384 -0.153992
    outer loop
      vertex 250 32.615 -97.675
      vertex 200 32.5 -68.75
      vertex 250 36.8 -70.9375
    endloop
  endfacet
  facet normal -0.0813885 0.992543 0.0907468
    outer loop
      vertex 250 36.8 -70.9375
      vertex 200 32.5 -68.75
      vertex 250 33.08 -30.25
    endloop
  endfacet
  facet normal -0.101103 0.988442 0.112965
    outer loop
      vertex 200 32.5 -68.75
      vertex 200 27.5 -25
      vertex 250 27.9 16.25
    endloop
  endfacet
  facet normal -1 0 0
    outer loop
      vertex 200 26.875 -97.5
      vertex 200 30 -68.75
      vertex 200 32.5 -68.75
    endloop
  endfacet
  facet normal -1 0 0
    outer loop
      vertex 200 26.875 -97.5
      vertex 200 25.5 -97.5
      vertex 200 30 -68.75
    endloop
  endfacet
  facet normal -1 0 -0
    outer loop
      vertex 200 25.5 -97.5
      vertex 200 26.875 -97.5
      vertex 200 20 -100
    endloop
  endfacet
  facet normal -1 0 0
    outer loop
      vertex 200 30 -68.75
      vertex 200 27.5 -25
      vertex 200 32.5 -68.75
    endloop
  endfacet
  facet normal -1 0 0
    outer loop
      vertex 200 26 -25
      vertex 200 27.5 -25
      vertex 200 30 -68.75
    endloop
  endfacet
  facet normal -1 0 0
    outer loop
      vertex 200 27.5 -25
      vertex 200 26 -25
      vertex 200 20.4 25
    endloop
  endfacet
  facet normal -0.112615 0.97515 -0.19079
    outer loop
      vertex 250 32.615 -97.675
      vertex 200 26.875 -97.5
      vertex 200 32.5 -68.75
    endloop
  endfacet
  facet normal -0.0963277 0.989231 0.110198
    outer loop
      vertex 250 33.08 -30.25
      vertex 200 32.5 -68.75
      vertex 250 27.9 16.25
    endloop
  endfacet
  facet normal -0.122967 0.982554 0.139523
    outer loop
      vertex 200 27.5 -25
      vertex 200 20.4 25
      vertex 250 27.9 16.25
    endloop
  endfacet
  facet normal 0.149791 -0.988681 0.00850478
    outer loop
      vertex 250.4 27.9 16.25
      vertex 200.4 20.4 25
      vertex 250.4 27.5 -30.25
    endloop
  endfacet
  facet normal -0.0511942 0.341295 -0.938561
    outer loop
      vertex 250 27.5 -100
      vertex 200 20 -100
      vertex 200 26.875 -97.5
    endloop
  endfacet
  facet normal -0.0506259 0.413272 -0.909199
    outer loop
      vertex 250 27.5 -100
      vertex 200 26.875 -97.5
      vertex 250 32.615 -97.675
    endloop
  endfacet
  facet normal 0.149148 -0.988783 0.00791027
    outer loop
      vertex 200.4 20.4 25
      vertex 200.4 20 -25
      vertex 250.4 27.5 -30.25
    endloop
  endfacet
  facet normal -0.0947605 0.983525 -0.153943
    outer loop
      vertex 300 39.73 -97.85
      vertex 250 39.125 -70.9375
      vertex 300 43.6 -73.125
    endloop
  endfacet
  facet normal -0.0848379 0.992256 0.0907206
    outer loop
      vertex 300 43.6 -73.125
      vertex 250 39.125 -70.9375
      vertex 300 40.16 -35.5
    endloop
  endfacet
  facet normal -0.103548 0.988192 0.112936
    outer loop
      vertex 250 39.125 -70.9375
      vertex 250 34.475 -30.25
      vertex 300 35.4 7.5
    endloop
  endfacet
  facet normal -1 0 0
    outer loop
      vertex 250 33.8937 -97.675
      vertex 250 36.8 -70.9375
      vertex 250 39.125 -70.9375
    endloop
  endfacet
  facet normal -1 0 0
    outer loop
      vertex 250 33.8937 -97.675
      vertex 250 32.615 -97.675
      vertex 250 36.8 -70.9375
    endloop
  endfacet
  facet normal -1 0 -0
    outer loop
      vertex 250 32.615 -97.675
      vertex 250 33.8937 -97.675
      vertex 250 27.5 -100
    endloop
  endfacet
  facet normal -1 0 0
    outer loop
      vertex 250 36.8 -70.9375
      vertex 250 34.475 -30.25
      vertex 250 39.125 -70.9375
    endloop
  endfacet
  facet normal -1 0 0
    outer loop
      vertex 250 33.08 -30.25
      vertex 250 34.475 -30.25
      vertex 250 36.8 -70.9375
    endloop
  endfacet
  facet normal -1 0 0
    outer loop
      vertex 250 34.475 -30.25
      vertex 250 33.08 -30.25
      vertex 250 27.9 16.25
    endloop
  endfacet
  facet normal -0.114469 0.974941 -0.190751
    outer loop
      vertex 300 39.73 -97.85
      vertex 250 33.8937 -97.675
      vertex 250 39.125 -70.9375
    endloop
  endfacet
  facet normal -0.0980798 0.989137 0.109495
    outer loop
      vertex 300 40.16 -35.5
      vertex 250 39.125 -70.9375
      vertex 300 35.4 7.5
    endloop
  endfacet
  facet normal -0.123079 0.982623 0.138941
    outer loop
      vertex 250 34.475 -30.25
      vertex 250 27.9 16.25
      vertex 300 35.4 7.5
    endloop
  endfacet
  facet normal 0.149908 -0.988657 0.00919681
    outer loop
      vertex 300.4 35.4 7.5
      vertex 250.4 27.9 16.25
      vertex 300.4 35 -35.5
    endloop
  endfacet
  facet normal -0.0511946 0.341297 -0.93856
    outer loop
      vertex 300 35 -100
      vertex 250 27.5 -100
      vertex 250 33.8937 -97.675
    endloop
  endfacet
  facet normal -0.0514197 0.413256 -0.909162
    outer loop
      vertex 300 35 -100
      vertex 250 33.8937 -97.675
      vertex 300 39.73 -97.85
    endloop
  endfacet
  facet normal 0.149208 -0.988769 0.00850554
    outer loop
      vertex 250.4 27.9 16.25
      vertex 250.4 27.5 -30.25
      vertex 300.4 35 -35.5
    endloop
  endfacet
  facet normal -0.0981703 0.983199 -0.153892
    outer loop
      vertex 350 46.845 -98.025
      vertex 300 45.75 -73.125
      vertex 350 50.4 -75.3125
    endloop
  endfacet
  facet normal -0.0882843 0.991958 0.0906933
    outer loop
      vertex 350 50.4 -75.3125
      vertex 300 45.75 -73.125
      vertex 350 47.24 -40.75
    endloop
  endfacet
  facet normal -0.105991 0.987936 0.112907
    outer loop
      vertex 300 45.75 -73.125
      vertex 300 41.45 -35.5
      vertex 350 42.9 -1.25
    endloop
  endfacet
  facet normal -1 0 0
    outer loop
      vertex 300 40.9125 -97.85
      vertex 300 43.6 -73.125
      vertex 300 45.75 -73.125
    endloop
  endfacet
  facet normal -1 0 0
    outer loop
      vertex 300 40.9125 -97.85
      vertex 300 39.73 -97.85
      vertex 300 43.6 -73.125
    endloop
  endfacet
  facet normal -1 0 -0
    outer loop
      vertex 300 39.73 -97.85
      vertex 300 40.9125 -97.85
      vertex 300 35 -100
    endloop
  endfacet
  facet normal -1 0 0
    outer loop
      vertex 300 43.6 -73.125
      vertex 300 41.45 -35.5
      vertex 300 45.75 -73.125
    endloop
  endfacet
  facet normal -1 0 0
    outer loop
      vertex 300 40.16 -35.5
      vertex 300 41.45 -35.5
      vertex 300 43.6 -73.125
    endloop
  endfacet
  facet normal -1 0 0
    outer loop
      vertex 300 41.45 -35.5
      vertex 300 40.16 -35.5
      vertex 300 35.4 7.5
    endloop
  endfacet
  facet normal -0.116319 0.974731 -0.190708
    outer loop
      vertex 350 46.845 -98.025
      vertex 300 40.9125 -97.85
      vertex 300 45.75 -73.125
    endloop
  endfacet
  facet normal -0.0998379 0.989052 0.10867
    outer loop
      vertex 350 47.24 -40.75
      vertex 300 45.75 -73.125
      vertex 350 42.9 -1.25
    endloop
  endfacet
  facet normal -0.123209 0.982702 0.138264
    outer loop
      vertex 300 41.45 -35.5
      vertex 300 35.4 7.5
      vertex 350 42.9 -1.25
    endloop
  endfacet
  facet normal 0.150046 -0.988628 0.0100114
    outer loop
      vertex 350.4 42.9 -1.25
      vertex 300.4 35.4 7.5
      vertex 350.4 42.5 -40.75
    endloop
  endfacet
  facet normal -0.0511942 0.341295 -0.938561
    outer loop
      vertex 350 42.5 -100
      vertex 300 35 -100
      vertex 300 40.9125 -97.85
    endloop
  endfacet
  facet normal -0.0522127 0.413239 -0.909125
    outer loop
      vertex 350 42.5 -100
      vertex 300 40.9125 -97.85
      vertex 350 46.845 -98.025
    endloop
  endfacet
  facet normal 0.149279 -0.988752 0.0091977
    outer loop
      vertex 300.4 35.4 7.5
      vertex 300.4 35 -35.5
      vertex 350.4 42.5 -40.75
    endloop
  endfacet
  facet normal -0.101577 0.982861 -0.153839
    outer loop
      vertex 400 53.96 -98.2
      vertex 350 52.375 -75.3125
      vertex 400 57.2 -77.5
    endloop
  endfacet
  facet normal -0.0917274 0.991648 0.090665
    outer loop
      vertex 400 57.2 -77.5
      vertex 350 52.375 -75.3125
      vertex 400 54.32 -46
    endloop
  endfacet
  facet normal 0 0.994124 0.108249
    outer loop
      vertex 400.4 54.32 -46
      vertex 400 50.4 -10
      vertex 400.4 50.4 -10
    endloop
  endfacet
  facet normal 0 0.994124 0.108249
    outer loop
      vertex 400 50.4 -10
      vertex 400.4 54.32 -46
      vertex 400 54.32 -46
    endloop
  endfacet
  facet normal -0.108433 0.987675 0.112877
    outer loop
      vertex 350 52.375 -75.3125
      vertex 350 48.425 -40.75
      vertex 400 50.4 -10
    endloop
  endfacet
  facet normal 0 0.995846 0.0910488
    outer loop
      vertex 400.4 57.2 -77.5
      vertex 400 54.32 -46
      vertex 400.4 54.32 -46
    endloop
  endfacet
  facet normal 0 0.995846 0.0910488
    outer loop
      vertex 400 54.32 -46
      vertex 400.4 57.2 -77.5
      vertex 400 57.2 -77.5
    endloop
  endfacet
  facet normal -1 0 0
    outer loop
      vertex 350 47.9312 -98.025
      vertex 350 50.4 -75.3125
      vertex 350 52.375 -75.3125
    endloop
  endfacet
  facet normal -1 0 0
    outer loop
      vertex 350 47.9312 -98.025
      vertex 350 46.845 -98.025
      vertex 350 50.4 -75.3125
    endloop
  endfacet
  facet normal -1 0 -0
    outer loop
      vertex 350 46.845 -98.025
      vertex 350 47.9312 -98.025
      vertex 350 42.5 -100
    endloop
  endfacet
  facet normal -1 0 0
    outer loop
      vertex 350 50.4 -75.3125
      vertex 350 48.425 -40.75
      vertex 350 52.375 -75.3125
    endloop
  endfacet
  facet normal -1 0 0
    outer loop
      vertex 350 47.24 -40.75
      vertex 350 48.425 -40.75
      vertex 350 50.4 -75.3125
    endloop
  endfacet
  facet normal -1 0 0
    outer loop
      vertex 350 48.425 -40.75
      vertex 350 47.24 -40.75
      vertex 350 42.9 -1.25
    endloop
  endfacet
  facet normal 0 0.413803 -0.910366
    outer loop
      vertex 400 50 -100
      vertex 400.4 53.96 -98.2
      vertex 400.4 50 -100
    endloop
  endfacet
  facet normal 0 0.413803 -0.910366
    outer loop
      vertex 400.4 53.96 -98.2
      vertex 400 50 -100
      vertex 400 53.96 -98.2
    endloop
  endfacet
  facet normal -0.118171 0.974516 -0.190668
    outer loop
      vertex 400 53.96 -98.2
      vertex 350 47.9312 -98.025
      vertex 350 52.375 -75.3125
    endloop
  endfacet
  facet normal 1 -0 0
    outer loop
      vertex 400.4 50 -46
      vertex 400.4 57.2 -77.5
      vertex 400.4 54.32 -46
    endloop
  endfacet
  facet normal 1 0 0
    outer loop
      vertex 400.4 50 -46
      vertex 400.4 54.32 -46
      vertex 400.4 50.4 -10
    endloop
  endfacet
  facet normal 1 0 0
    outer loop
      vertex 400.4 50 -100
      vertex 400.4 57.2 -77.5
      vertex 400.4 50 -46
    endloop
  endfacet
  facet normal 1 0 0
    outer loop
      vertex 400.4 57.2 -77.5
      vertex 400.4 50 -100
      vertex 400.4 53.96 -98.2
    endloop
  endfacet
  facet normal -0.101604 0.988979 0.107689
    outer loop
      vertex 400 54.32 -46
      vertex 350 52.375 -75.3125
      vertex 400 50.4 -10
    endloop
  endfacet
  facet normal -0.123362 0.982794 0.137467
    outer loop
      vertex 350 48.425 -40.75
      vertex 350 42.9 -1.25
      vertex 400 50.4 -10
    endloop
  endfacet
  facet normal 0 0.987971 -0.154639
    outer loop
      vertex 400.4 53.96 -98.2
      vertex 400 57.2 -77.5
      vertex 400.4 57.2 -77.5
    endloop
  endfacet
  facet normal 0 0.987971 -0.154639
    outer loop
      vertex 400 57.2 -77.5
      vertex 400.4 53.96 -98.2
      vertex 400 53.96 -98.2
    endloop
  endfacet
  facet normal 0.150211 -0.988593 0.0109844
    outer loop
      vertex 400.4 50.4 -10
      vertex 350.4 42.9 -1.25
      vertex 400.4 50 -46
    endloop
  endfacet
  facet normal -0.0511947 0.341298 -0.93856
    outer loop
      vertex 400 50 -100
      vertex 350 42.5 -100
      vertex 350 47.9312 -98.025
    endloop
  endfacet
  facet normal -0.0530064 0.413221 -0.909087
    outer loop
      vertex 400 50 -100
      vertex 350 47.9312 -98.025
      vertex 400 53.96 -98.2
    endloop
  endfacet
  facet normal 0.149361 -0.988732 0.0100125
    outer loop
      vertex 350.4 42.9 -1.25
      vertex 350.4 42.5 -40.75
      vertex 400.4 50 -46
    endloop
  endfacet
  facet normal -0.148972 -0.988822 0.00617998
    outer loop
      vertex 0 -9.60001 60
      vertex -50 -2.5 -9.25
      vertex 0 -10 -4
    endloop
  endfacet
  facet normal 0.0776655 0.984978 -0.154226
    outer loop
      vertex 0.2 5.99262 -60.1479
      vertex -49.6 9.59999 -62.1875
      vertex 0.2 6.0144 -60.0088
    endloop
  endfacet
  facet normal 0.0776639 0.984987 -0.154172
    outer loop
      vertex -49.6 9.59999 -62.1875
      vertex 0.2 5.99262 -60.1479
      vertex -49.6 4.155 -96.975
    endloop
  endfacet
  facet normal -0.149456 -0.988747 0.00653701
    outer loop
      vertex -50 -2.10001 51.25
      vertex -50 -2.5 -9.25
      vertex 0 -9.60001 60
    endloop
  endfacet
  facet normal 0.0893553 0.989658 0.112216
    outer loop
      vertex 0.2 5.9676 -59.555
      vertex -49.6 4.75999 -9.25
      vertex -49.6 -2.10001 51.25
    endloop
  endfacet
  facet normal 0.0893553 0.989658 0.112216
    outer loop
      vertex -49.6 4.75999 -9.25
      vertex 0.2 5.9676 -59.555
      vertex 0.2 5.99504 -59.797
    endloop
  endfacet
  facet normal 0.122641 0.982353 0.141213
    outer loop
      vertex 0.2 -0.406809 -3.779
      vertex -49.6 -2.10001 51.25
      vertex 0.2 -9.57001 59.965
    endloop
  endfacet
  facet normal 0.091306 0.989383 0.113072
    outer loop
      vertex 0.2 5.9676 -59.555
      vertex -49.6 -2.10001 51.25
      vertex 0.2 -0.406809 -3.779
    endloop
  endfacet
  facet normal 0.0675638 0.993573 0.0908195
    outer loop
      vertex -49.6 9.59999 -62.1875
      vertex 0.2 5.99504 -59.797
      vertex 0.2 6.0144 -60.0088
    endloop
  endfacet
  facet normal 0.0675626 0.993571 0.0908408
    outer loop
      vertex 0.2 5.99504 -59.797
      vertex -49.6 9.59999 -62.1875
      vertex -49.6 4.75999 -9.25
    endloop
  endfacet
  facet normal -0.14834 -0.988936 0
    outer loop
      vertex 0 -10 -100
      vertex -50 -2.5 -9.25
      vertex -100 5 -14.5
    endloop
  endfacet
  facet normal -0.14834 -0.988936 0
    outer loop
      vertex 0 -10 -100
      vertex -100 5 -14.5
      vertex -150 12.5 -19.75
    endloop
  endfacet
  facet normal -0.14834 -0.988936 0
    outer loop
      vertex 0 -10 -100
      vertex -150 12.5 -19.75
      vertex -200 20 -25
    endloop
  endfacet
  facet normal -0.14834 -0.988936 0
    outer loop
      vertex 0 -10 -100
      vertex -200 20 -25
      vertex -250 27.5 -30.25
    endloop
  endfacet
  facet normal -0.14834 -0.988936 0
    outer loop
      vertex -400 50 -100
      vertex -250 27.5 -30.25
      vertex -300 35 -35.5
    endloop
  endfacet
  facet normal -0.14834 -0.988936 0
    outer loop
      vertex -400 50 -100
      vertex -300 35 -35.5
      vertex -350 42.5 -40.75
    endloop
  endfacet
  facet normal -0.14834 -0.988936 0
    outer loop
      vertex -400 50 -100
      vertex -350 42.5 -40.75
      vertex -400 50 -46
    endloop
  endfacet
  facet normal -0.14834 -0.988936 0
    outer loop
      vertex -250 27.5 -30.25
      vertex -400 50 -100
      vertex 0 -10 -100
    endloop
  endfacet
  facet normal -0.14834 -0.988936 0
    outer loop
      vertex -50 -2.5 -9.25
      vertex 0 -10 -100
      vertex 0 -10 -4
    endloop
  endfacet
  facet normal 0.105193 0.975948 -0.190947
    outer loop
      vertex 0.2 -1.17859 -96.8007
      vertex -49.6 4.155 -96.975
      vertex 0.2 5.99262 -60.1479
    endloop
  endfacet
  facet normal 0.0474511 0.413337 -0.909341
    outer loop
      vertex -49.6 -2.5 -100
      vertex 0.2 -1.17859 -96.8007
      vertex 0.2 -1.20521 -96.8128
    endloop
  endfacet
  facet normal 0.0474511 0.413337 -0.909341
    outer loop
      vertex 0.2 -1.17859 -96.8007
      vertex -49.6 -2.5 -100
      vertex -49.6 4.155 -96.975
    endloop
  endfacet
  facet normal 0.0511943 0.341295 -0.938561
    outer loop
      vertex 0.2 -9.97 -100
      vertex -49.6 -2.5 -100
      vertex 0.2 -1.20521 -96.8128
    endloop
  endfacet
  facet normal -0.149009 -0.988814 0.00653745
    outer loop
      vertex -50 -2.10001 51.25
      vertex -100 5 -14.5
      vertex -50 -2.5 -9.25
    endloop
  endfacet
  facet normal 0.0810893 0.984718 -0.15413
    outer loop
      vertex -49.6 12.625 -62.1875
      vertex -99.6 11.27 -97.15
      vertex -99.6 16.4 -64.375
    endloop
  endfacet
  facet normal -0.149524 -0.988734 0.00693831
    outer loop
      vertex -100 5.39999 42.5
      vertex -100 5 -14.5
      vertex -50 -2.10001 51.25
    endloop
  endfacet
  facet normal 0.0910949 0.989546 0.111802
    outer loop
      vertex -99.6 11.84 -14.5
      vertex -99.6 5.39999 42.5
      vertex -49.6 12.625 -62.1875
    endloop
  endfacet
  facet normal 0.122708 0.982395 0.140864
    outer loop
      vertex -49.6 6.575 -9.25
      vertex -99.6 5.39999 42.5
      vertex -49.6 -2.10001 51.25
    endloop
  endfacet
  facet normal 1 0 0
    outer loop
      vertex -49.6 6.575 -9.25
      vertex -49.6 9.59999 -62.1875
      vertex -49.6 12.625 -62.1875
    endloop
  endfacet
  facet normal 1 0 0
    outer loop
      vertex -49.6 6.575 -9.25
      vertex -49.6 4.75999 -9.25
      vertex -49.6 9.59999 -62.1875
    endloop
  endfacet
  facet normal 1 0 -0
    outer loop
      vertex -49.6 4.75999 -9.25
      vertex -49.6 6.575 -9.25
      vertex -49.6 -2.10001 51.25
    endloop
  endfacet
  facet normal 1 -0 0
    outer loop
      vertex -49.6 9.59999 -62.1875
      vertex -49.6 5.81874 -96.975
      vertex -49.6 12.625 -62.1875
    endloop
  endfacet
  facet normal 1 0 0
    outer loop
      vertex -49.6 4.155 -96.975
      vertex -49.6 5.81874 -96.975
      vertex -49.6 9.59999 -62.1875
    endloop
  endfacet
  facet normal 1 0 0
    outer loop
      vertex -49.6 5.81874 -96.975
      vertex -49.6 4.155 -96.975
      vertex -49.6 -2.5 -100
    endloop
  endfacet
  facet normal 0.0937577 0.989156 0.113046
    outer loop
      vertex -49.6 12.625 -62.1875
      vertex -99.6 5.39999 42.5
      vertex -49.6 6.575 -9.25
    endloop
  endfacet
  facet normal 0.0710232 0.993332 0.0908189
    outer loop
      vertex -99.6 16.4 -64.375
      vertex -99.6 11.84 -14.5
      vertex -49.6 12.625 -62.1875
    endloop
  endfacet
  facet normal 0.10705 0.975753 -0.190909
    outer loop
      vertex -49.6 5.81874 -96.975
      vertex -99.6 11.27 -97.15
      vertex -49.6 12.625 -62.1875
    endloop
  endfacet
  facet normal 0.048245 0.413321 -0.909306
    outer loop
      vertex -49.6 5.81874 -96.975
      vertex -99.6 5 -100
      vertex -99.6 11.27 -97.15
    endloop
  endfacet
  facet normal 0.0511943 0.341295 -0.938561
    outer loop
      vertex -49.6 -2.5 -100
      vertex -99.6 5 -100
      vertex -49.6 5.81874 -96.975
    endloop
  endfacet
  facet normal -0.149049 -0.988805 0.00693881
    outer loop
      vertex -100 5.39999 42.5
      vertex -150 12.5 -19.75
      vertex -100 5 -14.5
    endloop
  endfacet
  facet normal 0.0845117 0.984437 -0.154086
    outer loop
      vertex -99.6 19.25 -64.375
      vertex -149.6 18.385 -97.325
      vertex -149.6 23.2 -66.5625
    endloop
  endfacet
  facet normal -0.149602 -0.988719 0.00739229
    outer loop
      vertex -150 12.9 33.75
      vertex -150 12.5 -19.75
      vertex -100 5.39999 42.5
    endloop
  endfacet
  facet normal 0.092836 0.989437 0.111335
    outer loop
      vertex -149.6 18.92 -19.75
      vertex -149.6 12.9 33.75
      vertex -99.6 19.25 -64.375
    endloop
  endfacet
  facet normal 0.122784 0.982442 0.140472
    outer loop
      vertex -99.6 13.55 -14.5
      vertex -149.6 12.9 33.75
      vertex -99.6 5.39999 42.5
    endloop
  endfacet
  facet normal 1 0 0
    outer loop
      vertex -99.6 13.55 -14.5
      vertex -99.6 16.4 -64.375
      vertex -99.6 19.25 -64.375
    endloop
  endfacet
  facet normal 1 0 0
    outer loop
      vertex -99.6 13.55 -14.5
      vertex -99.6 11.84 -14.5
      vertex -99.6 16.4 -64.375
    endloop
  endfacet
  facet normal 1 0 -0
    outer loop
      vertex -99.6 11.84 -14.5
      vertex -99.6 13.55 -14.5
      vertex -99.6 5.39999 42.5
    endloop
  endfacet
  facet normal 1 -0 0
    outer loop
      vertex -99.6 16.4 -64.375
      vertex -99.6 12.8375 -97.15
      vertex -99.6 19.25 -64.375
    endloop
  endfacet
  facet normal 1 0 0
    outer loop
      vertex -99.6 11.27 -97.15
      vertex -99.6 12.8375 -97.15
      vertex -99.6 16.4 -64.375
    endloop
  endfacet
  facet normal 1 0 0
    outer loop
      vertex -99.6 12.8375 -97.15
      vertex -99.6 11.27 -97.15
      vertex -99.6 5 -100
    endloop
  endfacet
  facet normal 0.0962082 0.988924 0.11302
    outer loop
      vertex -99.6 19.25 -64.375
      vertex -149.6 12.9 33.75
      vertex -99.6 13.55 -14.5
    endloop
  endfacet
  facet normal 0.074481 0.99308 0.0907959
    outer loop
      vertex -149.6 23.2 -66.5625
      vertex -149.6 18.92 -19.75
      vertex -99.6 19.25 -64.375
    endloop
  endfacet
  facet normal 0.108906 0.975555 -0.19087
    outer loop
      vertex -99.6 12.8375 -97.15
      vertex -149.6 18.385 -97.325
      vertex -99.6 19.25 -64.375
    endloop
  endfacet
  facet normal 0.0490386 0.413305 -0.909271
    outer loop
      vertex -99.6 12.8375 -97.15
      vertex -149.6 12.5 -100
      vertex -149.6 18.385 -97.325
    endloop
  endfacet
  facet normal 0.0511942 0.341295 -0.938561
    outer loop
      vertex -99.6 5 -100
      vertex -149.6 12.5 -100
      vertex -99.6 12.8375 -97.15
    endloop
  endfacet
  facet normal -0.149096 -0.988795 0.00739286
    outer loop
      vertex -150 12.9 33.75
      vertex -200 20 -25
      vertex -150 12.5 -19.75
    endloop
  endfacet
  facet normal 0.0879311 0.984144 -0.15404
    outer loop
      vertex -149.6 25.875 -66.5625
      vertex -199.6 25.5 -97.5
      vertex -199.6 30 -68.75
    endloop
  endfacet
  facet normal -0.149689 -0.988701 0.00790961
    outer loop
      vertex -200 20.4 25
      vertex -200 20 -25
      vertex -150 12.9 33.75
    endloop
  endfacet
  facet normal 0.0945801 0.989332 0.110805
    outer loop
      vertex -199.6 26 -25
      vertex -199.6 20.4 25
      vertex -149.6 25.875 -66.5625
    endloop
  endfacet
  facet normal 0.122869 0.982494 0.140028
    outer loop
      vertex -149.6 20.525 -19.75
      vertex -199.6 20.4 25
      vertex -149.6 12.9 33.75
    endloop
  endfacet
  facet normal 1 0 0
    outer loop
      vertex -149.6 20.525 -19.75
      vertex -149.6 23.2 -66.5625
      vertex -149.6 25.875 -66.5625
    endloop
  endfacet
  facet normal 1 0 0
    outer loop
      vertex -149.6 20.525 -19.75
      vertex -149.6 18.92 -19.75
      vertex -149.6 23.2 -66.5625
    endloop
  endfacet
  facet normal 1 0 -0
    outer loop
      vertex -149.6 18.92 -19.75
      vertex -149.6 20.525 -19.75
      vertex -149.6 12.9 33.75
    endloop
  endfacet
  facet normal 1 -0 0
    outer loop
      vertex -149.6 23.2 -66.5625
      vertex -149.6 19.8562 -97.325
      vertex -149.6 25.875 -66.5625
    endloop
  endfacet
  facet normal 1 0 0
    outer loop
      vertex -149.6 18.385 -97.325
      vertex -149.6 19.8562 -97.325
      vertex -149.6 23.2 -66.5625
    endloop
  endfacet
  facet normal 1 0 0
    outer loop
      vertex -149.6 19.8562 -97.325
      vertex -149.6 18.385 -97.325
      vertex -149.6 12.5 -100
    endloop
  endfacet
  facet normal 0.0986567 0.988686 0.112993
    outer loop
      vertex -149.6 25.875 -66.5625
      vertex -199.6 20.4 25
      vertex -149.6 20.525 -19.75
    endloop
  endfacet
  facet normal 0.0779362 0.992817 0.0907719
    outer loop
      vertex -199.6 30 -68.75
      vertex -199.6 26 -25
      vertex -149.6 25.875 -66.5625
    endloop
  endfacet
  facet normal 0.110762 0.975354 -0.190832
    outer loop
      vertex -149.6 19.8562 -97.325
      vertex -199.6 25.5 -97.5
      vertex -149.6 25.875 -66.5625
    endloop
  endfacet
  facet normal 0.0498327 0.413289 -0.909235
    outer loop
      vertex -149.6 19.8562 -97.325
      vertex -199.6 20 -100
      vertex -199.6 25.5 -97.5
    endloop
  endfacet
  facet normal 0.0511945 0.341297 -0.93856
    outer loop
      vertex -149.6 12.5 -100
      vertex -199.6 20 -100
      vertex -149.6 19.8562 -97.325
    endloop
  endfacet
  facet normal -0.149148 -0.988783 0.00791027
    outer loop
      vertex -200 20.4 25
      vertex -250 27.5 -30.25
      vertex -200 20 -25
    endloop
  endfacet
  facet normal 0.0913474 0.98384 -0.153992
    outer loop
      vertex -199.6 32.5 -68.75
      vertex -249.6 32.615 -97.675
      vertex -249.6 36.8 -70.9375
    endloop
  endfacet
  facet normal -0.149791 -0.988681 0.00850478
    outer loop
      vertex -250 27.9 16.25
      vertex -250 27.5 -30.25
      vertex -200 20.4 25
    endloop
  endfacet
  facet normal 0.0963277 0.989231 0.110198
    outer loop
      vertex -249.6 33.08 -30.25
      vertex -249.6 27.9 16.25
      vertex -199.6 32.5 -68.75
    endloop
  endfacet
  facet normal 0.122967 0.982554 0.139523
    outer loop
      vertex -199.6 27.5 -25
      vertex -249.6 27.9 16.25
      vertex -199.6 20.4 25
    endloop
  endfacet
  facet normal 1 0 0
    outer loop
      vertex -199.6 27.5 -25
      vertex -199.6 30 -68.75
      vertex -199.6 32.5 -68.75
    endloop
  endfacet
  facet normal 1 0 0
    outer loop
      vertex -199.6 27.5 -25
      vertex -199.6 26 -25
      vertex -199.6 30 -68.75
    endloop
  endfacet
  facet normal 1 0 -0
    outer loop
      vertex -199.6 26 -25
      vertex -199.6 27.5 -25
      vertex -199.6 20.4 25
    endloop
  endfacet
  facet normal 1 -0 0
    outer loop
      vertex -199.6 30 -68.75
      vertex -199.6 26.875 -97.5
      vertex -199.6 32.5 -68.75
    endloop
  endfacet
  facet normal 1 0 0
    outer loop
      vertex -199.6 25.5 -97.5
      vertex -199.6 26.875 -97.5
      vertex -199.6 30 -68.75
    endloop
  endfacet
  facet normal 1 0 0
    outer loop
      vertex -199.6 26.875 -97.5
      vertex -199.6 25.5 -97.5
      vertex -199.6 20 -100
    endloop
  endfacet
  facet normal 0.101103 0.988442 0.112965
    outer loop
      vertex -199.6 32.5 -68.75
      vertex -249.6 27.9 16.25
      vertex -199.6 27.5 -25
    endloop
  endfacet
  facet normal 0.0813885 0.992543 0.0907468
    outer loop
      vertex -249.6 36.8 -70.9375
      vertex -249.6 33.08 -30.25
      vertex -199.6 32.5 -68.75
    endloop
  endfacet
  facet normal 0.112615 0.97515 -0.19079
    outer loop
      vertex -199.6 26.875 -97.5
      vertex -249.6 32.615 -97.675
      vertex -199.6 32.5 -68.75
    endloop
  endfacet
  facet normal 0.0506259 0.413272 -0.909199
    outer loop
      vertex -199.6 26.875 -97.5
      vertex -249.6 27.5 -100
      vertex -249.6 32.615 -97.675
    endloop
  endfacet
  facet normal 0.0511942 0.341295 -0.938561
    outer loop
      vertex -199.6 20 -100
      vertex -249.6 27.5 -100
      vertex -199.6 26.875 -97.5
    endloop
  endfacet
  facet normal -0.149208 -0.988769 0.00850554
    outer loop
      vertex -250 27.9 16.25
      vertex -300 35 -35.5
      vertex -250 27.5 -30.25
    endloop
  endfacet
  facet normal 0.0947605 0.983525 -0.153943
    outer loop
      vertex -249.6 39.125 -70.9375
      vertex -299.6 39.73 -97.85
      vertex -299.6 43.6 -73.125
    endloop
  endfacet
  facet normal 0.103548 0.988192 0.112936
    outer loop
      vertex -249.6 39.125 -70.9375
      vertex -299.6 35.4 7.5
      vertex -249.6 34.475 -30.25
    endloop
  endfacet
  facet normal 1 0 0
    outer loop
      vertex -249.6 34.475 -30.25
      vertex -249.6 36.8 -70.9375
      vertex -249.6 39.125 -70.9375
    endloop
  endfacet
  facet normal 1 0 0
    outer loop
      vertex -249.6 34.475 -30.25
      vertex -249.6 33.08 -30.25
      vertex -249.6 36.8 -70.9375
    endloop
  endfacet
  facet normal 1 0 -0
    outer loop
      vertex -249.6 33.08 -30.25
      vertex -249.6 34.475 -30.25
      vertex -249.6 27.9 16.25
    endloop
  endfacet
  facet normal 1 -0 0
    outer loop
      vertex -249.6 36.8 -70.9375
      vertex -249.6 33.8937 -97.675
      vertex -249.6 39.125 -70.9375
    endloop
  endfacet
  facet normal 1 0 0
    outer loop
      vertex -249.6 32.615 -97.675
      vertex -249.6 33.8937 -97.675
      vertex -249.6 36.8 -70.9375
    endloop
  endfacet
  facet normal 1 0 0
    outer loop
      vertex -249.6 33.8937 -97.675
      vertex -249.6 32.615 -97.675
      vertex -249.6 27.5 -100
    endloop
  endfacet
  facet normal 0.123079 0.982623 0.138941
    outer loop
      vertex -249.6 34.475 -30.25
      vertex -299.6 35.4 7.5
      vertex -249.6 27.9 16.25
    endloop
  endfacet
  facet normal -0.149908 -0.988657 0.00919681
    outer loop
      vertex -300 35.4 7.5
      vertex -300 35 -35.5
      vertex -250 27.9 16.25
    endloop
  endfacet
  facet normal 0.0980798 0.989137 0.109495
    outer loop
      vertex -299.6 40.16 -35.5
      vertex -299.6 35.4 7.5
      vertex -249.6 39.125 -70.9375
    endloop
  endfacet
  facet normal 0.0848379 0.992256 0.0907206
    outer loop
      vertex -299.6 43.6 -73.125
      vertex -299.6 40.16 -35.5
      vertex -249.6 39.125 -70.9375
    endloop
  endfacet
  facet normal 0.114469 0.974941 -0.190751
    outer loop
      vertex -249.6 33.8937 -97.675
      vertex -299.6 39.73 -97.85
      vertex -249.6 39.125 -70.9375
    endloop
  endfacet
  facet normal 0.0514197 0.413256 -0.909162
    outer loop
      vertex -249.6 33.8937 -97.675
      vertex -299.6 35 -100
      vertex -299.6 39.73 -97.85
    endloop
  endfacet
  facet normal 0.0511946 0.341297 -0.93856
    outer loop
      vertex -249.6 27.5 -100
      vertex -299.6 35 -100
      vertex -249.6 33.8937 -97.675
    endloop
  endfacet
  facet normal -0.149279 -0.988752 0.0091977
    outer loop
      vertex -300 35.4 7.5
      vertex -350 42.5 -40.75
      vertex -300 35 -35.5
    endloop
  endfacet
  facet normal 0.0981703 0.983199 -0.153892
    outer loop
      vertex -299.6 45.75 -73.125
      vertex -349.6 46.845 -98.025
      vertex -349.6 50.4 -75.3125
    endloop
  endfacet
  facet normal 0.105991 0.987936 0.112907
    outer loop
      vertex -299.6 45.75 -73.125
      vertex -349.6 42.9 -1.25
      vertex -299.6 41.45 -35.5
    endloop
  endfacet
  facet normal 1 0 0
    outer loop
      vertex -299.6 41.45 -35.5
      vertex -299.6 43.6 -73.125
      vertex -299.6 45.75 -73.125
    endloop
  endfacet
  facet normal 1 0 0
    outer loop
      vertex -299.6 41.45 -35.5
      vertex -299.6 40.16 -35.5
      vertex -299.6 43.6 -73.125
    endloop
  endfacet
  facet normal 1 0 -0
    outer loop
      vertex -299.6 40.16 -35.5
      vertex -299.6 41.45 -35.5
      vertex -299.6 35.4 7.5
    endloop
  endfacet
  facet normal 1 -0 0
    outer loop
      vertex -299.6 43.6 -73.125
      vertex -299.6 40.9125 -97.85
      vertex -299.6 45.75 -73.125
    endloop
  endfacet
  facet normal 1 0 0
    outer loop
      vertex -299.6 39.73 -97.85
      vertex -299.6 40.9125 -97.85
      vertex -299.6 43.6 -73.125
    endloop
  endfacet
  facet normal 1 0 0
    outer loop
      vertex -299.6 40.9125 -97.85
      vertex -299.6 39.73 -97.85
      vertex -299.6 35 -100
    endloop
  endfacet
  facet normal 0.123209 0.982702 0.138264
    outer loop
      vertex -299.6 41.45 -35.5
      vertex -349.6 42.9 -1.25
      vertex -299.6 35.4 7.5
    endloop
  endfacet
  facet normal -0.150046 -0.988628 0.0100114
    outer loop
      vertex -350 42.9 -1.25
      vertex -350 42.5 -40.75
      vertex -300 35.4 7.5
    endloop
  endfacet
  facet normal 0.0998379 0.989052 0.10867
    outer loop
      vertex -349.6 47.24 -40.75
      vertex -349.6 42.9 -1.25
      vertex -299.6 45.75 -73.125
    endloop
  endfacet
  facet normal 0.0882843 0.991958 0.0906933
    outer loop
      vertex -349.6 50.4 -75.3125
      vertex -349.6 47.24 -40.75
      vertex -299.6 45.75 -73.125
    endloop
  endfacet
  facet normal 0.116319 0.974731 -0.190708
    outer loop
      vertex -299.6 40.9125 -97.85
      vertex -349.6 46.845 -98.025
      vertex -299.6 45.75 -73.125
    endloop
  endfacet
  facet normal 0.0522127 0.413239 -0.909125
    outer loop
      vertex -299.6 40.9125 -97.85
      vertex -349.6 42.5 -100
      vertex -349.6 46.845 -98.025
    endloop
  endfacet
  facet normal 0.0511942 0.341295 -0.938561
    outer loop
      vertex -299.6 35 -100
      vertex -349.6 42.5 -100
      vertex -299.6 40.9125 -97.85
    endloop
  endfacet
  facet normal -0.149361 -0.988732 0.0100125
    outer loop
      vertex -350 42.9 -1.25
      vertex -400 50 -46
      vertex -350 42.5 -40.75
    endloop
  endfacet
  facet normal 0.101577 0.982861 -0.153839
    outer loop
      vertex -349.6 52.375 -75.3125
      vertex -399.6 53.96 -98.2
      vertex -399.6 57.2 -77.5
    endloop
  endfacet
  facet normal 0 0.987971 -0.154639
    outer loop
      vertex -399.6 53.96 -98.2
      vertex -400 57.2 -77.5
      vertex -399.6 57.2 -77.5
    endloop
  endfacet
  facet normal 0 0.987971 -0.154639
    outer loop
      vertex -400 57.2 -77.5
      vertex -399.6 53.96 -98.2
      vertex -400 53.96 -98.2
    endloop
  endfacet
  facet normal 0.108433 0.987675 0.112877
    outer loop
      vertex -349.6 52.375 -75.3125
      vertex -399.6 50.4 -10
      vertex -349.6 48.425 -40.75
    endloop
  endfacet
  facet normal 1 0 0
    outer loop
      vertex -349.6 48.425 -40.75
      vertex -349.6 50.4 -75.3125
      vertex -349.6 52.375 -75.3125
    endloop
  endfacet
  facet normal 1 0 0
    outer loop
      vertex -349.6 48.425 -40.75
      vertex -349.6 47.24 -40.75
      vertex -349.6 50.4 -75.3125
    endloop
  endfacet
  facet normal 1 0 -0
    outer loop
      vertex -349.6 47.24 -40.75
      vertex -349.6 48.425 -40.75
      vertex -349.6 42.9 -1.25
    endloop
  endfacet
  facet normal 1 -0 0
    outer loop
      vertex -349.6 50.4 -75.3125
      vertex -349.6 47.9312 -98.025
      vertex -349.6 52.375 -75.3125
    endloop
  endfacet
  facet normal 1 0 0
    outer loop
      vertex -349.6 46.845 -98.025
      vertex -349.6 47.9312 -98.025
      vertex -349.6 50.4 -75.3125
    endloop
  endfacet
  facet normal 1 0 0
    outer loop
      vertex -349.6 47.9312 -98.025
      vertex -349.6 46.845 -98.025
      vertex -349.6 42.5 -100
    endloop
  endfacet
  facet normal 0.123362 0.982794 0.137467
    outer loop
      vertex -349.6 48.425 -40.75
      vertex -399.6 50.4 -10
      vertex -349.6 42.9 -1.25
    endloop
  endfacet
  facet normal 0 0.995846 0.0910488
    outer loop
      vertex -399.6 57.2 -77.5
      vertex -400 54.32 -46
      vertex -399.6 54.32 -46
    endloop
  endfacet
  facet normal 0 0.995846 0.0910488
    outer loop
      vertex -400 54.32 -46
      vertex -399.6 57.2 -77.5
      vertex -400 57.2 -77.5
    endloop
  endfacet
  facet normal -0.150211 -0.988593 0.0109844
    outer loop
      vertex -400 50.4 -10
      vertex -400 50 -46
      vertex -350 42.9 -1.25
    endloop
  endfacet
  facet normal 0 0.994124 0.108249
    outer loop
      vertex -399.6 54.32 -46
      vertex -400 50.4 -10
      vertex -399.6 50.4 -10
    endloop
  endfacet
  facet normal 0 0.994124 0.108249
    outer loop
      vertex -400 50.4 -10
      vertex -399.6 54.32 -46
      vertex -400 54.32 -46
    endloop
  endfacet
  facet normal 0.101604 0.988979 0.107689
    outer loop
      vertex -399.6 54.32 -46
      vertex -399.6 50.4 -10
      vertex -349.6 52.375 -75.3125
    endloop
  endfacet
  facet normal 0.0917274 0.991648 0.090665
    outer loop
      vertex -399.6 57.2 -77.5
      vertex -399.6 54.32 -46
      vertex -349.6 52.375 -75.3125
    endloop
  endfacet
  facet normal 0 0.413803 -0.910366
    outer loop
      vertex -400 50 -100
      vertex -399.6 53.96 -98.2
      vertex -399.6 50 -100
    endloop
  endfacet
  facet normal 0 0.413803 -0.910366
    outer loop
      vertex -399.6 53.96 -98.2
      vertex -400 50 -100
      vertex -400 53.96 -98.2
    endloop
  endfacet
  facet normal 0.118171 0.974516 -0.190668
    outer loop
      vertex -349.6 47.9312 -98.025
      vertex -399.6 53.96 -98.2
      vertex -349.6 52.375 -75.3125
    endloop
  endfacet
  facet normal 0.0530064 0.413221 -0.909087
    outer loop
      vertex -349.6 47.9312 -98.025
      vertex -399.6 50 -100
      vertex -399.6 53.96 -98.2
    endloop
  endfacet
  facet normal -1 0 0
    outer loop
      vertex -400 50 -100
      vertex -400 57.2 -77.5
      vertex -400 53.96 -98.2
    endloop
  endfacet
  facet normal -1 0 0
    outer loop
      vertex -400 57.2 -77.5
      vertex -400 50 -46
      vertex -400 54.32 -46
    endloop
  endfacet
  facet normal -1 -0 0
    outer loop
      vertex -400 57.2 -77.5
      vertex -400 50 -100
      vertex -400 50 -46
    endloop
  endfacet
  facet normal -1 0 0
    outer loop
      vertex -400 54.32 -46
      vertex -400 50 -46
      vertex -400 50.4 -10
    endloop
  endfacet
  facet normal 0.0511947 0.341298 -0.93856
    outer loop
      vertex -349.6 42.5 -100
      vertex -399.6 50 -100
      vertex -349.6 47.9312 -98.025
    endloop
  endfacet
endsolid OpenSCAD_Model
