solid OpenSCAD_Model
  facet normal -0.670181 0.665441 0.328703
    outer loop
      vertex -8 19.1865 225.2
      vertex -16.2635 23.2132 200.2
      vertex -11.3137 15.8492 225.2
    endloop
  endfacet
  facet normal -0.820909 0.482924 0.304784
    outer loop
      vertex -16.2635 23.2132 200.2
      vertex -19.9186 17 200.2
      vertex -11.3137 15.8492 225.2
    endloop
  endfacet
  facet normal -0.831317 -0.486018 0.269627
    outer loop
      vertex -13.8564 -9.5 225.2
      vertex -19.9186 -13 200.2
      vertex -11.3137 -13.8492 225.2
    endloop
  endfacet
  facet normal -0.91392 0.288424 0.28559
    outer loop
      vertex -13.8564 11.5 225.2
      vertex -22.2163 9.76457 200.2
      vertex -15.4548 6.4352 225.2
    endloop
  endfacet
  facet normal -0.822128 0.480646 0.305098
    outer loop
      vertex -11.3137 15.8492 225.2
      vertex -19.9186 17 200.2
      vertex -13.8564 11.5 225.2
    endloop
  endfacet
  facet normal -0.444987 0.823629 0.351599
    outer loop
      vertex -5.95284 30.9778 200.2
      vertex -11.5 27.9808 200.2
      vertex -4.1411 21.2844 225.2
    endloop
  endfacet
  facet normal -0.157446 0.916896 0.366759
    outer loop
      vertex 0 32 200.2
      vertex -5.95284 30.9778 200.2
      vertex 0 22 225.2
    endloop
  endfacet
  facet normal -0.913477 0.290086 0.285326
    outer loop
      vertex -19.9186 17 200.2
      vertex -22.2163 9.76457 200.2
      vertex -13.8564 11.5 225.2
    endloop
  endfacet
  facet normal -0.959487 -0.0962452 0.264806
    outer loop
      vertex -16 1 225.2
      vertex -23 2 200.2
      vertex -15.4548 -4.4352 225.2
    endloop
  endfacet
  facet normal -0.681225 -0.676408 0.280007
    outer loop
      vertex -11.3137 -13.8492 225.2
      vertex -16.2635 -19.2132 200.2
      vertex -8 -17.1865 225.2
    endloop
  endfacet
  facet normal 0.91392 0.288424 0.28559
    outer loop
      vertex 22.2163 9.76457 200.2
      vertex 13.8564 11.5 225.2
      vertex 15.4548 6.4352 225.2
    endloop
  endfacet
  facet normal -0.95947 -0.096842 0.264648
    outer loop
      vertex -15.4548 -4.4352 225.2
      vertex -23 2 200.2
      vertex -22.2163 -5.76457 200.2
    endloop
  endfacet
  facet normal -0.456773 -0.840194 0.292289
    outer loop
      vertex -8 -17.1865 225.2
      vertex -11.5 -23.9808 200.2
      vertex -4.1411 -19.2844 225.2
    endloop
  endfacet
  facet normal 0.158405 0.916672 0.366906
    outer loop
      vertex 5.95284 30.9778 200.2
      vertex 0 22 225.2
      vertex 4.1411 21.2844 225.2
    endloop
  endfacet
  facet normal 0.162386 -0.939712 0.300951
    outer loop
      vertex 4.1411 -19.2844 225.2
      vertex 0 -20 225.2
      vertex 5.95284 -26.9778 200.2
    endloop
  endfacet
  facet normal -0.454635 -0.841486 0.291903
    outer loop
      vertex -4.1411 -19.2844 225.2
      vertex -11.5 -23.9808 200.2
      vertex -5.95284 -26.9778 200.2
    endloop
  endfacet
  facet normal 0.161402 -0.939937 0.30078
    outer loop
      vertex 0 -20 225.2
      vertex 0 -28 200.2
      vertex 5.95284 -26.9778 200.2
    endloop
  endfacet
  facet normal -0.679213 -0.678629 0.279522
    outer loop
      vertex -8 -17.1865 225.2
      vertex -16.2635 -19.2132 200.2
      vertex -11.5 -23.9808 200.2
    endloop
  endfacet
  facet normal 0.157446 0.916896 0.366759
    outer loop
      vertex 0 32 200.2
      vertex 0 22 225.2
      vertex 5.95284 30.9778 200.2
    endloop
  endfacet
  facet normal 0.444987 0.823629 0.351599
    outer loop
      vertex 5.95284 30.9778 200.2
      vertex 4.1411 21.2844 225.2
      vertex 11.5 27.9808 200.2
    endloop
  endfacet
  facet normal -0.161402 -0.939937 0.30078
    outer loop
      vertex 0 -20 225.2
      vertex -5.95284 -26.9778 200.2
      vertex 0 -28 200.2
    endloop
  endfacet
  facet normal -0.668179 0.667605 0.32839
    outer loop
      vertex -11.5 27.9808 200.2
      vertex -16.2635 23.2132 200.2
      vertex -8 19.1865 225.2
    endloop
  endfacet
  facet normal 0.959487 -0.0962452 0.264806
    outer loop
      vertex 16 1 225.2
      vertex 15.4548 -4.4352 225.2
      vertex 23 2 200.2
    endloop
  endfacet
  facet normal 0.456773 -0.840194 0.292289
    outer loop
      vertex 8 -17.1865 225.2
      vertex 4.1411 -19.2844 225.2
      vertex 11.5 -23.9808 200.2
    endloop
  endfacet
  facet normal 0.668179 0.667605 0.32839
    outer loop
      vertex 11.5 27.9808 200.2
      vertex 8 19.1865 225.2
      vertex 16.2635 23.2132 200.2
    endloop
  endfacet
  facet normal 0.831317 -0.486018 0.269627
    outer loop
      vertex 13.8564 -9.5 225.2
      vertex 11.3137 -13.8492 225.2
      vertex 19.9186 -13 200.2
    endloop
  endfacet
  facet normal 0.670181 0.665441 0.328703
    outer loop
      vertex 16.2635 23.2132 200.2
      vertex 8 19.1865 225.2
      vertex 11.3137 15.8492 225.2
    endloop
  endfacet
  facet normal -0.158405 0.916672 0.366906
    outer loop
      vertex 0 22 225.2
      vertex -5.95284 30.9778 200.2
      vertex -4.1411 21.2844 225.2
    endloop
  endfacet
  facet normal 0.822128 0.480646 0.305098
    outer loop
      vertex 19.9186 17 200.2
      vertex 11.3137 15.8492 225.2
      vertex 13.8564 11.5 225.2
    endloop
  endfacet
  facet normal 0.95947 -0.096842 0.264648
    outer loop
      vertex 23 2 200.2
      vertex 15.4548 -4.4352 225.2
      vertex 22.2163 -5.76457 200.2
    endloop
  endfacet
  facet normal -0.957508 0.0960468 0.271944
    outer loop
      vertex -15.4548 6.4352 225.2
      vertex -23 2 200.2
      vertex -16 1 225.2
    endloop
  endfacet
  facet normal 0.454635 -0.841486 0.291903
    outer loop
      vertex 11.5 -23.9808 200.2
      vertex 4.1411 -19.2844 225.2
      vertex 5.95284 -26.9778 200.2
    endloop
  endfacet
  facet normal 0.919755 -0.290265 0.264192
    outer loop
      vertex 15.4548 -4.4352 225.2
      vertex 13.8564 -9.5 225.2
      vertex 22.2163 -5.76457 200.2
    endloop
  endfacet
  facet normal 0.681225 -0.676408 0.280007
    outer loop
      vertex 11.3137 -13.8492 225.2
      vertex 8 -17.1865 225.2
      vertex 16.2635 -19.2132 200.2
    endloop
  endfacet
  facet normal -0.95748 0.0966412 0.27183
    outer loop
      vertex -22.2163 9.76457 200.2
      vertex -23 2 200.2
      vertex -15.4548 6.4352 225.2
    endloop
  endfacet
  facet normal -0.447085 0.822372 0.351879
    outer loop
      vertex -4.1411 21.2844 225.2
      vertex -11.5 27.9808 200.2
      vertex -8 19.1865 225.2
    endloop
  endfacet
  facet normal 0 0 1
    outer loop
      vertex -16 1 225.2
      vertex 16 1 225.2
      vertex 15.4548 6.4352 225.2
    endloop
  endfacet
  facet normal 0 0 1
    outer loop
      vertex -15.4548 6.4352 225.2
      vertex 15.4548 6.4352 225.2
      vertex 13.8564 11.5 225.2
    endloop
  endfacet
  facet normal 0 0 1
    outer loop
      vertex 16 1 225.2
      vertex -16 1 225.2
      vertex 15.4548 -4.4352 225.2
    endloop
  endfacet
  facet normal 0 0 1
    outer loop
      vertex -13.8564 11.5 225.2
      vertex 13.8564 11.5 225.2
      vertex 11.3137 15.8492 225.2
    endloop
  endfacet
  facet normal 0 -0 1
    outer loop
      vertex -15.4548 -4.4352 225.2
      vertex 15.4548 -4.4352 225.2
      vertex -16 1 225.2
    endloop
  endfacet
  facet normal 0 0 1
    outer loop
      vertex -11.3137 15.8492 225.2
      vertex 11.3137 15.8492 225.2
      vertex 8 19.1865 225.2
    endloop
  endfacet
  facet normal 0 0 1
    outer loop
      vertex 15.4548 -4.4352 225.2
      vertex -15.4548 -4.4352 225.2
      vertex 13.8564 -9.5 225.2
    endloop
  endfacet
  facet normal 0 0 1
    outer loop
      vertex -8 19.1865 225.2
      vertex 8 19.1865 225.2
      vertex 4.1411 21.2844 225.2
    endloop
  endfacet
  facet normal 0 -0 1
    outer loop
      vertex -13.8564 -9.5 225.2
      vertex 13.8564 -9.5 225.2
      vertex -15.4548 -4.4352 225.2
    endloop
  endfacet
  facet normal 0 0 1
    outer loop
      vertex -4.1411 21.2844 225.2
      vertex 4.1411 21.2844 225.2
      vertex 0 22 225.2
    endloop
  endfacet
  facet normal 0 0 1
    outer loop
      vertex 13.8564 -9.5 225.2
      vertex -13.8564 -9.5 225.2
      vertex 11.3137 -13.8492 225.2
    endloop
  endfacet
  facet normal 0 0 1
    outer loop
      vertex 4.1411 21.2844 225.2
      vertex -4.1411 21.2844 225.2
      vertex -8 19.1865 225.2
    endloop
  endfacet
  facet normal 0 -0 1
    outer loop
      vertex -11.3137 -13.8492 225.2
      vertex 11.3137 -13.8492 225.2
      vertex -13.8564 -9.5 225.2
    endloop
  endfacet
  facet normal 0 0 1
    outer loop
      vertex 8 19.1865 225.2
      vertex -8 19.1865 225.2
      vertex -11.3137 15.8492 225.2
    endloop
  endfacet
  facet normal 0 0 1
    outer loop
      vertex 11.3137 -13.8492 225.2
      vertex -11.3137 -13.8492 225.2
      vertex 8 -17.1865 225.2
    endloop
  endfacet
  facet normal 0 0 1
    outer loop
      vertex 11.3137 15.8492 225.2
      vertex -11.3137 15.8492 225.2
      vertex -13.8564 11.5 225.2
    endloop
  endfacet
  facet normal 0 0 1
    outer loop
      vertex 15.4548 6.4352 225.2
      vertex -15.4548 6.4352 225.2
      vertex -16 1 225.2
    endloop
  endfacet
  facet normal 0 0 1
    outer loop
      vertex 13.8564 11.5 225.2
      vertex -13.8564 11.5 225.2
      vertex -15.4548 6.4352 225.2
    endloop
  endfacet
  facet normal 0 -0 1
    outer loop
      vertex -8 -17.1865 225.2
      vertex 8 -17.1865 225.2
      vertex -11.3137 -13.8492 225.2
    endloop
  endfacet
  facet normal 0 0 1
    outer loop
      vertex 8 -17.1865 225.2
      vertex -8 -17.1865 225.2
      vertex 4.1411 -19.2844 225.2
    endloop
  endfacet
  facet normal 0 0 1
    outer loop
      vertex 4.1411 -19.2844 225.2
      vertex -4.1411 -19.2844 225.2
      vertex 0 -20 225.2
    endloop
  endfacet
  facet normal 0 -0 1
    outer loop
      vertex -4.1411 -19.2844 225.2
      vertex 4.1411 -19.2844 225.2
      vertex -8 -17.1865 225.2
    endloop
  endfacet
  facet normal 0.447085 0.822372 0.351879
    outer loop
      vertex 11.5 27.9808 200.2
      vertex 4.1411 21.2844 225.2
      vertex 8 19.1865 225.2
    endloop
  endfacet
  facet normal 0.679213 -0.678629 0.279522
    outer loop
      vertex 16.2635 -19.2132 200.2
      vertex 8 -17.1865 225.2
      vertex 11.5 -23.9808 200.2
    endloop
  endfacet
  facet normal 0.820909 0.482924 0.304784
    outer loop
      vertex 16.2635 23.2132 200.2
      vertex 11.3137 15.8492 225.2
      vertex 19.9186 17 200.2
    endloop
  endfacet
  facet normal 0.913477 0.290086 0.285326
    outer loop
      vertex 19.9186 17 200.2
      vertex 13.8564 11.5 225.2
      vertex 22.2163 9.76457 200.2
    endloop
  endfacet
  facet normal 0.919335 -0.291946 0.2638
    outer loop
      vertex 22.2163 -5.76457 200.2
      vertex 13.8564 -9.5 225.2
      vertex 19.9186 -13 200.2
    endloop
  endfacet
  facet normal -0.830115 -0.48834 0.269134
    outer loop
      vertex -11.3137 -13.8492 225.2
      vertex -19.9186 -13 200.2
      vertex -16.2635 -19.2132 200.2
    endloop
  endfacet
  facet normal -0.162386 -0.939712 0.300951
    outer loop
      vertex -4.1411 -19.2844 225.2
      vertex -5.95284 -26.9778 200.2
      vertex 0 -20 225.2
    endloop
  endfacet
  facet normal -0.919755 -0.290265 0.264192
    outer loop
      vertex -15.4548 -4.4352 225.2
      vertex -22.2163 -5.76457 200.2
      vertex -13.8564 -9.5 225.2
    endloop
  endfacet
  facet normal -0.919335 -0.291946 0.2638
    outer loop
      vertex -13.8564 -9.5 225.2
      vertex -22.2163 -5.76457 200.2
      vertex -19.9186 -13 200.2
    endloop
  endfacet
  facet normal 0.95748 0.0966412 0.27183
    outer loop
      vertex 22.2163 9.76457 200.2
      vertex 15.4548 6.4352 225.2
      vertex 23 2 200.2
    endloop
  endfacet
  facet normal 0.957508 0.0960468 0.271944
    outer loop
      vertex 23 2 200.2
      vertex 15.4548 6.4352 225.2
      vertex 16 1 225.2
    endloop
  endfacet
  facet normal 0.830115 -0.48834 0.269134
    outer loop
      vertex 19.9186 -13 200.2
      vertex 11.3137 -13.8492 225.2
      vertex 16.2635 -19.2132 200.2
    endloop
  endfacet
  facet normal 0.994514 0.097259 0.03851
    outer loop
      vertex 25.1141 12.0587 120.2
      vertex 23 2 200.2
      vertex 26 3 120.2
    endloop
  endfacet
  facet normal -0.486499 -0.872499 0.0454407
    outer loop
      vertex -11.5 -23.9808 200.2
      vertex -13 -27.3109 120.2
      vertex -6.72929 -30.8074 120.2
    endloop
  endfacet
  facet normal 0.994192 0.100347 0.0388897
    outer loop
      vertex 25.1141 12.0587 120.2
      vertex 22.2163 9.76457 200.2
      vertex 23 2 200.2
    endloop
  endfacet
  facet normal -0.169034 -0.98438 0.049219
    outer loop
      vertex 0 -28 200.2
      vertex -5.95284 -26.9778 200.2
      vertex 0 -32 120.2
    endloop
  endfacet
  facet normal 0.717865 -0.69497 0.0410613
    outer loop
      vertex 16.2635 -19.2132 200.2
      vertex 13 -27.3109 120.2
      vertex 18.3848 -21.7487 120.2
    endloop
  endfacet
  facet normal -0.860772 0.506375 0.0515327
    outer loop
      vertex -18.3848 27.7487 120.2
      vertex -19.9186 17 200.2
      vertex -16.2635 23.2132 200.2
    endloop
  endfacet
  facet normal 0.995252 0.0973312 0
    outer loop
      vertex 26 3 120.2
      vertex 25.1141 12.0587 120
      vertex 25.1141 12.0587 120.2
    endloop
  endfacet
  facet normal 0.995252 0.0973312 0
    outer loop
      vertex 25.1141 12.0587 120
      vertex 26 3 120.2
      vertex 26 3 120
    endloop
  endfacet
  facet normal 0.706126 0.705519 0.0602459
    outer loop
      vertex 13 33.3109 120.2
      vertex 11.5 27.9808 200.2
      vertex 16.2635 23.2132 200.2
    endloop
  endfacet
  facet normal 0.955777 -0.294093 0
    outer loop
      vertex 22.5167 -14.5 120.2
      vertex 25.1141 -6.05867 120
      vertex 25.1141 -6.05867 120.2
    endloop
  endfacet
  facet normal 0.955777 -0.294093 0
    outer loop
      vertex 25.1141 -6.05867 120
      vertex 22.5167 -14.5 120.2
      vertex 22.5167 -14.5 120
    endloop
  endfacet
  facet normal -0.718471 -0.695557 0
    outer loop
      vertex -13 -27.3109 120
      vertex -18.3848 -21.7487 120.2
      vertex -18.3848 -21.7487 120
    endloop
  endfacet
  facet normal -0.718471 -0.695557 0
    outer loop
      vertex -18.3848 -21.7487 120.2
      vertex -13 -27.3109 120
      vertex -13 -27.3109 120.2
    endloop
  endfacet
  facet normal -0.994192 0.100347 0.0388897
    outer loop
      vertex -22.2163 9.76457 200.2
      vertex -25.1141 12.0587 120.2
      vertex -23 2 200.2
    endloop
  endfacet
  facet normal -0.952167 0.302372 0.0441516
    outer loop
      vertex -19.9186 17 200.2
      vertex -22.5167 20.5 120.2
      vertex -22.2163 9.76457 200.2
    endloop
  endfacet
  facet normal 0.867691 0.494601 0.0498181
    outer loop
      vertex 22.5167 20.5 120.2
      vertex 18.3848 27.7487 120.2
      vertex 19.9186 17 200.2
    endloop
  endfacet
  facet normal 0.168779 0.982893 0.073717
    outer loop
      vertex 0 38 120.2
      vertex 0 32 200.2
      vertex 5.95284 30.9778 200.2
    endloop
  endfacet
  facet normal 0.860772 0.506375 0.0515327
    outer loop
      vertex 18.3848 27.7487 120.2
      vertex 16.2635 23.2132 200.2
      vertex 19.9186 17 200.2
    endloop
  endfacet
  facet normal 0.952167 0.302372 0.0441516
    outer loop
      vertex 22.5167 20.5 120.2
      vertex 19.9186 17 200.2
      vertex 22.2163 9.76457 200.2
    endloop
  endfacet
  facet normal 0.954892 0.293822 0.0430144
    outer loop
      vertex 22.5167 20.5 120.2
      vertex 22.2163 9.76457 200.2
      vertex 25.1141 12.0587 120.2
    endloop
  endfacet
  facet normal 0.174037 0.982011 0.0732483
    outer loop
      vertex 6.72929 36.8074 120.2
      vertex 0 38 120.2
      vertex 5.95284 30.9778 200.2
    endloop
  endfacet
  facet normal -0.706126 0.705519 0.0602459
    outer loop
      vertex -13 33.3109 120.2
      vertex -16.2635 23.2132 200.2
      vertex -11.5 27.9808 200.2
    endloop
  endfacet
  facet normal -0.168779 0.982893 0.073717
    outer loop
      vertex 0 38 120.2
      vertex -5.95284 30.9778 200.2
      vertex 0 32 200.2
    endloop
  endfacet
  facet normal 0.485902 0.871428 0.0671707
    outer loop
      vertex 13 33.3109 120.2
      vertex 6.72929 36.8074 120.2
      vertex 11.5 27.9808 200.2
    endloop
  endfacet
  facet normal -0.861265 -0.506665 0.0388956
    outer loop
      vertex -16.2635 -19.2132 200.2
      vertex -19.9186 -13 200.2
      vertex -18.3848 -21.7487 120.2
    endloop
  endfacet
  facet normal -0.474819 -0.878845 0.0466787
    outer loop
      vertex -5.95284 -26.9778 200.2
      vertex -11.5 -23.9808 200.2
      vertex -6.72929 -30.8074 120.2
    endloop
  endfacet
  facet normal -0.174298 -0.983484 0.0487711
    outer loop
      vertex -5.95284 -26.9778 200.2
      vertex -6.72929 -30.8074 120.2
      vertex 0 -32 120.2
    endloop
  endfacet
  facet normal -0.952458 -0.302465 0.0366035
    outer loop
      vertex -22.2163 -5.76457 200.2
      vertex -22.5167 -14.5 120.2
      vertex -19.9186 -13 200.2
    endloop
  endfacet
  facet normal 0.706767 -0.70616 0.0426467
    outer loop
      vertex 16.2635 -19.2132 200.2
      vertex 11.5 -23.9808 200.2
      vertex 13 -27.3109 120.2
    endloop
  endfacet
  facet normal 0.86816 -0.494868 0.0374733
    outer loop
      vertex 19.9186 -13 200.2
      vertex 18.3848 -21.7487 120.2
      vertex 22.5167 -14.5 120.2
    endloop
  endfacet
  facet normal 0.487002 -0.873401 0
    outer loop
      vertex 6.72929 -30.8074 120
      vertex 13 -27.3109 120.2
      vertex 6.72929 -30.8074 120.2
    endloop
  endfacet
  facet normal 0.487002 -0.873401 0
    outer loop
      vertex 13 -27.3109 120.2
      vertex 6.72929 -30.8074 120
      vertex 13 -27.3109 120
    endloop
  endfacet
  facet normal 0.174298 -0.983484 0.0487711
    outer loop
      vertex 5.95284 -26.9778 200.2
      vertex 0 -32 120.2
      vertex 6.72929 -30.8074 120.2
    endloop
  endfacet
  facet normal -0.995252 0.0973312 0
    outer loop
      vertex -26 3 120
      vertex -25.1141 12.0587 120.2
      vertex -25.1141 12.0587 120
    endloop
  endfacet
  facet normal -0.995252 0.0973312 0
    outer loop
      vertex -25.1141 12.0587 120.2
      vertex -26 3 120
      vertex -26 3 120.2
    endloop
  endfacet
  facet normal -0.954892 0.293822 0.0430144
    outer loop
      vertex -22.5167 20.5 120.2
      vertex -25.1141 12.0587 120.2
      vertex -22.2163 9.76457 200.2
    endloop
  endfacet
  facet normal 0.174506 -0.984656 0
    outer loop
      vertex 0 -32 120
      vertex 6.72929 -30.8074 120.2
      vertex 0 -32 120.2
    endloop
  endfacet
  facet normal 0.174506 -0.984656 0
    outer loop
      vertex 6.72929 -30.8074 120.2
      vertex 0 -32 120
      vertex 6.72929 -30.8074 120
    endloop
  endfacet
  facet normal 0.86877 -0.495216 0
    outer loop
      vertex 18.3848 -21.7487 120.2
      vertex 22.5167 -14.5 120
      vertex 22.5167 -14.5 120.2
    endloop
  endfacet
  facet normal 0.86877 -0.495216 0
    outer loop
      vertex 22.5167 -14.5 120
      vertex 18.3848 -21.7487 120.2
      vertex 18.3848 -21.7487 120
    endloop
  endfacet
  facet normal -0.706767 -0.70616 0.0426467
    outer loop
      vertex -11.5 -23.9808 200.2
      vertex -16.2635 -19.2132 200.2
      vertex -13 -27.3109 120.2
    endloop
  endfacet
  facet normal -0.867691 0.494601 0.0498181
    outer loop
      vertex -18.3848 27.7487 120.2
      vertex -22.5167 20.5 120.2
      vertex -19.9186 17 200.2
    endloop
  endfacet
  facet normal 0.952458 -0.302465 0.0366035
    outer loop
      vertex 22.2163 -5.76457 200.2
      vertex 19.9186 -13 200.2
      vertex 22.5167 -14.5 120.2
    endloop
  endfacet
  facet normal 0.474819 -0.878845 0.0466787
    outer loop
      vertex 11.5 -23.9808 200.2
      vertex 5.95284 -26.9778 200.2
      vertex 6.72929 -30.8074 120.2
    endloop
  endfacet
  facet normal 0.718471 -0.695557 0
    outer loop
      vertex 13 -27.3109 120.2
      vertex 18.3848 -21.7487 120
      vertex 18.3848 -21.7487 120.2
    endloop
  endfacet
  facet normal 0.718471 -0.695557 0
    outer loop
      vertex 18.3848 -21.7487 120
      vertex 13 -27.3109 120.2
      vertex 13 -27.3109 120
    endloop
  endfacet
  facet normal -0.86816 -0.494868 0.0374733
    outer loop
      vertex -19.9186 -13 200.2
      vertex -22.5167 -14.5 120.2
      vertex -18.3848 -21.7487 120.2
    endloop
  endfacet
  facet normal -0.86877 -0.495216 0
    outer loop
      vertex -18.3848 -21.7487 120
      vertex -22.5167 -14.5 120.2
      vertex -22.5167 -14.5 120
    endloop
  endfacet
  facet normal -0.86877 -0.495216 0
    outer loop
      vertex -22.5167 -14.5 120.2
      vertex -18.3848 -21.7487 120
      vertex -18.3848 -21.7487 120.2
    endloop
  endfacet
  facet normal 0.995252 -0.0973315 0
    outer loop
      vertex 25.1141 -6.05867 120.2
      vertex 26 3 120
      vertex 26 3 120.2
    endloop
  endfacet
  facet normal 0.995252 -0.0973315 0
    outer loop
      vertex 26 3 120
      vertex 25.1141 -6.05867 120.2
      vertex 25.1141 -6.05867 120
    endloop
  endfacet
  facet normal 0.861265 -0.506665 0.0388956
    outer loop
      vertex 19.9186 -13 200.2
      vertex 16.2635 -19.2132 200.2
      vertex 18.3848 -21.7487 120.2
    endloop
  endfacet
  facet normal -0.487002 -0.873401 0
    outer loop
      vertex -13 -27.3109 120
      vertex -6.72929 -30.8074 120.2
      vertex -13 -27.3109 120.2
    endloop
  endfacet
  facet normal -0.487002 -0.873401 -0
    outer loop
      vertex -6.72929 -30.8074 120.2
      vertex -13 -27.3109 120
      vertex -6.72929 -30.8074 120
    endloop
  endfacet
  facet normal -0.717246 0.69437 0.0583851
    outer loop
      vertex -13 33.3109 120.2
      vertex -18.3848 27.7487 120.2
      vertex -16.2635 23.2132 200.2
    endloop
  endfacet
  facet normal -0.994514 0.097259 0.03851
    outer loop
      vertex -25.1141 12.0587 120.2
      vertex -26 3 120.2
      vertex -23 2 200.2
    endloop
  endfacet
  facet normal -0.174037 0.982011 0.0732483
    outer loop
      vertex 0 38 120.2
      vertex -6.72929 36.8074 120.2
      vertex -5.95284 30.9778 200.2
    endloop
  endfacet
  facet normal -0.174506 -0.984656 0
    outer loop
      vertex -6.72929 -30.8074 120
      vertex 0 -32 120.2
      vertex -6.72929 -30.8074 120.2
    endloop
  endfacet
  facet normal -0.174506 -0.984656 -0
    outer loop
      vertex 0 -32 120.2
      vertex -6.72929 -30.8074 120
      vertex 0 -32 120
    endloop
  endfacet
  facet normal -0.995252 -0.0973315 0
    outer loop
      vertex -25.1141 -6.05867 120
      vertex -26 3 120.2
      vertex -26 3 120
    endloop
  endfacet
  facet normal -0.995252 -0.0973315 0
    outer loop
      vertex -26 3 120.2
      vertex -25.1141 -6.05867 120
      vertex -25.1141 -6.05867 120.2
    endloop
  endfacet
  facet normal -0.717865 -0.69497 0.0410613
    outer loop
      vertex -16.2635 -19.2132 200.2
      vertex -18.3848 -21.7487 120.2
      vertex -13 -27.3109 120.2
    endloop
  endfacet
  facet normal 0.474219 0.877733 0.068563
    outer loop
      vertex 6.72929 36.8074 120.2
      vertex 5.95284 30.9778 200.2
      vertex 11.5 27.9808 200.2
    endloop
  endfacet
  facet normal 0.486499 -0.872499 0.0454407
    outer loop
      vertex 11.5 -23.9808 200.2
      vertex 6.72929 -30.8074 120.2
      vertex 13 -27.3109 120.2
    endloop
  endfacet
  facet normal -0.955777 -0.294093 0
    outer loop
      vertex -22.5167 -14.5 120
      vertex -25.1141 -6.05867 120.2
      vertex -25.1141 -6.05867 120
    endloop
  endfacet
  facet normal -0.955777 -0.294093 0
    outer loop
      vertex -25.1141 -6.05867 120.2
      vertex -22.5167 -14.5 120
      vertex -22.5167 -14.5 120.2
    endloop
  endfacet
  facet normal 0.717246 0.69437 0.0583851
    outer loop
      vertex 18.3848 27.7487 120.2
      vertex 13 33.3109 120.2
      vertex 16.2635 23.2132 200.2
    endloop
  endfacet
  facet normal 0.994286 -0.100356 0.0363845
    outer loop
      vertex 23 2 200.2
      vertex 22.2163 -5.76457 200.2
      vertex 25.1141 -6.05867 120.2
    endloop
  endfacet
  facet normal 0.955168 -0.293906 0.0356791
    outer loop
      vertex 25.1141 -6.05867 120.2
      vertex 22.2163 -5.76457 200.2
      vertex 22.5167 -14.5 120.2
    endloop
  endfacet
  facet normal 0.169034 -0.98438 0.049219
    outer loop
      vertex 0 -28 200.2
      vertex 0 -32 120.2
      vertex 5.95284 -26.9778 200.2
    endloop
  endfacet
  facet normal -0.955168 -0.293906 0.0356791
    outer loop
      vertex -22.2163 -5.76457 200.2
      vertex -25.1141 -6.05867 120.2
      vertex -22.5167 -14.5 120.2
    endloop
  endfacet
  facet normal -0.994286 -0.100356 0.0363845
    outer loop
      vertex -23 2 200.2
      vertex -25.1141 -6.05867 120.2
      vertex -22.2163 -5.76457 200.2
    endloop
  endfacet
  facet normal 0.994604 -0.0972681 0.0360818
    outer loop
      vertex 26 3 120.2
      vertex 23 2 200.2
      vertex 25.1141 -6.05867 120.2
    endloop
  endfacet
  facet normal -0.485902 0.871428 0.0671707
    outer loop
      vertex -6.72929 36.8074 120.2
      vertex -13 33.3109 120.2
      vertex -11.5 27.9808 200.2
    endloop
  endfacet
  facet normal -0.474219 0.877733 0.068563
    outer loop
      vertex -6.72929 36.8074 120.2
      vertex -11.5 27.9808 200.2
      vertex -5.95284 30.9778 200.2
    endloop
  endfacet
  facet normal -0.994604 -0.0972681 0.0360818
    outer loop
      vertex -23 2 200.2
      vertex -26 3 120.2
      vertex -25.1141 -6.05867 120.2
    endloop
  endfacet
  facet normal 0.486821 -0.873078 -0.0272076
    outer loop
      vertex 6.72929 -30.8074 120
      vertex 6.21166 -28.603 40
      vertex 13 -27.3109 120
    endloop
  endfacet
  facet normal 0.174453 -0.984358 -0.0246089
    outer loop
      vertex 6.72929 -30.8074 120
      vertex 0 -32 120
      vertex 0 -30 40
    endloop
  endfacet
  facet normal -0.792604 0.604659 0.078522
    outer loop
      vertex -16.9706 39.9914 40.2
      vertex -18.3848 27.7487 120.2
      vertex -12 46.507 40.2
    endloop
  endfacet
  facet normal 0.219331 -0.97524 -0.0282919
    outer loop
      vertex 6.72929 -30.8074 120
      vertex 0 -30 40
      vertex 6.21166 -28.603 40
    endloop
  endfacet
  facet normal 0.955048 -0.293869 -0.0390448
    outer loop
      vertex 22.5167 -14.5 120
      vertex 20.7846 -9.5 40
      vertex 25.1141 -6.05867 120
    endloop
  endfacet
  facet normal -0.911271 -0.409307 -0.0453118
    outer loop
      vertex -16.9706 -17.9914 40
      vertex -22.5167 -14.5 120
      vertex -20.7846 -9.5 40
    endloop
  endfacet
  facet normal -0.994747 -0.0972821 -0.0318617
    outer loop
      vertex -25.1141 -6.05867 120
      vertex -26 3 120
      vertex -23.1822 0.388418 40
    endloop
  endfacet
  facet normal 0.573001 0.809748 0.126406
    outer loop
      vertex 12 46.507 40.2
      vertex 6.21166 50.603 40.2
      vertex 13 33.3109 120.2
    endloop
  endfacet
  facet normal -0.714487 0.691699 0.105166
    outer loop
      vertex -12 46.507 40.2
      vertex -18.3848 27.7487 120.2
      vertex -13 33.3109 120.2
    endloop
  endfacet
  facet normal 0.171971 0.970355 0.169812
    outer loop
      vertex 0 52 40.2
      vertex 0 38 120.2
      vertex 6.72929 36.8074 120.2
    endloop
  endfacet
  facet normal -0.219419 0.975631 0
    outer loop
      vertex 0 52 40
      vertex -6.21166 50.603 40.2
      vertex 0 52 40.2
    endloop
  endfacet
  facet normal -0.219419 0.975631 0
    outer loop
      vertex -6.21166 50.603 40.2
      vertex 0 52 40
      vertex -6.21166 50.603 40
    endloop
  endfacet
  facet normal 0.216428 0.962332 0.164549
    outer loop
      vertex 6.21166 50.603 40.2
      vertex 0 52 40.2
      vertex 6.72929 36.8074 120.2
    endloop
  endfacet
  facet normal -0.718072 -0.69517 -0.0333407
    outer loop
      vertex -13 -27.3109 120
      vertex -18.3848 -21.7487 120
      vertex -12 -24.507 40
    endloop
  endfacet
  facet normal 0.996895 0.0768273 -0.0172396
    outer loop
      vertex 24 11 40
      vertex 23.1822 21.6116 40
      vertex 26 3 120
    endloop
  endfacet
  facet normal -0.573001 0.809748 0.126406
    outer loop
      vertex -12 46.507 40.2
      vertex -13 33.3109 120.2
      vertex -6.21166 50.603 40.2
    endloop
  endfacet
  facet normal -0.970966 -0.235426 -0.0424203
    outer loop
      vertex -20.7846 -9.5 40
      vertex -25.1141 -6.05867 120
      vertex -23.1822 0.388418 40
    endloop
  endfacet
  facet normal 0.95559 0.294036 0.0197403
    outer loop
      vertex 25.1141 12.0587 120.2
      vertex 20.7846 31.5 40.2
      vertex 22.5167 20.5 120.2
    endloop
  endfacet
  facet normal -0.95559 0.294036 0.0197403
    outer loop
      vertex -20.7846 31.5 40.2
      vertex -25.1141 12.0587 120.2
      vertex -22.5167 20.5 120.2
    endloop
  endfacet
  facet normal 0.996514 -0.0767981 -0.0325927
    outer loop
      vertex 26 3 120
      vertex 23.1822 0.388418 40
      vertex 24 11 40
    endloop
  endfacet
  facet normal -0.577635 0.816295 0
    outer loop
      vertex -6.21166 50.603 40
      vertex -12 46.507 40.2
      vertex -6.21166 50.603 40.2
    endloop
  endfacet
  facet normal -0.577635 0.816295 0
    outer loop
      vertex -12 46.507 40.2
      vertex -6.21166 50.603 40
      vertex -12 46.507 40
    endloop
  endfacet
  facet normal 0.577264 -0.815772 -0.0358076
    outer loop
      vertex 13 -27.3109 120
      vertex 6.21166 -28.603 40
      vertex 12 -24.507 40
    endloop
  endfacet
  facet normal -0.171971 0.970355 0.169812
    outer loop
      vertex 0 52 40.2
      vertex -6.72929 36.8074 120.2
      vertex 0 38 120.2
    endloop
  endfacet
  facet normal 0.971841 0.235638 0
    outer loop
      vertex 23.1822 21.6116 40.2
      vertex 20.7846 31.5 40
      vertex 20.7846 31.5 40.2
    endloop
  endfacet
  facet normal 0.971841 0.235638 0
    outer loop
      vertex 20.7846 31.5 40
      vertex 23.1822 21.6116 40.2
      vertex 23.1822 21.6116 40
    endloop
  endfacet
  facet normal 0.714487 0.691699 0.105166
    outer loop
      vertex 18.3848 27.7487 120.2
      vertex 12 46.507 40.2
      vertex 13 33.3109 120.2
    endloop
  endfacet
  facet normal 0.795059 0.606532 0
    outer loop
      vertex 16.9706 39.9914 40.2
      vertex 12 46.507 40
      vertex 12 46.507 40.2
    endloop
  endfacet
  facet normal 0.795059 0.606532 0
    outer loop
      vertex 12 46.507 40
      vertex 16.9706 39.9914 40.2
      vertex 16.9706 39.9914 40
    endloop
  endfacet
  facet normal 0.868123 -0.494847 -0.0385874
    outer loop
      vertex 18.3848 -21.7487 120
      vertex 16.9706 -17.9914 40
      vertex 22.5167 -14.5 120
    endloop
  endfacet
  facet normal -0.996514 -0.0767981 -0.0325927
    outer loop
      vertex -23.1822 0.388418 40
      vertex -26 3 120
      vertex -24 11 40
    endloop
  endfacet
  facet normal 0.97183 0.235636 0.00466907
    outer loop
      vertex 23.1822 21.6116 40.2
      vertex 20.7846 31.5 40.2
      vertex 25.1141 12.0587 120.2
    endloop
  endfacet
  facet normal -0.995175 0.0973237 -0.0124107
    outer loop
      vertex -23.1822 21.6116 40
      vertex -26 3 120
      vertex -25.1141 12.0587 120
    endloop
  endfacet
  facet normal -0.795059 0.606532 0
    outer loop
      vertex -16.9706 39.9914 40
      vertex -12 46.507 40.2
      vertex -12 46.507 40
    endloop
  endfacet
  facet normal -0.795059 0.606532 0
    outer loop
      vertex -12 46.507 40.2
      vertex -16.9706 39.9914 40
      vertex -16.9706 39.9914 40.2
    endloop
  endfacet
  facet normal 0.912208 0.409728 0
    outer loop
      vertex 20.7846 31.5 40.2
      vertex 16.9706 39.9914 40
      vertex 16.9706 39.9914 40.2
    endloop
  endfacet
  facet normal 0.912208 0.409728 0
    outer loop
      vertex 16.9706 39.9914 40
      vertex 20.7846 31.5 40.2
      vertex 20.7846 31.5 40
    endloop
  endfacet
  facet normal -0.971841 0.235638 0
    outer loop
      vertex -23.1822 21.6116 40
      vertex -20.7846 31.5 40.2
      vertex -20.7846 31.5 40
    endloop
  endfacet
  facet normal -0.971841 0.235638 0
    outer loop
      vertex -20.7846 31.5 40.2
      vertex -23.1822 21.6116 40
      vertex -23.1822 21.6116 40.2
    endloop
  endfacet
  facet normal 0.911271 -0.409307 -0.0453118
    outer loop
      vertex 22.5167 -14.5 120
      vertex 16.9706 -17.9914 40
      vertex 20.7846 -9.5 40
    endloop
  endfacet
  facet normal 0.970966 -0.235426 -0.0424203
    outer loop
      vertex 25.1141 -6.05867 120
      vertex 20.7846 -9.5 40
      vertex 23.1822 0.388418 40
    endloop
  endfacet
  facet normal 0.911598 0.409454 0.0365626
    outer loop
      vertex 20.7846 31.5 40.2
      vertex 16.9706 39.9914 40.2
      vertex 22.5167 20.5 120.2
    endloop
  endfacet
  facet normal -0.577264 -0.815772 -0.0358076
    outer loop
      vertex -6.21166 -28.603 40
      vertex -13 -27.3109 120
      vertex -12 -24.507 40
    endloop
  endfacet
  facet normal 0.718072 -0.69517 -0.0333407
    outer loop
      vertex 13 -27.3109 120
      vertex 12 -24.507 40
      vertex 18.3848 -21.7487 120
    endloop
  endfacet
  facet normal 0.794341 -0.605984 -0.0425028
    outer loop
      vertex 18.3848 -21.7487 120
      vertex 12 -24.507 40
      vertex 16.9706 -17.9914 40
    endloop
  endfacet
  facet normal -0.97183 0.235636 0.00466907
    outer loop
      vertex -23.1822 21.6116 40.2
      vertex -25.1141 12.0587 120.2
      vertex -20.7846 31.5 40.2
    endloop
  endfacet
  facet normal 0.994747 -0.0972821 -0.0318617
    outer loop
      vertex 25.1141 -6.05867 120
      vertex 23.1822 0.388418 40
      vertex 26 3 120
    endloop
  endfacet
  facet normal -0.481792 0.864057 0.145885
    outer loop
      vertex -6.21166 50.603 40.2
      vertex -13 33.3109 120.2
      vertex -6.72929 36.8074 120.2
    endloop
  endfacet
  facet normal -0.216428 0.962332 0.164549
    outer loop
      vertex -6.21166 50.603 40.2
      vertex -6.72929 36.8074 120.2
      vertex 0 52 40.2
    endloop
  endfacet
  facet normal 0.577635 0.816295 -0
    outer loop
      vertex 12 46.507 40
      vertex 6.21166 50.603 40.2
      vertex 12 46.507 40.2
    endloop
  endfacet
  facet normal 0.577635 0.816295 0
    outer loop
      vertex 6.21166 50.603 40.2
      vertex 12 46.507 40
      vertex 6.21166 50.603 40
    endloop
  endfacet
  facet normal -0.867188 0.494314 0.060317
    outer loop
      vertex -16.9706 39.9914 40.2
      vertex -22.5167 20.5 120.2
      vertex -18.3848 27.7487 120.2
    endloop
  endfacet
  facet normal 0.481792 0.864057 0.145885
    outer loop
      vertex 13 33.3109 120.2
      vertex 6.21166 50.603 40.2
      vertex 6.72929 36.8074 120.2
    endloop
  endfacet
  facet normal -0.996895 0.0768273 -0.0172396
    outer loop
      vertex -24 11 40
      vertex -26 3 120
      vertex -23.1822 21.6116 40
    endloop
  endfacet
  facet normal -0.955048 -0.293869 -0.0390448
    outer loop
      vertex -22.5167 -14.5 120
      vertex -25.1141 -6.05867 120
      vertex -20.7846 -9.5 40
    endloop
  endfacet
  facet normal -0.868123 -0.494847 -0.0385874
    outer loop
      vertex -18.3848 -21.7487 120
      vertex -22.5167 -14.5 120
      vertex -16.9706 -17.9914 40
    endloop
  endfacet
  facet normal -0.794341 -0.605984 -0.0425028
    outer loop
      vertex -12 -24.507 40
      vertex -18.3848 -21.7487 120
      vertex -16.9706 -17.9914 40
    endloop
  endfacet
  facet normal -0.486821 -0.873078 -0.0272076
    outer loop
      vertex -6.72929 -30.8074 120
      vertex -13 -27.3109 120
      vertex -6.21166 -28.603 40
    endloop
  endfacet
  facet normal 0.219419 0.975631 -0
    outer loop
      vertex 6.21166 50.603 40
      vertex 0 52 40.2
      vertex 6.21166 50.603 40.2
    endloop
  endfacet
  facet normal 0.219419 0.975631 0
    outer loop
      vertex 0 52 40.2
      vertex 6.21166 50.603 40
      vertex 0 52 40
    endloop
  endfacet
  facet normal 0.792604 0.604659 0.078522
    outer loop
      vertex 16.9706 39.9914 40.2
      vertex 12 46.507 40.2
      vertex 18.3848 27.7487 120.2
    endloop
  endfacet
  facet normal 0.867188 0.494314 0.060317
    outer loop
      vertex 22.5167 20.5 120.2
      vertex 16.9706 39.9914 40.2
      vertex 18.3848 27.7487 120.2
    endloop
  endfacet
  facet normal -0.912208 0.409728 0
    outer loop
      vertex -20.7846 31.5 40
      vertex -16.9706 39.9914 40.2
      vertex -16.9706 39.9914 40
    endloop
  endfacet
  facet normal -0.912208 0.409728 0
    outer loop
      vertex -16.9706 39.9914 40.2
      vertex -20.7846 31.5 40
      vertex -20.7846 31.5 40.2
    endloop
  endfacet
  facet normal -0.980158 0.198219 0
    outer loop
      vertex -25.1141 12.0587 120
      vertex -23.1822 21.6116 40.2
      vertex -23.1822 21.6116 40
    endloop
  endfacet
  facet normal -0.980158 0.198219 0
    outer loop
      vertex -23.1822 21.6116 40.2
      vertex -25.1141 12.0587 120
      vertex -25.1141 12.0587 120.2
    endloop
  endfacet
  facet normal -0.219331 -0.97524 -0.0282919
    outer loop
      vertex 0 -30 40
      vertex -6.72929 -30.8074 120
      vertex -6.21166 -28.603 40
    endloop
  endfacet
  facet normal -0.174453 -0.984358 -0.0246089
    outer loop
      vertex 0 -32 120
      vertex -6.72929 -30.8074 120
      vertex 0 -30 40
    endloop
  endfacet
  facet normal 0.980158 0.198219 -0
    outer loop
      vertex 25.1141 12.0587 120
      vertex 23.1822 21.6116 40.2
      vertex 25.1141 12.0587 120.2
    endloop
  endfacet
  facet normal 0.980158 0.198219 0
    outer loop
      vertex 23.1822 21.6116 40.2
      vertex 25.1141 12.0587 120
      vertex 23.1822 21.6116 40
    endloop
  endfacet
  facet normal 0.995175 0.0973237 -0.0124107
    outer loop
      vertex 26 3 120
      vertex 23.1822 21.6116 40
      vertex 25.1141 12.0587 120
    endloop
  endfacet
  facet normal -0.911598 0.409454 0.0365626
    outer loop
      vertex -20.7846 31.5 40.2
      vertex -22.5167 20.5 120.2
      vertex -16.9706 39.9914 40.2
    endloop
  endfacet
  facet normal 0.797712 0.601867 -0.0375851
    outer loop
      vertex 15.5563 36.8701 -40
      vertex 11 42.909 -40
      vertex 16.9706 39.9914 40
    endloop
  endfacet
  facet normal -0.99676 -0.076817 -0.0238546
    outer loop
      vertex -23.1822 0.388418 40
      vertex -24 11 40
      vertex -21.2504 0.164876 -40
    endloop
  endfacet
  facet normal 0.581708 -0.813058 -0.0235122
    outer loop
      vertex 12 -24.507 40
      vertex 5.69402 -26.7052 -40
      vertex 11 -22.909 -40
    endloop
  endfacet
  facet normal 0.996774 0.075971 -0.025869
    outer loop
      vertex 22 10 -40
      vertex 21.2504 19.8351 -40
      vertex 24 11 40
    endloop
  endfacet
  facet normal -0.913396 0.405777 -0.0324555
    outer loop
      vertex -19.0526 29 -40
      vertex -20.7846 31.5 40
      vertex -15.5563 36.8701 -40
    endloop
  endfacet
  facet normal -0.221669 -0.974813 -0.0245593
    outer loop
      vertex 0 -28 -40
      vertex -6.21166 -28.603 40
      vertex -5.69402 -26.7052 -40
    endloop
  endfacet
  facet normal -0.996774 0.075971 -0.025869
    outer loop
      vertex -22 10 -40
      vertex -24 11 40
      vertex -21.2504 19.8351 -40
    endloop
  endfacet
  facet normal -0.996822 -0.0759744 -0.0239709
    outer loop
      vertex -21.2504 0.164876 -40
      vertex -24 11 40
      vertex -22 10 -40
    endloop
  endfacet
  facet normal 0.972031 0.233099 -0.0286484
    outer loop
      vertex 21.2504 19.8351 -40
      vertex 19.0526 29 -40
      vertex 23.1822 21.6116 40
    endloop
  endfacet
  facet normal -0.577481 -0.816078 -0.023096
    outer loop
      vertex -6.21166 -28.603 40
      vertex -12 -24.507 40
      vertex -5.69402 -26.7052 -40
    endloop
  endfacet
  facet normal 0.219158 0.974472 -0.0487236
    outer loop
      vertex 6.21166 50.603 40
      vertex 0 48 -40
      vertex 0 52 40
    endloop
  endfacet
  facet normal 0.971595 -0.235578 -0.0225074
    outer loop
      vertex 20.7846 -9.5 40
      vertex 19.0526 -9 -40
      vertex 23.1822 0.388418 40
    endloop
  endfacet
  facet normal 0.971449 0.235543 -0.0283926
    outer loop
      vertex 23.1822 21.6116 40
      vertex 19.0526 29 -40
      vertex 20.7846 31.5 40
    endloop
  endfacet
  facet normal -0.996712 0.0768132 -0.0257738
    outer loop
      vertex -21.2504 19.8351 -40
      vertex -24 11 40
      vertex -23.1822 21.6116 40
    endloop
  endfacet
  facet normal -0.219354 -0.975341 -0.0243835
    outer loop
      vertex 0 -30 40
      vertex -6.21166 -28.603 40
      vertex 0 -28 -40
    endloop
  endfacet
  facet normal -0.794866 -0.606385 -0.0220484
    outer loop
      vertex -12 -24.507 40
      vertex -16.9706 -17.9914 40
      vertex -11 -22.909 -40
    endloop
  endfacet
  facet normal 0.577481 -0.816078 -0.023096
    outer loop
      vertex 6.21166 -28.603 40
      vertex 5.69402 -26.7052 -40
      vertex 12 -24.507 40
    endloop
  endfacet
  facet normal -0.794509 0.606112 -0.0371913
    outer loop
      vertex -11 42.909 -40
      vertex -16.9706 39.9914 40
      vertex -12 46.507 40
    endloop
  endfacet
  facet normal 0.577089 0.815524 -0.0434684
    outer loop
      vertex 12 46.507 40
      vertex 5.69402 46.7052 -40
      vertex 6.21166 50.603 40
    endloop
  endfacet
  facet normal -0.581708 -0.813058 -0.0235122
    outer loop
      vertex -5.69402 -26.7052 -40
      vertex -12 -24.507 40
      vertex -11 -22.909 -40
    endloop
  endfacet
  facet normal -0.91199 -0.40963 -0.0218643
    outer loop
      vertex -16.9706 -17.9914 40
      vertex -20.7846 -9.5 40
      vertex -15.5563 -16.8701 -40
    endloop
  endfacet
  facet normal 0.798073 -0.602139 -0.0225487
    outer loop
      vertex 16.9706 -17.9914 40
      vertex 11 -22.909 -40
      vertex 15.5563 -16.8701 -40
    endloop
  endfacet
  facet normal 0.794509 0.606112 -0.0371913
    outer loop
      vertex 16.9706 39.9914 40
      vertex 11 42.909 -40
      vertex 12 46.507 40
    endloop
  endfacet
  facet normal -0.972031 0.233099 -0.0286484
    outer loop
      vertex -21.2504 19.8351 -40
      vertex -23.1822 21.6116 40
      vertex -19.0526 29 -40
    endloop
  endfacet
  facet normal -0.58131 0.812502 -0.0438087
    outer loop
      vertex -11 42.909 -40
      vertex -12 46.507 40
      vertex -5.69402 46.7052 -40
    endloop
  endfacet
  facet normal -0.798073 -0.602139 -0.0225487
    outer loop
      vertex -11 -22.909 -40
      vertex -16.9706 -17.9914 40
      vertex -15.5563 -16.8701 -40
    endloop
  endfacet
  facet normal -0.911738 0.409517 -0.0320962
    outer loop
      vertex -15.5563 36.8701 -40
      vertex -20.7846 31.5 40
      vertex -16.9706 39.9914 40
    endloop
  endfacet
  facet normal 0.219354 -0.975341 -0.0243835
    outer loop
      vertex 6.21166 -28.603 40
      vertex 0 -30 40
      vertex 0 -28 -40
    endloop
  endfacet
  facet normal -0.972177 -0.233135 -0.0228242
    outer loop
      vertex -19.0526 -9 -40
      vertex -23.1822 0.388418 40
      vertex -21.2504 0.164876 -40
    endloop
  endfacet
  facet normal -0.797712 0.601867 -0.0375851
    outer loop
      vertex -15.5563 36.8701 -40
      vertex -16.9706 39.9914 40
      vertex -11 42.909 -40
    endloop
  endfacet
  facet normal -0.221471 0.973941 -0.0488859
    outer loop
      vertex -5.69402 46.7052 -40
      vertex -6.21166 50.603 40
      vertex 0 48 -40
    endloop
  endfacet
  facet normal -0.577089 0.815524 -0.0434684
    outer loop
      vertex -5.69402 46.7052 -40
      vertex -12 46.507 40
      vertex -6.21166 50.603 40
    endloop
  endfacet
  facet normal 0.221669 -0.974813 -0.0245593
    outer loop
      vertex 6.21166 -28.603 40
      vertex 0 -28 -40
      vertex 5.69402 -26.7052 -40
    endloop
  endfacet
  facet normal -0.219158 0.974472 -0.0487236
    outer loop
      vertex 0 48 -40
      vertex -6.21166 50.603 40
      vertex 0 52 40
    endloop
  endfacet
  facet normal -0.971449 0.235543 -0.0283926
    outer loop
      vertex -19.0526 29 -40
      vertex -23.1822 21.6116 40
      vertex -20.7846 31.5 40
    endloop
  endfacet
  facet normal -0.91365 -0.40589 -0.0223173
    outer loop
      vertex -15.5563 -16.8701 -40
      vertex -20.7846 -9.5 40
      vertex -19.0526 -9 -40
    endloop
  endfacet
  facet normal 0.996712 0.0768132 -0.0257738
    outer loop
      vertex 24 11 40
      vertex 21.2504 19.8351 -40
      vertex 23.1822 21.6116 40
    endloop
  endfacet
  facet normal 0.58131 0.812502 -0.0438087
    outer loop
      vertex 11 42.909 -40
      vertex 5.69402 46.7052 -40
      vertex 12 46.507 40
    endloop
  endfacet
  facet normal 0.91365 -0.40589 -0.0223173
    outer loop
      vertex 20.7846 -9.5 40
      vertex 15.5563 -16.8701 -40
      vertex 19.0526 -9 -40
    endloop
  endfacet
  facet normal -0.971595 -0.235578 -0.0225074
    outer loop
      vertex -20.7846 -9.5 40
      vertex -23.1822 0.388418 40
      vertex -19.0526 -9 -40
    endloop
  endfacet
  facet normal 0.221471 0.973941 -0.0488859
    outer loop
      vertex 5.69402 46.7052 -40
      vertex 0 48 -40
      vertex 6.21166 50.603 40
    endloop
  endfacet
  facet normal 0.91199 -0.40963 -0.0218643
    outer loop
      vertex 16.9706 -17.9914 40
      vertex 15.5563 -16.8701 -40
      vertex 20.7846 -9.5 40
    endloop
  endfacet
  facet normal 0.913396 0.405777 -0.0324555
    outer loop
      vertex 19.0526 29 -40
      vertex 15.5563 36.8701 -40
      vertex 20.7846 31.5 40
    endloop
  endfacet
  facet normal 0.911738 0.409517 -0.0320962
    outer loop
      vertex 20.7846 31.5 40
      vertex 15.5563 36.8701 -40
      vertex 16.9706 39.9914 40
    endloop
  endfacet
  facet normal 0.99676 -0.076817 -0.0238546
    outer loop
      vertex 23.1822 0.388418 40
      vertex 21.2504 0.164876 -40
      vertex 24 11 40
    endloop
  endfacet
  facet normal 0.996822 -0.0759744 -0.0239709
    outer loop
      vertex 24 11 40
      vertex 21.2504 0.164876 -40
      vertex 22 10 -40
    endloop
  endfacet
  facet normal 0.972177 -0.233135 -0.0228242
    outer loop
      vertex 23.1822 0.388418 40
      vertex 19.0526 -9 -40
      vertex 21.2504 0.164876 -40
    endloop
  endfacet
  facet normal 0.794866 -0.606385 -0.0220484
    outer loop
      vertex 12 -24.507 40
      vertex 11 -22.909 -40
      vertex 16.9706 -17.9914 40
    endloop
  endfacet
  facet normal 0.930808 0.35712 -0.0778547
    outer loop
      vertex 12.9904 23 -140
      vertex 10.6066 29.2132 -140
      vertex 19.0526 29 -40
    endloop
  endfacet
  facet normal 0.220689 0.970504 -0.0970504
    outer loop
      vertex 5.69402 46.7052 -40
      vertex 0 38 -140
      vertex 0 48 -40
    endloop
  endfacet
  facet normal 0.995324 0.0655166 -0.070983
    outer loop
      vertex 15 8 -140
      vertex 14.4889 15.7646 -140
      vertex 22 10 -40
    endloop
  endfacet
  facet normal 0.976516 0.202243 -0.0742594
    outer loop
      vertex 14.4889 15.7646 -140
      vertex 12.9904 23 -140
      vertex 21.2504 19.8351 -40
    endloop
  endfacet
  facet normal 0.994638 0.0758082 -0.0703383
    outer loop
      vertex 22 10 -40
      vertex 14.4889 15.7646 -140
      vertex 21.2504 19.8351 -40
    endloop
  endfacet
  facet normal 0.969853 0.232577 -0.0727491
    outer loop
      vertex 21.2504 19.8351 -40
      vertex 12.9904 23 -140
      vertex 19.0526 29 -40
    endloop
  endfacet
  facet normal 0.995505 -0.0655288 -0.0683748
    outer loop
      vertex 22 10 -40
      vertex 14.4889 0.235428 -140
      vertex 15 8 -140
    endloop
  endfacet
  facet normal 0.253389 0.962367 -0.098204
    outer loop
      vertex 3.88229 36.9778 -140
      vertex 0 38 -140
      vertex 5.69402 46.7052 -40
    endloop
  endfacet
  facet normal 0.977071 -0.202357 -0.0662074
    outer loop
      vertex 21.2504 0.164876 -40
      vertex 12.9904 -7 -140
      vertex 14.4889 0.235428 -140
    endloop
  endfacet
  facet normal -0.976516 0.202243 -0.0742594
    outer loop
      vertex -14.4889 15.7646 -140
      vertex -21.2504 19.8351 -40
      vertex -12.9904 23 -140
    endloop
  endfacet
  facet normal -0.995505 -0.0655288 -0.0683748
    outer loop
      vertex -14.4889 0.235428 -140
      vertex -22 10 -40
      vertex -15 8 -140
    endloop
  endfacet
  facet normal 0.834938 0.544051 -0.0829844
    outer loop
      vertex 10.6066 29.2132 -140
      vertex 7.5 33.9808 -140
      vertex 15.5563 36.8701 -40
    endloop
  endfacet
  facet normal -0.579544 0.810034 -0.089295
    outer loop
      vertex -3.88229 36.9778 -140
      vertex -11 42.909 -40
      vertex -5.69402 46.7052 -40
    endloop
  endfacet
  facet normal -0.253389 0.962367 -0.098204
    outer loop
      vertex -3.88229 36.9778 -140
      vertex -5.69402 46.7052 -40
      vertex 0 38 -140
    endloop
  endfacet
  facet normal 0.93175 -0.357482 -0.0636342
    outer loop
      vertex 19.0526 -9 -40
      vertex 10.6066 -13.2132 -140
      vertex 12.9904 -7 -140
    endloop
  endfacet
  facet normal 0.795624 0.600292 -0.0814421
    outer loop
      vertex 15.5563 36.8701 -40
      vertex 7.5 33.9808 -140
      vertex 11 42.909 -40
    endloop
  endfacet
  facet normal -0.969853 0.232577 -0.0727491
    outer loop
      vertex -12.9904 23 -140
      vertex -21.2504 19.8351 -40
      vertex -19.0526 29 -40
    endloop
  endfacet
  facet normal -0.994638 0.0758082 -0.0703383
    outer loop
      vertex -14.4889 15.7646 -140
      vertex -22 10 -40
      vertex -21.2504 19.8351 -40
    endloop
  endfacet
  facet normal -0.635321 0.766903 -0.0907068
    outer loop
      vertex -7.5 33.9808 -140
      vertex -11 42.909 -40
      vertex -3.88229 36.9778 -140
    endloop
  endfacet
  facet normal 0.911227 0.404814 -0.0760992
    outer loop
      vertex 19.0526 29 -40
      vertex 10.6066 29.2132 -140
      vertex 15.5563 36.8701 -40
    endloop
  endfacet
  facet normal 0.836251 -0.544907 -0.0613186
    outer loop
      vertex 15.5563 -16.8701 -40
      vertex 7.5 -17.9808 -140
      vertex 10.6066 -13.2132 -140
    endloop
  endfacet
  facet normal 0.994846 -0.0758238 -0.06732
    outer loop
      vertex 21.2504 0.164876 -40
      vertex 14.4889 0.235428 -140
      vertex 22 10 -40
    endloop
  endfacet
  facet normal -0.580922 -0.811959 -0.0570289
    outer loop
      vertex -5.69402 -26.7052 -40
      vertex -11 -22.909 -40
      vertex -3.88229 -20.9778 -140
    endloop
  endfacet
  facet normal -0.995324 0.0655166 -0.070983
    outer loop
      vertex -15 8 -140
      vertex -22 10 -40
      vertex -14.4889 15.7646 -140
    endloop
  endfacet
  facet normal 0.579544 0.810034 -0.089295
    outer loop
      vertex 11 42.909 -40
      vertex 3.88229 36.9778 -140
      vertex 5.69402 46.7052 -40
    endloop
  endfacet
  facet normal 0.635321 0.766903 -0.0907068
    outer loop
      vertex 7.5 33.9808 -140
      vertex 3.88229 36.9778 -140
      vertex 11 42.909 -40
    endloop
  endfacet
  facet normal 0.221357 -0.973442 -0.0584065
    outer loop
      vertex 5.69402 -26.7052 -40
      vertex 0 -28 -40
      vertex 0 -22 -140
    endloop
  endfacet
  facet normal 0.636795 -0.768682 -0.06017
    outer loop
      vertex 11 -22.909 -40
      vertex 3.88229 -20.9778 -140
      vertex 7.5 -17.9808 -140
    endloop
  endfacet
  facet normal -0.220689 0.970504 -0.0970504
    outer loop
      vertex 0 38 -140
      vertex -5.69402 46.7052 -40
      vertex 0 48 -40
    endloop
  endfacet
  facet normal -0.834938 0.544051 -0.0829844
    outer loop
      vertex -10.6066 29.2132 -140
      vertex -15.5563 36.8701 -40
      vertex -7.5 33.9808 -140
    endloop
  endfacet
  facet normal -0.796954 -0.601295 -0.0575264
    outer loop
      vertex -11 -22.909 -40
      vertex -15.5563 -16.8701 -40
      vertex -7.5 -17.9808 -140
    endloop
  endfacet
  facet normal -0.254163 -0.965305 -0.0598916
    outer loop
      vertex 0 -22 -140
      vertex -5.69402 -26.7052 -40
      vertex -3.88229 -20.9778 -140
    endloop
  endfacet
  facet normal -0.977071 -0.202357 -0.0662074
    outer loop
      vertex -12.9904 -7 -140
      vertex -21.2504 0.164876 -40
      vertex -14.4889 0.235428 -140
    endloop
  endfacet
  facet normal -0.636795 -0.768682 -0.06017
    outer loop
      vertex -3.88229 -20.9778 -140
      vertex -11 -22.909 -40
      vertex -7.5 -17.9808 -140
    endloop
  endfacet
  facet normal 0.254163 -0.965305 -0.0598916
    outer loop
      vertex 5.69402 -26.7052 -40
      vertex 0 -22 -140
      vertex 3.88229 -20.9778 -140
    endloop
  endfacet
  facet normal 0.580922 -0.811959 -0.0570289
    outer loop
      vertex 5.69402 -26.7052 -40
      vertex 3.88229 -20.9778 -140
      vertex 11 -22.909 -40
    endloop
  endfacet
  facet normal -0.795624 0.600292 -0.0814421
    outer loop
      vertex -7.5 33.9808 -140
      vertex -15.5563 36.8701 -40
      vertex -11 42.909 -40
    endloop
  endfacet
  facet normal 0.796954 -0.601295 -0.0575264
    outer loop
      vertex 11 -22.909 -40
      vertex 7.5 -17.9808 -140
      vertex 15.5563 -16.8701 -40
    endloop
  endfacet
  facet normal 0.912232 -0.40526 -0.0599727
    outer loop
      vertex 15.5563 -16.8701 -40
      vertex 10.6066 -13.2132 -140
      vertex 19.0526 -9 -40
    endloop
  endfacet
  facet normal -0.911227 0.404814 -0.0760992
    outer loop
      vertex -10.6066 29.2132 -140
      vertex -19.0526 29 -40
      vertex -15.5563 36.8701 -40
    endloop
  endfacet
  facet normal -0.930808 0.35712 -0.0778547
    outer loop
      vertex -12.9904 23 -140
      vertex -19.0526 29 -40
      vertex -10.6066 29.2132 -140
    endloop
  endfacet
  facet normal -0.836251 -0.544907 -0.0613186
    outer loop
      vertex -7.5 -17.9808 -140
      vertex -15.5563 -16.8701 -40
      vertex -10.6066 -13.2132 -140
    endloop
  endfacet
  facet normal -0.970468 -0.232725 -0.0634862
    outer loop
      vertex -19.0526 -9 -40
      vertex -21.2504 0.164876 -40
      vertex -12.9904 -7 -140
    endloop
  endfacet
  facet normal -0.221357 -0.973442 -0.0584065
    outer loop
      vertex 0 -28 -40
      vertex -5.69402 -26.7052 -40
      vertex 0 -22 -140
    endloop
  endfacet
  facet normal -0.912232 -0.40526 -0.0599727
    outer loop
      vertex -15.5563 -16.8701 -40
      vertex -19.0526 -9 -40
      vertex -10.6066 -13.2132 -140
    endloop
  endfacet
  facet normal -0.93175 -0.357482 -0.0636342
    outer loop
      vertex -10.6066 -13.2132 -140
      vertex -19.0526 -9 -40
      vertex -12.9904 -7 -140
    endloop
  endfacet
  facet normal -0.994846 -0.0758238 -0.06732
    outer loop
      vertex -21.2504 0.164876 -40
      vertex -22 10 -40
      vertex -14.4889 0.235428 -140
    endloop
  endfacet
  facet normal 0.970468 -0.232725 -0.0634862
    outer loop
      vertex 19.0526 -9 -40
      vertex 12.9904 -7 -140
      vertex 21.2504 0.164876 -40
    endloop
  endfacet
  facet normal -0.279711 0.956052 -0.0879015
    outer loop
      vertex -2.32937 27.3185 -250
      vertex -3.88229 36.9778 -140
      vertex 0 28 -250
    endloop
  endfacet
  facet normal 0.675276 0.733621 -0.0761746
    outer loop
      vertex 4.5 25.3205 -250
      vertex 2.32937 27.3185 -250
      vertex 7.5 33.9808 -140
    endloop
  endfacet
  facet normal -0.860747 0.504782 -0.0656473
    outer loop
      vertex -6.36396 22.1421 -250
      vertex -10.6066 29.2132 -140
      vertex -4.5 25.3205 -250
    endloop
  endfacet
  facet normal 0.860745 -0.504785 -0.0656473
    outer loop
      vertex 10.6066 -13.2132 -140
      vertex 4.5 -9.32051 -250
      vertex 6.36396 -6.14214 -250
    endloop
  endfacet
  facet normal 0.253642 0.963326 -0.0875751
    outer loop
      vertex 3.88229 36.9778 -140
      vertex 0 28 -250
      vertex 0 38 -140
    endloop
  endfacet
  facet normal 0.860747 0.504782 -0.0656473
    outer loop
      vertex 6.36396 22.1421 -250
      vertex 4.5 25.3205 -250
      vertex 10.6066 29.2132 -140
    endloop
  endfacet
  facet normal -0.253642 0.963326 -0.0875751
    outer loop
      vertex 0 28 -250
      vertex -3.88229 36.9778 -140
      vertex 0 38 -140
    endloop
  endfacet
  facet normal -0.996773 -0.0590529 -0.0543694
    outer loop
      vertex -8.69333 2.82362 -250
      vertex -15 8 -140
      vertex -9 8 -250
    endloop
  endfacet
  facet normal -0.675276 0.733621 -0.0761746
    outer loop
      vertex -4.5 25.3205 -250
      vertex -7.5 33.9808 -140
      vertex -2.32937 27.3185 -250
    endloop
  endfacet
  facet normal -0.932019 -0.357585 -0.0589339
    outer loop
      vertex -10.6066 -13.2132 -140
      vertex -12.9904 -7 -140
      vertex -6.36396 -6.14214 -250
    endloop
  endfacet
  facet normal -0.836018 0.544755 -0.0656891
    outer loop
      vertex -4.5 25.3205 -250
      vertex -10.6066 29.2132 -140
      vertex -7.5 33.9808 -140
    endloop
  endfacet
  facet normal 0.996773 -0.0590529 -0.0543694
    outer loop
      vertex 15 8 -140
      vertex 8.69333 2.82362 -250
      vertex 9 8 -250
    endloop
  endfacet
  facet normal 0.636086 0.767826 -0.0764041
    outer loop
      vertex 7.5 33.9808 -140
      vertex 2.32937 27.3185 -250
      vertex 3.88229 36.9778 -140
    endloop
  endfacet
  facet normal 0.932019 0.357585 -0.058934
    outer loop
      vertex 12.9904 23 -140
      vertex 6.36396 22.1421 -250
      vertex 10.6066 29.2132 -140
    endloop
  endfacet
  facet normal -0.996383 -0.0655865 -0.0540396
    outer loop
      vertex -14.4889 0.235428 -140
      vertex -15 8 -140
      vertex -8.69333 2.82362 -250
    endloop
  endfacet
  facet normal -0.996773 0.0590527 -0.0543694
    outer loop
      vertex -9 8 -250
      vertex -15 8 -140
      vertex -8.69333 13.1764 -250
    endloop
  endfacet
  facet normal 0.977716 -0.202491 -0.0553894
    outer loop
      vertex 12.9904 -7 -140
      vertex 7.79423 -2 -250
      vertex 14.4889 0.235428 -140
    endloop
  endfacet
  facet normal 0.996383 -0.0655865 -0.0540396
    outer loop
      vertex 14.4889 0.235428 -140
      vertex 8.69333 2.82362 -250
      vertex 15 8 -140
    endloop
  endfacet
  facet normal 0.943567 0.325814 -0.0593819
    outer loop
      vertex 7.79423 18 -250
      vertex 6.36396 22.1421 -250
      vertex 12.9904 23 -140
    endloop
  endfacet
  facet normal -0.943567 0.325814 -0.0593819
    outer loop
      vertex -7.79423 18 -250
      vertex -12.9904 23 -140
      vertex -6.36396 22.1421 -250
    endloop
  endfacet
  facet normal 0.836018 0.544755 -0.0656891
    outer loop
      vertex 10.6066 29.2132 -140
      vertex 4.5 25.3205 -250
      vertex 7.5 33.9808 -140
    endloop
  endfacet
  facet normal 0.977716 0.202492 -0.0553894
    outer loop
      vertex 14.4889 15.7646 -140
      vertex 7.79423 18 -250
      vertex 12.9904 23 -140
    endloop
  endfacet
  facet normal 0.279711 0.956052 -0.0879015
    outer loop
      vertex 2.32937 27.3185 -250
      vertex 0 28 -250
      vertex 3.88229 36.9778 -140
    endloop
  endfacet
  facet normal -0.253642 -0.963326 -0.0875751
    outer loop
      vertex 0 -22 -140
      vertex -3.88229 -20.9778 -140
      vertex 0 -12 -250
    endloop
  endfacet
  facet normal 0.996773 0.0590527 -0.0543694
    outer loop
      vertex 9 8 -250
      vertex 8.69333 13.1764 -250
      vertex 15 8 -140
    endloop
  endfacet
  facet normal 0.932019 -0.357585 -0.0589339
    outer loop
      vertex 10.6066 -13.2132 -140
      vertex 6.36396 -6.14214 -250
      vertex 12.9904 -7 -140
    endloop
  endfacet
  facet normal -0.636086 0.767826 -0.0764041
    outer loop
      vertex -2.32937 27.3185 -250
      vertex -7.5 33.9808 -140
      vertex -3.88229 36.9778 -140
    endloop
  endfacet
  facet normal 0.981525 0.182952 -0.0560183
    outer loop
      vertex 8.69333 13.1764 -250
      vertex 7.79423 18 -250
      vertex 14.4889 15.7646 -140
    endloop
  endfacet
  facet normal -0.977716 -0.202491 -0.0553894
    outer loop
      vertex -12.9904 -7 -140
      vertex -14.4889 0.235428 -140
      vertex -7.79423 -2 -250
    endloop
  endfacet
  facet normal -0.636086 -0.767826 -0.0764041
    outer loop
      vertex -3.88229 -20.9778 -140
      vertex -7.5 -17.9808 -140
      vertex -2.32937 -11.3185 -250
    endloop
  endfacet
  facet normal 0.943568 -0.325812 -0.0593818
    outer loop
      vertex 12.9904 -7 -140
      vertex 6.36396 -6.14214 -250
      vertex 7.79423 -2 -250
    endloop
  endfacet
  facet normal -0.981525 -0.182952 -0.0560183
    outer loop
      vertex -7.79423 -2 -250
      vertex -14.4889 0.235428 -140
      vertex -8.69333 2.82362 -250
    endloop
  endfacet
  facet normal -0.860745 -0.504785 -0.0656473
    outer loop
      vertex -4.5 -9.32051 -250
      vertex -10.6066 -13.2132 -140
      vertex -6.36396 -6.14214 -250
    endloop
  endfacet
  facet normal -0.996383 0.0655863 -0.0540396
    outer loop
      vertex -8.69333 13.1764 -250
      vertex -15 8 -140
      vertex -14.4889 15.7646 -140
    endloop
  endfacet
  facet normal -0.932019 0.357585 -0.058934
    outer loop
      vertex -6.36396 22.1421 -250
      vertex -12.9904 23 -140
      vertex -10.6066 29.2132 -140
    endloop
  endfacet
  facet normal 0.279711 -0.956052 -0.0879015
    outer loop
      vertex 3.88229 -20.9778 -140
      vertex 0 -12 -250
      vertex 2.32937 -11.3185 -250
    endloop
  endfacet
  facet normal 0.636086 -0.767826 -0.0764041
    outer loop
      vertex 3.88229 -20.9778 -140
      vertex 2.32937 -11.3185 -250
      vertex 7.5 -17.9808 -140
    endloop
  endfacet
  facet normal 0.996383 0.0655863 -0.0540396
    outer loop
      vertex 15 8 -140
      vertex 8.69333 13.1764 -250
      vertex 14.4889 15.7646 -140
    endloop
  endfacet
  facet normal 0.981525 -0.182952 -0.0560183
    outer loop
      vertex 14.4889 0.235428 -140
      vertex 7.79423 -2 -250
      vertex 8.69333 2.82362 -250
    endloop
  endfacet
  facet normal 0.836018 -0.544755 -0.065689
    outer loop
      vertex 7.5 -17.9808 -140
      vertex 4.5 -9.32051 -250
      vertex 10.6066 -13.2132 -140
    endloop
  endfacet
  facet normal -0.675274 -0.733623 -0.0761746
    outer loop
      vertex -2.32937 -11.3185 -250
      vertex -7.5 -17.9808 -140
      vertex -4.5 -9.32051 -250
    endloop
  endfacet
  facet normal -0.279711 -0.956052 -0.0879015
    outer loop
      vertex 0 -12 -250
      vertex -3.88229 -20.9778 -140
      vertex -2.32937 -11.3185 -250
    endloop
  endfacet
  facet normal -0.943568 -0.325812 -0.0593818
    outer loop
      vertex -6.36396 -6.14214 -250
      vertex -12.9904 -7 -140
      vertex -7.79423 -2 -250
    endloop
  endfacet
  facet normal 0.675274 -0.733623 -0.0761746
    outer loop
      vertex 7.5 -17.9808 -140
      vertex 2.32937 -11.3185 -250
      vertex 4.5 -9.32051 -250
    endloop
  endfacet
  facet normal 0.253642 -0.963326 -0.0875751
    outer loop
      vertex 3.88229 -20.9778 -140
      vertex 0 -22 -140
      vertex 0 -12 -250
    endloop
  endfacet
  facet normal -0.977716 0.202492 -0.0553894
    outer loop
      vertex -7.79423 18 -250
      vertex -14.4889 15.7646 -140
      vertex -12.9904 23 -140
    endloop
  endfacet
  facet normal -0.981525 0.182952 -0.0560183
    outer loop
      vertex -8.69333 13.1764 -250
      vertex -14.4889 15.7646 -140
      vertex -7.79423 18 -250
    endloop
  endfacet
  facet normal -0.836018 -0.544755 -0.065689
    outer loop
      vertex -7.5 -17.9808 -140
      vertex -10.6066 -13.2132 -140
      vertex -4.5 -9.32051 -250
    endloop
  endfacet
  facet normal 0.996586 -0.0590419 -0.0577039
    outer loop
      vertex 8.69333 2.82362 -250
      vertex 3.8637 4.37653 -335
      vertex 9 8 -250
    endloop
  endfacet
  facet normal 0.997571 0.0375242 -0.0586807
    outer loop
      vertex 4 8 -335
      vertex 3.8637 11.6235 -335
      vertex 9 8 -250
    endloop
  endfacet
  facet normal -0.280155 -0.957572 -0.0675933
    outer loop
      vertex 0 -12 -250
      vertex -2.32937 -11.3185 -250
      vertex 0 -6 -335
    endloop
  endfacet
  facet normal 0.935658 0.348387 -0.0563072
    outer loop
      vertex 2.82843 17.8995 -335
      vertex 2 20.1244 -335
      vertex 6.36396 22.1421 -250
    endloop
  endfacet
  facet normal 0.996586 0.0590416 -0.0577039
    outer loop
      vertex 9 8 -250
      vertex 3.8637 11.6235 -335
      vertex 8.69333 13.1764 -250
    endloop
  endfacet
  facet normal 0.935656 -0.348391 -0.0563076
    outer loop
      vertex 6.36396 -6.14214 -250
      vertex 2 -4.12436 -335
      vertex 2.82843 -1.89949 -335
    endloop
  endfacet
  facet normal 0.676007 -0.734419 -0.0603667
    outer loop
      vertex 2.32937 -11.3185 -250
      vertex 1.03528 -5.52296 -335
      vertex 4.5 -9.32051 -250
    endloop
  endfacet
  facet normal 0.280155 -0.957572 -0.0675933
    outer loop
      vertex 2.32937 -11.3185 -250
      vertex 0 -12 -250
      vertex 0 -6 -335
    endloop
  endfacet
  facet normal -0.943778 -0.325884 -0.055522
    outer loop
      vertex -6.36396 -6.14214 -250
      vertex -7.79423 -2 -250
      vertex -2.82843 -1.89949 -335
    endloop
  endfacet
  facet normal -0.935656 -0.348391 -0.0563076
    outer loop
      vertex -2 -4.12436 -335
      vertex -6.36396 -6.14214 -250
      vertex -2.82843 -1.89949 -335
    endloop
  endfacet
  facet normal -0.996586 -0.0590419 -0.0577039
    outer loop
      vertex -8.69333 2.82362 -250
      vertex -9 8 -250
      vertex -3.8637 4.37653 -335
    endloop
  endfacet
  facet normal 0.821741 -0.566817 -0.0588191
    outer loop
      vertex 4.5 -9.32051 -250
      vertex 1.03528 -5.52296 -335
      vertex 2 -4.12436 -335
    endloop
  endfacet
  facet normal 0.676009 0.734417 -0.0603662
    outer loop
      vertex 4.5 25.3205 -250
      vertex 1.03528 21.523 -335
      vertex 2.32937 27.3185 -250
    endloop
  endfacet
  facet normal 0.9815 0.182948 -0.0564573
    outer loop
      vertex 8.69333 13.1764 -250
      vertex 3.4641 15 -335
      vertex 7.79423 18 -250
    endloop
  endfacet
  facet normal 0.41752 -0.906109 -0.0681377
    outer loop
      vertex 2.32937 -11.3185 -250
      vertex 0 -6 -335
      vertex 1.03528 -5.52296 -335
    endloop
  endfacet
  facet normal -0.943777 0.325887 -0.0555219
    outer loop
      vertex -2.82843 17.8995 -335
      vertex -7.79423 18 -250
      vertex -6.36396 22.1421 -250
    endloop
  endfacet
  facet normal -0.861242 -0.505077 -0.0562066
    outer loop
      vertex -4.5 -9.32051 -250
      vertex -6.36396 -6.14214 -250
      vertex -2 -4.12436 -335
    endloop
  endfacet
  facet normal 0.997571 -0.0375245 -0.0586807
    outer loop
      vertex 9 8 -250
      vertex 3.8637 4.37653 -335
      vertex 4 8 -335
    endloop
  endfacet
  facet normal 0.280155 0.957572 -0.0675933
    outer loop
      vertex 2.32937 27.3185 -250
      vertex 0 22 -335
      vertex 0 28 -250
    endloop
  endfacet
  facet normal -0.9752 -0.213798 -0.0572252
    outer loop
      vertex -2.82843 -1.89949 -335
      vertex -7.79423 -2 -250
      vertex -3.4641 1 -335
    endloop
  endfacet
  facet normal -0.821741 0.566817 -0.0588187
    outer loop
      vertex -2 20.1244 -335
      vertex -4.5 25.3205 -250
      vertex -1.03528 21.523 -335
    endloop
  endfacet
  facet normal -0.9815 -0.182947 -0.0564572
    outer loop
      vertex -7.79423 -2 -250
      vertex -8.69333 2.82362 -250
      vertex -3.4641 1 -335
    endloop
  endfacet
  facet normal -0.996586 0.0590416 -0.0577039
    outer loop
      vertex -3.8637 11.6235 -335
      vertex -9 8 -250
      vertex -8.69333 13.1764 -250
    endloop
  endfacet
  facet normal -0.280155 0.957572 -0.0675933
    outer loop
      vertex 0 22 -335
      vertex -2.32937 27.3185 -250
      vertex 0 28 -250
    endloop
  endfacet
  facet normal 0.417491 0.906123 -0.0681377
    outer loop
      vertex 1.03528 21.523 -335
      vertex 0 22 -335
      vertex 2.32937 27.3185 -250
    endloop
  endfacet
  facet normal 0.821741 0.566817 -0.0588187
    outer loop
      vertex 2 20.1244 -335
      vertex 1.03528 21.523 -335
      vertex 4.5 25.3205 -250
    endloop
  endfacet
  facet normal -0.991371 -0.117325 -0.0584723
    outer loop
      vertex -3.4641 1 -335
      vertex -8.69333 2.82362 -250
      vertex -3.8637 4.37653 -335
    endloop
  endfacet
  facet normal -0.821741 -0.566817 -0.0588191
    outer loop
      vertex -1.03528 -5.52296 -335
      vertex -4.5 -9.32051 -250
      vertex -2 -4.12436 -335
    endloop
  endfacet
  facet normal -0.41752 -0.906109 -0.0681377
    outer loop
      vertex 0 -6 -335
      vertex -2.32937 -11.3185 -250
      vertex -1.03528 -5.52296 -335
    endloop
  endfacet
  facet normal -0.991371 0.117326 -0.0584723
    outer loop
      vertex -3.8637 11.6235 -335
      vertex -8.69333 13.1764 -250
      vertex -3.4641 15 -335
    endloop
  endfacet
  facet normal 0.9815 -0.182947 -0.0564572
    outer loop
      vertex 7.79423 -2 -250
      vertex 3.4641 1 -335
      vertex 8.69333 2.82362 -250
    endloop
  endfacet
  facet normal 0.943778 -0.325884 -0.055522
    outer loop
      vertex 6.36396 -6.14214 -250
      vertex 2.82843 -1.89949 -335
      vertex 7.79423 -2 -250
    endloop
  endfacet
  facet normal -0.935658 0.348387 -0.0563072
    outer loop
      vertex -2.82843 17.8995 -335
      vertex -6.36396 22.1421 -250
      vertex -2 20.1244 -335
    endloop
  endfacet
  facet normal -0.861244 0.505073 -0.0562061
    outer loop
      vertex -2 20.1244 -335
      vertex -6.36396 22.1421 -250
      vertex -4.5 25.3205 -250
    endloop
  endfacet
  facet normal 0.861244 0.505073 -0.0562061
    outer loop
      vertex 6.36396 22.1421 -250
      vertex 2 20.1244 -335
      vertex 4.5 25.3205 -250
    endloop
  endfacet
  facet normal 0.9752 -0.213798 -0.0572252
    outer loop
      vertex 7.79423 -2 -250
      vertex 2.82843 -1.89949 -335
      vertex 3.4641 1 -335
    endloop
  endfacet
  facet normal -0.676007 -0.734419 -0.0603667
    outer loop
      vertex -2.32937 -11.3185 -250
      vertex -4.5 -9.32051 -250
      vertex -1.03528 -5.52296 -335
    endloop
  endfacet
  facet normal 0.991371 0.117326 -0.0584723
    outer loop
      vertex 3.8637 11.6235 -335
      vertex 3.4641 15 -335
      vertex 8.69333 13.1764 -250
    endloop
  endfacet
  facet normal -0.9815 0.182948 -0.0564573
    outer loop
      vertex -3.4641 15 -335
      vertex -8.69333 13.1764 -250
      vertex -7.79423 18 -250
    endloop
  endfacet
  facet normal -0.9752 0.213797 -0.0572251
    outer loop
      vertex -3.4641 15 -335
      vertex -7.79423 18 -250
      vertex -2.82843 17.8995 -335
    endloop
  endfacet
  facet normal 0.991371 -0.117325 -0.0584723
    outer loop
      vertex 8.69333 2.82362 -250
      vertex 3.4641 1 -335
      vertex 3.8637 4.37653 -335
    endloop
  endfacet
  facet normal -0.676009 0.734417 -0.0603662
    outer loop
      vertex -1.03528 21.523 -335
      vertex -4.5 25.3205 -250
      vertex -2.32937 27.3185 -250
    endloop
  endfacet
  facet normal -0.417491 0.906123 -0.0681377
    outer loop
      vertex -1.03528 21.523 -335
      vertex -2.32937 27.3185 -250
      vertex 0 22 -335
    endloop
  endfacet
  facet normal 0.861242 -0.505077 -0.0562066
    outer loop
      vertex 4.5 -9.32051 -250
      vertex 2 -4.12436 -335
      vertex 6.36396 -6.14214 -250
    endloop
  endfacet
  facet normal -0.997571 0.0375242 -0.0586807
    outer loop
      vertex -4 8 -335
      vertex -9 8 -250
      vertex -3.8637 11.6235 -335
    endloop
  endfacet
  facet normal 0.9752 0.213797 -0.0572251
    outer loop
      vertex 3.4641 15 -335
      vertex 2.82843 17.8995 -335
      vertex 7.79423 18 -250
    endloop
  endfacet
  facet normal 0.943777 0.325887 -0.0555219
    outer loop
      vertex 7.79423 18 -250
      vertex 2.82843 17.8995 -335
      vertex 6.36396 22.1421 -250
    endloop
  endfacet
  facet normal 0 0 -1
    outer loop
      vertex -4 8 -335
      vertex 4 8 -335
      vertex 3.8637 4.37653 -335
    endloop
  endfacet
  facet normal 0 0 -1
    outer loop
      vertex -3.8637 4.37653 -335
      vertex 3.8637 4.37653 -335
      vertex 3.4641 1 -335
    endloop
  endfacet
  facet normal 0 0 -1
    outer loop
      vertex 4 8 -335
      vertex -4 8 -335
      vertex 3.8637 11.6235 -335
    endloop
  endfacet
  facet normal 0 0 -1
    outer loop
      vertex -3.4641 1 -335
      vertex 3.4641 1 -335
      vertex 2.82843 -1.89949 -335
    endloop
  endfacet
  facet normal 0 -0 -1
    outer loop
      vertex -3.8637 11.6235 -335
      vertex 3.8637 11.6235 -335
      vertex -4 8 -335
    endloop
  endfacet
  facet normal 0 0 -1
    outer loop
      vertex -2.82843 -1.89949 -335
      vertex 2.82843 -1.89949 -335
      vertex 2 -4.12436 -335
    endloop
  endfacet
  facet normal 0 0 -1
    outer loop
      vertex 3.8637 11.6235 -335
      vertex -3.8637 11.6235 -335
      vertex 3.4641 15 -335
    endloop
  endfacet
  facet normal 0 0 -1
    outer loop
      vertex -2 -4.12436 -335
      vertex 2 -4.12436 -335
      vertex 1.03528 -5.52296 -335
    endloop
  endfacet
  facet normal 0 -0 -1
    outer loop
      vertex -3.4641 15 -335
      vertex 3.4641 15 -335
      vertex -3.8637 11.6235 -335
    endloop
  endfacet
  facet normal 0 0 -1
    outer loop
      vertex -1.03528 -5.52296 -335
      vertex 1.03528 -5.52296 -335
      vertex 0 -6 -335
    endloop
  endfacet
  facet normal 0 0 -1
    outer loop
      vertex 3.4641 15 -335
      vertex -3.4641 15 -335
      vertex 2.82843 17.8995 -335
    endloop
  endfacet
  facet normal 0 0 -1
    outer loop
      vertex 1.03528 -5.52296 -335
      vertex -1.03528 -5.52296 -335
      vertex -2 -4.12436 -335
    endloop
  endfacet
  facet normal 0 -0 -1
    outer loop
      vertex -2.82843 17.8995 -335
      vertex 2.82843 17.8995 -335
      vertex -3.4641 15 -335
    endloop
  endfacet
  facet normal 0 0 -1
    outer loop
      vertex 2 -4.12436 -335
      vertex -2 -4.12436 -335
      vertex -2.82843 -1.89949 -335
    endloop
  endfacet
  facet normal 0 0 -1
    outer loop
      vertex 2.82843 17.8995 -335
      vertex -2.82843 17.8995 -335
      vertex 2 20.1244 -335
    endloop
  endfacet
  facet normal 0 0 -1
    outer loop
      vertex 2.82843 -1.89949 -335
      vertex -2.82843 -1.89949 -335
      vertex -3.4641 1 -335
    endloop
  endfacet
  facet normal 0 0 -1
    outer loop
      vertex 3.8637 4.37653 -335
      vertex -3.8637 4.37653 -335
      vertex -4 8 -335
    endloop
  endfacet
  facet normal 0 0 -1
    outer loop
      vertex 3.4641 1 -335
      vertex -3.4641 1 -335
      vertex -3.8637 4.37653 -335
    endloop
  endfacet
  facet normal 0 -0 -1
    outer loop
      vertex -2 20.1244 -335
      vertex 2 20.1244 -335
      vertex -2.82843 17.8995 -335
    endloop
  endfacet
  facet normal 0 0 -1
    outer loop
      vertex 2 20.1244 -335
      vertex -2 20.1244 -335
      vertex 1.03528 21.523 -335
    endloop
  endfacet
  facet normal 0 0 -1
    outer loop
      vertex 1.03528 21.523 -335
      vertex -1.03528 21.523 -335
      vertex 0 22 -335
    endloop
  endfacet
  facet normal 0 -0 -1
    outer loop
      vertex -1.03528 21.523 -335
      vertex 1.03528 21.523 -335
      vertex -2 20.1244 -335
    endloop
  endfacet
  facet normal -0.997571 -0.0375245 -0.0586807
    outer loop
      vertex -3.8637 4.37653 -335
      vertex -9 8 -250
      vertex -4 8 -335
    endloop
  endfacet
endsolid OpenSCAD_Model
