solid OpenSCAD_Model
  facet normal 0 1 -0
    outer loop
      vertex 0.2 6.5 -86
      vertex -0.2 6.5 204
      vertex 0.2 6.5 204
    endloop
  endfacet
  facet normal 0 1 0
    outer loop
      vertex -0.2 6.5 204
      vertex 0.2 6.5 -86
      vertex -0.2 6.5 -86
    endloop
  endfacet
  facet normal 0.381978 0 0.924171
    outer loop
      vertex 50.2 6.21074 183.333
      vertex 100.2 -5.92149 162.667
      vertex 100.2 5.92149 162.667
    endloop
  endfacet
  facet normal 0.381978 0 0.924171
    outer loop
      vertex 50.2 6.21074 183.333
      vertex 50.2 -6.21074 183.333
      vertex 100.2 -5.92149 162.667
    endloop
  endfacet
  facet normal 0.381994 0 0.924165
    outer loop
      vertex 0.2 6.5 204
      vertex 50.2 -6.21074 183.333
      vertex 50.2 6.21074 183.333
    endloop
  endfacet
  facet normal 0.381994 0 0.924165
    outer loop
      vertex 50.2 -6.21074 183.333
      vertex 0.2 6.5 204
      vertex 0.2 -6.5 204
    endloop
  endfacet
  facet normal 0.0057851 0.999983 0
    outer loop
      vertex 50.2 6.21074 183.333
      vertex 0.2 6.5 -86
      vertex 0.2 6.5 204
    endloop
  endfacet
  facet normal 0.0057851 0.999983 0
    outer loop
      vertex 0.2 6.5 -86
      vertex 50.2 6.21074 183.333
      vertex 50.2 6.21074 -101
    endloop
  endfacet
  facet normal 0 -1 0
    outer loop
      vertex -0.2 -6.5 -86
      vertex 0.2 -6.5 204
      vertex -0.2 -6.5 204
    endloop
  endfacet
  facet normal 0 -1 -0
    outer loop
      vertex 0.2 -6.5 204
      vertex -0.2 -6.5 -86
      vertex 0.2 -6.5 -86
    endloop
  endfacet
  facet normal 0 -0.999813 -0.0193297
    outer loop
      vertex -0.2 -6.5 -86
      vertex 0 -6.49884 -86.06
      vertex 0.2 -6.5 -86
    endloop
  endfacet
  facet normal -0 -0.999814 -0.0192804
    outer loop
      vertex -49.8 -6.21074 -101
      vertex -0.2 -6.5 -86
      vertex -50.2 -6.21074 -101
    endloop
  endfacet
  facet normal 7.42833e-06 -0.999814 -0.019305
    outer loop
      vertex -0.2 -6.5 -86
      vertex -49.8 -6.21074 -101
      vertex 0 -6.49884 -86.06
    endloop
  endfacet
  facet normal -7.42833e-06 -0.999814 -0.019305
    outer loop
      vertex 49.8 -6.21074 -101
      vertex 0.2 -6.5 -86
      vertex 0 -6.49884 -86.06
    endloop
  endfacet
  facet normal 0 -0.999814 -0.0192804
    outer loop
      vertex 0.2 -6.5 -86
      vertex 49.8 -6.21074 -101
      vertex 50.2 -6.21074 -101
    endloop
  endfacet
  facet normal -0 0 1
    outer loop
      vertex -0.2 6.5 204
      vertex 0.2 -6.5 204
      vertex 0.2 6.5 204
    endloop
  endfacet
  facet normal 0 0 1
    outer loop
      vertex 0.2 -6.5 204
      vertex -0.2 6.5 204
      vertex -0.2 -6.5 204
    endloop
  endfacet
  facet normal 0.0057851 -0.999983 0
    outer loop
      vertex 0.2 -6.5 -86
      vertex 50.2 -6.21074 183.333
      vertex 0.2 -6.5 204
    endloop
  endfacet
  facet normal 0.0057851 -0.999983 0
    outer loop
      vertex 50.2 -6.21074 183.333
      vertex 0.2 -6.5 -86
      vertex 50.2 -6.21074 -101
    endloop
  endfacet
  facet normal -0.287348 0 -0.957826
    outer loop
      vertex 0 -6.49884 -86.06
      vertex 49.8 6.21074 -101
      vertex 49.8 -6.21074 -101
    endloop
  endfacet
  facet normal -0.287348 0 -0.957826
    outer loop
      vertex 49.8 6.21074 -101
      vertex 0 -6.49884 -86.06
      vertex 0 6.49884 -86.06
    endloop
  endfacet
  facet normal 0 0.999813 -0.0193297
    outer loop
      vertex 0.2 6.5 -86
      vertex 0 6.49884 -86.06
      vertex -0.2 6.5 -86
    endloop
  endfacet
  facet normal 0 0.999814 -0.0192804
    outer loop
      vertex 49.8 6.21074 -101
      vertex 0.2 6.5 -86
      vertex 50.2 6.21074 -101
    endloop
  endfacet
  facet normal -7.42833e-06 0.999814 -0.019305
    outer loop
      vertex 0.2 6.5 -86
      vertex 49.8 6.21074 -101
      vertex 0 6.49884 -86.06
    endloop
  endfacet
  facet normal 7.42833e-06 0.999814 -0.019305
    outer loop
      vertex -49.8 6.21074 -101
      vertex -0.2 6.5 -86
      vertex 0 6.49884 -86.06
    endloop
  endfacet
  facet normal 0 0.999814 -0.0192804
    outer loop
      vertex -0.2 6.5 -86
      vertex -49.8 6.21074 -101
      vertex -50.2 6.21074 -101
    endloop
  endfacet
  facet normal 0.00578509 0.999983 -3.51693e-08
    outer loop
      vertex 50.2 6.21074 -101
      vertex 100.2 5.92149 162.667
      vertex 150.2 5.63223 142
    endloop
  endfacet
  facet normal 0.00578501 0.999983 1.79423e-08
    outer loop
      vertex 100.2 5.92149 -116
      vertex 150.2 5.63223 142
      vertex 250.2 5.05372 100.667
    endloop
  endfacet
  facet normal 0.00578504 0.999983 -0
    outer loop
      vertex 300.2 4.76446 -176
      vertex 300.2 4.76446 80
      vertex 450.2 3.89669 12.5
    endloop
  endfacet
  facet normal 0.00578504 0.999983 0
    outer loop
      vertex 150.2 5.63223 -131
      vertex 300.2 4.76446 80
      vertex 300.2 4.76446 -176
    endloop
  endfacet
  facet normal 0.00578509 0.999983 -3.82159e-08
    outer loop
      vertex 100.2 5.92149 -116
      vertex 250.2 5.05372 100.667
      vertex 150.2 5.63223 -131
    endloop
  endfacet
  facet normal 0.0057849 0.999983 0
    outer loop
      vertex 100.2 5.92149 162.667
      vertex 50.2 6.21074 -101
      vertex 50.2 6.21074 183.333
    endloop
  endfacet
  facet normal 0.00578491 0.999983 3.66294e-08
    outer loop
      vertex 150.2 5.63223 142
      vertex 100.2 5.92149 -116
      vertex 50.2 6.21074 -101
    endloop
  endfacet
  facet normal 0.00578509 0.999983 -3.66293e-08
    outer loop
      vertex 300.2 4.76446 80
      vertex 150.2 5.63223 -131
      vertex 250.2 5.05372 100.667
    endloop
  endfacet
  facet normal 0.00578504 0.999983 0
    outer loop
      vertex 300.2 4.76446 -176
      vertex 450.2 3.89669 12.5
      vertex 450.2 3.89669 -225.5
    endloop
  endfacet
  facet normal 0 -0.999814 -0.0192797
    outer loop
      vertex 99.8 -5.92149 -116
      vertex 50.2 -6.21074 -101
      vertex 49.8 -6.21074 -101
    endloop
  endfacet
  facet normal 0 -0.999814 -0.0192797
    outer loop
      vertex 50.2 -6.21074 -101
      vertex 99.8 -5.92149 -116
      vertex 100.2 -5.92149 -116
    endloop
  endfacet
  facet normal 0.0057849 -0.999983 0
    outer loop
      vertex 50.2 -6.21074 -101
      vertex 100.2 -5.92149 162.667
      vertex 50.2 -6.21074 183.333
    endloop
  endfacet
  facet normal 0.00578509 -0.999983 -3.51693e-08
    outer loop
      vertex 100.2 -5.92149 162.667
      vertex 50.2 -6.21074 -101
      vertex 150.2 -5.63223 142
    endloop
  endfacet
  facet normal 0.00578509 -0.999983 -3.66293e-08
    outer loop
      vertex 150.2 -5.63223 -131
      vertex 300.2 -4.76446 80
      vertex 250.2 -5.05372 100.667
    endloop
  endfacet
  facet normal 0.00578491 -0.999983 3.66294e-08
    outer loop
      vertex 100.2 -5.92149 -116
      vertex 150.2 -5.63223 142
      vertex 50.2 -6.21074 -101
    endloop
  endfacet
  facet normal 0.00578501 -0.999983 1.79423e-08
    outer loop
      vertex 150.2 -5.63223 142
      vertex 100.2 -5.92149 -116
      vertex 250.2 -5.05372 100.667
    endloop
  endfacet
  facet normal 0.00578509 -0.999983 -3.82159e-08
    outer loop
      vertex 250.2 -5.05372 100.667
      vertex 100.2 -5.92149 -116
      vertex 150.2 -5.63223 -131
    endloop
  endfacet
  facet normal 0.00578504 -0.999983 0
    outer loop
      vertex 300.2 -4.76446 80
      vertex 150.2 -5.63223 -131
      vertex 300.2 -4.76446 -176
    endloop
  endfacet
  facet normal 0.00578504 -0.999983 0
    outer loop
      vertex 300.2 -4.76446 80
      vertex 300.2 -4.76446 -176
      vertex 450.2 -3.89669 12.5
    endloop
  endfacet
  facet normal 0.00578504 -0.999983 0
    outer loop
      vertex 450.2 -3.89669 12.5
      vertex 300.2 -4.76446 -176
      vertex 450.2 -3.89669 -225.5
    endloop
  endfacet
  facet normal -0.287348 0 -0.957826
    outer loop
      vertex 49.8 -6.21074 -101
      vertex 99.8 5.92149 -116
      vertex 99.8 -5.92149 -116
    endloop
  endfacet
  facet normal -0.287348 0 -0.957826
    outer loop
      vertex 99.8 5.92149 -116
      vertex 49.8 -6.21074 -101
      vertex 49.8 6.21074 -101
    endloop
  endfacet
  facet normal 0 0.999814 -0.0192797
    outer loop
      vertex 99.8 5.92149 -116
      vertex 50.2 6.21074 -101
      vertex 100.2 5.92149 -116
    endloop
  endfacet
  facet normal 0 0.999814 -0.0192797
    outer loop
      vertex 50.2 6.21074 -101
      vertex 99.8 5.92149 -116
      vertex 49.8 6.21074 -101
    endloop
  endfacet
  facet normal 0.381994 0 0.924165
    outer loop
      vertex 100.2 5.92149 162.667
      vertex 150.2 -5.63223 142
      vertex 150.2 5.63223 142
    endloop
  endfacet
  facet normal 0.381994 0 0.924165
    outer loop
      vertex 150.2 -5.63223 142
      vertex 100.2 5.92149 162.667
      vertex 100.2 -5.92149 162.667
    endloop
  endfacet
  facet normal 0 -0.999814 -0.0192804
    outer loop
      vertex 149.8 -5.63223 -131
      vertex 100.2 -5.92149 -116
      vertex 99.8 -5.92149 -116
    endloop
  endfacet
  facet normal 0 -0.999814 -0.0192804
    outer loop
      vertex 100.2 -5.92149 -116
      vertex 149.8 -5.63223 -131
      vertex 150.2 -5.63223 -131
    endloop
  endfacet
  facet normal -0.287348 0 -0.957826
    outer loop
      vertex 99.8 -5.92149 -116
      vertex 149.8 5.63223 -131
      vertex 149.8 -5.63223 -131
    endloop
  endfacet
  facet normal -0.287348 0 -0.957826
    outer loop
      vertex 149.8 5.63223 -131
      vertex 99.8 -5.92149 -116
      vertex 99.8 5.92149 -116
    endloop
  endfacet
  facet normal 0 0.999814 -0.0192804
    outer loop
      vertex 149.8 5.63223 -131
      vertex 100.2 5.92149 -116
      vertex 150.2 5.63223 -131
    endloop
  endfacet
  facet normal 0 0.999814 -0.0192804
    outer loop
      vertex 100.2 5.92149 -116
      vertex 149.8 5.63223 -131
      vertex 99.8 5.92149 -116
    endloop
  endfacet
  facet normal 0.381986 0 0.924168
    outer loop
      vertex 150.2 5.63223 142
      vertex 250.2 -5.05372 100.667
      vertex 250.2 5.05372 100.667
    endloop
  endfacet
  facet normal 0.381986 0 0.924168
    outer loop
      vertex 250.2 -5.05372 100.667
      vertex 150.2 5.63223 142
      vertex 150.2 -5.63223 142
    endloop
  endfacet
  facet normal 0 -0.999814 -0.0192802
    outer loop
      vertex 299.8 -4.76446 -176
      vertex 150.2 -5.63223 -131
      vertex 149.8 -5.63223 -131
    endloop
  endfacet
  facet normal 0 -0.999814 -0.0192802
    outer loop
      vertex 150.2 -5.63223 -131
      vertex 299.8 -4.76446 -176
      vertex 300.2 -4.76446 -176
    endloop
  endfacet
  facet normal -0.287348 0 -0.957826
    outer loop
      vertex 149.8 -5.63223 -131
      vertex 299.8 4.76446 -176
      vertex 299.8 -4.76446 -176
    endloop
  endfacet
  facet normal -0.287348 0 -0.957826
    outer loop
      vertex 299.8 4.76446 -176
      vertex 149.8 -5.63223 -131
      vertex 149.8 5.63223 -131
    endloop
  endfacet
  facet normal 0 0.999814 -0.0192802
    outer loop
      vertex 299.8 4.76446 -176
      vertex 150.2 5.63223 -131
      vertex 300.2 4.76446 -176
    endloop
  endfacet
  facet normal 0 0.999814 -0.0192802
    outer loop
      vertex 150.2 5.63223 -131
      vertex 299.8 4.76446 -176
      vertex 149.8 5.63223 -131
    endloop
  endfacet
  facet normal 0.381994 0 0.924165
    outer loop
      vertex 250.2 5.05372 100.667
      vertex 300.2 -4.76446 80
      vertex 300.2 4.76446 80
    endloop
  endfacet
  facet normal 0.381994 0 0.924165
    outer loop
      vertex 300.2 -4.76446 80
      vertex 250.2 5.05372 100.667
      vertex 250.2 -5.05372 100.667
    endloop
  endfacet
  facet normal 0.410365 0 0.911922
    outer loop
      vertex 550.2 3.31818 -32.5
      vertex 605.2 -3 -57.25
      vertex 605.2 3 -57.25
    endloop
  endfacet
  facet normal 0.410365 0 0.911922
    outer loop
      vertex 550.2 3.31818 -32.5
      vertex 550.2 -3.31818 -32.5
      vertex 605.2 -3 -57.25
    endloop
  endfacet
  facet normal 0.410365 0 0.911922
    outer loop
      vertex 500.2 3.60744 -10
      vertex 550.2 -3.31818 -32.5
      vertex 550.2 3.31818 -32.5
    endloop
  endfacet
  facet normal 0.410365 0 0.911922
    outer loop
      vertex 500.2 3.60744 -10
      vertex 500.2 -3.60744 -10
      vertex 550.2 -3.31818 -32.5
    endloop
  endfacet
  facet normal 0.410365 0 0.911922
    outer loop
      vertex 450.2 3.89669 12.5
      vertex 500.2 -3.60744 -10
      vertex 500.2 3.60744 -10
    endloop
  endfacet
  facet normal 0.410365 0 0.911922
    outer loop
      vertex 450.2 3.89669 12.5
      vertex 450.2 -3.89669 12.5
      vertex 500.2 -3.60744 -10
    endloop
  endfacet
  facet normal 0.410365 0 0.911922
    outer loop
      vertex 300.2 4.76446 80
      vertex 450.2 -3.89669 12.5
      vertex 450.2 3.89669 12.5
    endloop
  endfacet
  facet normal 0.410365 0 0.911922
    outer loop
      vertex 450.2 -3.89669 12.5
      vertex 300.2 4.76446 80
      vertex 300.2 -4.76446 80
    endloop
  endfacet
  facet normal 0 -0.999846 -0.017528
    outer loop
      vertex 449.8 -3.89669 -225.5
      vertex 300.2 -4.76446 -176
      vertex 299.8 -4.76446 -176
    endloop
  endfacet
  facet normal 0 -0.999846 -0.017528
    outer loop
      vertex 300.2 -4.76446 -176
      vertex 449.8 -3.89669 -225.5
      vertex 450.2 -3.89669 -225.5
    endloop
  endfacet
  facet normal -0.313377 0 -0.949629
    outer loop
      vertex 549.8 -3.31818 -258.5
      vertex 599.8 3.02892 -275
      vertex 599.8 -3.02892 -275
    endloop
  endfacet
  facet normal -0.313377 0 -0.949629
    outer loop
      vertex 549.8 -3.31818 -258.5
      vertex 549.8 3.31818 -258.5
      vertex 599.8 3.02892 -275
    endloop
  endfacet
  facet normal -0.313377 0 -0.949629
    outer loop
      vertex 499.8 -3.60744 -242
      vertex 549.8 3.31818 -258.5
      vertex 549.8 -3.31818 -258.5
    endloop
  endfacet
  facet normal -0.313377 0 -0.949629
    outer loop
      vertex 499.8 -3.60744 -242
      vertex 499.8 3.60744 -242
      vertex 549.8 3.31818 -258.5
    endloop
  endfacet
  facet normal -0.313377 0 -0.949629
    outer loop
      vertex 449.8 -3.89669 -225.5
      vertex 499.8 3.60744 -242
      vertex 499.8 -3.60744 -242
    endloop
  endfacet
  facet normal -0.313377 0 -0.949629
    outer loop
      vertex 449.8 -3.89669 -225.5
      vertex 449.8 3.89669 -225.5
      vertex 499.8 3.60744 -242
    endloop
  endfacet
  facet normal -0.313377 0 -0.949629
    outer loop
      vertex 299.8 -4.76446 -176
      vertex 449.8 3.89669 -225.5
      vertex 449.8 -3.89669 -225.5
    endloop
  endfacet
  facet normal -0.313377 0 -0.949629
    outer loop
      vertex 449.8 3.89669 -225.5
      vertex 299.8 -4.76446 -176
      vertex 299.8 4.76446 -176
    endloop
  endfacet
  facet normal 0 0.999846 -0.017528
    outer loop
      vertex 449.8 3.89669 -225.5
      vertex 300.2 4.76446 -176
      vertex 450.2 3.89669 -225.5
    endloop
  endfacet
  facet normal 0 0.999846 -0.017528
    outer loop
      vertex 300.2 4.76446 -176
      vertex 449.8 3.89669 -225.5
      vertex 299.8 4.76446 -176
    endloop
  endfacet
  facet normal 0.0057849 0.999983 0
    outer loop
      vertex 500.2 3.60744 -10
      vertex 450.2 3.89669 -225.5
      vertex 450.2 3.89669 12.5
    endloop
  endfacet
  facet normal 0.0057849 0.999983 0
    outer loop
      vertex 450.2 3.89669 -225.5
      vertex 500.2 3.60744 -10
      vertex 500.2 3.60744 -242
    endloop
  endfacet
  facet normal 0 -0.999846 -0.0175276
    outer loop
      vertex 499.8 -3.60744 -242
      vertex 450.2 -3.89669 -225.5
      vertex 449.8 -3.89669 -225.5
    endloop
  endfacet
  facet normal 0 -0.999846 -0.0175276
    outer loop
      vertex 450.2 -3.89669 -225.5
      vertex 499.8 -3.60744 -242
      vertex 500.2 -3.60744 -242
    endloop
  endfacet
  facet normal 0.0057849 -0.999983 0
    outer loop
      vertex 450.2 -3.89669 -225.5
      vertex 500.2 -3.60744 -10
      vertex 450.2 -3.89669 12.5
    endloop
  endfacet
  facet normal 0.0057849 -0.999983 0
    outer loop
      vertex 500.2 -3.60744 -10
      vertex 450.2 -3.89669 -225.5
      vertex 500.2 -3.60744 -242
    endloop
  endfacet
  facet normal 0 0.999846 -0.0175276
    outer loop
      vertex 499.8 3.60744 -242
      vertex 450.2 3.89669 -225.5
      vertex 500.2 3.60744 -242
    endloop
  endfacet
  facet normal 0 0.999846 -0.0175276
    outer loop
      vertex 450.2 3.89669 -225.5
      vertex 499.8 3.60744 -242
      vertex 449.8 3.89669 -225.5
    endloop
  endfacet
  facet normal 0.0057851 0.999983 0
    outer loop
      vertex 550.2 3.31818 -32.5
      vertex 500.2 3.60744 -242
      vertex 500.2 3.60744 -10
    endloop
  endfacet
  facet normal 0.0057851 0.999983 0
    outer loop
      vertex 500.2 3.60744 -242
      vertex 550.2 3.31818 -32.5
      vertex 550.2 3.31818 -258.5
    endloop
  endfacet
  facet normal 0 -0.999846 -0.0175282
    outer loop
      vertex 549.8 -3.31818 -258.5
      vertex 500.2 -3.60744 -242
      vertex 499.8 -3.60744 -242
    endloop
  endfacet
  facet normal 0 -0.999846 -0.0175282
    outer loop
      vertex 500.2 -3.60744 -242
      vertex 549.8 -3.31818 -258.5
      vertex 550.2 -3.31818 -258.5
    endloop
  endfacet
  facet normal 0.0057851 -0.999983 0
    outer loop
      vertex 500.2 -3.60744 -242
      vertex 550.2 -3.31818 -32.5
      vertex 500.2 -3.60744 -10
    endloop
  endfacet
  facet normal 0.0057851 -0.999983 0
    outer loop
      vertex 550.2 -3.31818 -32.5
      vertex 500.2 -3.60744 -242
      vertex 550.2 -3.31818 -258.5
    endloop
  endfacet
  facet normal 0 0.999846 -0.0175282
    outer loop
      vertex 549.8 3.31818 -258.5
      vertex 500.2 3.60744 -242
      vertex 550.2 3.31818 -258.5
    endloop
  endfacet
  facet normal 0 0.999846 -0.0175282
    outer loop
      vertex 500.2 3.60744 -242
      vertex 549.8 3.31818 -258.5
      vertex 499.8 3.60744 -242
    endloop
  endfacet
  facet normal 1 -0 0
    outer loop
      vertex 605.2 -3 -57.25
      vertex 605.2 3 -276.65
      vertex 605.2 3 -57.25
    endloop
  endfacet
  facet normal 1 0 0
    outer loop
      vertex 605.2 3 -276.65
      vertex 605.2 -3 -57.25
      vertex 605.2 -3 -276.65
    endloop
  endfacet
  facet normal 0 0 -1
    outer loop
      vertex 604.8 -3 -276.65
      vertex 605.2 3 -276.65
      vertex 605.2 -3 -276.65
    endloop
  endfacet
  facet normal -0 0 -1
    outer loop
      vertex 605.2 3 -276.65
      vertex 604.8 -3 -276.65
      vertex 604.8 3 -276.65
    endloop
  endfacet
  facet normal 0.00578499 0.999983 0
    outer loop
      vertex 605.2 3 -57.25
      vertex 550.2 3.31818 -258.5
      vertex 550.2 3.31818 -32.5
    endloop
  endfacet
  facet normal 0.00578499 0.999983 0
    outer loop
      vertex 550.2 3.31818 -258.5
      vertex 605.2 3 -57.25
      vertex 605.2 3 -276.65
    endloop
  endfacet
  facet normal 0 -0.999846 -0.0175279
    outer loop
      vertex 604.8 -3 -276.65
      vertex 550.2 -3.31818 -258.5
      vertex 549.8 -3.31818 -258.5
    endloop
  endfacet
  facet normal 0 -0.999846 -0.0175279
    outer loop
      vertex 550.2 -3.31818 -258.5
      vertex 604.8 -3 -276.65
      vertex 605.2 -3 -276.65
    endloop
  endfacet
  facet normal 0.00578499 -0.999983 0
    outer loop
      vertex 550.2 -3.31818 -258.5
      vertex 605.2 -3 -57.25
      vertex 550.2 -3.31818 -32.5
    endloop
  endfacet
  facet normal 0.00578499 -0.999983 0
    outer loop
      vertex 605.2 -3 -57.25
      vertex 550.2 -3.31818 -258.5
      vertex 605.2 -3 -276.65
    endloop
  endfacet
  facet normal -0.313377 0 -0.949629
    outer loop
      vertex 604.8 -3 -276.65
      vertex 599.8 -3.02892 -275
      vertex 604.8 3 -276.65
    endloop
  endfacet
  facet normal -0.313377 -3.59868e-09 -0.949629
    outer loop
      vertex 599.8 -3.02892 -275
      vertex 604.8 -3 -276.65
      vertex 549.8 -3.31818 -258.5
    endloop
  endfacet
  facet normal -0.313377 -0 -0.949629
    outer loop
      vertex 599.8 3.02892 -275
      vertex 604.8 3 -276.65
      vertex 599.8 -3.02892 -275
    endloop
  endfacet
  facet normal -0.313377 3.59868e-09 -0.949629
    outer loop
      vertex 604.8 3 -276.65
      vertex 599.8 3.02892 -275
      vertex 549.8 3.31818 -258.5
    endloop
  endfacet
  facet normal 0 0.999846 -0.0175279
    outer loop
      vertex 604.8 3 -276.65
      vertex 550.2 3.31818 -258.5
      vertex 605.2 3 -276.65
    endloop
  endfacet
  facet normal 0 0.999846 -0.0175279
    outer loop
      vertex 550.2 3.31818 -258.5
      vertex 604.8 3 -276.65
      vertex 549.8 3.31818 -258.5
    endloop
  endfacet
  facet normal -0.381994 0 0.924165
    outer loop
      vertex -50.2 6.21074 183.333
      vertex -0.2 -6.5 204
      vertex -0.2 6.5 204
    endloop
  endfacet
  facet normal -0.381994 0 0.924165
    outer loop
      vertex -50.2 6.21074 183.333
      vertex -50.2 -6.21074 183.333
      vertex -0.2 -6.5 204
    endloop
  endfacet
  facet normal -0.381978 0 0.924171
    outer loop
      vertex -100.2 5.92149 162.667
      vertex -50.2 -6.21074 183.333
      vertex -50.2 6.21074 183.333
    endloop
  endfacet
  facet normal -0.381978 0 0.924171
    outer loop
      vertex -50.2 -6.21074 183.333
      vertex -100.2 5.92149 162.667
      vertex -100.2 -5.92149 162.667
    endloop
  endfacet
  facet normal -0.0057851 0.999983 0
    outer loop
      vertex -0.2 6.5 -86
      vertex -50.2 6.21074 183.333
      vertex -0.2 6.5 204
    endloop
  endfacet
  facet normal -0.0057851 0.999983 0
    outer loop
      vertex -50.2 6.21074 183.333
      vertex -0.2 6.5 -86
      vertex -50.2 6.21074 -101
    endloop
  endfacet
  facet normal -0.0057851 -0.999983 0
    outer loop
      vertex -50.2 -6.21074 183.333
      vertex -0.2 -6.5 -86
      vertex -0.2 -6.5 204
    endloop
  endfacet
  facet normal -0.0057851 -0.999983 0
    outer loop
      vertex -0.2 -6.5 -86
      vertex -50.2 -6.21074 183.333
      vertex -50.2 -6.21074 -101
    endloop
  endfacet
  facet normal 0.287348 0 -0.957826
    outer loop
      vertex -49.8 -6.21074 -101
      vertex 0 6.49884 -86.06
      vertex 0 -6.49884 -86.06
    endloop
  endfacet
  facet normal 0.287348 0 -0.957826
    outer loop
      vertex 0 6.49884 -86.06
      vertex -49.8 -6.21074 -101
      vertex -49.8 6.21074 -101
    endloop
  endfacet
  facet normal -0.0057849 0.999983 0
    outer loop
      vertex -50.2 6.21074 -101
      vertex -100.2 5.92149 162.667
      vertex -50.2 6.21074 183.333
    endloop
  endfacet
  facet normal -0.00578509 0.999983 -3.51693e-08
    outer loop
      vertex -100.2 5.92149 162.667
      vertex -50.2 6.21074 -101
      vertex -150.2 5.63223 142
    endloop
  endfacet
  facet normal -0.00578509 0.999983 -3.66293e-08
    outer loop
      vertex -150.2 5.63223 -131
      vertex -300.2 4.76446 80
      vertex -250.2 5.05372 100.667
    endloop
  endfacet
  facet normal -0.00578491 0.999983 3.66294e-08
    outer loop
      vertex -100.2 5.92149 -116
      vertex -150.2 5.63223 142
      vertex -50.2 6.21074 -101
    endloop
  endfacet
  facet normal -0.00578501 0.999983 1.79423e-08
    outer loop
      vertex -150.2 5.63223 142
      vertex -100.2 5.92149 -116
      vertex -250.2 5.05372 100.667
    endloop
  endfacet
  facet normal -0.00578509 0.999983 -3.82159e-08
    outer loop
      vertex -250.2 5.05372 100.667
      vertex -100.2 5.92149 -116
      vertex -150.2 5.63223 -131
    endloop
  endfacet
  facet normal -0.00578504 0.999983 0
    outer loop
      vertex -300.2 4.76446 80
      vertex -150.2 5.63223 -131
      vertex -300.2 4.76446 -176
    endloop
  endfacet
  facet normal -0.00578504 0.999983 0
    outer loop
      vertex -300.2 4.76446 80
      vertex -300.2 4.76446 -176
      vertex -450.2 3.89669 12.5
    endloop
  endfacet
  facet normal -0.00578504 0.999983 0
    outer loop
      vertex -450.2 3.89669 12.5
      vertex -300.2 4.76446 -176
      vertex -450.2 3.89669 -225.5
    endloop
  endfacet
  facet normal -0 -0.999814 -0.0192797
    outer loop
      vertex -99.8 -5.92149 -116
      vertex -50.2 -6.21074 -101
      vertex -100.2 -5.92149 -116
    endloop
  endfacet
  facet normal 0 -0.999814 -0.0192797
    outer loop
      vertex -50.2 -6.21074 -101
      vertex -99.8 -5.92149 -116
      vertex -49.8 -6.21074 -101
    endloop
  endfacet
  facet normal -0.00578509 -0.999983 -3.51693e-08
    outer loop
      vertex -50.2 -6.21074 -101
      vertex -100.2 -5.92149 162.667
      vertex -150.2 -5.63223 142
    endloop
  endfacet
  facet normal -0.00578501 -0.999983 1.79423e-08
    outer loop
      vertex -100.2 -5.92149 -116
      vertex -150.2 -5.63223 142
      vertex -250.2 -5.05372 100.667
    endloop
  endfacet
  facet normal -0.00578504 -0.999983 0
    outer loop
      vertex -300.2 -4.76446 -176
      vertex -300.2 -4.76446 80
      vertex -450.2 -3.89669 12.5
    endloop
  endfacet
  facet normal -0.00578504 -0.999983 0
    outer loop
      vertex -150.2 -5.63223 -131
      vertex -300.2 -4.76446 80
      vertex -300.2 -4.76446 -176
    endloop
  endfacet
  facet normal -0.00578509 -0.999983 -3.82159e-08
    outer loop
      vertex -100.2 -5.92149 -116
      vertex -250.2 -5.05372 100.667
      vertex -150.2 -5.63223 -131
    endloop
  endfacet
  facet normal -0.0057849 -0.999983 0
    outer loop
      vertex -100.2 -5.92149 162.667
      vertex -50.2 -6.21074 -101
      vertex -50.2 -6.21074 183.333
    endloop
  endfacet
  facet normal -0.00578491 -0.999983 3.66294e-08
    outer loop
      vertex -150.2 -5.63223 142
      vertex -100.2 -5.92149 -116
      vertex -50.2 -6.21074 -101
    endloop
  endfacet
  facet normal -0.00578509 -0.999983 -3.66293e-08
    outer loop
      vertex -300.2 -4.76446 80
      vertex -150.2 -5.63223 -131
      vertex -250.2 -5.05372 100.667
    endloop
  endfacet
  facet normal -0.00578504 -0.999983 0
    outer loop
      vertex -300.2 -4.76446 -176
      vertex -450.2 -3.89669 12.5
      vertex -450.2 -3.89669 -225.5
    endloop
  endfacet
  facet normal 0.287348 0 -0.957826
    outer loop
      vertex -99.8 -5.92149 -116
      vertex -49.8 6.21074 -101
      vertex -49.8 -6.21074 -101
    endloop
  endfacet
  facet normal 0.287348 0 -0.957826
    outer loop
      vertex -49.8 6.21074 -101
      vertex -99.8 -5.92149 -116
      vertex -99.8 5.92149 -116
    endloop
  endfacet
  facet normal 0 0.999814 -0.0192797
    outer loop
      vertex -99.8 5.92149 -116
      vertex -50.2 6.21074 -101
      vertex -49.8 6.21074 -101
    endloop
  endfacet
  facet normal 0 0.999814 -0.0192797
    outer loop
      vertex -50.2 6.21074 -101
      vertex -99.8 5.92149 -116
      vertex -100.2 5.92149 -116
    endloop
  endfacet
  facet normal -0.381994 0 0.924165
    outer loop
      vertex -150.2 5.63223 142
      vertex -100.2 -5.92149 162.667
      vertex -100.2 5.92149 162.667
    endloop
  endfacet
  facet normal -0.381994 0 0.924165
    outer loop
      vertex -100.2 -5.92149 162.667
      vertex -150.2 5.63223 142
      vertex -150.2 -5.63223 142
    endloop
  endfacet
  facet normal -0 -0.999814 -0.0192804
    outer loop
      vertex -149.8 -5.63223 -131
      vertex -100.2 -5.92149 -116
      vertex -150.2 -5.63223 -131
    endloop
  endfacet
  facet normal 0 -0.999814 -0.0192804
    outer loop
      vertex -100.2 -5.92149 -116
      vertex -149.8 -5.63223 -131
      vertex -99.8 -5.92149 -116
    endloop
  endfacet
  facet normal 0.287348 0 -0.957826
    outer loop
      vertex -149.8 -5.63223 -131
      vertex -99.8 5.92149 -116
      vertex -99.8 -5.92149 -116
    endloop
  endfacet
  facet normal 0.287348 0 -0.957826
    outer loop
      vertex -99.8 5.92149 -116
      vertex -149.8 -5.63223 -131
      vertex -149.8 5.63223 -131
    endloop
  endfacet
  facet normal 0 0.999814 -0.0192804
    outer loop
      vertex -149.8 5.63223 -131
      vertex -100.2 5.92149 -116
      vertex -99.8 5.92149 -116
    endloop
  endfacet
  facet normal 0 0.999814 -0.0192804
    outer loop
      vertex -100.2 5.92149 -116
      vertex -149.8 5.63223 -131
      vertex -150.2 5.63223 -131
    endloop
  endfacet
  facet normal -0.381986 0 0.924168
    outer loop
      vertex -250.2 5.05372 100.667
      vertex -150.2 -5.63223 142
      vertex -150.2 5.63223 142
    endloop
  endfacet
  facet normal -0.381986 0 0.924168
    outer loop
      vertex -150.2 -5.63223 142
      vertex -250.2 5.05372 100.667
      vertex -250.2 -5.05372 100.667
    endloop
  endfacet
  facet normal -0 -0.999814 -0.0192802
    outer loop
      vertex -299.8 -4.76446 -176
      vertex -150.2 -5.63223 -131
      vertex -300.2 -4.76446 -176
    endloop
  endfacet
  facet normal 0 -0.999814 -0.0192802
    outer loop
      vertex -150.2 -5.63223 -131
      vertex -299.8 -4.76446 -176
      vertex -149.8 -5.63223 -131
    endloop
  endfacet
  facet normal 0.287348 0 -0.957826
    outer loop
      vertex -299.8 -4.76446 -176
      vertex -149.8 5.63223 -131
      vertex -149.8 -5.63223 -131
    endloop
  endfacet
  facet normal 0.287348 0 -0.957826
    outer loop
      vertex -149.8 5.63223 -131
      vertex -299.8 -4.76446 -176
      vertex -299.8 4.76446 -176
    endloop
  endfacet
  facet normal 0 0.999814 -0.0192802
    outer loop
      vertex -299.8 4.76446 -176
      vertex -150.2 5.63223 -131
      vertex -149.8 5.63223 -131
    endloop
  endfacet
  facet normal 0 0.999814 -0.0192802
    outer loop
      vertex -150.2 5.63223 -131
      vertex -299.8 4.76446 -176
      vertex -300.2 4.76446 -176
    endloop
  endfacet
  facet normal -0.381994 0 0.924165
    outer loop
      vertex -300.2 4.76446 80
      vertex -250.2 -5.05372 100.667
      vertex -250.2 5.05372 100.667
    endloop
  endfacet
  facet normal -0.381994 0 0.924165
    outer loop
      vertex -250.2 -5.05372 100.667
      vertex -300.2 4.76446 80
      vertex -300.2 -4.76446 80
    endloop
  endfacet
  facet normal -0.410365 0 0.911922
    outer loop
      vertex -450.2 3.89669 12.5
      vertex -300.2 -4.76446 80
      vertex -300.2 4.76446 80
    endloop
  endfacet
  facet normal -0.410365 0 0.911922
    outer loop
      vertex -450.2 3.89669 12.5
      vertex -450.2 -3.89669 12.5
      vertex -300.2 -4.76446 80
    endloop
  endfacet
  facet normal -0.410365 0 0.911922
    outer loop
      vertex -500.2 3.60744 -10
      vertex -450.2 -3.89669 12.5
      vertex -450.2 3.89669 12.5
    endloop
  endfacet
  facet normal -0.410365 0 0.911922
    outer loop
      vertex -500.2 3.60744 -10
      vertex -500.2 -3.60744 -10
      vertex -450.2 -3.89669 12.5
    endloop
  endfacet
  facet normal -0.410365 0 0.911922
    outer loop
      vertex -550.2 3.31818 -32.5
      vertex -500.2 -3.60744 -10
      vertex -500.2 3.60744 -10
    endloop
  endfacet
  facet normal -0.410365 0 0.911922
    outer loop
      vertex -550.2 3.31818 -32.5
      vertex -550.2 -3.31818 -32.5
      vertex -500.2 -3.60744 -10
    endloop
  endfacet
  facet normal -0.410365 0 0.911922
    outer loop
      vertex -605.2 3 -57.25
      vertex -550.2 -3.31818 -32.5
      vertex -550.2 3.31818 -32.5
    endloop
  endfacet
  facet normal -0.410365 0 0.911922
    outer loop
      vertex -550.2 -3.31818 -32.5
      vertex -605.2 3 -57.25
      vertex -605.2 -3 -57.25
    endloop
  endfacet
  facet normal -0 -0.999846 -0.017528
    outer loop
      vertex -449.8 -3.89669 -225.5
      vertex -300.2 -4.76446 -176
      vertex -450.2 -3.89669 -225.5
    endloop
  endfacet
  facet normal 0 -0.999846 -0.017528
    outer loop
      vertex -300.2 -4.76446 -176
      vertex -449.8 -3.89669 -225.5
      vertex -299.8 -4.76446 -176
    endloop
  endfacet
  facet normal 0.313377 0 -0.949629
    outer loop
      vertex -449.8 -3.89669 -225.5
      vertex -299.8 4.76446 -176
      vertex -299.8 -4.76446 -176
    endloop
  endfacet
  facet normal 0.313377 0 -0.949629
    outer loop
      vertex -449.8 -3.89669 -225.5
      vertex -449.8 3.89669 -225.5
      vertex -299.8 4.76446 -176
    endloop
  endfacet
  facet normal 0.313377 0 -0.949629
    outer loop
      vertex -499.8 -3.60744 -242
      vertex -449.8 3.89669 -225.5
      vertex -449.8 -3.89669 -225.5
    endloop
  endfacet
  facet normal 0.313377 0 -0.949629
    outer loop
      vertex -499.8 -3.60744 -242
      vertex -499.8 3.60744 -242
      vertex -449.8 3.89669 -225.5
    endloop
  endfacet
  facet normal 0.313377 0 -0.949629
    outer loop
      vertex -549.8 -3.31818 -258.5
      vertex -499.8 3.60744 -242
      vertex -499.8 -3.60744 -242
    endloop
  endfacet
  facet normal 0.313377 0 -0.949629
    outer loop
      vertex -549.8 -3.31818 -258.5
      vertex -549.8 3.31818 -258.5
      vertex -499.8 3.60744 -242
    endloop
  endfacet
  facet normal 0.313377 0 -0.949629
    outer loop
      vertex -599.8 -3.02892 -275
      vertex -549.8 3.31818 -258.5
      vertex -549.8 -3.31818 -258.5
    endloop
  endfacet
  facet normal 0.313377 0 -0.949629
    outer loop
      vertex -549.8 3.31818 -258.5
      vertex -599.8 -3.02892 -275
      vertex -599.8 3.02892 -275
    endloop
  endfacet
  facet normal 0 0.999846 -0.017528
    outer loop
      vertex -449.8 3.89669 -225.5
      vertex -300.2 4.76446 -176
      vertex -299.8 4.76446 -176
    endloop
  endfacet
  facet normal 0 0.999846 -0.017528
    outer loop
      vertex -300.2 4.76446 -176
      vertex -449.8 3.89669 -225.5
      vertex -450.2 3.89669 -225.5
    endloop
  endfacet
  facet normal -0.0057849 0.999983 0
    outer loop
      vertex -450.2 3.89669 -225.5
      vertex -500.2 3.60744 -10
      vertex -450.2 3.89669 12.5
    endloop
  endfacet
  facet normal -0.0057849 0.999983 0
    outer loop
      vertex -500.2 3.60744 -10
      vertex -450.2 3.89669 -225.5
      vertex -500.2 3.60744 -242
    endloop
  endfacet
  facet normal -0 -0.999846 -0.0175276
    outer loop
      vertex -499.8 -3.60744 -242
      vertex -450.2 -3.89669 -225.5
      vertex -500.2 -3.60744 -242
    endloop
  endfacet
  facet normal 0 -0.999846 -0.0175276
    outer loop
      vertex -450.2 -3.89669 -225.5
      vertex -499.8 -3.60744 -242
      vertex -449.8 -3.89669 -225.5
    endloop
  endfacet
  facet normal -0.0057849 -0.999983 0
    outer loop
      vertex -500.2 -3.60744 -10
      vertex -450.2 -3.89669 -225.5
      vertex -450.2 -3.89669 12.5
    endloop
  endfacet
  facet normal -0.0057849 -0.999983 0
    outer loop
      vertex -450.2 -3.89669 -225.5
      vertex -500.2 -3.60744 -10
      vertex -500.2 -3.60744 -242
    endloop
  endfacet
  facet normal 0 0.999846 -0.0175276
    outer loop
      vertex -499.8 3.60744 -242
      vertex -450.2 3.89669 -225.5
      vertex -449.8 3.89669 -225.5
    endloop
  endfacet
  facet normal 0 0.999846 -0.0175276
    outer loop
      vertex -450.2 3.89669 -225.5
      vertex -499.8 3.60744 -242
      vertex -500.2 3.60744 -242
    endloop
  endfacet
  facet normal -0.0057851 0.999983 0
    outer loop
      vertex -500.2 3.60744 -242
      vertex -550.2 3.31818 -32.5
      vertex -500.2 3.60744 -10
    endloop
  endfacet
  facet normal -0.0057851 0.999983 0
    outer loop
      vertex -550.2 3.31818 -32.5
      vertex -500.2 3.60744 -242
      vertex -550.2 3.31818 -258.5
    endloop
  endfacet
  facet normal -0 -0.999846 -0.0175282
    outer loop
      vertex -549.8 -3.31818 -258.5
      vertex -500.2 -3.60744 -242
      vertex -550.2 -3.31818 -258.5
    endloop
  endfacet
  facet normal 0 -0.999846 -0.0175282
    outer loop
      vertex -500.2 -3.60744 -242
      vertex -549.8 -3.31818 -258.5
      vertex -499.8 -3.60744 -242
    endloop
  endfacet
  facet normal -0.0057851 -0.999983 0
    outer loop
      vertex -550.2 -3.31818 -32.5
      vertex -500.2 -3.60744 -242
      vertex -500.2 -3.60744 -10
    endloop
  endfacet
  facet normal -0.0057851 -0.999983 0
    outer loop
      vertex -500.2 -3.60744 -242
      vertex -550.2 -3.31818 -32.5
      vertex -550.2 -3.31818 -258.5
    endloop
  endfacet
  facet normal 0 0.999846 -0.0175282
    outer loop
      vertex -549.8 3.31818 -258.5
      vertex -500.2 3.60744 -242
      vertex -499.8 3.60744 -242
    endloop
  endfacet
  facet normal 0 0.999846 -0.0175282
    outer loop
      vertex -500.2 3.60744 -242
      vertex -549.8 3.31818 -258.5
      vertex -550.2 3.31818 -258.5
    endloop
  endfacet
  facet normal -1 0 0
    outer loop
      vertex -605.2 -3 -276.65
      vertex -605.2 3 -57.25
      vertex -605.2 3 -276.65
    endloop
  endfacet
  facet normal -1 -0 0
    outer loop
      vertex -605.2 3 -57.25
      vertex -605.2 -3 -276.65
      vertex -605.2 -3 -57.25
    endloop
  endfacet
  facet normal 0 0 -1
    outer loop
      vertex -605.2 -3 -276.65
      vertex -604.8 3 -276.65
      vertex -604.8 -3 -276.65
    endloop
  endfacet
  facet normal -0 0 -1
    outer loop
      vertex -604.8 3 -276.65
      vertex -605.2 -3 -276.65
      vertex -605.2 3 -276.65
    endloop
  endfacet
  facet normal -0.00578499 0.999983 0
    outer loop
      vertex -550.2 3.31818 -258.5
      vertex -605.2 3 -57.25
      vertex -550.2 3.31818 -32.5
    endloop
  endfacet
  facet normal -0.00578499 0.999983 0
    outer loop
      vertex -605.2 3 -57.25
      vertex -550.2 3.31818 -258.5
      vertex -605.2 3 -276.65
    endloop
  endfacet
  facet normal -0 -0.999846 -0.0175279
    outer loop
      vertex -604.8 -3 -276.65
      vertex -550.2 -3.31818 -258.5
      vertex -605.2 -3 -276.65
    endloop
  endfacet
  facet normal 0 -0.999846 -0.0175279
    outer loop
      vertex -550.2 -3.31818 -258.5
      vertex -604.8 -3 -276.65
      vertex -549.8 -3.31818 -258.5
    endloop
  endfacet
  facet normal -0.00578499 -0.999983 0
    outer loop
      vertex -605.2 -3 -57.25
      vertex -550.2 -3.31818 -258.5
      vertex -550.2 -3.31818 -32.5
    endloop
  endfacet
  facet normal -0.00578499 -0.999983 0
    outer loop
      vertex -550.2 -3.31818 -258.5
      vertex -605.2 -3 -57.25
      vertex -605.2 -3 -276.65
    endloop
  endfacet
  facet normal 0.313377 0 -0.949629
    outer loop
      vertex -599.8 -3.02892 -275
      vertex -604.8 -3 -276.65
      vertex -599.8 3.02892 -275
    endloop
  endfacet
  facet normal 0.313377 -3.59868e-09 -0.949629
    outer loop
      vertex -604.8 -3 -276.65
      vertex -599.8 -3.02892 -275
      vertex -549.8 -3.31818 -258.5
    endloop
  endfacet
  facet normal 0.313377 3.59868e-09 -0.949629
    outer loop
      vertex -599.8 3.02892 -275
      vertex -604.8 3 -276.65
      vertex -549.8 3.31818 -258.5
    endloop
  endfacet
  facet normal 0.313377 0 -0.949629
    outer loop
      vertex -604.8 3 -276.65
      vertex -599.8 3.02892 -275
      vertex -604.8 -3 -276.65
    endloop
  endfacet
  facet normal 0 0.999846 -0.0175279
    outer loop
      vertex -604.8 3 -276.65
      vertex -550.2 3.31818 -258.5
      vertex -549.8 3.31818 -258.5
    endloop
  endfacet
  facet normal 0 0.999846 -0.0175279
    outer loop
      vertex -550.2 3.31818 -258.5
      vertex -604.8 3 -276.65
      vertex -605.2 3 -276.65
    endloop
  endfacet
endsolid OpenSCAD_Model
